<svg xmlns="http://www.w3.org/2000/svg" xmlns:xlink="http://www.w3.org/1999/xlink" width="1198" zoomAndPan="magnify" viewBox="0 0 898.5 253.499997" height="338" preserveAspectRatio="xMidYMid meet" version="1.0"><defs><g/><clipPath id="23dfac7ee6"><path d="M 405 29 L 468 29 L 468 61 L 405 61 Z M 405 29 " clip-rule="nonzero"/></clipPath><clipPath id="262da6ecaf"><path d="M 402.734375 49.125 L 467.503906 25.742188 L 475.386719 47.566406 L 410.613281 70.953125 Z M 402.734375 49.125 " clip-rule="nonzero"/></clipPath><clipPath id="5bf04e1ea1"><path d="M 402.734375 49.125 L 467.503906 25.742188 L 475.386719 47.566406 L 410.613281 70.953125 Z M 402.734375 49.125 " clip-rule="nonzero"/></clipPath><clipPath id="e506a1db30"><path d="M 405 29 L 473 29 L 473 66 L 405 66 Z M 405 29 " clip-rule="nonzero"/></clipPath><clipPath id="5f0dcd6c75"><path d="M 402.734375 49.125 L 467.503906 25.742188 L 475.386719 47.566406 L 410.613281 70.953125 Z M 402.734375 49.125 " clip-rule="nonzero"/></clipPath><clipPath id="c310851730"><path d="M 402.734375 49.125 L 467.503906 25.742188 L 475.386719 47.566406 L 410.613281 70.953125 Z M 402.734375 49.125 " clip-rule="nonzero"/></clipPath><clipPath id="95a39e98a1"><path d="M 562.050781 52.355469 L 883.914062 52.355469 L 883.914062 102.507812 L 562.050781 102.507812 Z M 562.050781 52.355469 " clip-rule="nonzero"/></clipPath></defs><g clip-path="url(#23dfac7ee6)"><g clip-path="url(#262da6ecaf)"><g clip-path="url(#5bf04e1ea1)"><path fill="#a91b60" d="M 420.484375 60.304688 L 405.824219 55.738281 L 407.738281 49.59375 L 417.742188 52.710938 L 424.777344 41.878906 L 437.109375 45.71875 L 444.144531 34.886719 L 456.476562 38.726562 L 462.183594 29.9375 L 467.582031 33.441406 L 459.21875 46.320312 L 446.886719 42.480469 L 439.851562 53.3125 L 427.519531 49.472656 Z M 420.484375 60.304688 L 405.824219 55.738281 L 407.738281 49.59375 L 417.742188 52.710938 L 424.777344 41.878906 L 437.109375 45.71875 L 444.144531 34.886719 L 456.476562 38.726562 L 462.183594 29.9375 L 467.582031 33.441406 L 459.21875 46.320312 L 446.886719 42.480469 L 439.851562 53.3125 L 427.519531 49.472656 Z M 420.484375 60.304688 " fill-opacity="1" fill-rule="nonzero"/></g></g></g><g clip-path="url(#e506a1db30)"><g clip-path="url(#5f0dcd6c75)"><g clip-path="url(#c310851730)"><path fill="#6d123f" d="M 471.949219 37.878906 L 467.339844 34.882812 L 468.070312 33.761719 C 468.15625 33.628906 468.183594 33.472656 468.152344 33.320312 C 468.121094 33.167969 468.03125 33.035156 467.898438 32.953125 L 462.503906 29.445312 C 462.230469 29.269531 461.871094 29.347656 461.691406 29.617188 L 456.226562 38.035156 L 444.316406 34.328125 C 444.066406 34.25 443.792969 34.347656 443.652344 34.566406 L 436.859375 45.027344 L 424.949219 41.320312 C 424.699219 41.242188 424.429688 41.339844 424.285156 41.558594 L 417.492188 52.019531 L 407.914062 49.035156 C 407.765625 48.988281 407.605469 49.003906 407.46875 49.078125 C 407.332031 49.148438 407.226562 49.273438 407.179688 49.421875 L 405.265625 55.566406 C 405.171875 55.875 405.34375 56.203125 405.652344 56.296875 L 410.183594 57.710938 L 409.320312 60.492188 C 409.222656 60.800781 409.394531 61.128906 409.703125 61.222656 L 424.363281 65.789062 C 424.488281 65.828125 424.617188 65.824219 424.734375 65.78125 C 424.851562 65.738281 424.957031 65.660156 425.027344 65.550781 L 431.820312 55.089844 L 443.726562 58.796875 C 443.976562 58.875 444.25 58.777344 444.390625 58.558594 L 451.183594 48.097656 L 463.09375 51.804688 C 463.34375 51.882812 463.617188 51.785156 463.757812 51.566406 L 472.121094 38.6875 C 472.207031 38.558594 472.234375 38.398438 472.203125 38.246094 C 472.171875 38.09375 472.082031 37.960938 471.949219 37.878906 Z M 408.125 50.328125 L 417.570312 53.269531 C 417.820312 53.347656 418.089844 53.25 418.234375 53.027344 L 425.027344 42.566406 L 436.933594 46.277344 C 437.183594 46.355469 437.457031 46.257812 437.597656 46.039062 L 444.390625 35.578125 L 456.300781 39.285156 C 456.550781 39.363281 456.824219 39.265625 456.964844 39.042969 L 462.355469 30.746094 L 466.769531 33.613281 L 458.96875 45.628906 L 447.058594 41.921875 C 446.808594 41.84375 446.535156 41.941406 446.394531 42.160156 L 439.601562 52.621094 L 427.691406 48.914062 C 427.441406 48.835938 427.171875 48.933594 427.027344 49.152344 L 420.234375 59.613281 L 406.558594 55.355469 Z M 408.125 50.328125 " fill-opacity="1" fill-rule="nonzero"/></g></g></g><path fill="#fdf7f7" d="M 858.773438 101.21875 L 586.996094 101.21875 C 573.777344 101.21875 563.0625 90.503906 563.0625 77.285156 C 563.0625 64.070312 573.777344 53.355469 586.996094 53.355469 L 858.773438 53.355469 C 871.988281 53.355469 882.703125 64.066406 882.703125 77.285156 C 882.703125 90.503906 871.992188 101.21875 858.773438 101.21875 Z M 858.773438 101.21875 " fill-opacity="1" fill-rule="nonzero"/><g clip-path="url(#95a39e98a1)"><path fill="#182739" d="M 858.773438 102.234375 L 586.996094 102.234375 C 573.238281 102.234375 562.046875 91.042969 562.046875 77.285156 C 562.046875 63.53125 573.238281 52.339844 586.996094 52.339844 L 858.773438 52.339844 C 872.53125 52.339844 883.722656 63.53125 883.722656 77.285156 C 883.722656 91.042969 872.53125 102.234375 858.773438 102.234375 Z M 586.996094 54.371094 C 574.359375 54.371094 564.082031 64.648438 564.082031 77.285156 C 564.082031 89.921875 574.359375 100.199219 586.996094 100.199219 L 858.773438 100.199219 C 871.40625 100.199219 881.6875 89.921875 881.6875 77.285156 C 881.6875 64.648438 871.410156 54.371094 858.773438 54.371094 Z M 586.996094 54.371094 " fill-opacity="1" fill-rule="nonzero"/></g><path fill="#182739" d="M 581.859375 89.6875 C 581.597656 89.6875 581.339844 89.589844 581.140625 89.390625 C 580.742188 88.992188 580.742188 88.347656 581.140625 87.953125 L 591.183594 77.910156 C 591.582031 77.511719 592.222656 77.511719 592.621094 77.910156 C 593.019531 78.308594 593.019531 78.949219 592.621094 79.347656 L 582.578125 89.390625 C 582.378906 89.589844 582.121094 89.6875 581.859375 89.6875 Z M 581.859375 89.6875 " fill-opacity="1" fill-rule="nonzero"/><path fill="#a91b60" d="M 604.628906 73.246094 C 604.628906 73.726562 604.582031 74.203125 604.488281 74.675781 C 604.394531 75.148438 604.253906 75.609375 604.070312 76.054688 C 603.886719 76.5 603.660156 76.921875 603.390625 77.324219 C 603.121094 77.722656 602.820312 78.09375 602.476562 78.4375 C 602.136719 78.777344 601.765625 79.082031 601.363281 79.347656 C 600.964844 79.617188 600.539062 79.84375 600.09375 80.027344 C 599.648438 80.210938 599.191406 80.351562 598.71875 80.445312 C 598.246094 80.539062 597.769531 80.585938 597.285156 80.585938 C 596.804688 80.585938 596.324219 80.539062 595.851562 80.445312 C 595.378906 80.351562 594.921875 80.210938 594.476562 80.027344 C 594.03125 79.84375 593.605469 79.617188 593.207031 79.347656 C 592.804688 79.082031 592.433594 78.777344 592.09375 78.4375 C 591.753906 78.09375 591.449219 77.722656 591.179688 77.324219 C 590.914062 76.921875 590.6875 76.5 590.5 76.054688 C 590.316406 75.609375 590.179688 75.148438 590.082031 74.675781 C 589.988281 74.203125 589.941406 73.726562 589.941406 73.246094 C 589.941406 72.761719 589.988281 72.285156 590.082031 71.8125 C 590.179688 71.339844 590.316406 70.878906 590.5 70.433594 C 590.6875 69.988281 590.914062 69.566406 591.179688 69.164062 C 591.449219 68.765625 591.753906 68.394531 592.09375 68.050781 C 592.433594 67.710938 592.804688 67.40625 593.207031 67.140625 C 593.605469 66.871094 594.03125 66.644531 594.476562 66.460938 C 594.921875 66.277344 595.378906 66.136719 595.851562 66.042969 C 596.324219 65.949219 596.804688 65.902344 597.285156 65.902344 C 597.769531 65.902344 598.246094 65.949219 598.71875 66.042969 C 599.191406 66.136719 599.648438 66.277344 600.09375 66.460938 C 600.539062 66.644531 600.964844 66.871094 601.363281 67.140625 C 601.765625 67.40625 602.136719 67.710938 602.476562 68.050781 C 602.820312 68.394531 603.121094 68.765625 603.390625 69.164062 C 603.660156 69.566406 603.886719 69.988281 604.070312 70.433594 C 604.253906 70.878906 604.394531 71.339844 604.488281 71.8125 C 604.582031 72.285156 604.628906 72.761719 604.628906 73.246094 Z M 604.628906 73.246094 " fill-opacity="1" fill-rule="nonzero"/><path fill="#182739" d="M 597.285156 81.605469 C 595.050781 81.605469 592.953125 80.734375 591.375 79.15625 C 589.796875 77.578125 588.925781 75.476562 588.925781 73.246094 C 588.925781 71.011719 589.796875 68.910156 591.375 67.332031 C 594.632812 64.074219 599.9375 64.074219 603.195312 67.332031 C 604.777344 68.910156 605.644531 71.011719 605.644531 73.246094 C 605.644531 75.476562 604.777344 77.578125 603.195312 79.15625 C 601.617188 80.734375 599.519531 81.605469 597.285156 81.605469 Z M 597.285156 66.921875 C 595.667969 66.921875 594.046875 67.539062 592.8125 68.769531 C 591.621094 69.964844 590.960938 71.554688 590.960938 73.242188 C 590.960938 74.933594 591.621094 76.519531 592.8125 77.714844 C 594.007812 78.910156 595.597656 79.566406 597.285156 79.566406 C 598.976562 79.566406 600.5625 78.910156 601.757812 77.714844 C 602.953125 76.519531 603.609375 74.933594 603.609375 73.242188 C 603.609375 71.554688 602.953125 69.964844 601.757812 68.769531 C 600.527344 67.539062 598.90625 66.921875 597.285156 66.921875 Z M 597.285156 66.921875 " fill-opacity="1" fill-rule="nonzero"/><g fill="#182739" fill-opacity="1"><g transform="translate(598.027375, 85.739961)"><g/></g></g><g fill="#182739" fill-opacity="1"><g transform="translate(605.217502, 85.739961)"><g/></g></g><g fill="#182739" fill-opacity="1"><g transform="translate(612.416169, 85.739961)"><g><path d="M 0.691406 -13.859375 C 0.832031 -13.777344 0.976562 -13.699219 1.117188 -13.617188 C 1.421875 -13.453125 1.707031 -13.167969 1.871094 -12.863281 L 6.726562 -0.570312 C 6.867188 -0.222656 7.214844 0 7.582031 0 L 10.101562 0 C 10.464844 0 10.792969 -0.222656 10.933594 -0.570312 L 13.820312 -7.84375 L 16.5 -0.589844 C 16.625 -0.222656 16.96875 0 17.335938 0 L 19.855469 0 C 20.222656 0 20.546875 -0.222656 20.6875 -0.570312 L 25.546875 -12.761719 C 25.667969 -13.085938 25.953125 -13.371094 26.316406 -13.554688 C 26.519531 -13.65625 26.683594 -13.757812 26.847656 -13.859375 C 27.191406 -14.105469 27.007812 -14.734375 26.582031 -14.734375 L 23.839844 -14.734375 C 23.433594 -14.734375 23.25 -14.105469 23.59375 -13.859375 C 23.65625 -13.820312 23.714844 -13.777344 23.777344 -13.738281 C 24.082031 -13.554688 24.183594 -13.148438 24.0625 -12.78125 L 20.566406 -3.800781 L 17.597656 -12.78125 C 17.539062 -13.085938 17.660156 -13.394531 17.945312 -13.617188 C 18.066406 -13.699219 18.167969 -13.800781 18.269531 -13.859375 C 18.617188 -14.105469 18.433594 -14.734375 18.027344 -14.734375 L 11.117188 -14.734375 C 10.691406 -14.734375 10.507812 -14.105469 10.851562 -13.859375 C 10.996094 -13.777344 11.136719 -13.699219 11.277344 -13.617188 C 11.605469 -13.433594 11.890625 -13.109375 12.011719 -12.78125 L 13.128906 -9.753906 L 10.792969 -3.738281 L 7.519531 -12.703125 C 7.417969 -13.027344 7.519531 -13.371094 7.824219 -13.636719 C 7.925781 -13.71875 8.007812 -13.800781 8.109375 -13.859375 C 8.453125 -14.105469 8.269531 -14.734375 7.84375 -14.734375 L 0.957031 -14.734375 C 0.527344 -14.734375 0.34375 -14.105469 0.691406 -13.859375 Z M 0.691406 -13.859375 "/></g></g></g><g fill="#182739" fill-opacity="1"><g transform="translate(640.018751, 85.739961)"><g><path d="M 0.710938 -7.355469 C 0.710938 -2.722656 3.496094 0.265625 8.679688 0.265625 C 13.859375 0.265625 16.683594 -2.722656 16.664062 -7.355469 C 16.664062 -11.992188 13.859375 -15 8.679688 -15 C 3.496094 -15 0.710938 -11.992188 0.710938 -7.355469 Z M 7.925781 -13.738281 C 10.078125 -14.003906 11.097656 -11.460938 11.5625 -7.703125 C 12.011719 -3.964844 11.644531 -1.261719 9.46875 -0.996094 C 7.316406 -0.730469 6.257812 -3.25 5.8125 -7.011719 C 5.34375 -10.769531 5.773438 -13.472656 7.925781 -13.738281 Z M 7.925781 -13.738281 "/></g></g></g><g fill="#182739" fill-opacity="1"><g transform="translate(657.262774, 85.739961)"><g><path d="M 0.589844 -13.800781 C 0.691406 -13.738281 0.832031 -13.65625 0.996094 -13.574219 C 1.320312 -13.394531 1.542969 -13.046875 1.542969 -12.679688 L 1.542969 -1.910156 C 1.503906 -1.585938 1.300781 -1.261719 0.996094 -1.117188 C 0.855469 -1.035156 0.691406 -0.957031 0.589844 -0.875 C 0.242188 -0.628906 0.425781 0 0.855469 0 L 7.132812 0 C 7.558594 0 7.742188 -0.628906 7.398438 -0.875 C 7.277344 -0.957031 7.175781 -1.035156 7.050781 -1.097656 C 6.726562 -1.300781 6.523438 -1.644531 6.523438 -1.992188 L 6.523438 -6.035156 L 6.949219 -6.035156 C 7.964844 -6.015625 8.757812 -5.730469 9.714844 -3.578125 L 10.363281 -2.050781 L 10.34375 -2.050781 L 10.40625 -1.929688 C 10.546875 -1.585938 10.445312 -1.261719 10.101562 -1.097656 C 9.976562 -1.015625 9.835938 -0.957031 9.734375 -0.875 C 9.390625 -0.628906 9.570312 0 10 0 L 16.96875 0 C 17.394531 0 17.578125 -0.628906 17.234375 -0.875 C 17.132812 -0.933594 17.050781 -0.976562 16.949219 -1.015625 C 16.605469 -1.136719 16.277344 -1.421875 16.117188 -1.769531 L 14.957031 -4.207031 C 14.347656 -5.710938 13.496094 -6.460938 12.703125 -6.605469 C 15.121094 -7.277344 16.523438 -8.496094 16.523438 -10.324219 C 16.523438 -13.25 12.964844 -14.714844 7.355469 -14.691406 L 0.832031 -14.671875 C 0.425781 -14.671875 0.242188 -14.042969 0.589844 -13.800781 Z M 6.523438 -12.84375 C 6.523438 -13.210938 6.765625 -13.472656 7.132812 -13.472656 C 10.179688 -13.453125 11.542969 -12.457031 11.542969 -10.304688 C 11.542969 -8.167969 10.140625 -7.253906 7.132812 -7.253906 C 6.765625 -7.253906 6.523438 -7.5 6.523438 -7.863281 Z M 6.523438 -12.84375 "/></g></g></g><g fill="#182739" fill-opacity="1"><g transform="translate(675.359862, 85.739961)"><g><path d="M 0.832031 0 L 7.132812 0 C 7.558594 0 7.742188 -0.628906 7.398438 -0.875 C 7.277344 -0.957031 7.152344 -1.035156 7.050781 -1.097656 C 6.726562 -1.300781 6.523438 -1.644531 6.523438 -1.992188 L 6.523438 -6.542969 L 7.660156 -7.5 L 10.363281 -1.890625 C 10.527344 -1.566406 10.40625 -1.261719 10.078125 -1.078125 C 9.957031 -1.015625 9.835938 -0.933594 9.734375 -0.875 C 9.390625 -0.628906 9.570312 0 10 0 L 17.050781 0 C 17.476562 0 17.660156 -0.628906 17.316406 -0.875 C 17.214844 -0.933594 17.113281 -0.996094 17.011719 -1.035156 C 16.683594 -1.199219 16.359375 -1.523438 16.195312 -1.828125 L 11.460938 -10.691406 L 14.164062 -12.964844 C 14.46875 -13.210938 14.875 -13.453125 15.179688 -13.597656 C 15.382812 -13.675781 15.585938 -13.757812 15.75 -13.878906 C 16.09375 -14.105469 15.890625 -14.734375 15.484375 -14.734375 L 12.398438 -14.734375 C 11.992188 -14.734375 11.808594 -14.105469 12.132812 -13.878906 C 12.214844 -13.820312 12.253906 -13.777344 12.316406 -13.738281 C 12.578125 -13.472656 12.578125 -13.210938 12.316406 -12.984375 L 6.523438 -8.269531 L 6.523438 -12.742188 C 6.523438 -13.085938 6.726562 -13.433594 7.050781 -13.636719 C 7.152344 -13.699219 7.277344 -13.777344 7.398438 -13.859375 C 7.742188 -14.105469 7.558594 -14.734375 7.132812 -14.734375 L 0.832031 -14.734375 C 0.425781 -14.734375 0.242188 -14.105469 0.589844 -13.859375 C 0.691406 -13.777344 0.832031 -13.699219 0.996094 -13.617188 C 1.320312 -13.453125 1.542969 -13.109375 1.542969 -12.742188 L 1.542969 -1.992188 C 1.542969 -1.625 1.320312 -1.28125 0.996094 -1.117188 C 0.832031 -1.035156 0.691406 -0.957031 0.589844 -0.875 C 0.242188 -0.628906 0.425781 0 0.832031 0 Z M 0.832031 0 "/></g></g></g><g fill="#182739" fill-opacity="1"><g transform="translate(692.928864, 85.739961)"><g/></g></g><g fill="#182739" fill-opacity="1"><g transform="translate(700.118992, 85.739961)"><g><path d="M 0.589844 -13.820312 C 0.691406 -13.738281 0.832031 -13.65625 0.996094 -13.574219 C 1.320312 -13.414062 1.542969 -13.066406 1.542969 -12.703125 L 1.542969 -1.992188 C 1.542969 -1.625 1.320312 -1.28125 0.996094 -1.117188 C 0.832031 -1.035156 0.691406 -0.957031 0.589844 -0.875 C 0.242188 -0.628906 0.425781 0 0.832031 0 L 12.925781 0 C 13.289062 0 13.597656 -0.242188 13.675781 -0.589844 C 13.820312 -1.136719 14.023438 -1.972656 14.125 -2.703125 C 14.226562 -3.25 13.921875 -3.554688 13.535156 -3.554688 C 13.25 -3.554688 12.945312 -3.394531 12.722656 -3.046875 C 12.171875 -2.214844 11.867188 -1.21875 9.753906 -1.21875 L 7.132812 -1.21875 C 6.765625 -1.21875 6.523438 -1.464844 6.523438 -1.828125 L 6.523438 -7.03125 L 7.988281 -7.03125 C 10.628906 -7.03125 9.734375 -5.40625 10.648438 -5.324219 C 11.707031 -5.222656 11.828125 -10.058594 10.75 -10.019531 C 9.773438 -9.976562 10.628906 -8.230469 7.988281 -8.230469 L 6.523438 -8.230469 L 6.523438 -12.863281 C 6.523438 -13.230469 6.765625 -13.472656 7.132812 -13.472656 L 9.347656 -13.472656 C 11.460938 -13.472656 11.765625 -12.457031 12.316406 -11.625 C 12.539062 -11.300781 12.84375 -11.136719 13.109375 -11.136719 C 13.496094 -11.136719 13.800781 -11.421875 13.71875 -11.992188 C 13.597656 -12.722656 13.414062 -13.535156 13.269531 -14.082031 C 13.1875 -14.449219 12.863281 -14.691406 12.5 -14.691406 L 0.832031 -14.691406 C 0.425781 -14.691406 0.242188 -14.0625 0.589844 -13.820312 Z M 0.589844 -13.820312 "/></g></g></g><g fill="#182739" fill-opacity="1"><g transform="translate(715.189754, 85.739961)"><g><path d="M 1.261719 -0.0195312 L 4.328125 -0.0195312 C 4.734375 -0.0195312 4.917969 -0.648438 4.574219 -0.894531 C 4.511719 -0.933594 4.472656 -0.976562 4.410156 -1.015625 C 4.125 -1.28125 4.085938 -1.605469 4.308594 -1.871094 L 7.398438 -5.730469 L 9.917969 -1.890625 C 10.101562 -1.605469 10.039062 -1.28125 9.773438 -1.015625 C 9.714844 -0.957031 9.671875 -0.914062 9.613281 -0.875 C 9.265625 -0.628906 9.449219 0 9.855469 0 L 17.089844 0 C 17.519531 0 17.699219 -0.628906 17.355469 -0.875 C 17.191406 -0.976562 16.96875 -1.078125 16.746094 -1.160156 C 16.421875 -1.28125 16.074219 -1.585938 15.871094 -1.890625 L 11.828125 -8.066406 L 15.6875 -12.882812 C 15.933594 -13.167969 16.296875 -13.453125 16.625 -13.597656 C 16.828125 -13.675781 17.03125 -13.757812 17.191406 -13.878906 C 17.539062 -14.105469 17.335938 -14.734375 16.929688 -14.734375 L 13.839844 -14.734375 C 13.433594 -14.734375 13.25 -14.105469 13.574219 -13.878906 C 13.65625 -13.820312 13.699219 -13.777344 13.757812 -13.738281 C 14.023438 -13.472656 14.0625 -13.167969 13.859375 -12.882812 L 11.015625 -9.289062 L 8.679688 -12.84375 C 8.496094 -13.128906 8.554688 -13.453125 8.820312 -13.738281 C 8.882812 -13.777344 8.921875 -13.820312 8.984375 -13.859375 C 9.328125 -14.105469 9.144531 -14.734375 8.738281 -14.734375 L 1.503906 -14.734375 C 1.078125 -14.734375 0.894531 -14.105469 1.238281 -13.859375 C 1.402344 -13.757812 1.625 -13.65625 1.847656 -13.574219 C 2.175781 -13.453125 2.519531 -13.148438 2.722656 -12.84375 L 6.605469 -6.949219 L 2.480469 -1.871094 C 2.253906 -1.585938 1.890625 -1.300781 1.566406 -1.179688 C 1.339844 -1.078125 1.136719 -0.996094 0.996094 -0.894531 C 0.648438 -0.648438 0.832031 -0.0195312 1.261719 -0.0195312 Z M 1.261719 -0.0195312 "/></g></g></g><g fill="#182739" fill-opacity="1"><g transform="translate(733.611804, 85.739961)"><g><path d="M 0.589844 -13.800781 C 0.691406 -13.738281 0.832031 -13.65625 0.996094 -13.574219 C 1.320312 -13.394531 1.542969 -13.046875 1.542969 -12.679688 L 1.542969 -1.910156 C 1.503906 -1.585938 1.300781 -1.261719 0.996094 -1.117188 C 0.855469 -1.035156 0.691406 -0.957031 0.589844 -0.875 C 0.242188 -0.628906 0.425781 0 0.855469 0 L 7.132812 0 C 7.558594 0 7.742188 -0.628906 7.398438 -0.875 C 7.277344 -0.957031 7.175781 -1.035156 7.050781 -1.097656 C 6.726562 -1.300781 6.523438 -1.644531 6.523438 -1.992188 L 6.523438 -4.347656 L 7.355469 -4.347656 C 13.007812 -4.347656 16.523438 -6.054688 16.523438 -9.511719 C 16.523438 -12.964844 12.964844 -14.714844 7.355469 -14.691406 L 0.832031 -14.671875 C 0.425781 -14.671875 0.242188 -14.042969 0.589844 -13.800781 Z M 6.523438 -12.476562 L 6.523438 -12.84375 C 6.523438 -13.210938 6.765625 -13.472656 7.132812 -13.472656 C 10.179688 -13.453125 11.542969 -12.195312 11.542969 -9.492188 C 11.542969 -6.808594 10.140625 -5.570312 7.132812 -5.570312 C 6.765625 -5.570312 6.523438 -5.8125 6.523438 -6.179688 Z M 6.523438 -12.476562 "/></g></g></g><g fill="#182739" fill-opacity="1"><g transform="translate(750.815209, 85.739961)"><g><path d="M 0.589844 -13.820312 C 0.691406 -13.738281 0.832031 -13.65625 0.996094 -13.574219 C 1.320312 -13.414062 1.542969 -13.066406 1.542969 -12.703125 L 1.542969 -1.992188 C 1.542969 -1.625 1.320312 -1.28125 0.996094 -1.117188 C 0.832031 -1.035156 0.691406 -0.957031 0.589844 -0.875 C 0.242188 -0.628906 0.425781 0 0.832031 0 L 12.925781 0 C 13.289062 0 13.597656 -0.242188 13.675781 -0.589844 C 13.820312 -1.136719 14.023438 -1.972656 14.125 -2.703125 C 14.226562 -3.25 13.921875 -3.554688 13.535156 -3.554688 C 13.25 -3.554688 12.945312 -3.394531 12.722656 -3.046875 C 12.171875 -2.214844 11.867188 -1.21875 9.753906 -1.21875 L 7.132812 -1.21875 C 6.765625 -1.21875 6.523438 -1.464844 6.523438 -1.828125 L 6.523438 -7.03125 L 7.988281 -7.03125 C 10.628906 -7.03125 9.734375 -5.40625 10.648438 -5.324219 C 11.707031 -5.222656 11.828125 -10.058594 10.75 -10.019531 C 9.773438 -9.976562 10.628906 -8.230469 7.988281 -8.230469 L 6.523438 -8.230469 L 6.523438 -12.863281 C 6.523438 -13.230469 6.765625 -13.472656 7.132812 -13.472656 L 9.347656 -13.472656 C 11.460938 -13.472656 11.765625 -12.457031 12.316406 -11.625 C 12.539062 -11.300781 12.84375 -11.136719 13.109375 -11.136719 C 13.496094 -11.136719 13.800781 -11.421875 13.71875 -11.992188 C 13.597656 -12.722656 13.414062 -13.535156 13.269531 -14.082031 C 13.1875 -14.449219 12.863281 -14.691406 12.5 -14.691406 L 0.832031 -14.691406 C 0.425781 -14.691406 0.242188 -14.0625 0.589844 -13.820312 Z M 0.589844 -13.820312 "/></g></g></g><g fill="#182739" fill-opacity="1"><g transform="translate(765.885979, 85.739961)"><g><path d="M 0.589844 -13.800781 C 0.691406 -13.738281 0.832031 -13.65625 0.996094 -13.574219 C 1.320312 -13.394531 1.542969 -13.046875 1.542969 -12.679688 L 1.542969 -1.910156 C 1.503906 -1.585938 1.300781 -1.261719 0.996094 -1.117188 C 0.855469 -1.035156 0.691406 -0.957031 0.589844 -0.875 C 0.242188 -0.628906 0.425781 0 0.855469 0 L 7.132812 0 C 7.558594 0 7.742188 -0.628906 7.398438 -0.875 C 7.277344 -0.957031 7.175781 -1.035156 7.050781 -1.097656 C 6.726562 -1.300781 6.523438 -1.644531 6.523438 -1.992188 L 6.523438 -6.035156 L 6.949219 -6.035156 C 7.964844 -6.015625 8.757812 -5.730469 9.714844 -3.578125 L 10.363281 -2.050781 L 10.34375 -2.050781 L 10.40625 -1.929688 C 10.546875 -1.585938 10.445312 -1.261719 10.101562 -1.097656 C 9.976562 -1.015625 9.835938 -0.957031 9.734375 -0.875 C 9.390625 -0.628906 9.570312 0 10 0 L 16.96875 0 C 17.394531 0 17.578125 -0.628906 17.234375 -0.875 C 17.132812 -0.933594 17.050781 -0.976562 16.949219 -1.015625 C 16.605469 -1.136719 16.277344 -1.421875 16.117188 -1.769531 L 14.957031 -4.207031 C 14.347656 -5.710938 13.496094 -6.460938 12.703125 -6.605469 C 15.121094 -7.277344 16.523438 -8.496094 16.523438 -10.324219 C 16.523438 -13.25 12.964844 -14.714844 7.355469 -14.691406 L 0.832031 -14.671875 C 0.425781 -14.671875 0.242188 -14.042969 0.589844 -13.800781 Z M 6.523438 -12.84375 C 6.523438 -13.210938 6.765625 -13.472656 7.132812 -13.472656 C 10.179688 -13.453125 11.542969 -12.457031 11.542969 -10.304688 C 11.542969 -8.167969 10.140625 -7.253906 7.132812 -7.253906 C 6.765625 -7.253906 6.523438 -7.5 6.523438 -7.863281 Z M 6.523438 -12.84375 "/></g></g></g><g fill="#182739" fill-opacity="1"><g transform="translate(783.983058, 85.739961)"><g><path d="M 1.644531 0 L 7.945312 0 C 8.371094 0 8.554688 -0.628906 8.210938 -0.875 C 8.089844 -0.957031 7.964844 -1.035156 7.863281 -1.097656 C 7.539062 -1.300781 7.335938 -1.644531 7.335938 -1.992188 L 7.335938 -12.742188 C 7.335938 -13.085938 7.539062 -13.433594 7.863281 -13.636719 C 7.964844 -13.699219 8.089844 -13.777344 8.210938 -13.859375 C 8.554688 -14.105469 8.371094 -14.734375 7.945312 -14.734375 L 1.644531 -14.734375 C 1.238281 -14.734375 1.058594 -14.105469 1.402344 -13.859375 C 1.503906 -13.777344 1.644531 -13.699219 1.808594 -13.617188 C 2.132812 -13.453125 2.355469 -13.109375 2.355469 -12.742188 L 2.355469 -1.992188 C 2.355469 -1.625 2.132812 -1.28125 1.808594 -1.117188 C 1.644531 -1.035156 1.503906 -0.957031 1.402344 -0.875 C 1.058594 -0.628906 1.238281 0 1.644531 0 Z M 1.644531 0 "/></g></g></g><g fill="#182739" fill-opacity="1"><g transform="translate(793.671434, 85.739961)"><g><path d="M 0.589844 -13.820312 C 0.691406 -13.738281 0.832031 -13.65625 0.996094 -13.574219 C 1.320312 -13.414062 1.542969 -13.066406 1.542969 -12.703125 L 1.542969 -1.992188 C 1.542969 -1.625 1.320312 -1.28125 0.996094 -1.117188 C 0.832031 -1.035156 0.691406 -0.957031 0.589844 -0.875 C 0.242188 -0.628906 0.425781 0 0.832031 0 L 12.925781 0 C 13.289062 0 13.597656 -0.242188 13.675781 -0.589844 C 13.820312 -1.136719 14.023438 -1.972656 14.125 -2.703125 C 14.226562 -3.25 13.921875 -3.554688 13.535156 -3.554688 C 13.25 -3.554688 12.945312 -3.394531 12.722656 -3.046875 C 12.171875 -2.214844 11.867188 -1.21875 9.753906 -1.21875 L 7.132812 -1.21875 C 6.765625 -1.21875 6.523438 -1.464844 6.523438 -1.828125 L 6.523438 -7.03125 L 7.988281 -7.03125 C 10.628906 -7.03125 9.734375 -5.40625 10.648438 -5.324219 C 11.707031 -5.222656 11.828125 -10.058594 10.75 -10.019531 C 9.773438 -9.976562 10.628906 -8.230469 7.988281 -8.230469 L 6.523438 -8.230469 L 6.523438 -12.863281 C 6.523438 -13.230469 6.765625 -13.472656 7.132812 -13.472656 L 9.347656 -13.472656 C 11.460938 -13.472656 11.765625 -12.457031 12.316406 -11.625 C 12.539062 -11.300781 12.84375 -11.136719 13.109375 -11.136719 C 13.496094 -11.136719 13.800781 -11.421875 13.71875 -11.992188 C 13.597656 -12.722656 13.414062 -13.535156 13.269531 -14.082031 C 13.1875 -14.449219 12.863281 -14.691406 12.5 -14.691406 L 0.832031 -14.691406 C 0.425781 -14.691406 0.242188 -14.0625 0.589844 -13.820312 Z M 0.589844 -13.820312 "/></g></g></g><g fill="#182739" fill-opacity="1"><g transform="translate(808.742203, 85.739961)"><g><path d="M 0.832031 0 L 3.578125 0 C 4.003906 0 4.1875 -0.628906 3.839844 -0.875 C 3.71875 -0.957031 3.597656 -1.035156 3.496094 -1.097656 C 3.171875 -1.300781 2.96875 -1.644531 2.96875 -1.992188 L 2.96875 -11.5625 L 10.648438 -0.507812 C 10.851562 -0.203125 11.238281 0 11.605469 0 L 15.992188 0 C 16.605469 0 16.605469 -0.628906 16.257812 -0.875 C 16.136719 -0.957031 16.035156 -1.035156 15.914062 -1.097656 C 15.585938 -1.300781 15.382812 -1.644531 15.382812 -1.992188 L 15.382812 -12.742188 C 15.382812 -13.085938 15.585938 -13.433594 15.914062 -13.636719 C 16.035156 -13.699219 16.136719 -13.777344 16.257812 -13.859375 C 16.605469 -14.105469 16.421875 -14.734375 15.992188 -14.734375 L 13.25 -14.734375 C 12.84375 -14.734375 12.660156 -14.105469 13.007812 -13.859375 C 13.109375 -13.777344 13.25 -13.699219 13.414062 -13.617188 C 13.738281 -13.453125 13.960938 -13.109375 13.960938 -12.742188 L 13.960938 -4.410156 L 7.070312 -14.246094 C 6.867188 -14.53125 6.484375 -14.734375 6.117188 -14.734375 L 0.773438 -14.734375 C 0.40625 -14.652344 0.265625 -14.082031 0.589844 -13.859375 C 0.691406 -13.777344 0.832031 -13.699219 0.996094 -13.617188 C 1.320312 -13.453125 1.542969 -13.109375 1.542969 -12.742188 L 1.542969 -1.992188 C 1.542969 -1.625 1.320312 -1.28125 0.996094 -1.117188 C 0.832031 -1.035156 0.691406 -0.957031 0.589844 -0.875 C 0.242188 -0.628906 0.425781 0 0.832031 0 Z M 0.832031 0 "/></g></g></g><g fill="#182739" fill-opacity="1"><g transform="translate(825.722177, 85.739961)"><g><path d="M 0.710938 -7.355469 C 0.875 -2.925781 3.636719 0.265625 8.820312 0.265625 C 13.109375 0.265625 15.730469 -1.605469 16.15625 -5.203125 C 16.238281 -5.875 16.117188 -6.503906 15.507812 -6.542969 C 14.816406 -6.585938 14.652344 -5.914062 14.570312 -5.34375 C 14.207031 -2.988281 12.601562 -1.566406 10.546875 -1.566406 C 7.355469 -1.566406 6.15625 -4.167969 5.8125 -7.011719 C 5.363281 -10.769531 5.773438 -13.472656 7.925781 -13.738281 C 9.410156 -13.921875 10.792969 -13.371094 10.609375 -10.871094 C 10.464844 -8.941406 11.867188 -8.046875 13.617188 -8.191406 C 15.730469 -8.351562 16.054688 -10.386719 15.585938 -11.605469 C 14.816406 -13.699219 12.398438 -15 8.699219 -15 C 3.515625 -15 0.570312 -11.992188 0.710938 -7.355469 Z M 0.710938 -7.355469 "/></g></g></g><g fill="#182739" fill-opacity="1"><g transform="translate(842.438108, 85.739961)"><g><path d="M 0.589844 -13.820312 C 0.691406 -13.738281 0.832031 -13.65625 0.996094 -13.574219 C 1.320312 -13.414062 1.542969 -13.066406 1.542969 -12.703125 L 1.542969 -1.992188 C 1.542969 -1.625 1.320312 -1.28125 0.996094 -1.117188 C 0.832031 -1.035156 0.691406 -0.957031 0.589844 -0.875 C 0.242188 -0.628906 0.425781 0 0.832031 0 L 12.925781 0 C 13.289062 0 13.597656 -0.242188 13.675781 -0.589844 C 13.820312 -1.136719 14.023438 -1.972656 14.125 -2.703125 C 14.226562 -3.25 13.921875 -3.554688 13.535156 -3.554688 C 13.25 -3.554688 12.945312 -3.394531 12.722656 -3.046875 C 12.171875 -2.214844 11.867188 -1.21875 9.753906 -1.21875 L 7.132812 -1.21875 C 6.765625 -1.21875 6.523438 -1.464844 6.523438 -1.828125 L 6.523438 -7.03125 L 7.988281 -7.03125 C 10.628906 -7.03125 9.734375 -5.40625 10.648438 -5.324219 C 11.707031 -5.222656 11.828125 -10.058594 10.75 -10.019531 C 9.773438 -9.976562 10.628906 -8.230469 7.988281 -8.230469 L 6.523438 -8.230469 L 6.523438 -12.863281 C 6.523438 -13.230469 6.765625 -13.472656 7.132812 -13.472656 L 9.347656 -13.472656 C 11.460938 -13.472656 11.765625 -12.457031 12.316406 -11.625 C 12.539062 -11.300781 12.84375 -11.136719 13.109375 -11.136719 C 13.496094 -11.136719 13.800781 -11.421875 13.71875 -11.992188 C 13.597656 -12.722656 13.414062 -13.535156 13.269531 -14.082031 C 13.1875 -14.449219 12.863281 -14.691406 12.5 -14.691406 L 0.832031 -14.691406 C 0.425781 -14.691406 0.242188 -14.0625 0.589844 -13.820312 Z M 0.589844 -13.820312 "/></g></g></g><g fill="#a91b60" fill-opacity="1"><g transform="translate(52.991485, 148.437192)"><g><path d="M 108.921875 -34.03125 C 106.5625 -30.429688 102.464844 -28.9375 98.738281 -28.9375 C 94.019531 -28.9375 92.40625 -32.539062 92.40625 -37.632812 C 92.40625 -42.351562 94.144531 -48.5625 95.632812 -53.777344 C 98.738281 -63.964844 101.84375 -67.9375 104.328125 -67.9375 C 106.066406 -68.0625 107.308594 -66.695312 108.921875 -66.695312 C 114.140625 -66.695312 118.238281 -73.277344 118.363281 -81.226562 C 118.363281 -88.058594 114.265625 -93.398438 105.570312 -93.398438 C 91.90625 -93.398438 75.636719 -84.332031 56.757812 -50.300781 C 55.640625 -48.3125 54.523438 -46.449219 53.40625 -44.589844 C 48.8125 -48.4375 46.449219 -53.65625 46.449219 -59.988281 C 46.449219 -69.054688 52.039062 -71.414062 56.882812 -70.917969 C 58.746094 -70.671875 59.742188 -72.035156 59.617188 -73.898438 C 59.617188 -79.738281 55.394531 -85.574219 45.953125 -85.574219 C 35.398438 -85.574219 25.957031 -78.371094 25.957031 -65.328125 C 25.957031 -52.910156 33.90625 -42.226562 46.699219 -35.769531 C 41.109375 -29.3125 34.527344 -25.210938 26.828125 -25.210938 C 19.996094 -25.210938 14.65625 -28.9375 14.65625 -34.402344 C 14.65625 -35.273438 13.785156 -35.894531 12.792969 -35.894531 C 2.855469 -35.894531 -3.726562 -25.832031 -3.726562 -15.648438 C -3.726562 -5.339844 3.105469 5.214844 20.121094 5.214844 C 33.535156 5.214844 46.078125 -8.195312 54.648438 -22.976562 C 56.136719 -25.585938 57.628906 -28.441406 59.121094 -31.050781 C 63.839844 -29.933594 68.929688 -29.1875 74.273438 -28.9375 C 73.652344 -25.089844 73.277344 -21.609375 73.277344 -18.503906 C 73.277344 -8.320312 76.507812 0 85.324219 0 C 102.09375 0 110.539062 -24.09375 114.511719 -30.925781 C 115.878906 -33.285156 110.910156 -37.011719 108.921875 -34.03125 Z M 76.132812 -37.382812 C 71.414062 -37.632812 67.191406 -38.253906 63.589844 -39.371094 C 68.0625 -47.445312 72.53125 -55.269531 77.5 -61.726562 C 81.101562 -65.949219 82.59375 -66.820312 84.207031 -66.820312 C 85.078125 -66.820312 85.699219 -66.324219 85.699219 -65.082031 C 85.699219 -59.988281 81.101562 -54.773438 76.132812 -37.382812 Z M 76.132812 -37.382812 "/></g></g></g><g fill="#a91b60" fill-opacity="1"><g transform="translate(159.051262, 148.437192)"><g><path d="M 7.824219 0 C 16.394531 0 18.007812 -6.832031 18.007812 -13.164062 L 18.007812 -18.753906 C 18.007812 -29.808594 24.21875 -40.117188 31.421875 -40.117188 C 34.277344 -40.117188 36.140625 -38.625 36.140625 -35.769531 C 36.140625 -30.675781 30.925781 -22.355469 30.925781 -12.917969 C 30.925781 -5.960938 33.660156 0 41.484375 0 C 58.25 0 66.695312 -24.09375 70.671875 -30.925781 C 72.035156 -33.285156 67.066406 -37.011719 65.082031 -34.03125 C 62.597656 -30.304688 60.238281 -27.695312 56.511719 -27.695312 C 52.414062 -27.695312 50.550781 -29.683594 50.550781 -33.90625 C 50.550781 -40.117188 54.523438 -44.089844 54.523438 -50.671875 C 54.523438 -56.882812 50.921875 -62.101562 43.347656 -62.101562 C 37.882812 -62.101562 32.914062 -59.492188 28.316406 -55.019531 C 24.34375 -51.046875 21.859375 -52.535156 21.859375 -57.378906 C 21.859375 -59.863281 21.113281 -62.101562 17.761719 -62.101562 C 13.164062 -62.101562 6.957031 -48.5625 2.855469 -34.03125 C 0 -23.847656 -1.242188 -14.902344 -1.242188 -9.066406 C -1.242188 -3.851562 1.988281 0 7.824219 0 Z M 7.824219 0 "/></g></g></g><g fill="#a91b60" fill-opacity="1"><g transform="translate(221.271351, 148.437192)"><g><path d="M 7.824219 0 C 16.394531 0 18.007812 -6.832031 18.007812 -13.164062 L 18.007812 -18.753906 C 18.007812 -29.808594 24.21875 -40.117188 31.421875 -40.117188 C 34.277344 -40.117188 36.140625 -38.625 36.140625 -35.769531 C 36.140625 -30.675781 30.925781 -22.355469 30.925781 -12.917969 C 30.925781 -5.960938 33.660156 0 41.484375 0 C 58.25 0 66.695312 -24.09375 70.671875 -30.925781 C 72.035156 -33.285156 67.066406 -37.011719 65.082031 -34.03125 C 62.597656 -30.304688 60.238281 -27.695312 56.511719 -27.695312 C 52.414062 -27.695312 50.550781 -29.683594 50.550781 -33.90625 C 50.550781 -40.117188 54.523438 -44.089844 54.523438 -50.671875 C 54.523438 -56.882812 50.921875 -62.101562 43.347656 -62.101562 C 37.882812 -62.101562 32.914062 -59.492188 28.316406 -55.019531 C 24.34375 -51.046875 21.859375 -52.535156 21.859375 -57.378906 C 21.859375 -59.863281 21.113281 -62.101562 17.761719 -62.101562 C 13.164062 -62.101562 6.957031 -48.5625 2.855469 -34.03125 C 0 -23.847656 -1.242188 -14.902344 -1.242188 -9.066406 C -1.242188 -3.851562 1.988281 0 7.824219 0 Z M 7.824219 0 "/></g></g></g><g fill="#a91b60" fill-opacity="1"><g transform="translate(283.491441, 148.437192)"><g><path d="M 24.964844 -67.191406 C 31.421875 -67.191406 36.515625 -69.675781 37.261719 -77.375 C 37.882812 -85.078125 32.789062 -87.4375 26.453125 -87.4375 C 19.625 -87.4375 14.035156 -84.828125 14.035156 -76.011719 C 14.035156 -69.429688 19.003906 -67.191406 24.964844 -67.191406 Z M 11.179688 0 C 27.199219 0 35.148438 -24.34375 39.125 -31.050781 C 40.363281 -33.285156 35.519531 -37.011719 33.535156 -34.03125 C 31.050781 -30.304688 28.691406 -27.820312 24.964844 -27.820312 C 21.609375 -27.820312 19.375 -29.933594 19.375 -34.03125 C 19.375 -40.738281 24.964844 -48.933594 24.964844 -56.511719 C 24.964844 -60.484375 23.351562 -62.101562 20.742188 -62.101562 C 13.660156 -62.101562 8.570312 -52.039062 2.855469 -34.03125 C 0.992188 -28.070312 -0.25 -21.363281 -0.25 -15.523438 C -0.25 -6.832031 2.855469 0 11.179688 0 Z M 11.179688 0 "/></g></g></g><g fill="#a91b60" fill-opacity="1"><g transform="translate(314.042623, 148.437192)"><g><path d="M 23.351562 0 C 37.757812 0 50.921875 -10.679688 61.851562 -30.925781 C 63.21875 -33.285156 58.25 -37.011719 56.261719 -34.03125 C 50.671875 -25.460938 40.613281 -21.113281 32.167969 -21.113281 C 25.089844 -21.113281 19.25 -23.351562 19.25 -27.695312 C 19.25 -29.3125 20.492188 -29.683594 21.363281 -29.1875 C 24.21875 -27.574219 27.574219 -27.199219 31.050781 -27.199219 C 43.222656 -27.199219 51.046875 -37.382812 51.046875 -46.449219 C 51.046875 -54.648438 45.953125 -62.101562 34.402344 -62.101562 C -1.242188 -62.101562 -11.550781 0 23.351562 0 Z M 27.820312 -36.515625 C 23.847656 -36.515625 21.984375 -38.875 21.984375 -41.605469 C 21.984375 -44.960938 24.964844 -48.5625 29.808594 -48.5625 C 33.660156 -48.5625 35.519531 -46.203125 35.519531 -43.46875 C 35.519531 -40.363281 32.664062 -36.515625 27.820312 -36.515625 Z M 27.820312 -36.515625 "/></g></g></g></svg>