<svg xmlns="http://www.w3.org/2000/svg" xmlns:xlink="http://www.w3.org/1999/xlink" width="111" zoomAndPan="magnify" viewBox="0 0 83.25 83.999999" height="112" preserveAspectRatio="xMidYMid meet" version="1.0"><defs><clipPath id="c736926bb5"><path d="M 3.65625 0.375 L 82.449219 0.375 L 82.449219 79.164062 L 3.65625 79.164062 Z M 3.65625 0.375 " clip-rule="nonzero"/></clipPath><clipPath id="4c505d8327"><path d="M 0 5.804688 L 77.304688 5.804688 L 77.304688 83.105469 L 0 83.105469 Z M 0 5.804688 " clip-rule="nonzero"/></clipPath><clipPath id="d7a6387087"><path d="M 21.734375 28.042969 L 54.441406 28.042969 L 54.441406 60.75 L 21.734375 60.75 Z M 21.734375 28.042969 " clip-rule="nonzero"/></clipPath></defs><g clip-path="url(#c736926bb5)"><path fill="#000000" d="M 43.054688 0.375 C 21.300781 0.375 3.65625 18.015625 3.65625 39.769531 C 3.65625 61.523438 21.300781 79.164062 43.054688 79.164062 C 64.804688 79.164062 82.449219 61.523438 82.449219 39.769531 C 82.449219 18.015625 64.804688 0.375 43.054688 0.375 Z M 43.054688 0.375 " fill-opacity="1" fill-rule="nonzero"/></g><path fill="#fffefe" d="M 75.296875 44.367188 C 75.296875 64.652344 58.851562 81.097656 38.5625 81.097656 C 18.277344 81.097656 1.832031 64.652344 1.832031 44.367188 C 1.832031 24.078125 18.277344 7.632812 38.5625 7.632812 C 58.851562 7.632812 75.296875 24.078125 75.296875 44.367188 Z M 75.296875 44.367188 " fill-opacity="1" fill-rule="nonzero"/><g clip-path="url(#4c505d8327)"><path stroke-linecap="square" transform="matrix(0.0129583, 0, 0, -0.0129583, -0.0518333, 82.982658)" fill="none" stroke-linejoin="miter" d="M 5814.689905 2979.971267 C 5814.689905 1414.55766 4545.598574 145.466329 2979.883521 145.466329 C 1414.469914 145.466329 145.378583 1414.55766 145.378583 2979.971267 C 145.378583 4545.68632 1414.469914 5814.777651 2979.883521 5814.777651 C 4545.598574 5814.777651 5814.689905 4545.68632 5814.689905 2979.971267 Z M 5814.689905 2979.971267 " stroke="#e2e2e2" stroke-width="283.465" stroke-opacity="1" stroke-miterlimit="4"/></g><g clip-path="url(#d7a6387087)"><path fill="#000000" d="M 38.085938 28.042969 C 29.070312 28.042969 21.734375 35.378906 21.734375 44.394531 C 21.734375 53.414062 29.070312 60.75 38.085938 60.75 C 47.101562 60.75 54.4375 53.414062 54.4375 44.394531 C 54.4375 35.378906 47.101562 28.042969 38.085938 28.042969 Z M 45.367188 52.027344 L 44.800781 52.636719 C 44.609375 52.839844 44.390625 53 44.140625 53.125 C 43.433594 53.480469 41.921875 54.054688 40.5 53.429688 C 39.953125 53.1875 39.253906 52.871094 38.457031 52.375 C 37.601562 51.847656 36.640625 51.109375 35.640625 50.035156 C 34.820312 49.089844 34.066406 48.089844 33.382812 47.042969 L 33.375 47.03125 C 32.722656 45.960938 32.140625 44.855469 31.636719 43.707031 C 31.09375 42.34375 30.839844 41.160156 30.726562 40.160156 C 30.617188 39.230469 30.632812 38.460938 30.648438 37.863281 C 30.6875 36.308594 31.855469 35.191406 32.480469 34.699219 C 32.699219 34.53125 32.941406 34.402344 33.207031 34.316406 L 34 34.0625 C 34.25 33.980469 34.488281 34.046875 34.582031 34.222656 C 35.183594 35.363281 35.691406 37.273438 35.949219 38.355469 C 36.046875 38.769531 35.738281 39.269531 35.238281 39.507812 C 34.867188 39.691406 34.507812 39.894531 34.164062 40.117188 C 32.703125 41.042969 33.613281 42.242188 33.613281 42.242188 L 35.644531 45.601562 L 37.808594 48.871094 C 37.808594 48.871094 38.503906 50.207031 39.964844 49.285156 C 40.3125 49.066406 40.652344 48.828125 40.976562 48.574219 C 41.410156 48.222656 41.992188 48.160156 42.324219 48.425781 C 43.191406 49.121094 44.703125 50.398438 45.472656 51.429688 C 45.589844 51.59375 45.546875 51.835938 45.367188 52.027344 Z M 45.367188 52.027344 " fill-opacity="1" fill-rule="nonzero"/></g></svg>