<svg xmlns="http://www.w3.org/2000/svg" xmlns:xlink="http://www.w3.org/1999/xlink" width="109" zoomAndPan="magnify" viewBox="0 0 81.75 81.749997" height="109" preserveAspectRatio="xMidYMid meet" version="1.0"><defs><clipPath id="af211927b8"><path d="M 2.265625 0 L 81.5 0 L 81.5 79.257812 L 2.265625 79.257812 Z M 2.265625 0 " clip-rule="nonzero"/></clipPath><clipPath id="fcc1ebbfe8"><path d="M 0 5.914062 L 74.769531 5.914062 L 74.769531 80.6875 L 0 80.6875 Z M 0 5.914062 " clip-rule="nonzero"/></clipPath><clipPath id="c9fe02800d"><path d="M 17.847656 22.480469 L 60.464844 22.480469 L 60.464844 65.097656 L 17.847656 65.097656 Z M 17.847656 22.480469 " clip-rule="nonzero"/></clipPath></defs><g clip-path="url(#af211927b8)"><path fill="#a91b60" d="M 41.785156 0 C 19.964844 0 2.265625 17.695312 2.265625 39.519531 C 2.265625 61.339844 19.964844 79.035156 41.785156 79.035156 C 63.605469 79.035156 81.300781 61.339844 81.300781 39.519531 C 81.300781 17.695312 63.605469 0 41.785156 0 Z M 41.785156 0 " fill-opacity="1" fill-rule="nonzero"/></g><path fill="#ffffff" d="M 73.855469 43.429688 C 73.855469 63.5 57.585938 79.769531 37.515625 79.769531 C 17.445312 79.769531 1.171875 63.5 1.171875 43.429688 C 1.171875 23.359375 17.445312 7.085938 37.515625 7.085938 C 57.585938 7.085938 73.855469 23.359375 73.855469 43.429688 Z M 73.855469 43.429688 " fill-opacity="1" fill-rule="nonzero"/><g clip-path="url(#fcc1ebbfe8)"><path fill="#a91b60" d="M 37.515625 5.914062 C 16.835938 5.914062 0 22.75 0 43.429688 C 0 64.109375 16.835938 80.945312 37.515625 80.945312 C 58.195312 80.945312 75.027344 64.109375 75.027344 43.429688 C 75.027344 22.75 58.195312 5.914062 37.515625 5.914062 Z M 37.515625 78.597656 C 18.125 78.597656 2.34375 62.820312 2.34375 43.429688 C 2.34375 24.039062 18.125 8.257812 37.515625 8.257812 C 56.90625 8.257812 72.683594 24.039062 72.683594 43.429688 C 72.683594 62.820312 56.90625 78.597656 37.515625 78.597656 Z M 37.515625 78.597656 " fill-opacity="1" fill-rule="nonzero"/></g><g clip-path="url(#c9fe02800d)"><path fill="#fcfffb" d="M 60.75 43.929688 C 60.75 55.777344 51.144531 65.382812 39.296875 65.382812 C 27.453125 65.382812 17.847656 55.777344 17.847656 43.929688 C 17.847656 32.085938 27.453125 22.480469 39.296875 22.480469 C 51.144531 22.480469 60.75 32.085938 60.75 43.929688 " fill-opacity="1" fill-rule="nonzero"/></g><path fill="#a91b60" d="M 49.878906 33.347656 C 48.84375 32.3125 47.160156 32.3125 46.125 33.347656 L 39.296875 40.175781 L 32.472656 33.347656 C 31.433594 32.3125 29.753906 32.3125 28.714844 33.347656 C 27.679688 34.386719 27.679688 36.066406 28.714844 37.105469 L 35.542969 43.929688 L 28.714844 50.757812 C 27.679688 51.796875 27.679688 53.476562 28.714844 54.511719 C 29.753906 55.550781 31.433594 55.550781 32.472656 54.511719 L 39.296875 47.6875 L 46.125 54.511719 C 47.160156 55.550781 48.84375 55.550781 49.878906 54.511719 C 50.917969 53.476562 50.917969 51.796875 49.878906 50.757812 L 43.054688 43.929688 L 49.878906 37.105469 C 50.917969 36.066406 50.917969 34.386719 49.878906 33.347656 " fill-opacity="1" fill-rule="nonzero"/></svg>