<svg xmlns="http://www.w3.org/2000/svg" xmlns:xlink="http://www.w3.org/1999/xlink" width="1125" zoomAndPan="magnify" viewBox="0 0 843.75 38.999999" height="52" preserveAspectRatio="xMidYMid meet" version="1.0"><defs><g/><clipPath id="8aa257599e"><path d="M 305.941406 1.503906 L 535.867188 1.503906 L 535.867188 38.335938 L 305.941406 38.335938 Z M 305.941406 1.503906 " clip-rule="nonzero"/></clipPath><clipPath id="42c0ee36d8"><path d="M 516.773438 1.503906 C 527.253906 1.503906 535.75 9.746094 535.75 19.917969 C 535.75 30.089844 527.253906 38.335938 516.773438 38.335938 L 324.917969 38.335938 C 314.4375 38.335938 305.941406 30.089844 305.941406 19.917969 C 305.941406 9.746094 314.4375 1.503906 324.917969 1.503906 Z M 516.773438 1.503906 " clip-rule="nonzero"/></clipPath><clipPath id="ed6c70a148"><path d="M 305.941406 1.503906 L 536 1.503906 L 536 38.242188 L 305.941406 38.242188 Z M 305.941406 1.503906 " clip-rule="nonzero"/></clipPath><clipPath id="9d86a78e31"><path d="M 516.769531 1.503906 C 527.25 1.503906 535.746094 9.746094 535.746094 19.917969 C 535.746094 30.089844 527.25 38.335938 516.769531 38.335938 L 324.917969 38.335938 C 314.4375 38.335938 305.941406 30.089844 305.941406 19.917969 C 305.941406 9.746094 314.4375 1.503906 324.917969 1.503906 Z M 516.769531 1.503906 " clip-rule="nonzero"/></clipPath><clipPath id="f502775bcc"><path d="M 5.742188 0.00390625 L 235.699219 0.00390625 L 235.699219 37.960938 L 5.742188 37.960938 Z M 5.742188 0.00390625 " clip-rule="nonzero"/></clipPath><clipPath id="c3487f94c4"><path d="M 216.574219 0.00390625 C 227.058594 0.00390625 235.554688 8.503906 235.554688 18.984375 C 235.554688 29.464844 227.058594 37.960938 216.574219 37.960938 L 24.71875 37.960938 C 14.238281 37.960938 5.742188 29.464844 5.742188 18.984375 C 5.742188 8.503906 14.238281 0.00390625 24.71875 0.00390625 Z M 216.574219 0.00390625 " clip-rule="nonzero"/></clipPath><clipPath id="47cab678c8"><path d="M 5.769531 0.00390625 L 235.816406 0.00390625 L 235.816406 37.953125 L 5.769531 37.953125 Z M 5.769531 0.00390625 " clip-rule="nonzero"/></clipPath><clipPath id="b40868c856"><path d="M 216.546875 0.00390625 C 227.027344 0.00390625 235.519531 8.5 235.519531 18.980469 C 235.519531 29.457031 227.027344 37.953125 216.546875 37.953125 L 24.742188 37.953125 C 14.265625 37.953125 5.769531 29.457031 5.769531 18.980469 C 5.769531 8.5 14.265625 0.00390625 24.742188 0.00390625 Z M 216.546875 0.00390625 " clip-rule="nonzero"/></clipPath><clipPath id="e49e5aea71"><path d="M 607.730469 1.210938 L 837.65625 1.210938 L 837.65625 38.046875 L 607.730469 38.046875 Z M 607.730469 1.210938 " clip-rule="nonzero"/></clipPath><clipPath id="829aeb68bd"><path d="M 818.5625 1.210938 C 829.042969 1.210938 837.542969 9.457031 837.542969 19.628906 C 837.542969 29.800781 829.042969 38.046875 818.5625 38.046875 L 626.707031 38.046875 C 616.226562 38.046875 607.730469 29.800781 607.730469 19.628906 C 607.730469 9.457031 616.226562 1.210938 626.707031 1.210938 Z M 818.5625 1.210938 " clip-rule="nonzero"/></clipPath><clipPath id="f6df151c8f"><path d="M 607.734375 1.210938 L 837.832031 1.210938 L 837.832031 37.949219 L 607.734375 37.949219 Z M 607.734375 1.210938 " clip-rule="nonzero"/></clipPath><clipPath id="c95ba21cc8"><path d="M 818.558594 1.210938 C 829.039062 1.210938 837.535156 9.457031 837.535156 19.628906 C 837.535156 29.796875 829.039062 38.042969 818.558594 38.042969 L 626.710938 38.042969 C 616.230469 38.042969 607.734375 29.796875 607.734375 19.628906 C 607.734375 9.457031 616.230469 1.210938 626.710938 1.210938 Z M 818.558594 1.210938 " clip-rule="nonzero"/></clipPath></defs><g clip-path="url(#8aa257599e)"><g clip-path="url(#42c0ee36d8)"><path fill="#5a6c37" d="M 305.941406 1.503906 L 535.722656 1.503906 L 535.722656 38.335938 L 305.941406 38.335938 Z M 305.941406 1.503906 " fill-opacity="1" fill-rule="nonzero"/></g></g><g clip-path="url(#ed6c70a148)"><g clip-path="url(#9d86a78e31)"><path stroke-linecap="butt" transform="matrix(0.749778, 0, 0, 0.749778, 305.942443, 1.502144)" fill="none" stroke-linejoin="miter" d="M 281.186085 0.00234985 C 295.164185 0.00234985 306.495667 10.99519 306.495667 24.561709 C 306.495667 38.128228 295.164185 49.126278 281.186085 49.126278 L 25.308198 49.126278 C 11.330099 49.126278 -0.00138306 38.128228 -0.00138306 24.561709 C -0.00138306 10.99519 11.330099 0.00234985 25.308198 0.00234985 Z M 281.186085 0.00234985 " stroke="#6d123f" stroke-width="4" stroke-opacity="1" stroke-miterlimit="4"/></g></g><g fill="#ffffff" fill-opacity="1"><g transform="translate(324.949604, 25.248235)"><g><path d="M 6.71875 0.160156 C 8.332031 0.160156 10.1875 -0.671875 11.113281 -1.96875 L 11.113281 -4.972656 L 9.019531 -4.972656 L 9.019531 -4.78125 C 9.707031 -4.605469 9.835938 -4.222656 9.835938 -3.230469 L 9.851562 -1.597656 C 9.453125 -0.800781 8.414062 -0.160156 7.210938 -0.160156 C 3.980469 -0.160156 2.09375 -3.46875 2.128906 -6.492188 C 2.160156 -9.4375 3.886719 -11.019531 6.1875 -11.019531 C 8.058594 -11.019531 9.53125 -9.929688 10.125 -8.554688 L 10.285156 -8.589844 L 10.21875 -10.476562 C 9.59375 -10.890625 8.078125 -11.308594 6.652344 -11.308594 C 3.230469 -11.308594 0.832031 -8.730469 0.832031 -5.515625 C 0.832031 -2.078125 3.152344 0.160156 6.71875 0.160156 Z M 6.71875 0.160156 "/></g></g></g><g fill="#ffffff" fill-opacity="1"><g transform="translate(339.758359, 25.248235)"><g><path d="M 8.957031 0.113281 C 9.277344 0.113281 9.691406 0.078125 9.929688 0 L 9.929688 -0.191406 C 9.851562 -0.175781 9.773438 -0.175781 9.675781 -0.175781 C 9.132812 -0.175781 8.8125 -0.703125 8.042969 -2.621094 C 7.277344 -4.589844 6.972656 -5.566406 5.003906 -5.820312 C 7.085938 -6.0625 8.171875 -7.195312 8.171875 -8.699219 C 8.171875 -10.125 7.210938 -11.195312 3.964844 -11.195312 L 0.816406 -11.195312 L 0.816406 -10.988281 C 1.3125 -10.84375 1.457031 -10.476562 1.457031 -9.164062 L 1.457031 -2.03125 C 1.457031 -0.71875 1.3125 -0.351562 0.816406 -0.207031 L 0.816406 0 L 3.40625 0 L 3.40625 -0.207031 C 2.910156 -0.351562 2.765625 -0.71875 2.765625 -2.03125 L 2.765625 -5.773438 L 3.789062 -5.773438 C 5.710938 -5.773438 5.835938 -4.652344 6.765625 -2.445312 C 7.46875 -0.785156 7.722656 0.113281 8.957031 0.113281 Z M 2.765625 -6.011719 L 2.765625 -10.921875 C 3.023438 -10.9375 3.277344 -10.953125 3.519531 -10.953125 C 5.886719 -10.953125 6.8125 -9.753906 6.8125 -8.332031 C 6.8125 -6.972656 5.949219 -6.011719 4.109375 -6.011719 Z M 2.765625 -6.011719 "/></g></g></g><g fill="#ffffff" fill-opacity="1"><g transform="translate(352.488236, 25.248235)"><g><path d="M -0.273438 0 L 1.535156 0 L 1.535156 -0.207031 C 0.992188 -0.320312 0.925781 -0.847656 1.34375 -1.886719 L 2.285156 -4.222656 L 6.796875 -4.222656 L 7.773438 -1.871094 C 8.285156 -0.671875 8.414062 -0.351562 7.917969 -0.207031 L 7.917969 0 L 10.394531 0 L 10.394531 -0.207031 C 10.058594 -0.351562 9.675781 -0.671875 9.179688 -1.871094 L 5.246094 -11.324219 L 4.046875 -10.777344 L 4.191406 -10.441406 C 4.316406 -10.1875 4.335938 -9.980469 4.222656 -9.691406 L 1.070312 -1.886719 C 0.574219 -0.671875 0.175781 -0.351562 -0.273438 -0.207031 Z M 2.382812 -4.460938 L 4.511719 -9.722656 L 6.699219 -4.460938 Z M 2.382812 -4.460938 "/></g></g></g><g fill="#ffffff" fill-opacity="1"><g transform="translate(365.681862, 25.248235)"><g><path d="M 0.816406 0 L 3.40625 0 L 3.40625 -0.207031 C 2.910156 -0.351562 2.765625 -0.71875 2.765625 -2.03125 L 2.765625 -4.429688 L 3.902344 -4.429688 C 6.875 -4.429688 8.429688 -5.917969 8.429688 -8.042969 C 8.429688 -9.59375 7.371094 -11.195312 4.0625 -11.195312 L 0.816406 -11.195312 L 0.816406 -10.988281 C 1.296875 -10.84375 1.457031 -10.476562 1.457031 -9.164062 L 1.457031 -2.03125 C 1.457031 -0.71875 1.296875 -0.351562 0.816406 -0.207031 Z M 2.765625 -4.667969 L 2.765625 -10.921875 C 2.957031 -10.9375 3.214844 -10.953125 3.4375 -10.953125 C 6.011719 -10.953125 7.019531 -9.386719 7.019531 -7.675781 C 7.019531 -5.789062 5.917969 -4.667969 3.871094 -4.667969 Z M 2.765625 -4.667969 "/></g></g></g><g fill="#ffffff" fill-opacity="1"><g transform="translate(377.452253, 25.248235)"><g><path d="M 0.816406 0 L 3.40625 0 L 3.40625 -0.207031 C 2.910156 -0.351562 2.765625 -0.71875 2.765625 -2.03125 L 2.765625 -5.804688 L 8.859375 -5.804688 L 8.859375 -2.03125 C 8.859375 -0.71875 8.699219 -0.351562 8.21875 -0.207031 L 8.21875 0 L 10.8125 0 L 10.8125 -0.207031 C 10.316406 -0.351562 10.171875 -0.71875 10.171875 -2.03125 L 10.171875 -9.164062 C 10.171875 -10.476562 10.316406 -10.84375 10.8125 -10.988281 L 10.8125 -11.195312 L 8.21875 -11.195312 L 8.21875 -10.988281 C 8.699219 -10.84375 8.859375 -10.476562 8.859375 -9.164062 L 8.859375 -6.0625 L 2.765625 -6.0625 L 2.765625 -9.164062 C 2.765625 -10.476562 2.910156 -10.84375 3.40625 -10.988281 L 3.40625 -11.195312 L 0.816406 -11.195312 L 0.816406 -10.988281 C 1.296875 -10.84375 1.457031 -10.476562 1.457031 -9.164062 L 1.457031 -2.03125 C 1.457031 -0.71875 1.296875 -0.351562 0.816406 -0.207031 Z M 0.816406 0 "/></g></g></g><g fill="#ffffff" fill-opacity="1"><g transform="translate(392.005146, 25.248235)"><g><path d="M 0.816406 0 L 3.40625 0 L 3.40625 -0.207031 C 2.910156 -0.351562 2.765625 -0.71875 2.765625 -2.03125 L 2.765625 -9.164062 C 2.765625 -10.476562 2.910156 -10.84375 3.40625 -10.988281 L 3.40625 -11.195312 L 0.816406 -11.195312 L 0.816406 -10.988281 C 1.296875 -10.84375 1.457031 -10.476562 1.457031 -9.164062 L 1.457031 -2.03125 C 1.457031 -0.71875 1.296875 -0.351562 0.816406 -0.207031 Z M 0.816406 0 "/></g></g></g><g fill="#ffffff" fill-opacity="1"><g transform="translate(399.169999, 25.248235)"><g><path d="M 6.859375 0.160156 C 8.652344 0.160156 10.171875 -0.289062 10.921875 -0.703125 L 11.179688 -2.78125 L 11.003906 -2.796875 C 10.378906 -1.070312 9.035156 -0.160156 7.308594 -0.160156 C 3.980469 -0.160156 2.160156 -3.039062 2.175781 -6.046875 C 2.175781 -9.308594 4.140625 -11.003906 6.683594 -11.003906 C 8.589844 -11.003906 10.109375 -10.027344 10.730469 -8.570312 L 10.890625 -8.605469 L 10.828125 -10.507812 C 10.203125 -10.90625 8.605469 -11.308594 7.230469 -11.308594 C 3.46875 -11.308594 0.832031 -8.78125 0.832031 -5.375 C 0.832031 -1.886719 3.183594 0.160156 6.859375 0.160156 Z M 6.859375 0.160156 "/></g></g></g><g fill="#ffffff" fill-opacity="1"><g transform="translate(413.962758, 25.248235)"><g/></g></g><g fill="#ffffff" fill-opacity="1"><g transform="translate(420.264079, 25.248235)"><g><path d="M 0.816406 0 L 5.003906 0 C 8.523438 0 10.796875 -2.429688 10.777344 -5.804688 C 10.761719 -8.394531 9.035156 -11.195312 4.636719 -11.195312 L 0.816406 -11.195312 L 0.816406 -10.988281 C 1.296875 -10.84375 1.457031 -10.476562 1.457031 -9.164062 L 1.457031 -2.03125 C 1.457031 -0.71875 1.296875 -0.351562 0.816406 -0.207031 Z M 2.765625 -1.40625 L 2.765625 -10.953125 L 3.855469 -10.953125 C 7.421875 -10.953125 9.324219 -8.363281 9.324219 -5.164062 C 9.324219 -1.824219 7.773438 -0.238281 4.972656 -0.238281 L 3.804688 -0.238281 C 2.925781 -0.238281 2.765625 -0.65625 2.765625 -1.40625 Z M 2.765625 -1.40625 "/></g></g></g><g fill="#ffffff" fill-opacity="1"><g transform="translate(434.800977, 25.248235)"><g><path d="M 0.816406 0 L 8.699219 0 L 8.828125 -2.128906 L 8.652344 -2.160156 C 8.078125 -0.671875 7.101562 -0.238281 5.566406 -0.238281 L 3.488281 -0.238281 C 3.023438 -0.238281 2.765625 -0.496094 2.765625 -0.960938 L 2.765625 -5.871094 L 4.8125 -5.871094 C 6.636719 -5.871094 7.101562 -5.5 7.292969 -4.78125 L 7.484375 -4.78125 L 7.484375 -7.195312 L 7.292969 -7.195312 C 7.101562 -6.476562 6.636719 -6.109375 4.8125 -6.109375 L 2.765625 -6.109375 L 2.765625 -10.953125 L 5.117188 -10.953125 C 6.75 -10.953125 7.691406 -10.476562 8.253906 -9.066406 L 8.429688 -9.117188 L 8.253906 -11.195312 L 0.816406 -11.195312 L 0.816406 -10.988281 C 1.296875 -10.84375 1.457031 -10.476562 1.457031 -9.164062 L 1.457031 -2.03125 C 1.457031 -0.71875 1.296875 -0.351562 0.816406 -0.207031 Z M 0.816406 0 "/></g></g></g><g fill="#ffffff" fill-opacity="1"><g transform="translate(447.163044, 25.248235)"><g><path d="M 4.558594 0.160156 C 6.445312 0.160156 8.300781 -1.054688 8.300781 -3.054688 C 8.300781 -4.863281 6.636719 -5.566406 4.863281 -6.269531 C 3.503906 -6.828125 1.855469 -7.4375 1.855469 -8.941406 C 1.855469 -10.300781 2.957031 -11.050781 4.253906 -11.050781 C 6.078125 -11.050781 7.195312 -10.058594 7.789062 -8.667969 L 7.949219 -8.714844 L 7.882812 -10.570312 C 7.261719 -10.90625 6.222656 -11.308594 4.765625 -11.308594 C 2.414062 -11.308594 0.863281 -10.125 0.863281 -8.253906 C 0.863281 -6.558594 2.0625 -5.886719 3.949219 -5.132812 C 5.292969 -4.589844 7.261719 -3.855469 7.261719 -2.253906 C 7.261719 -0.960938 6.15625 -0.128906 4.878906 -0.128906 C 2.65625 -0.128906 1.4375 -1.550781 0.816406 -3.230469 L 0.640625 -3.199219 L 0.71875 -0.976562 C 1.472656 -0.433594 2.878906 0.160156 4.558594 0.160156 Z M 4.558594 0.160156 "/></g></g></g><g fill="#ffffff" fill-opacity="1"><g transform="translate(458.917438, 25.248235)"><g><path d="M 0.816406 0 L 3.40625 0 L 3.40625 -0.207031 C 2.910156 -0.351562 2.765625 -0.71875 2.765625 -2.03125 L 2.765625 -9.164062 C 2.765625 -10.476562 2.910156 -10.84375 3.40625 -10.988281 L 3.40625 -11.195312 L 0.816406 -11.195312 L 0.816406 -10.988281 C 1.296875 -10.84375 1.457031 -10.476562 1.457031 -9.164062 L 1.457031 -2.03125 C 1.457031 -0.71875 1.296875 -0.351562 0.816406 -0.207031 Z M 0.816406 0 "/></g></g></g><g fill="#ffffff" fill-opacity="1"><g transform="translate(466.082292, 25.248235)"><g><path d="M 6.71875 0.160156 C 8.332031 0.160156 10.1875 -0.671875 11.113281 -1.96875 L 11.113281 -4.972656 L 9.019531 -4.972656 L 9.019531 -4.78125 C 9.707031 -4.605469 9.835938 -4.222656 9.835938 -3.230469 L 9.851562 -1.597656 C 9.453125 -0.800781 8.414062 -0.160156 7.210938 -0.160156 C 3.980469 -0.160156 2.09375 -3.46875 2.128906 -6.492188 C 2.160156 -9.4375 3.886719 -11.019531 6.1875 -11.019531 C 8.058594 -11.019531 9.53125 -9.929688 10.125 -8.554688 L 10.285156 -8.589844 L 10.21875 -10.476562 C 9.59375 -10.890625 8.078125 -11.308594 6.652344 -11.308594 C 3.230469 -11.308594 0.832031 -8.730469 0.832031 -5.515625 C 0.832031 -2.078125 3.152344 0.160156 6.71875 0.160156 Z M 6.71875 0.160156 "/></g></g></g><g fill="#ffffff" fill-opacity="1"><g transform="translate(480.891044, 25.248235)"><g><path d="M 9.261719 0.128906 L 9.46875 0.128906 L 9.46875 -9.164062 C 9.46875 -10.476562 9.613281 -10.84375 10.109375 -10.988281 L 10.109375 -11.195312 L 8.09375 -11.195312 L 8.09375 -10.988281 C 8.8125 -10.796875 9.195312 -10.347656 9.195312 -8.523438 L 9.195312 -2.144531 L 2.207031 -11.195312 L 0.640625 -11.195312 L 0.640625 -10.988281 C 1.28125 -10.84375 1.472656 -10.476562 1.472656 -9.164062 L 1.472656 -2.03125 C 1.472656 -0.71875 1.3125 -0.351562 0.832031 -0.207031 L 0.832031 0 L 2.832031 0 L 2.832031 -0.207031 C 2.109375 -0.398438 1.726562 -0.847656 1.726562 -2.671875 L 1.726562 -9.675781 Z M 9.261719 0.128906 "/></g></g></g><g fill="#ffffff" fill-opacity="1"><g transform="translate(494.580404, 25.248235)"><g><path d="M 0.816406 0 L 8.699219 0 L 8.828125 -2.128906 L 8.652344 -2.160156 C 8.078125 -0.671875 7.101562 -0.238281 5.566406 -0.238281 L 3.488281 -0.238281 C 3.023438 -0.238281 2.765625 -0.496094 2.765625 -0.960938 L 2.765625 -5.871094 L 4.8125 -5.871094 C 6.636719 -5.871094 7.101562 -5.5 7.292969 -4.78125 L 7.484375 -4.78125 L 7.484375 -7.195312 L 7.292969 -7.195312 C 7.101562 -6.476562 6.636719 -6.109375 4.8125 -6.109375 L 2.765625 -6.109375 L 2.765625 -10.953125 L 5.117188 -10.953125 C 6.75 -10.953125 7.691406 -10.476562 8.253906 -9.066406 L 8.429688 -9.117188 L 8.253906 -11.195312 L 0.816406 -11.195312 L 0.816406 -10.988281 C 1.296875 -10.84375 1.457031 -10.476562 1.457031 -9.164062 L 1.457031 -2.03125 C 1.457031 -0.71875 1.296875 -0.351562 0.816406 -0.207031 Z M 0.816406 0 "/></g></g></g><g fill="#ffffff" fill-opacity="1"><g transform="translate(506.942471, 25.248235)"><g><path d="M 8.957031 0.113281 C 9.277344 0.113281 9.691406 0.078125 9.929688 0 L 9.929688 -0.191406 C 9.851562 -0.175781 9.773438 -0.175781 9.675781 -0.175781 C 9.132812 -0.175781 8.8125 -0.703125 8.042969 -2.621094 C 7.277344 -4.589844 6.972656 -5.566406 5.003906 -5.820312 C 7.085938 -6.0625 8.171875 -7.195312 8.171875 -8.699219 C 8.171875 -10.125 7.210938 -11.195312 3.964844 -11.195312 L 0.816406 -11.195312 L 0.816406 -10.988281 C 1.3125 -10.84375 1.457031 -10.476562 1.457031 -9.164062 L 1.457031 -2.03125 C 1.457031 -0.71875 1.3125 -0.351562 0.816406 -0.207031 L 0.816406 0 L 3.40625 0 L 3.40625 -0.207031 C 2.910156 -0.351562 2.765625 -0.71875 2.765625 -2.03125 L 2.765625 -5.773438 L 3.789062 -5.773438 C 5.710938 -5.773438 5.835938 -4.652344 6.765625 -2.445312 C 7.46875 -0.785156 7.722656 0.113281 8.957031 0.113281 Z M 2.765625 -6.011719 L 2.765625 -10.921875 C 3.023438 -10.9375 3.277344 -10.953125 3.519531 -10.953125 C 5.886719 -10.953125 6.8125 -9.753906 6.8125 -8.332031 C 6.8125 -6.972656 5.949219 -6.011719 4.109375 -6.011719 Z M 2.765625 -6.011719 "/></g></g></g><g clip-path="url(#f502775bcc)"><g clip-path="url(#c3487f94c4)"><path fill="#5a6c37" d="M 5.742188 0.00390625 L 235.550781 0.00390625 L 235.550781 37.960938 L 5.742188 37.960938 Z M 5.742188 0.00390625 " fill-opacity="1" fill-rule="nonzero"/></g></g><g clip-path="url(#47cab678c8)"><g clip-path="url(#b40868c856)"><path stroke-linecap="butt" transform="matrix(0.749778, 0, 0, 0.749778, 5.770175, 0.00577557)" fill="none" stroke-linejoin="miter" d="M 281.118881 -0.00249316 C 295.09698 -0.00249316 306.423252 11.328989 306.423252 25.307088 C 306.423252 39.279978 295.09698 50.61146 281.118881 50.61146 L 25.303512 50.61146 C 11.330623 50.61146 -0.000859065 39.279978 -0.000859065 25.307088 C -0.000859065 11.328989 11.330623 -0.00249316 25.303512 -0.00249316 Z M 281.118881 -0.00249316 " stroke="#6d123f" stroke-width="4" stroke-opacity="1" stroke-miterlimit="4"/></g></g><g fill="#ffffff" fill-opacity="1"><g transform="translate(24.997644, 23.751867)"><g><path d="M 6.859375 0.160156 C 8.652344 0.160156 10.171875 -0.289062 10.921875 -0.703125 L 11.179688 -2.78125 L 11.003906 -2.796875 C 10.378906 -1.070312 9.035156 -0.160156 7.308594 -0.160156 C 3.980469 -0.160156 2.160156 -3.039062 2.175781 -6.046875 C 2.175781 -9.308594 4.140625 -11.003906 6.683594 -11.003906 C 8.589844 -11.003906 10.109375 -10.027344 10.730469 -8.570312 L 10.890625 -8.605469 L 10.828125 -10.507812 C 10.203125 -10.90625 8.605469 -11.308594 7.230469 -11.308594 C 3.46875 -11.308594 0.832031 -8.78125 0.832031 -5.375 C 0.832031 -1.886719 3.183594 0.160156 6.859375 0.160156 Z M 6.859375 0.160156 "/></g></g></g><g fill="#ffffff" fill-opacity="1"><g transform="translate(39.790406, 23.751867)"><g><path d="M 6.523438 0.160156 C 9.210938 0.160156 12.1875 -1.597656 12.1875 -5.550781 C 12.1875 -9.46875 9.226562 -11.324219 6.523438 -11.324219 C 3.132812 -11.324219 0.832031 -8.890625 0.832031 -5.613281 C 0.832031 -1.648438 3.804688 0.160156 6.523438 0.160156 Z M 2.109375 -6.542969 C 2.015625 -9.148438 3.4375 -10.953125 5.871094 -10.953125 C 8.730469 -10.953125 10.828125 -7.835938 10.9375 -4.492188 C 11.019531 -2.09375 9.753906 -0.238281 7.195312 -0.238281 C 4.335938 -0.238281 2.222656 -3.328125 2.109375 -6.542969 Z M 2.109375 -6.542969 "/></g></g></g><g fill="#ffffff" fill-opacity="1"><g transform="translate(55.734548, 23.751867)"><g><path d="M 9.261719 0.128906 L 9.46875 0.128906 L 9.46875 -9.164062 C 9.46875 -10.476562 9.613281 -10.84375 10.109375 -10.988281 L 10.109375 -11.195312 L 8.09375 -11.195312 L 8.09375 -10.988281 C 8.8125 -10.796875 9.195312 -10.347656 9.195312 -8.523438 L 9.195312 -2.144531 L 2.207031 -11.195312 L 0.640625 -11.195312 L 0.640625 -10.988281 C 1.28125 -10.84375 1.472656 -10.476562 1.472656 -9.164062 L 1.472656 -2.03125 C 1.472656 -0.71875 1.3125 -0.351562 0.832031 -0.207031 L 0.832031 0 L 2.832031 0 L 2.832031 -0.207031 C 2.109375 -0.398438 1.726562 -0.847656 1.726562 -2.671875 L 1.726562 -9.675781 Z M 9.261719 0.128906 "/></g></g></g><g fill="#ffffff" fill-opacity="1"><g transform="translate(69.423911, 23.751867)"><g><path d="M 3.183594 0 L 5.789062 0 L 5.789062 -0.207031 C 5.292969 -0.351562 5.148438 -0.71875 5.148438 -2.03125 L 5.148438 -10.9375 L 5.902344 -10.9375 C 7.339844 -10.9375 7.964844 -10.554688 8.507812 -9.402344 L 8.683594 -9.4375 L 8.589844 -11.195312 L 0.351562 -11.195312 L 0.257812 -9.4375 L 0.433594 -9.402344 C 0.976562 -10.554688 1.597656 -10.9375 3.039062 -10.9375 L 3.824219 -10.9375 L 3.824219 -2.03125 C 3.824219 -0.71875 3.679688 -0.351562 3.183594 -0.207031 Z M 3.183594 0 "/></g></g></g><g fill="#ffffff" fill-opacity="1"><g transform="translate(81.322232, 23.751867)"><g><path d="M 0.816406 0 L 8.699219 0 L 8.828125 -2.128906 L 8.652344 -2.160156 C 8.078125 -0.671875 7.101562 -0.238281 5.566406 -0.238281 L 3.488281 -0.238281 C 3.023438 -0.238281 2.765625 -0.496094 2.765625 -0.960938 L 2.765625 -5.871094 L 4.8125 -5.871094 C 6.636719 -5.871094 7.101562 -5.5 7.292969 -4.78125 L 7.484375 -4.78125 L 7.484375 -7.195312 L 7.292969 -7.195312 C 7.101562 -6.476562 6.636719 -6.109375 4.8125 -6.109375 L 2.765625 -6.109375 L 2.765625 -10.953125 L 5.117188 -10.953125 C 6.75 -10.953125 7.691406 -10.476562 8.253906 -9.066406 L 8.429688 -9.117188 L 8.253906 -11.195312 L 0.816406 -11.195312 L 0.816406 -10.988281 C 1.296875 -10.84375 1.457031 -10.476562 1.457031 -9.164062 L 1.457031 -2.03125 C 1.457031 -0.71875 1.296875 -0.351562 0.816406 -0.207031 Z M 0.816406 0 "/></g></g></g><g fill="#ffffff" fill-opacity="1"><g transform="translate(93.684299, 23.751867)"><g><path d="M 9.261719 0.128906 L 9.46875 0.128906 L 9.46875 -9.164062 C 9.46875 -10.476562 9.613281 -10.84375 10.109375 -10.988281 L 10.109375 -11.195312 L 8.09375 -11.195312 L 8.09375 -10.988281 C 8.8125 -10.796875 9.195312 -10.347656 9.195312 -8.523438 L 9.195312 -2.144531 L 2.207031 -11.195312 L 0.640625 -11.195312 L 0.640625 -10.988281 C 1.28125 -10.84375 1.472656 -10.476562 1.472656 -9.164062 L 1.472656 -2.03125 C 1.472656 -0.71875 1.3125 -0.351562 0.832031 -0.207031 L 0.832031 0 L 2.832031 0 L 2.832031 -0.207031 C 2.109375 -0.398438 1.726562 -0.847656 1.726562 -2.671875 L 1.726562 -9.675781 Z M 9.261719 0.128906 "/></g></g></g><g fill="#ffffff" fill-opacity="1"><g transform="translate(107.373659, 23.751867)"><g><path d="M 3.183594 0 L 5.789062 0 L 5.789062 -0.207031 C 5.292969 -0.351562 5.148438 -0.71875 5.148438 -2.03125 L 5.148438 -10.9375 L 5.902344 -10.9375 C 7.339844 -10.9375 7.964844 -10.554688 8.507812 -9.402344 L 8.683594 -9.4375 L 8.589844 -11.195312 L 0.351562 -11.195312 L 0.257812 -9.4375 L 0.433594 -9.402344 C 0.976562 -10.554688 1.597656 -10.9375 3.039062 -10.9375 L 3.824219 -10.9375 L 3.824219 -2.03125 C 3.824219 -0.71875 3.679688 -0.351562 3.183594 -0.207031 Z M 3.183594 0 "/></g></g></g><g fill="#ffffff" fill-opacity="1"><g transform="translate(119.271977, 23.751867)"><g/></g></g><g fill="#ffffff" fill-opacity="1"><g transform="translate(125.573298, 23.751867)"><g><path d="M 6.859375 0.160156 C 8.652344 0.160156 10.171875 -0.289062 10.921875 -0.703125 L 11.179688 -2.78125 L 11.003906 -2.796875 C 10.378906 -1.070312 9.035156 -0.160156 7.308594 -0.160156 C 3.980469 -0.160156 2.160156 -3.039062 2.175781 -6.046875 C 2.175781 -9.308594 4.140625 -11.003906 6.683594 -11.003906 C 8.589844 -11.003906 10.109375 -10.027344 10.730469 -8.570312 L 10.890625 -8.605469 L 10.828125 -10.507812 C 10.203125 -10.90625 8.605469 -11.308594 7.230469 -11.308594 C 3.46875 -11.308594 0.832031 -8.78125 0.832031 -5.375 C 0.832031 -1.886719 3.183594 0.160156 6.859375 0.160156 Z M 6.859375 0.160156 "/></g></g></g><g fill="#ffffff" fill-opacity="1"><g transform="translate(140.366057, 23.751867)"><g><path d="M 8.957031 0.113281 C 9.277344 0.113281 9.691406 0.078125 9.929688 0 L 9.929688 -0.191406 C 9.851562 -0.175781 9.773438 -0.175781 9.675781 -0.175781 C 9.132812 -0.175781 8.8125 -0.703125 8.042969 -2.621094 C 7.277344 -4.589844 6.972656 -5.566406 5.003906 -5.820312 C 7.085938 -6.0625 8.171875 -7.195312 8.171875 -8.699219 C 8.171875 -10.125 7.210938 -11.195312 3.964844 -11.195312 L 0.816406 -11.195312 L 0.816406 -10.988281 C 1.3125 -10.84375 1.457031 -10.476562 1.457031 -9.164062 L 1.457031 -2.03125 C 1.457031 -0.71875 1.3125 -0.351562 0.816406 -0.207031 L 0.816406 0 L 3.40625 0 L 3.40625 -0.207031 C 2.910156 -0.351562 2.765625 -0.71875 2.765625 -2.03125 L 2.765625 -5.773438 L 3.789062 -5.773438 C 5.710938 -5.773438 5.835938 -4.652344 6.765625 -2.445312 C 7.46875 -0.785156 7.722656 0.113281 8.957031 0.113281 Z M 2.765625 -6.011719 L 2.765625 -10.921875 C 3.023438 -10.9375 3.277344 -10.953125 3.519531 -10.953125 C 5.886719 -10.953125 6.8125 -9.753906 6.8125 -8.332031 C 6.8125 -6.972656 5.949219 -6.011719 4.109375 -6.011719 Z M 2.765625 -6.011719 "/></g></g></g><g fill="#ffffff" fill-opacity="1"><g transform="translate(153.09593, 23.751867)"><g><path d="M 0.816406 0 L 8.699219 0 L 8.828125 -2.128906 L 8.652344 -2.160156 C 8.078125 -0.671875 7.101562 -0.238281 5.566406 -0.238281 L 3.488281 -0.238281 C 3.023438 -0.238281 2.765625 -0.496094 2.765625 -0.960938 L 2.765625 -5.871094 L 4.8125 -5.871094 C 6.636719 -5.871094 7.101562 -5.5 7.292969 -4.78125 L 7.484375 -4.78125 L 7.484375 -7.195312 L 7.292969 -7.195312 C 7.101562 -6.476562 6.636719 -6.109375 4.8125 -6.109375 L 2.765625 -6.109375 L 2.765625 -10.953125 L 5.117188 -10.953125 C 6.75 -10.953125 7.691406 -10.476562 8.253906 -9.066406 L 8.429688 -9.117188 L 8.253906 -11.195312 L 0.816406 -11.195312 L 0.816406 -10.988281 C 1.296875 -10.84375 1.457031 -10.476562 1.457031 -9.164062 L 1.457031 -2.03125 C 1.457031 -0.71875 1.296875 -0.351562 0.816406 -0.207031 Z M 0.816406 0 "/></g></g></g><g fill="#ffffff" fill-opacity="1"><g transform="translate(165.457997, 23.751867)"><g><path d="M -0.273438 0 L 1.535156 0 L 1.535156 -0.207031 C 0.992188 -0.320312 0.925781 -0.847656 1.34375 -1.886719 L 2.285156 -4.222656 L 6.796875 -4.222656 L 7.773438 -1.871094 C 8.285156 -0.671875 8.414062 -0.351562 7.917969 -0.207031 L 7.917969 0 L 10.394531 0 L 10.394531 -0.207031 C 10.058594 -0.351562 9.675781 -0.671875 9.179688 -1.871094 L 5.246094 -11.324219 L 4.046875 -10.777344 L 4.191406 -10.441406 C 4.316406 -10.1875 4.335938 -9.980469 4.222656 -9.691406 L 1.070312 -1.886719 C 0.574219 -0.671875 0.175781 -0.351562 -0.273438 -0.207031 Z M 2.382812 -4.460938 L 4.511719 -9.722656 L 6.699219 -4.460938 Z M 2.382812 -4.460938 "/></g></g></g><g fill="#ffffff" fill-opacity="1"><g transform="translate(178.65162, 23.751867)"><g><path d="M 3.183594 0 L 5.789062 0 L 5.789062 -0.207031 C 5.292969 -0.351562 5.148438 -0.71875 5.148438 -2.03125 L 5.148438 -10.9375 L 5.902344 -10.9375 C 7.339844 -10.9375 7.964844 -10.554688 8.507812 -9.402344 L 8.683594 -9.4375 L 8.589844 -11.195312 L 0.351562 -11.195312 L 0.257812 -9.4375 L 0.433594 -9.402344 C 0.976562 -10.554688 1.597656 -10.9375 3.039062 -10.9375 L 3.824219 -10.9375 L 3.824219 -2.03125 C 3.824219 -0.71875 3.679688 -0.351562 3.183594 -0.207031 Z M 3.183594 0 "/></g></g></g><g fill="#ffffff" fill-opacity="1"><g transform="translate(190.549938, 23.751867)"><g><path d="M 6.523438 0.160156 C 9.210938 0.160156 12.1875 -1.597656 12.1875 -5.550781 C 12.1875 -9.46875 9.226562 -11.324219 6.523438 -11.324219 C 3.132812 -11.324219 0.832031 -8.890625 0.832031 -5.613281 C 0.832031 -1.648438 3.804688 0.160156 6.523438 0.160156 Z M 2.109375 -6.542969 C 2.015625 -9.148438 3.4375 -10.953125 5.871094 -10.953125 C 8.730469 -10.953125 10.828125 -7.835938 10.9375 -4.492188 C 11.019531 -2.09375 9.753906 -0.238281 7.195312 -0.238281 C 4.335938 -0.238281 2.222656 -3.328125 2.109375 -6.542969 Z M 2.109375 -6.542969 "/></g></g></g><g fill="#ffffff" fill-opacity="1"><g transform="translate(206.494077, 23.751867)"><g><path d="M 8.957031 0.113281 C 9.277344 0.113281 9.691406 0.078125 9.929688 0 L 9.929688 -0.191406 C 9.851562 -0.175781 9.773438 -0.175781 9.675781 -0.175781 C 9.132812 -0.175781 8.8125 -0.703125 8.042969 -2.621094 C 7.277344 -4.589844 6.972656 -5.566406 5.003906 -5.820312 C 7.085938 -6.0625 8.171875 -7.195312 8.171875 -8.699219 C 8.171875 -10.125 7.210938 -11.195312 3.964844 -11.195312 L 0.816406 -11.195312 L 0.816406 -10.988281 C 1.3125 -10.84375 1.457031 -10.476562 1.457031 -9.164062 L 1.457031 -2.03125 C 1.457031 -0.71875 1.3125 -0.351562 0.816406 -0.207031 L 0.816406 0 L 3.40625 0 L 3.40625 -0.207031 C 2.910156 -0.351562 2.765625 -0.71875 2.765625 -2.03125 L 2.765625 -5.773438 L 3.789062 -5.773438 C 5.710938 -5.773438 5.835938 -4.652344 6.765625 -2.445312 C 7.46875 -0.785156 7.722656 0.113281 8.957031 0.113281 Z M 2.765625 -6.011719 L 2.765625 -10.921875 C 3.023438 -10.9375 3.277344 -10.953125 3.519531 -10.953125 C 5.886719 -10.953125 6.8125 -9.753906 6.8125 -8.332031 C 6.8125 -6.972656 5.949219 -6.011719 4.109375 -6.011719 Z M 2.765625 -6.011719 "/></g></g></g><g clip-path="url(#e49e5aea71)"><g clip-path="url(#829aeb68bd)"><path fill="#5a6c37" d="M 607.730469 1.210938 L 837.511719 1.210938 L 837.511719 38.046875 L 607.730469 38.046875 Z M 607.730469 1.210938 " fill-opacity="1" fill-rule="nonzero"/></g></g><g clip-path="url(#f6df151c8f)"><g clip-path="url(#c95ba21cc8)"><path stroke-linecap="butt" transform="matrix(0.749778, 0, 0, 0.749778, 607.732466, 1.210965)" fill="none" stroke-linejoin="miter" d="M 281.184805 -0.0000371775 C 295.162904 -0.0000371775 306.494386 10.998013 306.494386 24.564532 C 306.494386 38.125841 295.162904 49.123891 281.184805 49.123891 L 25.312128 49.123891 C 11.334028 49.123891 0.00254637 38.125841 0.00254637 24.564532 C 0.00254637 10.998013 11.334028 -0.0000371775 25.312128 -0.0000371775 Z M 281.184805 -0.0000371775 " stroke="#6d123f" stroke-width="4" stroke-opacity="1" stroke-miterlimit="4"/></g></g><g fill="#ffffff" fill-opacity="1"><g transform="translate(652.067994, 24.957057)"><g><path d="M 1.136719 -9.308594 L 4.878906 0.078125 L 5.324219 0.078125 L 8.957031 -9.308594 C 9.417969 -10.523438 9.820312 -10.84375 10.25 -10.988281 L 10.25 -11.195312 L 8.460938 -11.195312 L 8.460938 -10.988281 C 9.003906 -10.875 9.066406 -10.347656 8.667969 -9.292969 L 5.628906 -1.390625 L 2.542969 -9.308594 C 2.0625 -10.523438 1.949219 -10.84375 2.429688 -10.988281 L 2.429688 -11.195312 L -0.0625 -11.195312 L -0.0625 -10.988281 C 0.273438 -10.84375 0.65625 -10.523438 1.136719 -9.308594 Z M 1.136719 -9.308594 "/></g></g></g><g fill="#ffffff" fill-opacity="1"><g transform="translate(665.18166, 24.957057)"><g><path d="M 0.816406 0 L 3.40625 0 L 3.40625 -0.207031 C 2.910156 -0.351562 2.765625 -0.71875 2.765625 -2.03125 L 2.765625 -9.164062 C 2.765625 -10.476562 2.910156 -10.84375 3.40625 -10.988281 L 3.40625 -11.195312 L 0.816406 -11.195312 L 0.816406 -10.988281 C 1.296875 -10.84375 1.457031 -10.476562 1.457031 -9.164062 L 1.457031 -2.03125 C 1.457031 -0.71875 1.296875 -0.351562 0.816406 -0.207031 Z M 0.816406 0 "/></g></g></g><g fill="#ffffff" fill-opacity="1"><g transform="translate(672.346517, 24.957057)"><g><path d="M 0.816406 0 L 5.003906 0 C 8.523438 0 10.796875 -2.429688 10.777344 -5.804688 C 10.761719 -8.394531 9.035156 -11.195312 4.636719 -11.195312 L 0.816406 -11.195312 L 0.816406 -10.988281 C 1.296875 -10.84375 1.457031 -10.476562 1.457031 -9.164062 L 1.457031 -2.03125 C 1.457031 -0.71875 1.296875 -0.351562 0.816406 -0.207031 Z M 2.765625 -1.40625 L 2.765625 -10.953125 L 3.855469 -10.953125 C 7.421875 -10.953125 9.324219 -8.363281 9.324219 -5.164062 C 9.324219 -1.824219 7.773438 -0.238281 4.972656 -0.238281 L 3.804688 -0.238281 C 2.925781 -0.238281 2.765625 -0.65625 2.765625 -1.40625 Z M 2.765625 -1.40625 "/></g></g></g><g fill="#ffffff" fill-opacity="1"><g transform="translate(686.883418, 24.957057)"><g><path d="M 0.816406 0 L 8.699219 0 L 8.828125 -2.128906 L 8.652344 -2.160156 C 8.078125 -0.671875 7.101562 -0.238281 5.566406 -0.238281 L 3.488281 -0.238281 C 3.023438 -0.238281 2.765625 -0.496094 2.765625 -0.960938 L 2.765625 -5.871094 L 4.8125 -5.871094 C 6.636719 -5.871094 7.101562 -5.5 7.292969 -4.78125 L 7.484375 -4.78125 L 7.484375 -7.195312 L 7.292969 -7.195312 C 7.101562 -6.476562 6.636719 -6.109375 4.8125 -6.109375 L 2.765625 -6.109375 L 2.765625 -10.953125 L 5.117188 -10.953125 C 6.75 -10.953125 7.691406 -10.476562 8.253906 -9.066406 L 8.429688 -9.117188 L 8.253906 -11.195312 L 0.816406 -11.195312 L 0.816406 -10.988281 C 1.296875 -10.84375 1.457031 -10.476562 1.457031 -9.164062 L 1.457031 -2.03125 C 1.457031 -0.71875 1.296875 -0.351562 0.816406 -0.207031 Z M 0.816406 0 "/></g></g></g><g fill="#ffffff" fill-opacity="1"><g transform="translate(699.245488, 24.957057)"><g><path d="M 6.523438 0.160156 C 9.210938 0.160156 12.1875 -1.597656 12.1875 -5.550781 C 12.1875 -9.46875 9.226562 -11.324219 6.523438 -11.324219 C 3.132812 -11.324219 0.832031 -8.890625 0.832031 -5.613281 C 0.832031 -1.648438 3.804688 0.160156 6.523438 0.160156 Z M 2.109375 -6.542969 C 2.015625 -9.148438 3.4375 -10.953125 5.871094 -10.953125 C 8.730469 -10.953125 10.828125 -7.835938 10.9375 -4.492188 C 11.019531 -2.09375 9.753906 -0.238281 7.195312 -0.238281 C 4.335938 -0.238281 2.222656 -3.328125 2.109375 -6.542969 Z M 2.109375 -6.542969 "/></g></g></g><g fill="#ffffff" fill-opacity="1"><g transform="translate(715.189627, 24.957057)"><g/></g></g><g fill="#ffffff" fill-opacity="1"><g transform="translate(721.490948, 24.957057)"><g><path d="M 0.816406 0 L 8.699219 0 L 8.828125 -2.128906 L 8.652344 -2.160156 C 8.078125 -0.671875 7.101562 -0.238281 5.566406 -0.238281 L 3.488281 -0.238281 C 3.023438 -0.238281 2.765625 -0.496094 2.765625 -0.960938 L 2.765625 -5.871094 L 4.8125 -5.871094 C 6.636719 -5.871094 7.101562 -5.5 7.292969 -4.78125 L 7.484375 -4.78125 L 7.484375 -7.195312 L 7.292969 -7.195312 C 7.101562 -6.476562 6.636719 -6.109375 4.8125 -6.109375 L 2.765625 -6.109375 L 2.765625 -10.953125 L 5.117188 -10.953125 C 6.75 -10.953125 7.691406 -10.476562 8.253906 -9.066406 L 8.429688 -9.117188 L 8.253906 -11.195312 L 0.816406 -11.195312 L 0.816406 -10.988281 C 1.296875 -10.84375 1.457031 -10.476562 1.457031 -9.164062 L 1.457031 -2.03125 C 1.457031 -0.71875 1.296875 -0.351562 0.816406 -0.207031 Z M 0.816406 0 "/></g></g></g><g fill="#ffffff" fill-opacity="1"><g transform="translate(733.853015, 24.957057)"><g><path d="M 0.816406 0 L 5.003906 0 C 8.523438 0 10.796875 -2.429688 10.777344 -5.804688 C 10.761719 -8.394531 9.035156 -11.195312 4.636719 -11.195312 L 0.816406 -11.195312 L 0.816406 -10.988281 C 1.296875 -10.84375 1.457031 -10.476562 1.457031 -9.164062 L 1.457031 -2.03125 C 1.457031 -0.71875 1.296875 -0.351562 0.816406 -0.207031 Z M 2.765625 -1.40625 L 2.765625 -10.953125 L 3.855469 -10.953125 C 7.421875 -10.953125 9.324219 -8.363281 9.324219 -5.164062 C 9.324219 -1.824219 7.773438 -0.238281 4.972656 -0.238281 L 3.804688 -0.238281 C 2.925781 -0.238281 2.765625 -0.65625 2.765625 -1.40625 Z M 2.765625 -1.40625 "/></g></g></g><g fill="#ffffff" fill-opacity="1"><g transform="translate(748.389913, 24.957057)"><g><path d="M 0.816406 0 L 3.40625 0 L 3.40625 -0.207031 C 2.910156 -0.351562 2.765625 -0.71875 2.765625 -2.03125 L 2.765625 -9.164062 C 2.765625 -10.476562 2.910156 -10.84375 3.40625 -10.988281 L 3.40625 -11.195312 L 0.816406 -11.195312 L 0.816406 -10.988281 C 1.296875 -10.84375 1.457031 -10.476562 1.457031 -9.164062 L 1.457031 -2.03125 C 1.457031 -0.71875 1.296875 -0.351562 0.816406 -0.207031 Z M 0.816406 0 "/></g></g></g><g fill="#ffffff" fill-opacity="1"><g transform="translate(755.554767, 24.957057)"><g><path d="M 3.183594 0 L 5.789062 0 L 5.789062 -0.207031 C 5.292969 -0.351562 5.148438 -0.71875 5.148438 -2.03125 L 5.148438 -10.9375 L 5.902344 -10.9375 C 7.339844 -10.9375 7.964844 -10.554688 8.507812 -9.402344 L 8.683594 -9.4375 L 8.589844 -11.195312 L 0.351562 -11.195312 L 0.257812 -9.4375 L 0.433594 -9.402344 C 0.976562 -10.554688 1.597656 -10.9375 3.039062 -10.9375 L 3.824219 -10.9375 L 3.824219 -2.03125 C 3.824219 -0.71875 3.679688 -0.351562 3.183594 -0.207031 Z M 3.183594 0 "/></g></g></g><g fill="#ffffff" fill-opacity="1"><g transform="translate(767.453085, 24.957057)"><g><path d="M 6.523438 0.160156 C 9.210938 0.160156 12.1875 -1.597656 12.1875 -5.550781 C 12.1875 -9.46875 9.226562 -11.324219 6.523438 -11.324219 C 3.132812 -11.324219 0.832031 -8.890625 0.832031 -5.613281 C 0.832031 -1.648438 3.804688 0.160156 6.523438 0.160156 Z M 2.109375 -6.542969 C 2.015625 -9.148438 3.4375 -10.953125 5.871094 -10.953125 C 8.730469 -10.953125 10.828125 -7.835938 10.9375 -4.492188 C 11.019531 -2.09375 9.753906 -0.238281 7.195312 -0.238281 C 4.335938 -0.238281 2.222656 -3.328125 2.109375 -6.542969 Z M 2.109375 -6.542969 "/></g></g></g><g fill="#ffffff" fill-opacity="1"><g transform="translate(783.397224, 24.957057)"><g><path d="M 8.957031 0.113281 C 9.277344 0.113281 9.691406 0.078125 9.929688 0 L 9.929688 -0.191406 C 9.851562 -0.175781 9.773438 -0.175781 9.675781 -0.175781 C 9.132812 -0.175781 8.8125 -0.703125 8.042969 -2.621094 C 7.277344 -4.589844 6.972656 -5.566406 5.003906 -5.820312 C 7.085938 -6.0625 8.171875 -7.195312 8.171875 -8.699219 C 8.171875 -10.125 7.210938 -11.195312 3.964844 -11.195312 L 0.816406 -11.195312 L 0.816406 -10.988281 C 1.3125 -10.84375 1.457031 -10.476562 1.457031 -9.164062 L 1.457031 -2.03125 C 1.457031 -0.71875 1.3125 -0.351562 0.816406 -0.207031 L 0.816406 0 L 3.40625 0 L 3.40625 -0.207031 C 2.910156 -0.351562 2.765625 -0.71875 2.765625 -2.03125 L 2.765625 -5.773438 L 3.789062 -5.773438 C 5.710938 -5.773438 5.835938 -4.652344 6.765625 -2.445312 C 7.46875 -0.785156 7.722656 0.113281 8.957031 0.113281 Z M 2.765625 -6.011719 L 2.765625 -10.921875 C 3.023438 -10.9375 3.277344 -10.953125 3.519531 -10.953125 C 5.886719 -10.953125 6.8125 -9.753906 6.8125 -8.332031 C 6.8125 -6.972656 5.949219 -6.011719 4.109375 -6.011719 Z M 2.765625 -6.011719 "/></g></g></g></svg>