<svg xmlns="http://www.w3.org/2000/svg" xmlns:xlink="http://www.w3.org/1999/xlink" width="113" zoomAndPan="magnify" viewBox="0 0 84.75 85.499998" height="114" preserveAspectRatio="xMidYMid meet" version="1.0"><defs><clipPath id="1cbf6717a5"><path d="M 4.925781 0 L 83.964844 0 L 83.964844 79.039062 L 4.925781 79.039062 Z M 4.925781 0 " clip-rule="nonzero"/></clipPath><clipPath id="93232529e6"><path d="M 0.121094 6.878906 L 77.667969 6.878906 L 77.667969 84.425781 L 0.121094 84.425781 Z M 0.121094 6.878906 " clip-rule="nonzero"/></clipPath><clipPath id="ecc6c3ecb3"><path d="M 22.957031 29.785156 L 58.746094 29.785156 L 58.746094 65.574219 L 22.957031 65.574219 Z M 22.957031 29.785156 " clip-rule="nonzero"/></clipPath></defs><g clip-path="url(#1cbf6717a5)"><path fill="#000000" d="M 44.445312 0 C 22.621094 0 4.925781 17.699219 4.925781 39.519531 C 4.925781 61.339844 22.621094 79.039062 44.445312 79.039062 C 66.265625 79.039062 83.960938 61.339844 83.960938 39.519531 C 83.960938 17.699219 66.265625 0 44.445312 0 Z M 44.445312 0 " fill-opacity="1" fill-rule="nonzero"/></g><path fill="#fffefe" d="M 75.65625 45.5625 C 75.65625 65.914062 59.15625 82.410156 38.808594 82.410156 C 18.457031 82.410156 1.960938 65.914062 1.960938 45.5625 C 1.960938 25.210938 18.457031 8.714844 38.808594 8.714844 C 59.15625 8.714844 75.65625 25.210938 75.65625 45.5625 Z M 75.65625 45.5625 " fill-opacity="1" fill-rule="nonzero"/><g clip-path="url(#93232529e6)"><path stroke-linecap="square" transform="matrix(0.0129991, 0, 0, -0.0129991, 0.070098, 84.300208)" fill="none" stroke-linejoin="miter" d="M 5814.739843 2980.039171 C 5814.739843 1414.421154 4545.41729 145.399103 2980.099776 145.399103 C 1414.48176 145.399103 145.459709 1414.421154 145.459709 2980.039171 C 145.459709 4545.657187 1414.48176 5814.679238 2980.099776 5814.679238 C 4545.41729 5814.679238 5814.739843 4545.657187 5814.739843 2980.039171 Z M 5814.739843 2980.039171 " stroke="#e2e2e2" stroke-width="283.465" stroke-opacity="1" stroke-miterlimit="4"/></g><path fill="#000000" d="M 42.664062 48.601562 C 42.441406 48.777344 42.199219 48.914062 41.933594 49.007812 C 41.667969 49.101562 41.394531 49.148438 41.113281 49.148438 C 40.832031 49.148438 40.558594 49.101562 40.292969 49.007812 C 40.027344 48.914062 39.785156 48.777344 39.566406 48.601562 L 38.738281 47.933594 L 31.820312 54.648438 L 50.410156 54.648438 L 43.492188 47.933594 Z M 42.664062 48.601562 " fill-opacity="1" fill-rule="nonzero"/><path fill="#000000" d="M 31.070312 41.753906 L 31.070312 53.929688 L 37.925781 47.277344 Z M 31.070312 41.753906 " fill-opacity="1" fill-rule="nonzero"/><path fill="#000000" d="M 42.011719 47.792969 L 50.269531 41.140625 L 31.960938 41.140625 L 40.21875 47.792969 C 40.480469 48.003906 40.777344 48.109375 41.113281 48.109375 C 41.449219 48.109375 41.75 48.003906 42.011719 47.792969 Z M 42.011719 47.792969 " fill-opacity="1" fill-rule="nonzero"/><path fill="#000000" d="M 51.160156 53.933594 L 51.160156 41.753906 L 44.304688 47.277344 Z M 51.160156 53.933594 " fill-opacity="1" fill-rule="nonzero"/><g clip-path="url(#ecc6c3ecb3)"><path fill="#000000" d="M 40.851562 29.785156 C 30.984375 29.785156 22.957031 37.8125 22.957031 47.679688 C 22.957031 57.546875 30.984375 65.574219 40.851562 65.574219 C 50.71875 65.574219 58.746094 57.546875 58.746094 47.679688 C 58.746094 37.8125 50.71875 29.785156 40.851562 29.785156 Z M 52.199219 54.3125 C 52.199219 54.492188 52.164062 54.667969 52.09375 54.835938 C 52.023438 55.003906 51.925781 55.152344 51.796875 55.28125 C 51.667969 55.410156 51.519531 55.511719 51.351562 55.582031 C 51.183594 55.648438 51.007812 55.683594 50.824219 55.6875 L 31.40625 55.6875 C 31.222656 55.683594 31.046875 55.648438 30.878906 55.582031 C 30.710938 55.511719 30.5625 55.410156 30.433594 55.28125 C 30.304688 55.152344 30.207031 55.003906 30.136719 54.835938 C 30.066406 54.667969 30.03125 54.492188 30.03125 54.3125 L 30.03125 41.476562 C 30.03125 41.292969 30.066406 41.121094 30.136719 40.949219 C 30.207031 40.78125 30.304688 40.632812 30.433594 40.503906 C 30.5625 40.375 30.710938 40.277344 30.878906 40.207031 C 31.046875 40.136719 31.222656 40.101562 31.40625 40.101562 L 50.824219 40.101562 C 51.007812 40.101562 51.183594 40.136719 51.351562 40.207031 C 51.519531 40.277344 51.667969 40.375 51.796875 40.503906 C 51.925781 40.632812 52.023438 40.78125 52.09375 40.949219 C 52.164062 41.117188 52.199219 41.292969 52.199219 41.476562 Z M 52.199219 54.3125 " fill-opacity="1" fill-rule="nonzero"/></g></svg>