<svg xmlns="http://www.w3.org/2000/svg" xmlns:xlink="http://www.w3.org/1999/xlink" width="100" zoomAndPan="magnify" viewBox="0 0 75 45.749998" height="61" preserveAspectRatio="xMidYMid meet" version="1.0"><defs><clipPath id="40b2b5b198"><path d="M 3 4 L 65 4 L 65 35 L 3 35 Z M 3 4 " clip-rule="nonzero"/></clipPath><clipPath id="53dc396b78"><path d="M 0.203125 23.371094 L 64.75 0.0664062 L 72.605469 21.8125 L 8.058594 45.121094 Z M 0.203125 23.371094 " clip-rule="nonzero"/></clipPath><clipPath id="2a62375825"><path d="M 0.203125 23.371094 L 64.75 0.0664062 L 72.605469 21.8125 L 8.058594 45.121094 Z M 0.203125 23.371094 " clip-rule="nonzero"/></clipPath><clipPath id="29a4d594a6"><path d="M 2 3 L 70 3 L 70 41 L 2 41 Z M 2 3 " clip-rule="nonzero"/></clipPath><clipPath id="b1ef44c557"><path d="M 0.203125 23.371094 L 64.75 0.0664062 L 72.605469 21.8125 L 8.058594 45.121094 Z M 0.203125 23.371094 " clip-rule="nonzero"/></clipPath><clipPath id="44105b1d8c"><path d="M 0.203125 23.371094 L 64.75 0.0664062 L 72.605469 21.8125 L 8.058594 45.121094 Z M 0.203125 23.371094 " clip-rule="nonzero"/></clipPath><clipPath id="82757f7e36"><path d="M 4 4 L 67 4 L 67 35 L 4 35 Z M 4 4 " clip-rule="nonzero"/></clipPath><clipPath id="1348ca244a"><path d="M 1.898438 23.601562 L 66.445312 0.296875 L 74.296875 22.046875 L 9.75 45.351562 Z M 1.898438 23.601562 " clip-rule="nonzero"/></clipPath><clipPath id="38cef37014"><path d="M 1.898438 23.601562 L 66.445312 0.296875 L 74.296875 22.046875 L 9.75 45.351562 Z M 1.898438 23.601562 " clip-rule="nonzero"/></clipPath><clipPath id="c741cf72ca"><path d="M 4 3 L 72 3 L 72 41 L 4 41 Z M 4 3 " clip-rule="nonzero"/></clipPath><clipPath id="dbd62dd7b7"><path d="M 1.898438 23.601562 L 66.445312 0.296875 L 74.296875 22.046875 L 9.75 45.351562 Z M 1.898438 23.601562 " clip-rule="nonzero"/></clipPath><clipPath id="35b866b850"><path d="M 1.898438 23.601562 L 66.445312 0.296875 L 74.296875 22.046875 L 9.75 45.351562 Z M 1.898438 23.601562 " clip-rule="nonzero"/></clipPath></defs><g clip-path="url(#40b2b5b198)"><g clip-path="url(#53dc396b78)"><g clip-path="url(#2a62375825)"><path fill="#a91b60" d="M 17.894531 34.507812 L 3.285156 29.960938 L 5.191406 23.835938 L 15.160156 26.941406 L 22.171875 16.148438 L 34.460938 19.972656 L 41.46875 9.179688 L 53.761719 13.003906 L 59.449219 4.246094 L 64.828125 7.738281 L 56.492188 20.574219 L 44.203125 16.746094 L 37.191406 27.542969 L 24.902344 23.714844 Z M 17.894531 34.507812 L 3.285156 29.960938 L 5.191406 23.835938 L 15.160156 26.941406 L 22.171875 16.148438 L 34.460938 19.972656 L 41.46875 9.179688 L 53.761719 13.003906 L 59.449219 4.246094 L 64.828125 7.738281 L 56.492188 20.574219 L 44.203125 16.746094 L 37.191406 27.542969 L 24.902344 23.714844 Z M 17.894531 34.507812 " fill-opacity="1" fill-rule="nonzero"/></g></g></g><g clip-path="url(#29a4d594a6)"><g clip-path="url(#b1ef44c557)"><g clip-path="url(#44105b1d8c)"><path fill="#6d123f" d="M 69.179688 12.160156 L 64.589844 9.175781 L 65.316406 8.058594 C 65.398438 7.929688 65.429688 7.769531 65.398438 7.617188 C 65.363281 7.46875 65.273438 7.335938 65.144531 7.25 L 59.765625 3.757812 C 59.496094 3.582031 59.136719 3.660156 58.960938 3.929688 L 53.511719 12.316406 L 41.644531 8.621094 C 41.394531 8.542969 41.125 8.640625 40.980469 8.859375 L 34.210938 19.285156 L 22.34375 15.589844 C 22.09375 15.511719 21.824219 15.609375 21.683594 15.828125 L 14.914062 26.253906 L 5.367188 23.28125 C 5.21875 23.234375 5.058594 23.25 4.921875 23.320312 C 4.785156 23.390625 4.683594 23.515625 4.636719 23.664062 L 2.730469 29.785156 C 2.632812 30.09375 2.804688 30.421875 3.113281 30.515625 L 7.628906 31.921875 L 6.765625 34.695312 C 6.671875 35.003906 6.84375 35.328125 7.148438 35.425781 L 21.757812 39.976562 C 21.882812 40.015625 22.011719 40.007812 22.128906 39.96875 C 22.246094 39.925781 22.347656 39.84375 22.421875 39.734375 L 29.1875 29.3125 L 41.058594 33.007812 C 41.304688 33.085938 41.578125 32.988281 41.71875 32.769531 L 48.488281 22.34375 L 60.355469 26.039062 C 60.605469 26.117188 60.875 26.019531 61.019531 25.800781 L 69.351562 12.96875 C 69.4375 12.835938 69.464844 12.679688 69.433594 12.527344 C 69.402344 12.375 69.3125 12.246094 69.179688 12.160156 Z M 5.578125 24.566406 L 14.988281 27.5 C 15.238281 27.574219 15.507812 27.476562 15.652344 27.257812 L 22.417969 16.835938 L 34.289062 20.53125 C 34.535156 20.609375 34.808594 20.511719 34.949219 20.292969 L 41.71875 9.867188 L 53.585938 13.5625 C 53.835938 13.640625 54.105469 13.542969 54.25 13.324219 L 59.621094 5.054688 L 64.019531 7.910156 L 56.246094 19.886719 L 44.375 16.191406 C 44.125 16.113281 43.855469 16.210938 43.714844 16.429688 L 36.945312 26.851562 L 25.078125 23.15625 C 24.828125 23.078125 24.558594 23.175781 24.414062 23.398438 L 17.644531 33.820312 L 4.015625 29.574219 Z M 5.578125 24.566406 " fill-opacity="1" fill-rule="nonzero"/></g></g></g><g clip-path="url(#82757f7e36)"><g clip-path="url(#1348ca244a)"><g clip-path="url(#38cef37014)"><path fill="#a91b60" d="M 19.585938 34.742188 L 4.980469 30.191406 L 6.886719 24.070312 L 16.855469 27.175781 L 23.863281 16.378906 L 36.152344 20.207031 L 43.164062 9.414062 L 55.453125 13.238281 L 61.140625 4.480469 L 66.519531 7.972656 L 58.1875 20.804688 L 45.894531 16.980469 L 38.886719 27.773438 L 26.597656 23.949219 Z M 19.585938 34.742188 L 4.980469 30.191406 L 6.886719 24.070312 L 16.855469 27.175781 L 23.863281 16.378906 L 36.152344 20.207031 L 43.164062 9.414062 L 55.453125 13.238281 L 61.140625 4.480469 L 66.519531 7.972656 L 58.1875 20.804688 L 45.894531 16.980469 L 38.886719 27.773438 L 26.597656 23.949219 Z M 19.585938 34.742188 " fill-opacity="1" fill-rule="nonzero"/></g></g></g><g clip-path="url(#c741cf72ca)"><g clip-path="url(#dbd62dd7b7)"><g clip-path="url(#35b866b850)"><path fill="#6d123f" d="M 70.875 12.394531 L 66.28125 9.410156 L 67.007812 8.289062 C 67.09375 8.160156 67.121094 8.003906 67.089844 7.851562 C 67.058594 7.699219 66.964844 7.570312 66.835938 7.484375 L 61.457031 3.992188 C 61.1875 3.816406 60.828125 3.894531 60.652344 4.164062 L 55.207031 12.550781 L 43.335938 8.855469 C 43.085938 8.777344 42.816406 8.875 42.675781 9.09375 L 35.90625 19.519531 L 24.039062 15.824219 C 23.789062 15.746094 23.519531 15.84375 23.375 16.0625 L 16.605469 26.488281 L 7.058594 23.511719 C 6.910156 23.46875 6.75 23.480469 6.613281 23.554688 C 6.476562 23.625 6.375 23.75 6.328125 23.898438 L 4.421875 30.019531 C 4.328125 30.328125 4.5 30.652344 4.804688 30.75 L 9.324219 32.15625 L 8.460938 34.929688 C 8.363281 35.234375 8.535156 35.5625 8.84375 35.660156 L 23.449219 40.207031 C 23.574219 40.246094 23.707031 40.242188 23.824219 40.199219 C 23.9375 40.15625 24.042969 40.078125 24.113281 39.96875 L 30.882812 29.542969 L 42.75 33.242188 C 43 33.316406 43.269531 33.21875 43.410156 33 L 50.179688 22.578125 L 62.050781 26.273438 C 62.296875 26.351562 62.570312 26.25 62.710938 26.03125 L 71.046875 13.199219 C 71.128906 13.070312 71.160156 12.914062 71.125 12.761719 C 71.09375 12.609375 71.003906 12.476562 70.875 12.394531 Z M 7.269531 24.800781 L 16.683594 27.730469 C 16.929688 27.808594 17.203125 27.710938 17.34375 27.492188 L 24.113281 17.066406 L 35.980469 20.765625 C 36.230469 20.839844 36.5 20.742188 36.640625 20.523438 L 43.410156 10.101562 L 55.28125 13.796875 C 55.53125 13.875 55.800781 13.777344 55.941406 13.554688 L 61.3125 5.289062 L 65.714844 8.144531 L 57.9375 20.117188 L 46.070312 16.421875 C 45.820312 16.34375 45.546875 16.441406 45.40625 16.660156 L 38.636719 27.085938 L 26.769531 23.390625 C 26.519531 23.3125 26.25 23.410156 26.109375 23.628906 L 19.339844 34.054688 L 5.710938 29.808594 Z M 7.269531 24.800781 " fill-opacity="1" fill-rule="nonzero"/></g></g></g></svg>