<svg xmlns="http://www.w3.org/2000/svg" xmlns:xlink="http://www.w3.org/1999/xlink" width="113" zoomAndPan="magnify" viewBox="0 0 84.75 85.499998" height="114" preserveAspectRatio="xMidYMid meet" version="1.0"><defs><clipPath id="531436d254"><path d="M 4.925781 0 L 83.964844 0 L 83.964844 79.039062 L 4.925781 79.039062 Z M 4.925781 0 " clip-rule="nonzero"/></clipPath><clipPath id="5a431ba913"><path d="M 0.121094 6.878906 L 77.667969 6.878906 L 77.667969 84.425781 L 0.121094 84.425781 Z M 0.121094 6.878906 " clip-rule="nonzero"/></clipPath><clipPath id="0012535960"><path d="M 34.265625 29.785156 L 49.921875 29.785156 L 49.921875 62.59375 L 34.265625 62.59375 Z M 34.265625 29.785156 " clip-rule="nonzero"/></clipPath></defs><g clip-path="url(#531436d254)"><path fill="#000000" d="M 44.445312 0 C 22.621094 0 4.925781 17.699219 4.925781 39.519531 C 4.925781 61.339844 22.621094 79.039062 44.445312 79.039062 C 66.265625 79.039062 83.960938 61.339844 83.960938 39.519531 C 83.960938 17.699219 66.265625 0 44.445312 0 Z M 44.445312 0 " fill-opacity="1" fill-rule="nonzero"/></g><path fill="#fffefe" d="M 75.65625 45.5625 C 75.65625 65.914062 59.15625 82.410156 38.808594 82.410156 C 18.457031 82.410156 1.960938 65.914062 1.960938 45.5625 C 1.960938 25.210938 18.457031 8.714844 38.808594 8.714844 C 59.15625 8.714844 75.65625 25.210938 75.65625 45.5625 Z M 75.65625 45.5625 " fill-opacity="1" fill-rule="nonzero"/><g clip-path="url(#5a431ba913)"><path stroke-linecap="square" transform="matrix(0.0129991, 0, 0, -0.0129991, 0.070098, 84.300208)" fill="none" stroke-linejoin="miter" d="M 5814.739843 2980.039171 C 5814.739843 1414.421154 4545.41729 145.399103 2980.099776 145.399103 C 1414.48176 145.399103 145.459709 1414.421154 145.459709 2980.039171 C 145.459709 4545.657187 1414.48176 5814.679238 2980.099776 5814.679238 C 4545.41729 5814.679238 5814.739843 4545.657187 5814.739843 2980.039171 Z M 5814.739843 2980.039171 " stroke="#e2e2e2" stroke-width="283.465" stroke-opacity="1" stroke-miterlimit="4"/></g><g clip-path="url(#0012535960)"><path fill="#000000" d="M 46.058594 35.171875 L 49.597656 35.171875 L 49.597656 29.835938 L 45.082031 29.835938 L 45.082031 29.859375 C 39.140625 30.074219 37.917969 33.402344 37.816406 36.917969 L 37.800781 36.917969 L 37.800781 40.617188 L 34.265625 40.617188 L 34.265625 45.957031 L 37.800781 45.957031 L 37.800781 62.1875 L 44.148438 62.1875 L 44.148438 45.957031 L 48.699219 45.957031 L 49.597656 40.617188 L 44.148438 40.617188 L 44.148438 37.304688 C 44.148438 36.128906 44.9375 35.171875 46.058594 35.171875 Z M 46.058594 35.171875 " fill-opacity="1" fill-rule="nonzero"/></g></svg>