<svg xmlns="http://www.w3.org/2000/svg" xmlns:xlink="http://www.w3.org/1999/xlink" width="113" zoomAndPan="magnify" viewBox="0 0 84.75 85.499998" height="114" preserveAspectRatio="xMidYMid meet" version="1.0"><defs><clipPath id="364ee0a4f1"><path d="M 4.925781 0 L 83.964844 0 L 83.964844 79.039062 L 4.925781 79.039062 Z M 4.925781 0 " clip-rule="nonzero"/></clipPath><clipPath id="4639943b9f"><path d="M 0.121094 6.878906 L 77.667969 6.878906 L 77.667969 84.425781 L 0.121094 84.425781 Z M 0.121094 6.878906 " clip-rule="nonzero"/></clipPath><clipPath id="2fd035e0f7"><path d="M 19.191406 29.785156 L 53.488281 29.785156 L 53.488281 64.082031 L 19.191406 64.082031 Z M 19.191406 29.785156 " clip-rule="nonzero"/></clipPath></defs><g clip-path="url(#364ee0a4f1)"><path fill="#000000" d="M 44.445312 0 C 22.621094 0 4.925781 17.699219 4.925781 39.519531 C 4.925781 61.339844 22.621094 79.039062 44.445312 79.039062 C 66.265625 79.039062 83.960938 61.339844 83.960938 39.519531 C 83.960938 17.699219 66.265625 0 44.445312 0 Z M 44.445312 0 " fill-opacity="1" fill-rule="nonzero"/></g><path fill="#fffefe" d="M 75.65625 45.5625 C 75.65625 65.914062 59.15625 82.410156 38.808594 82.410156 C 18.457031 82.410156 1.960938 65.914062 1.960938 45.5625 C 1.960938 25.210938 18.457031 8.714844 38.808594 8.714844 C 59.15625 8.714844 75.65625 25.210938 75.65625 45.5625 Z M 75.65625 45.5625 " fill-opacity="1" fill-rule="nonzero"/><g clip-path="url(#4639943b9f)"><path stroke-linecap="square" transform="matrix(0.0129991, 0, 0, -0.0129991, 0.070098, 84.300208)" fill="none" stroke-linejoin="miter" d="M 5814.739843 2980.039171 C 5814.739843 1414.421154 4545.41729 145.399103 2980.099776 145.399103 C 1414.48176 145.399103 145.459709 1414.421154 145.459709 2980.039171 C 145.459709 4545.657187 1414.48176 5814.679238 2980.099776 5814.679238 C 4545.41729 5814.679238 5814.739843 4545.657187 5814.739843 2980.039171 Z M 5814.739843 2980.039171 " stroke="#e2e2e2" stroke-width="283.465" stroke-opacity="1" stroke-miterlimit="4"/></g><path fill="#000000" d="M 44.882812 36.273438 C 44.0625 36.273438 43.394531 36.9375 43.394531 37.757812 C 43.394531 38.578125 44.0625 39.242188 44.882812 39.242188 C 45.699219 39.242188 46.367188 38.578125 46.367188 37.757812 C 46.367188 36.9375 45.699219 36.273438 44.882812 36.273438 Z M 44.882812 36.273438 " fill-opacity="1" fill-rule="nonzero"/><path fill="#000000" d="M 36.339844 38.507812 C 31.695312 38.507812 27.914062 42.289062 27.914062 46.933594 C 27.914062 51.578125 31.695312 55.359375 36.339844 55.359375 C 40.984375 55.359375 44.765625 51.578125 44.765625 46.933594 C 44.765625 42.289062 40.988281 38.507812 36.339844 38.507812 Z M 36.339844 38.507812 " fill-opacity="1" fill-rule="nonzero"/><g clip-path="url(#2fd035e0f7)"><path fill="#000000" d="M 44.492188 29.792969 L 28.1875 29.792969 C 23.230469 29.792969 19.199219 33.824219 19.199219 38.78125 L 19.199219 55.085938 C 19.199219 60.042969 23.230469 64.074219 28.1875 64.074219 L 44.496094 64.074219 C 49.449219 64.074219 53.480469 60.042969 53.480469 55.085938 L 53.480469 38.78125 C 53.480469 33.824219 49.449219 29.792969 44.492188 29.792969 Z M 44.882812 40.742188 C 44.5625 40.742188 44.257812 40.691406 43.972656 40.597656 C 45.402344 42.320312 46.265625 44.527344 46.265625 46.933594 C 46.265625 52.40625 41.8125 56.855469 36.339844 56.855469 C 30.867188 56.855469 26.417969 52.40625 26.417969 46.933594 C 26.417969 41.460938 30.867188 37.011719 36.339844 37.007812 C 38.492188 37.007812 40.488281 37.699219 42.113281 38.871094 C 41.976562 38.527344 41.898438 38.152344 41.898438 37.757812 C 41.898438 36.113281 43.234375 34.773438 44.882812 34.773438 C 46.527344 34.773438 47.863281 36.113281 47.863281 37.757812 C 47.863281 39.402344 46.527344 40.742188 44.882812 40.742188 Z M 44.882812 40.742188 " fill-opacity="1" fill-rule="nonzero"/></g></svg>