<svg xmlns="http://www.w3.org/2000/svg" xmlns:xlink="http://www.w3.org/1999/xlink" width="781" zoomAndPan="magnify" viewBox="0 0 585.75 381.749991" height="509" preserveAspectRatio="xMidYMid meet" version="1.0"><defs><g/></defs><g fill="#a91b60" fill-opacity="1"><g transform="translate(121.50861, 61.525352)"><g><path d="M 20.421875 0.4375 C 18.984375 0.34375 17.96875 -0.925781 17.375 -3.375 L 12.359375 -23.421875 L 7.453125 -1.515625 C 6.921875 0.929688 5.828125 1.6875 4.171875 0.75 C 2.703125 -0.0703125 2.25 -1.703125 2.8125 -4.140625 L 9.28125 -31.734375 C 9.78125 -33.847656 10.742188 -35.015625 12.171875 -35.234375 C 13.640625 -35.453125 14.578125 -34.71875 14.984375 -33.03125 C 14.984375 -33.03125 16.890625 -25.007812 20.703125 -8.96875 L 27.703125 -31.859375 C 28.503906 -34.453125 29.691406 -35.722656 31.265625 -35.671875 C 32.703125 -35.640625 33.695312 -34.3125 34.25 -31.6875 L 40.28125 -2.40625 C 40.75 -0.175781 40.140625 1.035156 38.453125 1.234375 C 36.660156 1.453125 35.5 0.207031 34.96875 -2.5 L 30.84375 -23.734375 L 23.984375 -3.65625 C 23.015625 -0.8125 21.828125 0.550781 20.421875 0.4375 Z M 20.421875 0.4375 "/></g></g><g transform="translate(163.855875, 61.525352)"><g><path d="M 22.484375 -24.09375 C 23.984375 -23.457031 24.335938 -22.21875 23.546875 -20.375 L 10.171875 10.46875 C 9.085938 12.96875 7.859375 13.9375 6.484375 13.375 C 4.847656 12.695312 4.566406 11.117188 5.640625 8.640625 L 10.3125 -2.125 L 0.5625 -20.171875 C -0.4375 -22.015625 -0.25 -23.300781 1.125 -24.03125 C 2.570312 -24.8125 3.789062 -24.273438 4.78125 -22.421875 L 12.625 -7.5 L 19.046875 -22.28125 C 19.835938 -24.113281 20.984375 -24.71875 22.484375 -24.09375 Z M 22.484375 -24.09375 "/></g></g><g transform="translate(188.823897, 61.525352)"><g/></g><g transform="translate(203.158259, 61.525352)"><g><path d="M 5.171875 -35.5625 C 5.535156 -35.5625 5.859375 -35.53125 6.140625 -35.46875 C 8.585938 -35.6875 10.628906 -35.71875 12.265625 -35.5625 C 17.722656 -35.007812 21.207031 -32.773438 22.71875 -28.859375 C 24.25 -24.878906 23.59375 -21.097656 20.75 -17.515625 C 19.082031 -15.441406 14.96875 -14.222656 8.40625 -13.859375 C 7.9375 -13.828125 7.507812 -13.835938 7.125 -13.890625 L 6.84375 -1.359375 C 6.8125 0.265625 5.953125 1.0625 4.265625 1.03125 C 2.859375 1 2.171875 0.1875 2.203125 -1.40625 L 3 -33.5 C 3.03125 -34.875 3.753906 -35.5625 5.171875 -35.5625 Z M 7.5 -30.84375 L 7.21875 -18.3125 C 12.738281 -17.738281 16.1875 -18.640625 17.5625 -21.015625 C 18.90625 -23.335938 19.046875 -25.519531 17.984375 -27.5625 C 16.703125 -29.9375 14.300781 -31.109375 10.78125 -31.078125 C 9.851562 -31.066406 8.757812 -30.988281 7.5 -30.84375 Z M 7.5 -30.84375 "/></g></g><g transform="translate(228.126281, 61.525352)"><g><path d="M 13.4375 -19.796875 C 11.394531 -19.742188 9.867188 -19.03125 8.859375 -17.65625 C 7.296875 -15.53125 6.515625 -13.195312 6.515625 -10.65625 C 6.515625 -8.207031 7.078125 -6.375 8.203125 -5.15625 C 9.359375 -3.90625 10.679688 -3.28125 12.171875 -3.28125 C 13.878906 -3.28125 15.316406 -3.90625 16.484375 -5.15625 C 17.722656 -6.476562 18.347656 -8.609375 18.359375 -11.546875 C 18.378906 -17.109375 16.738281 -19.859375 13.4375 -19.796875 Z M 13.25 -24.5625 C 19.582031 -24.519531 22.738281 -20.023438 22.71875 -11.078125 C 22.707031 -7.265625 21.863281 -4.367188 20.1875 -2.390625 C 18.3125 -0.00390625 15.457031 1.171875 11.625 1.140625 C 8.84375 1.128906 6.484375 -0.0195312 4.546875 -2.3125 C 2.796875 -4.394531 1.921875 -7.316406 1.921875 -11.078125 C 1.921875 -14.640625 2.96875 -17.796875 5.0625 -20.546875 C 7.125 -23.253906 9.851562 -24.59375 13.25 -24.5625 Z M 13.25 -24.5625 "/></g></g><g transform="translate(253.351947, 61.525352)"><g><path d="M 5.859375 -25.625 C 7.453125 -25.625 8.25 -24.851562 8.25 -23.3125 C 8.25 -23.03125 8.25 -22.738281 8.25 -22.4375 C 10 -23.757812 11.722656 -24.4375 13.421875 -24.46875 C 15.492188 -24.5 17.203125 -24.179688 18.546875 -23.515625 C 20.921875 -22.328125 21.898438 -21.101562 21.484375 -19.84375 C 20.796875 -17.84375 19.550781 -17.453125 17.75 -18.671875 C 16.34375 -19.617188 14.734375 -19.914062 12.921875 -19.5625 C 11.160156 -19.21875 9.546875 -18.316406 8.078125 -16.859375 L 7.6875 -1.5 C 7.632812 0.195312 6.789062 1.03125 5.15625 1 C 3.75 0.96875 3.066406 0.117188 3.109375 -1.546875 L 3.65625 -23.453125 C 3.6875 -24.898438 4.421875 -25.625 5.859375 -25.625 Z M 5.859375 -25.625 "/></g></g><g transform="translate(276.399353, 61.525352)"><g><path d="M 11.53125 -37.703125 C 13.113281 -37.703125 13.90625 -36.929688 13.90625 -35.390625 C 13.875 -31.410156 13.804688 -27.769531 13.703125 -24.46875 L 18.453125 -24.5 C 20.378906 -24.507812 21.34375 -23.726562 21.34375 -22.15625 C 21.34375 -20.5625 20.425781 -19.765625 18.59375 -19.765625 C 16.925781 -19.765625 15.253906 -19.765625 13.578125 -19.765625 L 13.1875 -1.5 C 13.164062 0.195312 12.316406 1.03125 10.640625 1 C 9.234375 0.96875 8.546875 0.117188 8.578125 -1.546875 L 9 -19.765625 C 7.15625 -19.765625 5.316406 -19.765625 3.484375 -19.765625 C 2.140625 -19.765625 1.46875 -20.53125 1.46875 -22.0625 C 1.46875 -23.632812 2.210938 -24.421875 3.703125 -24.421875 C 5.492188 -24.421875 7.296875 -24.429688 9.109375 -24.453125 L 9.375 -35.53125 C 9.40625 -36.976562 10.125 -37.703125 11.53125 -37.703125 Z M 11.53125 -37.703125 "/></g></g><g transform="translate(299.001737, 61.525352)"><g><path d="M 4.515625 -17.828125 C 2.828125 -17.828125 1.988281 -18.597656 2 -20.140625 C 2.019531 -21.691406 2.953125 -22.46875 4.796875 -22.46875 L 8.453125 -22.46875 C 8.597656 -28.507812 9.40625 -32.582031 10.875 -34.6875 C 12.070312 -36.414062 14.359375 -37.335938 17.734375 -37.453125 C 21.054688 -37.554688 22.5625 -36.738281 22.25 -35 C 21.988281 -33.5 20.921875 -32.832031 19.046875 -33 C 16.140625 -33.28125 14.328125 -32.15625 13.609375 -29.625 C 13.179688 -28.15625 12.976562 -25.769531 13 -22.46875 L 18.359375 -22.46875 C 20.441406 -22.46875 21.53125 -21.765625 21.625 -20.359375 C 21.726562 -18.671875 20.742188 -17.828125 18.671875 -17.828125 L 12.90625 -17.828125 L 12.671875 -1.265625 C 12.640625 0.429688 11.78125 1.265625 10.09375 1.234375 C 8.6875 1.203125 8 0.351562 8.03125 -1.3125 L 8.34375 -17.828125 Z M 4.515625 -17.828125 "/></g></g><g transform="translate(323.384205, 61.525352)"><g><path d="M 13.4375 -19.796875 C 11.394531 -19.742188 9.867188 -19.03125 8.859375 -17.65625 C 7.296875 -15.53125 6.515625 -13.195312 6.515625 -10.65625 C 6.515625 -8.207031 7.078125 -6.375 8.203125 -5.15625 C 9.359375 -3.90625 10.679688 -3.28125 12.171875 -3.28125 C 13.878906 -3.28125 15.316406 -3.90625 16.484375 -5.15625 C 17.722656 -6.476562 18.347656 -8.609375 18.359375 -11.546875 C 18.378906 -17.109375 16.738281 -19.859375 13.4375 -19.796875 Z M 13.25 -24.5625 C 19.582031 -24.519531 22.738281 -20.023438 22.71875 -11.078125 C 22.707031 -7.265625 21.863281 -4.367188 20.1875 -2.390625 C 18.3125 -0.00390625 15.457031 1.171875 11.625 1.140625 C 8.84375 1.128906 6.484375 -0.0195312 4.546875 -2.3125 C 2.796875 -4.394531 1.921875 -7.316406 1.921875 -11.078125 C 1.921875 -14.640625 2.96875 -17.796875 5.0625 -20.546875 C 7.125 -23.253906 9.851562 -24.59375 13.25 -24.5625 Z M 13.25 -24.5625 "/></g></g><g transform="translate(348.609871, 61.525352)"><g><path d="M 7.03125 -37.703125 C 8.65625 -37.703125 9.453125 -36.929688 9.421875 -35.390625 L 8.6875 -1.5 C 8.675781 0.195312 7.828125 1.03125 6.140625 1 C 4.734375 0.96875 4.046875 0.117188 4.078125 -1.546875 L 4.875 -35.53125 C 4.90625 -36.945312 5.625 -37.671875 7.03125 -37.703125 Z M 7.03125 -37.703125 "/></g></g><g transform="translate(361.749703, 61.525352)"><g><path d="M 7.3125 -35.15625 C 7.34375 -35.15625 7.375 -35.15625 7.40625 -35.15625 C 7.9375 -35.15625 8.425781 -35.019531 8.875 -34.75 C 9.363281 -34.46875 9.734375 -34.078125 9.984375 -33.578125 C 10.203125 -33.160156 10.3125 -32.707031 10.3125 -32.21875 C 10.3125 -32.144531 10.3125 -32.066406 10.3125 -31.984375 C 10.257812 -31.429688 10.0625 -30.925781 9.71875 -30.46875 C 9.40625 -30.0625 9.0625 -29.773438 8.6875 -29.609375 C 8.300781 -29.398438 7.863281 -29.304688 7.375 -29.328125 C 7.332031 -29.328125 7.285156 -29.328125 7.234375 -29.328125 C 6.753906 -29.335938 6.3125 -29.46875 5.90625 -29.71875 C 5.476562 -29.96875 5.132812 -30.3125 4.875 -30.75 C 4.601562 -31.207031 4.46875 -31.695312 4.46875 -32.21875 C 4.46875 -32.71875 4.59375 -33.1875 4.84375 -33.625 C 5.113281 -34.082031 5.453125 -34.453125 5.859375 -34.734375 C 6.296875 -35.015625 6.78125 -35.15625 7.3125 -35.15625 Z M 7.140625 -24.515625 C 8.628906 -24.484375 9.359375 -23.472656 9.328125 -21.484375 L 9 -1.984375 C 8.96875 0.117188 8.21875 1.171875 6.75 1.171875 C 5.070312 1.148438 4.257812 0.160156 4.3125 -1.796875 L 4.703125 -21.453125 C 4.753906 -23.523438 5.566406 -24.546875 7.140625 -24.515625 Z M 7.140625 -24.515625 "/></g></g><g transform="translate(375.194023, 61.525352)"><g><path d="M 13.4375 -19.796875 C 11.394531 -19.742188 9.867188 -19.03125 8.859375 -17.65625 C 7.296875 -15.53125 6.515625 -13.195312 6.515625 -10.65625 C 6.515625 -8.207031 7.078125 -6.375 8.203125 -5.15625 C 9.359375 -3.90625 10.679688 -3.28125 12.171875 -3.28125 C 13.878906 -3.28125 15.316406 -3.90625 16.484375 -5.15625 C 17.722656 -6.476562 18.347656 -8.609375 18.359375 -11.546875 C 18.378906 -17.109375 16.738281 -19.859375 13.4375 -19.796875 Z M 13.25 -24.5625 C 19.582031 -24.519531 22.738281 -20.023438 22.71875 -11.078125 C 22.707031 -7.265625 21.863281 -4.367188 20.1875 -2.390625 C 18.3125 -0.00390625 15.457031 1.171875 11.625 1.140625 C 8.84375 1.128906 6.484375 -0.0195312 4.546875 -2.3125 C 2.796875 -4.394531 1.921875 -7.316406 1.921875 -11.078125 C 1.921875 -14.640625 2.96875 -17.796875 5.0625 -20.546875 C 7.125 -23.253906 9.851562 -24.59375 13.25 -24.5625 Z M 13.25 -24.5625 "/></g></g></g><g fill="#a91b60" fill-opacity="1"><g transform="translate(13.478875, 62.083274)"><g><path d="M 14.1875 -29.15625 C 8.519531 -29.15625 5.6875 -24.910156 5.6875 -16.421875 C 5.6875 -7.460938 8.300781 -2.984375 13.53125 -2.984375 C 18.800781 -2.984375 21.4375 -7.570312 21.4375 -16.75 C 21.4375 -25.019531 19.019531 -29.15625 14.1875 -29.15625 Z M 14.125 -33.3125 C 21.976562 -33.3125 25.90625 -27.769531 25.90625 -16.6875 C 25.90625 -4.832031 21.78125 1.09375 13.53125 1.09375 C 5.40625 1.09375 1.34375 -4.722656 1.34375 -16.359375 C 1.34375 -27.660156 5.601562 -33.3125 14.125 -33.3125 Z M 14.125 -33.3125 "/></g></g><g transform="translate(40.926719, 62.083274)"><g><path d="M 13.21875 -30.875 C 13.21875 -30.875 13.175781 -21.570312 13.09375 -2.96875 C 13.894531 -2.96875 14.691406 -2.96875 15.484375 -2.96875 C 16.984375 -2.96875 17.734375 -2.285156 17.734375 -0.921875 C 17.734375 0.390625 17.003906 1.046875 15.546875 1.046875 L 5.578125 1.046875 C 4.253906 1.046875 3.59375 0.429688 3.59375 -0.796875 C 3.613281 -2.253906 4.347656 -2.984375 5.796875 -2.984375 C 6.878906 -2.984375 7.96875 -2.984375 9.0625 -2.984375 L 9.109375 -26.28125 L 7.484375 -24.75 C 6.097656 -23.414062 4.925781 -23.394531 3.96875 -24.6875 C 3.207031 -25.707031 3.347656 -26.707031 4.390625 -27.6875 L 8.765625 -31.796875 C 9.953125 -32.910156 11.039062 -33.347656 12.03125 -33.109375 C 12.832031 -32.929688 13.226562 -32.1875 13.21875 -30.875 Z M 13.21875 -30.875 "/></g></g></g><g fill="#a91b60" fill-opacity="1"><g transform="translate(13.478875, 161.233755)"><g><path d="M 14.1875 -29.15625 C 8.519531 -29.15625 5.6875 -24.910156 5.6875 -16.421875 C 5.6875 -7.460938 8.300781 -2.984375 13.53125 -2.984375 C 18.800781 -2.984375 21.4375 -7.570312 21.4375 -16.75 C 21.4375 -25.019531 19.019531 -29.15625 14.1875 -29.15625 Z M 14.125 -33.3125 C 21.976562 -33.3125 25.90625 -27.769531 25.90625 -16.6875 C 25.90625 -4.832031 21.78125 1.09375 13.53125 1.09375 C 5.40625 1.09375 1.34375 -4.722656 1.34375 -16.359375 C 1.34375 -27.660156 5.601562 -33.3125 14.125 -33.3125 Z M 14.125 -33.3125 "/></g></g><g transform="translate(40.926719, 161.233755)"><g><path d="M 3.59375 -1.96875 C 3.6875 -4.925781 4.78125 -7.941406 6.875 -11.015625 C 8.851562 -13.847656 11.773438 -16.203125 15.640625 -18.078125 C 18.148438 -19.285156 19.441406 -21.492188 19.515625 -24.703125 C 19.566406 -26.515625 18.738281 -27.851562 17.03125 -28.71875 C 15.382812 -29.550781 13.675781 -29.679688 11.90625 -29.109375 C 10.84375 -28.765625 9.492188 -27.640625 7.859375 -25.734375 C 6.660156 -24.359375 5.503906 -24.140625 4.390625 -25.078125 C 3.367188 -25.898438 3.265625 -26.804688 4.078125 -27.796875 C 5.765625 -29.859375 7.207031 -31.242188 8.40625 -31.953125 C 9.957031 -32.867188 11.925781 -33.328125 14.3125 -33.328125 C 16.550781 -33.328125 18.335938 -32.921875 19.671875 -32.109375 C 22.523438 -30.316406 23.914062 -27.722656 23.84375 -24.328125 C 23.738281 -19.765625 21.859375 -16.644531 18.203125 -14.96875 C 14.867188 -13.445312 12.320312 -11.40625 10.5625 -8.84375 C 8.894531 -6.414062 8.007812 -4.492188 7.90625 -3.078125 C 12.539062 -3.054688 17.179688 -3.039062 21.828125 -3.03125 C 23.390625 -3.03125 24.164062 -2.359375 24.15625 -1.015625 C 24.132812 0.390625 23.363281 1.085938 21.84375 1.078125 L 5.75 1.078125 C 4.238281 1.078125 3.519531 0.0625 3.59375 -1.96875 Z M 3.59375 -1.96875 "/></g></g></g><g fill="#a91b60" fill-opacity="1"><g transform="translate(121.50861, 161.233755)"><g><path d="M 33.640625 1.28125 C 32.398438 0.800781 31.429688 -0.644531 30.734375 -3.0625 L 24.734375 -23.65625 L 18.734375 -3.09375 C 17.984375 -0.53125 17.007812 0.921875 15.8125 1.265625 C 15.375 1.390625 14.9375 1.390625 14.5 1.265625 C 13.289062 0.898438 12.320312 -0.550781 11.59375 -3.09375 L 3.859375 -29.578125 C 2.703125 -33.566406 3.289062 -35.566406 5.625 -35.578125 C 6.75 -35.578125 7.472656 -35.015625 7.796875 -33.890625 L 15.15625 -7.375 L 22.53125 -33.890625 C 22.84375 -35.003906 23.5625 -35.566406 24.6875 -35.578125 C 25.875 -35.578125 26.625 -35.007812 26.9375 -33.875 L 34.296875 -7.359375 L 41.640625 -33.875 C 41.984375 -34.976562 42.71875 -35.539062 43.84375 -35.5625 C 46.15625 -35.5625 46.734375 -33.5625 45.578125 -29.5625 L 37.84375 -3.0625 C 37.09375 -0.507812 36.128906 0.9375 34.953125 1.28125 C 34.515625 1.40625 34.078125 1.40625 33.640625 1.28125 Z M 33.640625 1.28125 "/></g></g><g transform="translate(171.374388, 161.233755)"><g><path d="M 6.421875 -37.734375 C 8.046875 -37.734375 8.84375 -36.953125 8.8125 -35.390625 L 8.578125 -21.53125 C 10.523438 -23.332031 13.125 -24.234375 16.375 -24.234375 C 22.226562 -24.222656 25.125 -20.664062 25.0625 -13.5625 L 24.96875 -1.6875 C 24.945312 0.195312 24.195312 1.203125 22.71875 1.328125 C 21.050781 1.472656 20.222656 0.609375 20.234375 -1.265625 L 20.3125 -12.484375 C 20.34375 -16.640625 19.09375 -18.816406 16.5625 -19.015625 C 13.664062 -19.265625 11.003906 -17.929688 8.578125 -15.015625 L 8.0625 -1.5 C 8 0.195312 7.140625 1.03125 5.484375 1 C 4.085938 0.96875 3.40625 0.117188 3.4375 -1.546875 L 4.21875 -35.53125 C 4.25 -36.96875 4.984375 -37.703125 6.421875 -37.734375 Z M 6.421875 -37.734375 "/></g></g><g transform="translate(199.082803, 161.233755)"><g><path d="M 11.8125 1.3125 C 4.789062 1.320312 1.257812 -2.425781 1.21875 -9.9375 C 1.164062 -14.820312 2.773438 -18.597656 6.046875 -21.265625 C 9.796875 -24.335938 13.710938 -25.226562 17.796875 -23.9375 C 18.253906 -24.320312 18.957031 -24.40625 19.90625 -24.1875 C 21.78125 -23.769531 22.539062 -22.5625 22.1875 -20.5625 C 21.820312 -18.613281 21.601562 -15.289062 21.53125 -10.59375 C 21.46875 -6.84375 21.890625 -4.1875 22.796875 -2.625 C 24.117188 -0.34375 23.929688 0.96875 22.234375 1.3125 C 20.273438 1.71875 19.140625 0.890625 18.828125 -1.171875 C 15.597656 0.460938 13.257812 1.289062 11.8125 1.3125 Z M 14.515625 -3.390625 C 15.078125 -3.597656 16.054688 -4.269531 17.453125 -5.40625 C 16.890625 -12.125 16.96875 -16.75 17.6875 -19.28125 C 16.164062 -20.226562 14.578125 -20.5 12.921875 -20.09375 C 11.773438 -19.8125 10.859375 -19.414062 10.171875 -18.90625 C 7.390625 -16.882812 5.925781 -14.039062 5.78125 -10.375 C 5.832031 -5.59375 7.472656 -3.09375 10.703125 -2.875 C 12.054688 -2.78125 13.328125 -2.953125 14.515625 -3.390625 Z M 14.515625 -3.390625 "/></g></g><g transform="translate(223.629226, 161.233755)"><g><path d="M 11.53125 -37.703125 C 13.113281 -37.703125 13.90625 -36.929688 13.90625 -35.390625 C 13.875 -31.410156 13.804688 -27.769531 13.703125 -24.46875 L 18.453125 -24.5 C 20.378906 -24.507812 21.34375 -23.726562 21.34375 -22.15625 C 21.34375 -20.5625 20.425781 -19.765625 18.59375 -19.765625 C 16.925781 -19.765625 15.253906 -19.765625 13.578125 -19.765625 L 13.1875 -1.5 C 13.164062 0.195312 12.316406 1.03125 10.640625 1 C 9.234375 0.96875 8.546875 0.117188 8.578125 -1.546875 L 9 -19.765625 C 7.15625 -19.765625 5.316406 -19.765625 3.484375 -19.765625 C 2.140625 -19.765625 1.46875 -20.53125 1.46875 -22.0625 C 1.46875 -23.632812 2.210938 -24.421875 3.703125 -24.421875 C 5.492188 -24.421875 7.296875 -24.429688 9.109375 -24.453125 L 9.375 -35.53125 C 9.40625 -36.976562 10.125 -37.703125 11.53125 -37.703125 Z M 11.53125 -37.703125 "/></g></g><g transform="translate(246.231611, 161.233755)"><g/></g><g transform="translate(260.565973, 161.233755)"><g><path d="M 5.0625 -35 L 22.140625 -35 C 24.023438 -35 24.984375 -34.15625 25.015625 -32.46875 C 25.046875 -30.914062 24.039062 -30.140625 22 -30.140625 L 14.96875 -30.140625 L 14.3125 -3.859375 L 21.8125 -3.859375 C 23.695312 -3.859375 24.65625 -3.015625 24.6875 -1.328125 C 24.71875 0.210938 23.710938 0.984375 21.671875 0.984375 L 4.515625 0.984375 C 2.546875 0.984375 1.5625 0.101562 1.5625 -1.65625 C 1.5625 -3.144531 2.617188 -3.878906 4.734375 -3.859375 L 9.71875 -3.859375 L 10.40625 -30.140625 L 4.84375 -30.140625 C 2.875 -30.140625 1.890625 -31.015625 1.890625 -32.765625 C 1.890625 -34.253906 2.945312 -35 5.0625 -35 Z M 5.0625 -35 "/></g></g><g transform="translate(286.77537, 161.233755)"><g/></g><g transform="translate(301.109732, 161.233755)"><g><path d="M 23.46875 -37.703125 C 25.09375 -37.703125 25.890625 -36.929688 25.859375 -35.390625 L 25.125 -1.5 C 25.113281 0.195312 24.265625 1.03125 22.578125 1 C 21.328125 0.96875 20.648438 0.300781 20.546875 -1 C 18.234375 0.457031 15.765625 1.179688 13.140625 1.171875 C 10.441406 1.148438 8.050781 0.117188 5.96875 -1.921875 C 3.65625 -4.234375 2.4375 -6.925781 2.3125 -10 C 2.175781 -14.15625 3.253906 -17.644531 5.546875 -20.46875 C 7.722656 -23.132812 10.554688 -24.46875 14.046875 -24.46875 C 15.921875 -24.46875 17.5625 -24.070312 18.96875 -23.28125 C 19.707031 -22.863281 20.378906 -22.441406 20.984375 -22.015625 L 21.3125 -35.53125 C 21.34375 -36.945312 22.0625 -37.671875 23.46875 -37.703125 Z M 20.609375 -6.296875 C 20.785156 -9.546875 20.875 -12.988281 20.875 -16.625 C 18.101562 -19.488281 15.375 -20.59375 12.6875 -19.9375 C 10.726562 -19.445312 9.3125 -18.664062 8.4375 -17.59375 C 7.195312 -16.039062 6.546875 -13.882812 6.484375 -11.125 C 6.453125 -9.34375 7.101562 -7.585938 8.4375 -5.859375 C 9.5 -4.453125 11.066406 -3.628906 13.140625 -3.390625 C 15.328125 -3.140625 17.816406 -4.109375 20.609375 -6.296875 Z M 20.609375 -6.296875 "/></g></g><g transform="translate(329.28659, 161.233755)"><g><path d="M 13.4375 -19.796875 C 11.394531 -19.742188 9.867188 -19.03125 8.859375 -17.65625 C 7.296875 -15.53125 6.515625 -13.195312 6.515625 -10.65625 C 6.515625 -8.207031 7.078125 -6.375 8.203125 -5.15625 C 9.359375 -3.90625 10.679688 -3.28125 12.171875 -3.28125 C 13.878906 -3.28125 15.316406 -3.90625 16.484375 -5.15625 C 17.722656 -6.476562 18.347656 -8.609375 18.359375 -11.546875 C 18.378906 -17.109375 16.738281 -19.859375 13.4375 -19.796875 Z M 13.25 -24.5625 C 19.582031 -24.519531 22.738281 -20.023438 22.71875 -11.078125 C 22.707031 -7.265625 21.863281 -4.367188 20.1875 -2.390625 C 18.3125 -0.00390625 15.457031 1.171875 11.625 1.140625 C 8.84375 1.128906 6.484375 -0.0195312 4.546875 -2.3125 C 2.796875 -4.394531 1.921875 -7.316406 1.921875 -11.078125 C 1.921875 -14.640625 2.96875 -17.796875 5.0625 -20.546875 C 7.125 -23.253906 9.851562 -24.59375 13.25 -24.5625 Z M 13.25 -24.5625 "/></g></g><g transform="translate(354.512256, 161.233755)"><g/></g><g transform="translate(368.846618, 161.233755)"><g><path d="M 11.8125 1.3125 C 4.789062 1.320312 1.257812 -2.425781 1.21875 -9.9375 C 1.164062 -14.820312 2.773438 -18.597656 6.046875 -21.265625 C 9.796875 -24.335938 13.710938 -25.226562 17.796875 -23.9375 C 18.253906 -24.320312 18.957031 -24.40625 19.90625 -24.1875 C 21.78125 -23.769531 22.539062 -22.5625 22.1875 -20.5625 C 21.820312 -18.613281 21.601562 -15.289062 21.53125 -10.59375 C 21.46875 -6.84375 21.890625 -4.1875 22.796875 -2.625 C 24.117188 -0.34375 23.929688 0.96875 22.234375 1.3125 C 20.273438 1.71875 19.140625 0.890625 18.828125 -1.171875 C 15.597656 0.460938 13.257812 1.289062 11.8125 1.3125 Z M 14.515625 -3.390625 C 15.078125 -3.597656 16.054688 -4.269531 17.453125 -5.40625 C 16.890625 -12.125 16.96875 -16.75 17.6875 -19.28125 C 16.164062 -20.226562 14.578125 -20.5 12.921875 -20.09375 C 11.773438 -19.8125 10.859375 -19.414062 10.171875 -18.90625 C 7.390625 -16.882812 5.925781 -14.039062 5.78125 -10.375 C 5.832031 -5.59375 7.472656 -3.09375 10.703125 -2.875 C 12.054688 -2.78125 13.328125 -2.953125 14.515625 -3.390625 Z M 14.515625 -3.390625 "/></g></g><g transform="translate(393.393041, 161.233755)"><g><path d="M 5.859375 -25.625 C 7.492188 -25.625 8.289062 -24.851562 8.25 -23.3125 C 8.226562 -22.851562 8.210938 -22.390625 8.203125 -21.921875 C 9.898438 -23.460938 12.078125 -24.234375 14.734375 -24.234375 C 20.640625 -24.222656 23.535156 -20.664062 23.421875 -13.5625 L 23.234375 -1.84375 C 23.203125 0.0390625 22.453125 1.046875 20.984375 1.171875 C 19.285156 1.328125 18.457031 0.460938 18.5 -1.421875 L 18.78125 -12.53125 C 18.894531 -16.84375 17.660156 -19.09375 15.078125 -19.28125 C 12.910156 -19.4375 10.585938 -18.269531 8.109375 -15.78125 L 7.734375 -1.609375 C 7.679688 0.0859375 6.820312 0.921875 5.15625 0.890625 C 3.75 0.859375 3.066406 0.0078125 3.109375 -1.65625 L 3.65625 -23.453125 C 3.6875 -24.898438 4.421875 -25.625 5.859375 -25.625 Z M 5.859375 -25.625 "/></g></g><g transform="translate(418.501597, 161.233755)"><g><path d="M 23.46875 -37.703125 C 25.09375 -37.703125 25.890625 -36.929688 25.859375 -35.390625 L 25.125 -1.5 C 25.113281 0.195312 24.265625 1.03125 22.578125 1 C 21.328125 0.96875 20.648438 0.300781 20.546875 -1 C 18.234375 0.457031 15.765625 1.179688 13.140625 1.171875 C 10.441406 1.148438 8.050781 0.117188 5.96875 -1.921875 C 3.65625 -4.234375 2.4375 -6.925781 2.3125 -10 C 2.175781 -14.15625 3.253906 -17.644531 5.546875 -20.46875 C 7.722656 -23.132812 10.554688 -24.46875 14.046875 -24.46875 C 15.921875 -24.46875 17.5625 -24.070312 18.96875 -23.28125 C 19.707031 -22.863281 20.378906 -22.441406 20.984375 -22.015625 L 21.3125 -35.53125 C 21.34375 -36.945312 22.0625 -37.671875 23.46875 -37.703125 Z M 20.609375 -6.296875 C 20.785156 -9.546875 20.875 -12.988281 20.875 -16.625 C 18.101562 -19.488281 15.375 -20.59375 12.6875 -19.9375 C 10.726562 -19.445312 9.3125 -18.664062 8.4375 -17.59375 C 7.195312 -16.039062 6.546875 -13.882812 6.484375 -11.125 C 6.453125 -9.34375 7.101562 -7.585938 8.4375 -5.859375 C 9.5 -4.453125 11.066406 -3.628906 13.140625 -3.390625 C 15.328125 -3.140625 17.816406 -4.109375 20.609375 -6.296875 Z M 20.609375 -6.296875 "/></g></g><g transform="translate(446.678455, 161.233755)"><g/></g><g transform="translate(461.012817, 161.233755)"><g><path d="M 6.421875 -37.734375 C 8.046875 -37.734375 8.84375 -36.953125 8.8125 -35.390625 L 8.578125 -21.53125 C 10.523438 -23.332031 13.125 -24.234375 16.375 -24.234375 C 22.226562 -24.222656 25.125 -20.664062 25.0625 -13.5625 L 24.96875 -1.6875 C 24.945312 0.195312 24.195312 1.203125 22.71875 1.328125 C 21.050781 1.472656 20.222656 0.609375 20.234375 -1.265625 L 20.3125 -12.484375 C 20.34375 -16.640625 19.09375 -18.816406 16.5625 -19.015625 C 13.664062 -19.265625 11.003906 -17.929688 8.578125 -15.015625 L 8.0625 -1.5 C 8 0.195312 7.140625 1.03125 5.484375 1 C 4.085938 0.96875 3.40625 0.117188 3.4375 -1.546875 L 4.21875 -35.53125 C 4.25 -36.96875 4.984375 -37.703125 6.421875 -37.734375 Z M 6.421875 -37.734375 "/></g></g><g transform="translate(488.721232, 161.233755)"><g><path d="M 13.4375 -19.796875 C 11.394531 -19.742188 9.867188 -19.03125 8.859375 -17.65625 C 7.296875 -15.53125 6.515625 -13.195312 6.515625 -10.65625 C 6.515625 -8.207031 7.078125 -6.375 8.203125 -5.15625 C 9.359375 -3.90625 10.679688 -3.28125 12.171875 -3.28125 C 13.878906 -3.28125 15.316406 -3.90625 16.484375 -5.15625 C 17.722656 -6.476562 18.347656 -8.609375 18.359375 -11.546875 C 18.378906 -17.109375 16.738281 -19.859375 13.4375 -19.796875 Z M 13.25 -24.5625 C 19.582031 -24.519531 22.738281 -20.023438 22.71875 -11.078125 C 22.707031 -7.265625 21.863281 -4.367188 20.1875 -2.390625 C 18.3125 -0.00390625 15.457031 1.171875 11.625 1.140625 C 8.84375 1.128906 6.484375 -0.0195312 4.546875 -2.3125 C 2.796875 -4.394531 1.921875 -7.316406 1.921875 -11.078125 C 1.921875 -14.640625 2.96875 -17.796875 5.0625 -20.546875 C 7.125 -23.253906 9.851562 -24.59375 13.25 -24.5625 Z M 13.25 -24.5625 "/></g></g><g transform="translate(513.946898, 161.233755)"><g><path d="M 19.140625 -21.4375 L 21.875 -5.171875 L 27.078125 -21.4375 C 27.773438 -23.632812 28.703125 -24.644531 29.859375 -24.46875 C 31.484375 -24.21875 31.960938 -23.128906 31.296875 -21.203125 L 24.515625 -1.6875 C 23.867188 0.21875 22.890625 1.171875 21.578125 1.171875 C 19.960938 1.171875 18.976562 0.21875 18.625 -1.6875 L 16.140625 -14.546875 L 11.625 -1.6875 C 10.945312 0.21875 9.960938 1.171875 8.671875 1.171875 C 7.054688 1.171875 6.070312 0.21875 5.71875 -1.6875 L 2.015625 -21.203125 C 1.640625 -23.160156 2.171875 -24.25 3.609375 -24.46875 C 4.984375 -24.6875 5.859375 -23.675781 6.234375 -21.4375 L 8.96875 -5.171875 L 14.171875 -21.4375 C 14.828125 -23.476562 15.6875 -24.5 16.75 -24.5 C 18 -24.5 18.796875 -23.476562 19.140625 -21.4375 Z M 19.140625 -21.4375 "/></g></g></g><g fill="#a91b60" fill-opacity="1"><g transform="translate(13.478875, 260.168958)"><g><path d="M 14.1875 -29.15625 C 8.519531 -29.15625 5.6875 -24.910156 5.6875 -16.421875 C 5.6875 -7.460938 8.300781 -2.984375 13.53125 -2.984375 C 18.800781 -2.984375 21.4375 -7.570312 21.4375 -16.75 C 21.4375 -25.019531 19.019531 -29.15625 14.1875 -29.15625 Z M 14.125 -33.3125 C 21.976562 -33.3125 25.90625 -27.769531 25.90625 -16.6875 C 25.90625 -4.832031 21.78125 1.09375 13.53125 1.09375 C 5.40625 1.09375 1.34375 -4.722656 1.34375 -16.359375 C 1.34375 -27.660156 5.601562 -33.3125 14.125 -33.3125 Z M 14.125 -33.3125 "/></g></g><g transform="translate(40.926719, 260.168958)"><g><path d="M 8.78125 -17.78125 C 8.8125 -18.632812 9.265625 -19.25 10.140625 -19.625 C 10.773438 -19.90625 12.5625 -20.40625 15.5 -21.125 C 18.050781 -21.75 19.222656 -23.160156 19.015625 -25.359375 C 18.796875 -27.734375 17.007812 -29.050781 13.65625 -29.3125 C 12.144531 -29.425781 10.8125 -29.078125 9.65625 -28.265625 C 7.976562 -27.054688 6.769531 -26.5 6.03125 -26.59375 C 5.019531 -26.707031 4.476562 -27.273438 4.40625 -28.296875 C 4.320312 -29.554688 5 -30.613281 6.4375 -31.46875 C 8.925781 -32.945312 11.164062 -33.617188 13.15625 -33.484375 C 17.3125 -33.222656 20.054688 -32.101562 21.390625 -30.125 C 23.660156 -26.769531 23.769531 -23.585938 21.71875 -20.578125 C 20.96875 -19.472656 19.71875 -18.585938 17.96875 -17.921875 C 18.425781 -17.828125 19.273438 -17.382812 20.515625 -16.59375 C 23.160156 -14.914062 24.191406 -11.835938 23.609375 -7.359375 C 23.015625 -2.953125 20.367188 -0.265625 15.671875 0.703125 C 11.722656 1.503906 8.484375 0.984375 5.953125 -0.859375 C 4.191406 -2.140625 3.289062 -3.5 3.25 -4.9375 C 3.207031 -6.300781 3.78125 -7.050781 4.96875 -7.1875 C 5.59375 -7.238281 6.644531 -6.363281 8.125 -4.5625 C 9.175781 -3.28125 11.195312 -2.859375 14.1875 -3.296875 C 17.863281 -3.835938 19.597656 -5.738281 19.390625 -9 C 19.171875 -12.75 16.828125 -15.003906 12.359375 -15.765625 C 9.960938 -15.972656 8.769531 -16.644531 8.78125 -17.78125 Z M 8.78125 -17.78125 "/></g></g></g><g fill="#a91b60" fill-opacity="1"><g transform="translate(13.478875, 357.159157)"><g><path d="M 14.1875 -29.15625 C 8.519531 -29.15625 5.6875 -24.910156 5.6875 -16.421875 C 5.6875 -7.460938 8.300781 -2.984375 13.53125 -2.984375 C 18.800781 -2.984375 21.4375 -7.570312 21.4375 -16.75 C 21.4375 -25.019531 19.019531 -29.15625 14.1875 -29.15625 Z M 14.125 -33.3125 C 21.976562 -33.3125 25.90625 -27.769531 25.90625 -16.6875 C 25.90625 -4.832031 21.78125 1.09375 13.53125 1.09375 C 5.40625 1.09375 1.34375 -4.722656 1.34375 -16.359375 C 1.34375 -27.660156 5.601562 -33.3125 14.125 -33.3125 Z M 14.125 -33.3125 "/></g></g><g transform="translate(40.926719, 357.159157)"><g><path d="M 14.953125 -31.25 C 15.953125 -32.601562 17.273438 -33.273438 18.921875 -33.265625 C 20.421875 -33.253906 21.171875 -32.476562 21.171875 -30.9375 L 21.171875 -13.4375 C 21.753906 -13.4375 22.335938 -13.4375 22.921875 -13.4375 C 24.984375 -13.4375 26.035156 -12.707031 26.078125 -11.25 C 26.109375 -9.8125 25.09375 -9.09375 23.03125 -9.09375 L 21.171875 -9.09375 L 21.171875 -1.234375 C 21.171875 0.335938 20.492188 1.113281 19.140625 1.09375 C 17.734375 1.082031 17.03125 0.289062 17.03125 -1.28125 C 17.019531 -3.882812 17.015625 -6.488281 17.015625 -9.09375 L 3.125 -9.0625 C 1.738281 -9.0625 1.046875 -9.726562 1.046875 -11.0625 C 1.046875 -11.800781 1.304688 -12.519531 1.828125 -13.21875 Z M 17 -13.421875 C 17 -17.578125 17.007812 -22.15625 17.03125 -27.15625 L 7.65625 -13.390625 Z M 17 -13.421875 "/></g></g></g><g fill="#a91b60" fill-opacity="1"><g transform="translate(121.50861, 265.02304)"><g><path d="M 20.421875 0.4375 C 18.984375 0.34375 17.96875 -0.925781 17.375 -3.375 L 12.359375 -23.421875 L 7.453125 -1.515625 C 6.921875 0.929688 5.828125 1.6875 4.171875 0.75 C 2.703125 -0.0703125 2.25 -1.703125 2.8125 -4.140625 L 9.28125 -31.734375 C 9.78125 -33.847656 10.742188 -35.015625 12.171875 -35.234375 C 13.640625 -35.453125 14.578125 -34.71875 14.984375 -33.03125 C 14.984375 -33.03125 16.890625 -25.007812 20.703125 -8.96875 L 27.703125 -31.859375 C 28.503906 -34.453125 29.691406 -35.722656 31.265625 -35.671875 C 32.703125 -35.640625 33.695312 -34.3125 34.25 -31.6875 L 40.28125 -2.40625 C 40.75 -0.175781 40.140625 1.035156 38.453125 1.234375 C 36.660156 1.453125 35.5 0.207031 34.96875 -2.5 L 30.84375 -23.734375 L 23.984375 -3.65625 C 23.015625 -0.8125 21.828125 0.550781 20.421875 0.4375 Z M 20.421875 0.4375 "/></g></g><g transform="translate(163.855875, 265.02304)"><g><path d="M 22.484375 -24.09375 C 23.984375 -23.457031 24.335938 -22.21875 23.546875 -20.375 L 10.171875 10.46875 C 9.085938 12.96875 7.859375 13.9375 6.484375 13.375 C 4.847656 12.695312 4.566406 11.117188 5.640625 8.640625 L 10.3125 -2.125 L 0.5625 -20.171875 C -0.4375 -22.015625 -0.25 -23.300781 1.125 -24.03125 C 2.570312 -24.8125 3.789062 -24.273438 4.78125 -22.421875 L 12.625 -7.5 L 19.046875 -22.28125 C 19.835938 -24.113281 20.984375 -24.71875 22.484375 -24.09375 Z M 22.484375 -24.09375 "/></g></g><g transform="translate(188.823897, 265.02304)"><g/></g><g transform="translate(203.158259, 265.02304)"><g><path d="M 20.140625 1.78125 C 18.515625 1.78125 17.71875 1.007812 17.75 -0.53125 L 17.78125 -1.921875 C 16.070312 -0.378906 13.894531 0.390625 11.25 0.390625 C 5.375 0.378906 2.46875 -3.175781 2.53125 -10.28125 L 2.625 -21.78125 C 2.65625 -23.65625 3.40625 -24.660156 4.875 -24.796875 C 6.53125 -24.941406 7.34375 -24.078125 7.3125 -22.203125 L 7.265625 -11.96875 C 7.234375 -8.1875 7.8125 -5.882812 9 -5.0625 C 10.625 -3.96875 12.554688 -3.984375 14.796875 -5.109375 C 16.828125 -6.140625 17.882812 -7.9375 17.96875 -10.5 L 18.25 -22.328125 C 18.289062 -24.023438 19.140625 -24.863281 20.796875 -24.84375 C 22.203125 -24.8125 22.890625 -23.957031 22.859375 -22.28125 L 22.296875 -0.390625 C 22.265625 1.054688 21.546875 1.78125 20.140625 1.78125 Z M 20.140625 1.78125 "/></g></g><g transform="translate(228.102859, 265.02304)"><g><path d="M 5.859375 -25.625 C 7.492188 -25.625 8.289062 -24.851562 8.25 -23.3125 C 8.226562 -22.851562 8.210938 -22.390625 8.203125 -21.921875 C 9.898438 -23.460938 12.078125 -24.234375 14.734375 -24.234375 C 20.640625 -24.222656 23.535156 -20.664062 23.421875 -13.5625 L 23.234375 -1.84375 C 23.203125 0.0390625 22.453125 1.046875 20.984375 1.171875 C 19.285156 1.328125 18.457031 0.460938 18.5 -1.421875 L 18.78125 -12.53125 C 18.894531 -16.84375 17.660156 -19.09375 15.078125 -19.28125 C 12.910156 -19.4375 10.585938 -18.269531 8.109375 -15.78125 L 7.734375 -1.609375 C 7.679688 0.0859375 6.820312 0.921875 5.15625 0.890625 C 3.75 0.859375 3.066406 0.0078125 3.109375 -1.65625 L 3.65625 -23.453125 C 3.6875 -24.898438 4.421875 -25.625 5.859375 -25.625 Z M 5.859375 -25.625 "/></g></g><g transform="translate(253.211414, 265.02304)"><g><path d="M 7.3125 -35.15625 C 7.34375 -35.15625 7.375 -35.15625 7.40625 -35.15625 C 7.9375 -35.15625 8.425781 -35.019531 8.875 -34.75 C 9.363281 -34.46875 9.734375 -34.078125 9.984375 -33.578125 C 10.203125 -33.160156 10.3125 -32.707031 10.3125 -32.21875 C 10.3125 -32.144531 10.3125 -32.066406 10.3125 -31.984375 C 10.257812 -31.429688 10.0625 -30.925781 9.71875 -30.46875 C 9.40625 -30.0625 9.0625 -29.773438 8.6875 -29.609375 C 8.300781 -29.398438 7.863281 -29.304688 7.375 -29.328125 C 7.332031 -29.328125 7.285156 -29.328125 7.234375 -29.328125 C 6.753906 -29.335938 6.3125 -29.46875 5.90625 -29.71875 C 5.476562 -29.96875 5.132812 -30.3125 4.875 -30.75 C 4.601562 -31.207031 4.46875 -31.695312 4.46875 -32.21875 C 4.46875 -32.71875 4.59375 -33.1875 4.84375 -33.625 C 5.113281 -34.082031 5.453125 -34.453125 5.859375 -34.734375 C 6.296875 -35.015625 6.78125 -35.15625 7.3125 -35.15625 Z M 7.140625 -24.515625 C 8.628906 -24.484375 9.359375 -23.472656 9.328125 -21.484375 L 9 -1.984375 C 8.96875 0.117188 8.21875 1.171875 6.75 1.171875 C 5.070312 1.148438 4.257812 0.160156 4.3125 -1.796875 L 4.703125 -21.453125 C 4.753906 -23.523438 5.566406 -24.546875 7.140625 -24.515625 Z M 7.140625 -24.515625 "/></g></g><g transform="translate(266.655734, 265.02304)"><g><path d="M 18.953125 13.34375 C 17.328125 13.34375 16.53125 12.570312 16.5625 11.03125 L 16.796875 0.46875 C 16.117188 0.84375 14.664062 1.019531 12.4375 1 C 9.519531 0.988281 7.03125 -0.0507812 4.96875 -2.125 C 2.6875 -4.394531 1.546875 -7.171875 1.546875 -10.453125 C 1.546875 -14.628906 2.613281 -17.96875 4.75 -20.46875 C 7.019531 -23.15625 9.835938 -24.5 13.203125 -24.5 C 15.078125 -24.5 16.46875 -24.21875 17.375 -23.65625 C 17.644531 -24.820312 18.472656 -25.390625 19.859375 -25.359375 C 21.265625 -25.328125 21.953125 -24.476562 21.921875 -22.8125 L 21.125 11.171875 C 21.09375 12.617188 20.367188 13.34375 18.953125 13.34375 Z M 16.90625 -5.0625 L 17.1875 -18.59375 C 16.25 -19.6875 14.71875 -20.15625 12.59375 -20 C 10.664062 -19.875 9.109375 -19.007812 7.921875 -17.40625 C 6.609375 -15.601562 5.921875 -13.707031 5.859375 -11.71875 C 5.828125 -9.5 6.40625 -7.671875 7.59375 -6.234375 C 8.875 -4.703125 10.628906 -3.863281 12.859375 -3.71875 C 14.546875 -3.613281 15.894531 -4.0625 16.90625 -5.0625 Z M 16.90625 -5.0625 "/></g></g><g transform="translate(291.600334, 265.02304)"><g><path d="M 20.140625 1.78125 C 18.515625 1.78125 17.71875 1.007812 17.75 -0.53125 L 17.78125 -1.921875 C 16.070312 -0.378906 13.894531 0.390625 11.25 0.390625 C 5.375 0.378906 2.46875 -3.175781 2.53125 -10.28125 L 2.625 -21.78125 C 2.65625 -23.65625 3.40625 -24.660156 4.875 -24.796875 C 6.53125 -24.941406 7.34375 -24.078125 7.3125 -22.203125 L 7.265625 -11.96875 C 7.234375 -8.1875 7.8125 -5.882812 9 -5.0625 C 10.625 -3.96875 12.554688 -3.984375 14.796875 -5.109375 C 16.828125 -6.140625 17.882812 -7.9375 17.96875 -10.5 L 18.25 -22.328125 C 18.289062 -24.023438 19.140625 -24.863281 20.796875 -24.84375 C 22.203125 -24.8125 22.890625 -23.957031 22.859375 -22.28125 L 22.296875 -0.390625 C 22.265625 1.054688 21.546875 1.78125 20.140625 1.78125 Z M 20.140625 1.78125 "/></g></g><g transform="translate(316.544934, 265.02304)"><g><path d="M 6.0625 -10.140625 C 6.144531 -8.378906 6.941406 -6.832031 8.453125 -5.5 C 10.203125 -3.957031 12.171875 -3.191406 14.359375 -3.203125 C 17.546875 -3.234375 19.6875 -3.859375 20.78125 -5.078125 C 21.820312 -6.253906 22.679688 -6.910156 23.359375 -7.046875 C 24.097656 -7.203125 24.625 -6.96875 24.9375 -6.34375 C 25.675781 -4.894531 25.335938 -3.535156 23.921875 -2.265625 C 21.421875 -0.0546875 18.140625 1.03125 14.078125 1 C 11.097656 0.96875 8.488281 0.0351562 6.25 -1.796875 C 3.46875 -4.078125 2.078125 -7.171875 2.078125 -11.078125 C 2.078125 -14.296875 2.953125 -17.160156 4.703125 -19.671875 C 6.890625 -22.804688 9.71875 -24.484375 13.1875 -24.703125 C 16.789062 -24.921875 19.609375 -24.035156 21.640625 -22.046875 C 23.554688 -20.171875 24.476562 -18.035156 24.40625 -15.640625 C 24.34375 -13.722656 23.476562 -12.644531 21.8125 -12.40625 Z M 6.578125 -14 L 20.359375 -16.015625 C 20.117188 -17.378906 19.40625 -18.441406 18.21875 -19.203125 C 16.84375 -20.078125 15.382812 -20.507812 13.84375 -20.5 C 11.6875 -20.5 9.828125 -19.535156 8.265625 -17.609375 C 7.578125 -16.753906 7.015625 -15.550781 6.578125 -14 Z M 6.578125 -14 "/></g></g></g><g fill="#a91b60" fill-opacity="1"><g transform="translate(121.50861, 357.159157)"><g><path d="M 6.984375 -35.15625 C 7.304688 -35.15625 7.601562 -35.125 7.875 -35.0625 C 8.03125 -35.09375 8.203125 -35.109375 8.390625 -35.109375 L 24.65625 -35.203125 C 26.863281 -35.222656 27.988281 -34.332031 28.03125 -32.53125 C 28.082031 -31.09375 27.003906 -30.367188 24.796875 -30.359375 C 19.628906 -30.328125 14.472656 -30.296875 9.328125 -30.265625 L 9.109375 -21.90625 L 22.0625 -21.96875 C 24.257812 -21.988281 25.382812 -21.09375 25.4375 -19.28125 C 25.476562 -17.851562 24.398438 -17.132812 22.203125 -17.125 L 9.015625 -17.046875 L 8.640625 -1.375 C 8.628906 0.207031 7.78125 0.984375 6.09375 0.953125 C 4.6875 0.921875 4 0.128906 4.03125 -1.421875 L 4.828125 -33.125 C 4.859375 -34.445312 5.578125 -35.125 6.984375 -35.15625 Z M 6.984375 -35.15625 "/></g></g><g transform="translate(150.622354, 357.159157)"><g><path d="M 7.3125 -35.15625 C 7.34375 -35.15625 7.375 -35.15625 7.40625 -35.15625 C 7.9375 -35.15625 8.425781 -35.019531 8.875 -34.75 C 9.363281 -34.46875 9.734375 -34.078125 9.984375 -33.578125 C 10.203125 -33.160156 10.3125 -32.707031 10.3125 -32.21875 C 10.3125 -32.144531 10.3125 -32.066406 10.3125 -31.984375 C 10.257812 -31.429688 10.0625 -30.925781 9.71875 -30.46875 C 9.40625 -30.0625 9.0625 -29.773438 8.6875 -29.609375 C 8.300781 -29.398438 7.863281 -29.304688 7.375 -29.328125 C 7.332031 -29.328125 7.285156 -29.328125 7.234375 -29.328125 C 6.753906 -29.335938 6.3125 -29.46875 5.90625 -29.71875 C 5.476562 -29.96875 5.132812 -30.3125 4.875 -30.75 C 4.601562 -31.207031 4.46875 -31.695312 4.46875 -32.21875 C 4.46875 -32.71875 4.59375 -33.1875 4.84375 -33.625 C 5.113281 -34.082031 5.453125 -34.453125 5.859375 -34.734375 C 6.296875 -35.015625 6.78125 -35.15625 7.3125 -35.15625 Z M 7.140625 -24.515625 C 8.628906 -24.484375 9.359375 -23.472656 9.328125 -21.484375 L 9 -1.984375 C 8.96875 0.117188 8.21875 1.171875 6.75 1.171875 C 5.070312 1.148438 4.257812 0.160156 4.3125 -1.796875 L 4.703125 -21.453125 C 4.753906 -23.523438 5.566406 -24.546875 7.140625 -24.515625 Z M 7.140625 -24.515625 "/></g></g><g transform="translate(164.066674, 357.159157)"><g><path d="M 7.03125 -37.703125 C 8.65625 -37.703125 9.453125 -36.929688 9.421875 -35.390625 L 8.6875 -1.5 C 8.675781 0.195312 7.828125 1.03125 6.140625 1 C 4.734375 0.96875 4.046875 0.117188 4.078125 -1.546875 L 4.875 -35.53125 C 4.90625 -36.945312 5.625 -37.671875 7.03125 -37.703125 Z M 7.03125 -37.703125 "/></g></g><g transform="translate(177.206506, 357.159157)"><g><path d="M 7.03125 -37.703125 C 8.65625 -37.703125 9.453125 -36.929688 9.421875 -35.390625 L 8.6875 -1.5 C 8.675781 0.195312 7.828125 1.03125 6.140625 1 C 4.734375 0.96875 4.046875 0.117188 4.078125 -1.546875 L 4.875 -35.53125 C 4.90625 -36.945312 5.625 -37.671875 7.03125 -37.703125 Z M 7.03125 -37.703125 "/></g></g><g transform="translate(190.346337, 357.159157)"><g/></g><g transform="translate(204.680699, 357.159157)"><g><path d="M 7.3125 -35.15625 C 7.34375 -35.15625 7.375 -35.15625 7.40625 -35.15625 C 7.9375 -35.15625 8.425781 -35.019531 8.875 -34.75 C 9.363281 -34.46875 9.734375 -34.078125 9.984375 -33.578125 C 10.203125 -33.160156 10.3125 -32.707031 10.3125 -32.21875 C 10.3125 -32.144531 10.3125 -32.066406 10.3125 -31.984375 C 10.257812 -31.429688 10.0625 -30.925781 9.71875 -30.46875 C 9.40625 -30.0625 9.0625 -29.773438 8.6875 -29.609375 C 8.300781 -29.398438 7.863281 -29.304688 7.375 -29.328125 C 7.332031 -29.328125 7.285156 -29.328125 7.234375 -29.328125 C 6.753906 -29.335938 6.3125 -29.46875 5.90625 -29.71875 C 5.476562 -29.96875 5.132812 -30.3125 4.875 -30.75 C 4.601562 -31.207031 4.46875 -31.695312 4.46875 -32.21875 C 4.46875 -32.71875 4.59375 -33.1875 4.84375 -33.625 C 5.113281 -34.082031 5.453125 -34.453125 5.859375 -34.734375 C 6.296875 -35.015625 6.78125 -35.15625 7.3125 -35.15625 Z M 7.140625 -24.515625 C 8.628906 -24.484375 9.359375 -23.472656 9.328125 -21.484375 L 9 -1.984375 C 8.96875 0.117188 8.21875 1.171875 6.75 1.171875 C 5.070312 1.148438 4.257812 0.160156 4.3125 -1.796875 L 4.703125 -21.453125 C 4.753906 -23.523438 5.566406 -24.546875 7.140625 -24.515625 Z M 7.140625 -24.515625 "/></g></g><g transform="translate(218.125019, 357.159157)"><g><path d="M 5.859375 -25.625 C 7.492188 -25.625 8.289062 -24.851562 8.25 -23.3125 C 8.226562 -22.851562 8.210938 -22.390625 8.203125 -21.921875 C 9.898438 -23.460938 12.078125 -24.234375 14.734375 -24.234375 C 20.640625 -24.222656 23.535156 -20.664062 23.421875 -13.5625 L 23.234375 -1.84375 C 23.203125 0.0390625 22.453125 1.046875 20.984375 1.171875 C 19.285156 1.328125 18.457031 0.460938 18.5 -1.421875 L 18.78125 -12.53125 C 18.894531 -16.84375 17.660156 -19.09375 15.078125 -19.28125 C 12.910156 -19.4375 10.585938 -18.269531 8.109375 -15.78125 L 7.734375 -1.609375 C 7.679688 0.0859375 6.820312 0.921875 5.15625 0.890625 C 3.75 0.859375 3.066406 0.0078125 3.109375 -1.65625 L 3.65625 -23.453125 C 3.6875 -24.898438 4.421875 -25.625 5.859375 -25.625 Z M 5.859375 -25.625 "/></g></g><g transform="translate(243.233574, 357.159157)"><g/></g><g transform="translate(257.567936, 357.159157)"><g><path d="M 11.53125 -37.703125 C 13.113281 -37.703125 13.90625 -36.929688 13.90625 -35.390625 C 13.875 -31.410156 13.804688 -27.769531 13.703125 -24.46875 L 18.453125 -24.5 C 20.378906 -24.507812 21.34375 -23.726562 21.34375 -22.15625 C 21.34375 -20.5625 20.425781 -19.765625 18.59375 -19.765625 C 16.925781 -19.765625 15.253906 -19.765625 13.578125 -19.765625 L 13.1875 -1.5 C 13.164062 0.195312 12.316406 1.03125 10.640625 1 C 9.234375 0.96875 8.546875 0.117188 8.578125 -1.546875 L 9 -19.765625 C 7.15625 -19.765625 5.316406 -19.765625 3.484375 -19.765625 C 2.140625 -19.765625 1.46875 -20.53125 1.46875 -22.0625 C 1.46875 -23.632812 2.210938 -24.421875 3.703125 -24.421875 C 5.492188 -24.421875 7.296875 -24.429688 9.109375 -24.453125 L 9.375 -35.53125 C 9.40625 -36.976562 10.125 -37.703125 11.53125 -37.703125 Z M 11.53125 -37.703125 "/></g></g><g transform="translate(280.170321, 357.159157)"><g><path d="M 6.421875 -37.734375 C 8.046875 -37.734375 8.84375 -36.953125 8.8125 -35.390625 L 8.578125 -21.53125 C 10.523438 -23.332031 13.125 -24.234375 16.375 -24.234375 C 22.226562 -24.222656 25.125 -20.664062 25.0625 -13.5625 L 24.96875 -1.6875 C 24.945312 0.195312 24.195312 1.203125 22.71875 1.328125 C 21.050781 1.472656 20.222656 0.609375 20.234375 -1.265625 L 20.3125 -12.484375 C 20.34375 -16.640625 19.09375 -18.816406 16.5625 -19.015625 C 13.664062 -19.265625 11.003906 -17.929688 8.578125 -15.015625 L 8.0625 -1.5 C 8 0.195312 7.140625 1.03125 5.484375 1 C 4.085938 0.96875 3.40625 0.117188 3.4375 -1.546875 L 4.21875 -35.53125 C 4.25 -36.96875 4.984375 -37.703125 6.421875 -37.734375 Z M 6.421875 -37.734375 "/></g></g><g transform="translate(307.878736, 357.159157)"><g><path d="M 7.3125 -35.15625 C 7.34375 -35.15625 7.375 -35.15625 7.40625 -35.15625 C 7.9375 -35.15625 8.425781 -35.019531 8.875 -34.75 C 9.363281 -34.46875 9.734375 -34.078125 9.984375 -33.578125 C 10.203125 -33.160156 10.3125 -32.707031 10.3125 -32.21875 C 10.3125 -32.144531 10.3125 -32.066406 10.3125 -31.984375 C 10.257812 -31.429688 10.0625 -30.925781 9.71875 -30.46875 C 9.40625 -30.0625 9.0625 -29.773438 8.6875 -29.609375 C 8.300781 -29.398438 7.863281 -29.304688 7.375 -29.328125 C 7.332031 -29.328125 7.285156 -29.328125 7.234375 -29.328125 C 6.753906 -29.335938 6.3125 -29.46875 5.90625 -29.71875 C 5.476562 -29.96875 5.132812 -30.3125 4.875 -30.75 C 4.601562 -31.207031 4.46875 -31.695312 4.46875 -32.21875 C 4.46875 -32.71875 4.59375 -33.1875 4.84375 -33.625 C 5.113281 -34.082031 5.453125 -34.453125 5.859375 -34.734375 C 6.296875 -35.015625 6.78125 -35.15625 7.3125 -35.15625 Z M 7.140625 -24.515625 C 8.628906 -24.484375 9.359375 -23.472656 9.328125 -21.484375 L 9 -1.984375 C 8.96875 0.117188 8.21875 1.171875 6.75 1.171875 C 5.070312 1.148438 4.257812 0.160156 4.3125 -1.796875 L 4.703125 -21.453125 C 4.753906 -23.523438 5.566406 -24.546875 7.140625 -24.515625 Z M 7.140625 -24.515625 "/></g></g><g transform="translate(321.323056, 357.159157)"><g><path d="M 9.1875 -3.375 C 12.675781 -3.132812 14.8125 -3.585938 15.59375 -4.734375 C 16.21875 -5.710938 15.875 -6.90625 14.5625 -8.3125 C 13.6875 -9.25 11.707031 -9.929688 8.625 -10.359375 C 5.414062 -10.828125 3.570312 -12.054688 3.09375 -14.046875 C 2.71875 -15.609375 2.84375 -17.203125 3.46875 -18.828125 C 4.132812 -20.628906 5.125 -22 6.4375 -22.9375 C 7.988281 -24.050781 9.78125 -24.703125 11.8125 -24.890625 C 14.082031 -25.097656 16.078125 -24.78125 17.796875 -23.9375 C 20.035156 -22.84375 21.265625 -21.585938 21.484375 -20.171875 C 21.617188 -19.234375 21.328125 -18.472656 20.609375 -17.890625 C 19.722656 -17.160156 18.375 -17.671875 16.5625 -19.421875 C 15.65625 -20.296875 14.316406 -20.703125 12.546875 -20.640625 C 10.660156 -20.546875 9.265625 -19.96875 8.359375 -18.90625 C 7.597656 -18.007812 7.375 -17.078125 7.6875 -16.109375 C 7.96875 -15.265625 9.050781 -14.742188 10.9375 -14.546875 C 12.414062 -14.390625 13.789062 -14.015625 15.0625 -13.421875 C 16.78125 -12.617188 17.972656 -11.816406 18.640625 -11.015625 C 20.222656 -9.109375 20.894531 -7.171875 20.65625 -5.203125 C 20.40625 -3.179688 19.3125 -1.523438 17.375 -0.234375 C 15.8125 0.804688 13.738281 1.335938 11.15625 1.359375 C 8.96875 1.367188 7.1875 1.179688 5.8125 0.796875 C 4.96875 0.554688 3.9375 0.0859375 2.71875 -0.609375 C 1.625 -1.234375 1.046875 -2.015625 0.984375 -2.953125 C 0.921875 -3.984375 1.25 -4.734375 1.96875 -5.203125 C 2.84375 -5.773438 3.84375 -5.679688 4.96875 -4.921875 C 6.34375 -3.984375 7.75 -3.46875 9.1875 -3.375 Z M 9.1875 -3.375 "/></g></g><g transform="translate(344.674949, 357.159157)"><g/></g><g transform="translate(359.009311, 357.159157)"><g><path d="M 4.515625 -17.828125 C 2.828125 -17.828125 1.988281 -18.597656 2 -20.140625 C 2.019531 -21.691406 2.953125 -22.46875 4.796875 -22.46875 L 8.453125 -22.46875 C 8.597656 -28.507812 9.40625 -32.582031 10.875 -34.6875 C 12.070312 -36.414062 14.359375 -37.335938 17.734375 -37.453125 C 21.054688 -37.554688 22.5625 -36.738281 22.25 -35 C 21.988281 -33.5 20.921875 -32.832031 19.046875 -33 C 16.140625 -33.28125 14.328125 -32.15625 13.609375 -29.625 C 13.179688 -28.15625 12.976562 -25.769531 13 -22.46875 L 18.359375 -22.46875 C 20.441406 -22.46875 21.53125 -21.765625 21.625 -20.359375 C 21.726562 -18.671875 20.742188 -17.828125 18.671875 -17.828125 L 12.90625 -17.828125 L 12.671875 -1.265625 C 12.640625 0.429688 11.78125 1.265625 10.09375 1.234375 C 8.6875 1.203125 8 0.351562 8.03125 -1.3125 L 8.34375 -17.828125 Z M 4.515625 -17.828125 "/></g></g><g transform="translate(383.391779, 357.159157)"><g><path d="M 13.4375 -19.796875 C 11.394531 -19.742188 9.867188 -19.03125 8.859375 -17.65625 C 7.296875 -15.53125 6.515625 -13.195312 6.515625 -10.65625 C 6.515625 -8.207031 7.078125 -6.375 8.203125 -5.15625 C 9.359375 -3.90625 10.679688 -3.28125 12.171875 -3.28125 C 13.878906 -3.28125 15.316406 -3.90625 16.484375 -5.15625 C 17.722656 -6.476562 18.347656 -8.609375 18.359375 -11.546875 C 18.378906 -17.109375 16.738281 -19.859375 13.4375 -19.796875 Z M 13.25 -24.5625 C 19.582031 -24.519531 22.738281 -20.023438 22.71875 -11.078125 C 22.707031 -7.265625 21.863281 -4.367188 20.1875 -2.390625 C 18.3125 -0.00390625 15.457031 1.171875 11.625 1.140625 C 8.84375 1.128906 6.484375 -0.0195312 4.546875 -2.3125 C 2.796875 -4.394531 1.921875 -7.316406 1.921875 -11.078125 C 1.921875 -14.640625 2.96875 -17.796875 5.0625 -20.546875 C 7.125 -23.253906 9.851562 -24.59375 13.25 -24.5625 Z M 13.25 -24.5625 "/></g></g><g transform="translate(408.617446, 357.159157)"><g><path d="M 5.859375 -25.625 C 7.453125 -25.625 8.25 -24.851562 8.25 -23.3125 C 8.25 -23.03125 8.25 -22.738281 8.25 -22.4375 C 10 -23.757812 11.722656 -24.4375 13.421875 -24.46875 C 15.492188 -24.5 17.203125 -24.179688 18.546875 -23.515625 C 20.921875 -22.328125 21.898438 -21.101562 21.484375 -19.84375 C 20.796875 -17.84375 19.550781 -17.453125 17.75 -18.671875 C 16.34375 -19.617188 14.734375 -19.914062 12.921875 -19.5625 C 11.160156 -19.21875 9.546875 -18.316406 8.078125 -16.859375 L 7.6875 -1.5 C 7.632812 0.195312 6.789062 1.03125 5.15625 1 C 3.75 0.96875 3.066406 0.117188 3.109375 -1.546875 L 3.65625 -23.453125 C 3.6875 -24.898438 4.421875 -25.625 5.859375 -25.625 Z M 5.859375 -25.625 "/></g></g><g transform="translate(431.664851, 357.159157)"><g><path d="M 5.4375 -25.625 C 7.0625 -25.625 7.859375 -24.851562 7.828125 -23.3125 L 7.796875 -22.34375 C 9.191406 -23.59375 10.882812 -24.222656 12.875 -24.234375 C 16.125 -24.265625 18.320312 -23.117188 19.46875 -20.796875 C 21.0625 -23.109375 23.457031 -24.253906 26.65625 -24.234375 C 32.570312 -24.222656 35.476562 -20.664062 35.375 -13.5625 L 35.1875 -1.921875 C 35.15625 -0.0351562 34.40625 0.96875 32.9375 1.09375 C 31.25 1.25 30.421875 0.382812 30.453125 -1.5 L 30.59375 -12.296875 C 30.65625 -16.921875 29.453125 -19.265625 26.984375 -19.328125 C 24.128906 -19.398438 22.1875 -18.09375 21.15625 -15.40625 C 21.101562 -15.363281 21.070312 -14.890625 21.0625 -13.984375 L 20.78125 -2.25 C 20.726562 -0.363281 19.976562 0.640625 18.53125 0.765625 C 16.914062 0.910156 16.132812 0.046875 16.1875 -1.828125 L 16.421875 -12.578125 C 16.515625 -17.023438 15.359375 -19.289062 12.953125 -19.375 C 10.253906 -19.46875 8.484375 -17.890625 7.640625 -14.640625 L 7.234375 -1.6875 C 7.191406 0.0078125 6.359375 0.84375 4.734375 0.8125 C 3.328125 0.78125 2.644531 -0.0664062 2.6875 -1.734375 L 3.234375 -23.453125 C 3.265625 -24.898438 4 -25.625 5.4375 -25.625 Z M 5.4375 -25.625 "/></g></g></g></svg>