<svg xmlns="http://www.w3.org/2000/svg" xmlns:xlink="http://www.w3.org/1999/xlink" width="601" zoomAndPan="magnify" viewBox="0 0 450.75 86.249997" height="115" preserveAspectRatio="xMidYMid meet" version="1.0"><defs><g/></defs><g fill="#a91b60" fill-opacity="1"><g transform="translate(122.292752, 61.034905)"><g><path d="M 20.265625 0.4375 C 18.835938 0.34375 17.832031 -0.914062 17.25 -3.34375 L 12.265625 -23.234375 L 7.390625 -1.515625 C 6.859375 0.921875 5.773438 1.675781 4.140625 0.75 C 2.679688 -0.0703125 2.226562 -1.691406 2.78125 -4.109375 L 9.203125 -31.484375 C 9.703125 -33.578125 10.660156 -34.734375 12.078125 -34.953125 C 13.535156 -35.171875 14.46875 -34.441406 14.875 -32.765625 C 14.875 -32.765625 16.765625 -24.8125 20.546875 -8.90625 L 27.484375 -31.609375 C 28.273438 -34.179688 29.457031 -35.441406 31.03125 -35.390625 C 32.445312 -35.359375 33.425781 -34.039062 33.96875 -31.4375 L 39.96875 -2.390625 C 40.4375 -0.179688 39.832031 1.023438 38.15625 1.234375 C 36.375 1.453125 35.222656 0.210938 34.703125 -2.484375 L 30.609375 -23.546875 L 23.796875 -3.625 C 22.835938 -0.800781 21.660156 0.550781 20.265625 0.4375 Z M 20.265625 0.4375 "/></g></g><g transform="translate(164.302447, 61.034905)"><g><path d="M 22.3125 -23.90625 C 23.800781 -23.269531 24.148438 -22.039062 23.359375 -20.21875 L 10.078125 10.390625 C 9.015625 12.867188 7.800781 13.828125 6.4375 13.265625 C 4.8125 12.597656 4.53125 11.035156 5.59375 8.578125 L 10.21875 -2.109375 L 0.5625 -20.015625 C -0.425781 -21.835938 -0.242188 -23.113281 1.109375 -23.84375 C 2.554688 -24.613281 3.765625 -24.078125 4.734375 -22.234375 L 12.53125 -7.4375 L 18.890625 -22.09375 C 19.679688 -23.925781 20.820312 -24.53125 22.3125 -23.90625 Z M 22.3125 -23.90625 "/></g></g><g transform="translate(189.071438, 61.034905)"><g/></g><g transform="translate(203.291534, 61.034905)"><g><path d="M 5.140625 -35.28125 C 5.492188 -35.28125 5.8125 -35.25 6.09375 -35.1875 C 8.519531 -35.40625 10.546875 -35.4375 12.171875 -35.28125 C 17.578125 -34.738281 21.035156 -32.519531 22.546875 -28.625 C 24.054688 -24.675781 23.40625 -20.929688 20.59375 -17.390625 C 18.9375 -15.328125 14.851562 -14.113281 8.34375 -13.75 C 7.875 -13.726562 7.445312 -13.738281 7.0625 -13.78125 L 6.78125 -1.34375 C 6.75 0.257812 5.898438 1.046875 4.234375 1.015625 C 2.835938 0.984375 2.15625 0.179688 2.1875 -1.390625 L 2.96875 -33.234375 C 3 -34.597656 3.722656 -35.28125 5.140625 -35.28125 Z M 7.4375 -30.609375 L 7.15625 -18.171875 C 12.644531 -17.597656 16.066406 -18.488281 17.421875 -20.84375 C 18.753906 -23.15625 18.894531 -25.328125 17.84375 -27.359375 C 16.570312 -29.710938 14.1875 -30.875 10.6875 -30.84375 C 9.769531 -30.820312 8.6875 -30.742188 7.4375 -30.609375 Z M 7.4375 -30.609375 "/></g></g><g transform="translate(228.060524, 61.034905)"><g><path d="M 13.34375 -19.640625 C 11.3125 -19.585938 9.789062 -18.878906 8.78125 -17.515625 C 7.226562 -15.410156 6.453125 -13.097656 6.453125 -10.578125 C 6.453125 -8.140625 7.015625 -6.316406 8.140625 -5.109375 C 9.285156 -3.867188 10.597656 -3.25 12.078125 -3.25 C 13.773438 -3.25 15.203125 -3.867188 16.359375 -5.109375 C 17.585938 -6.429688 18.207031 -8.546875 18.21875 -11.453125 C 18.238281 -16.972656 16.613281 -19.703125 13.34375 -19.640625 Z M 13.15625 -24.375 C 19.425781 -24.332031 22.554688 -19.867188 22.546875 -10.984375 C 22.523438 -7.210938 21.6875 -4.34375 20.03125 -2.375 C 18.175781 0 15.34375 1.171875 11.53125 1.140625 C 8.769531 1.117188 6.429688 -0.0234375 4.515625 -2.296875 C 2.773438 -4.359375 1.90625 -7.253906 1.90625 -10.984375 C 1.90625 -14.523438 2.941406 -17.65625 5.015625 -20.375 C 7.066406 -23.070312 9.78125 -24.40625 13.15625 -24.375 Z M 13.15625 -24.375 "/></g></g><g transform="translate(253.085105, 61.034905)"><g><path d="M 5.8125 -25.421875 C 7.394531 -25.421875 8.1875 -24.65625 8.1875 -23.125 C 8.1875 -22.84375 8.1875 -22.554688 8.1875 -22.265625 C 9.914062 -23.578125 11.625 -24.25 13.3125 -24.28125 C 15.375 -24.3125 17.070312 -23.992188 18.40625 -23.328125 C 20.757812 -22.148438 21.726562 -20.9375 21.3125 -19.6875 C 20.625 -17.695312 19.390625 -17.304688 17.609375 -18.515625 C 16.222656 -19.460938 14.628906 -19.757812 12.828125 -19.40625 C 11.078125 -19.0625 9.472656 -18.171875 8.015625 -16.734375 L 7.625 -1.484375 C 7.570312 0.203125 6.734375 1.03125 5.109375 1 C 3.710938 0.96875 3.039062 0.125 3.09375 -1.53125 L 3.625 -23.265625 C 3.65625 -24.703125 4.382812 -25.421875 5.8125 -25.421875 Z M 5.8125 -25.421875 "/></g></g><g transform="translate(275.948789, 61.034905)"><g><path d="M 11.4375 -37.421875 C 13.007812 -37.421875 13.796875 -36.648438 13.796875 -35.109375 C 13.765625 -31.160156 13.695312 -27.550781 13.59375 -24.28125 L 18.3125 -24.3125 C 20.21875 -24.320312 21.171875 -23.546875 21.171875 -21.984375 C 21.171875 -20.398438 20.265625 -19.609375 18.453125 -19.609375 C 16.796875 -19.609375 15.140625 -19.609375 13.484375 -19.609375 L 13.078125 -1.484375 C 13.066406 0.203125 12.222656 1.03125 10.546875 1 C 9.148438 0.96875 8.46875 0.125 8.5 -1.53125 L 8.921875 -19.609375 C 7.097656 -19.609375 5.28125 -19.609375 3.46875 -19.609375 C 2.132812 -19.609375 1.46875 -20.367188 1.46875 -21.890625 C 1.46875 -23.453125 2.203125 -24.234375 3.671875 -24.234375 C 5.453125 -24.234375 7.242188 -24.242188 9.046875 -24.265625 L 9.296875 -35.25 C 9.328125 -36.695312 10.039062 -37.421875 11.4375 -37.421875 Z M 11.4375 -37.421875 "/></g></g><g transform="translate(298.370999, 61.034905)"><g><path d="M 4.484375 -17.6875 C 2.804688 -17.6875 1.972656 -18.453125 1.984375 -19.984375 C 2.003906 -21.515625 2.929688 -22.28125 4.765625 -22.28125 L 8.390625 -22.28125 C 8.523438 -28.28125 9.320312 -32.328125 10.78125 -34.421875 C 11.976562 -36.140625 14.25 -37.050781 17.59375 -37.15625 C 20.894531 -37.269531 22.390625 -36.457031 22.078125 -34.71875 C 21.816406 -33.226562 20.753906 -32.570312 18.890625 -32.75 C 16.015625 -33.019531 14.21875 -31.898438 13.5 -29.390625 C 13.082031 -27.941406 12.878906 -25.570312 12.890625 -22.28125 L 18.21875 -22.28125 C 20.28125 -22.28125 21.359375 -21.582031 21.453125 -20.1875 C 21.554688 -18.519531 20.578125 -17.6875 18.515625 -17.6875 L 12.8125 -17.6875 L 12.578125 -1.25 C 12.546875 0.4375 11.691406 1.265625 10.015625 1.234375 C 8.617188 1.203125 7.9375 0.359375 7.96875 -1.296875 L 8.265625 -17.6875 Z M 4.484375 -17.6875 "/></g></g><g transform="translate(322.559104, 61.034905)"><g><path d="M 13.34375 -19.640625 C 11.3125 -19.585938 9.789062 -18.878906 8.78125 -17.515625 C 7.226562 -15.410156 6.453125 -13.097656 6.453125 -10.578125 C 6.453125 -8.140625 7.015625 -6.316406 8.140625 -5.109375 C 9.285156 -3.867188 10.597656 -3.25 12.078125 -3.25 C 13.773438 -3.25 15.203125 -3.867188 16.359375 -5.109375 C 17.585938 -6.429688 18.207031 -8.546875 18.21875 -11.453125 C 18.238281 -16.972656 16.613281 -19.703125 13.34375 -19.640625 Z M 13.15625 -24.375 C 19.425781 -24.332031 22.554688 -19.867188 22.546875 -10.984375 C 22.523438 -7.210938 21.6875 -4.34375 20.03125 -2.375 C 18.175781 0 15.34375 1.171875 11.53125 1.140625 C 8.769531 1.117188 6.429688 -0.0234375 4.515625 -2.296875 C 2.773438 -4.359375 1.90625 -7.253906 1.90625 -10.984375 C 1.90625 -14.523438 2.941406 -17.65625 5.015625 -20.375 C 7.066406 -23.070312 9.78125 -24.40625 13.15625 -24.375 Z M 13.15625 -24.375 "/></g></g><g transform="translate(347.583684, 61.034905)"><g><path d="M 6.96875 -37.421875 C 8.582031 -37.421875 9.375 -36.648438 9.34375 -35.109375 L 8.625 -1.484375 C 8.601562 0.203125 7.757812 1.03125 6.09375 1 C 4.695312 0.96875 4.015625 0.125 4.046875 -1.53125 L 4.828125 -35.25 C 4.859375 -36.664062 5.570312 -37.390625 6.96875 -37.421875 Z M 6.96875 -37.421875 "/></g></g><g transform="translate(360.618772, 61.034905)"><g><path d="M 7.25 -34.875 C 7.28125 -34.875 7.3125 -34.875 7.34375 -34.875 C 7.863281 -34.875 8.347656 -34.742188 8.796875 -34.484375 C 9.273438 -34.203125 9.640625 -33.8125 9.890625 -33.3125 C 10.109375 -32.894531 10.21875 -32.445312 10.21875 -31.96875 C 10.21875 -31.894531 10.21875 -31.816406 10.21875 -31.734375 C 10.175781 -31.179688 9.984375 -30.679688 9.640625 -30.234375 C 9.328125 -29.828125 8.984375 -29.539062 8.609375 -29.375 C 8.222656 -29.164062 7.789062 -29.070312 7.3125 -29.09375 C 7.269531 -29.09375 7.222656 -29.09375 7.171875 -29.09375 C 6.691406 -29.101562 6.25 -29.234375 5.84375 -29.484375 C 5.425781 -29.734375 5.085938 -30.070312 4.828125 -30.5 C 4.566406 -30.957031 4.4375 -31.445312 4.4375 -31.96875 C 4.4375 -32.46875 4.554688 -32.929688 4.796875 -33.359375 C 5.066406 -33.804688 5.398438 -34.171875 5.796875 -34.453125 C 6.234375 -34.734375 6.71875 -34.875 7.25 -34.875 Z M 7.09375 -24.328125 C 8.5625 -24.296875 9.28125 -23.289062 9.25 -21.3125 L 8.921875 -1.96875 C 8.890625 0.113281 8.144531 1.15625 6.6875 1.15625 C 5.03125 1.144531 4.226562 0.160156 4.28125 -1.796875 L 4.671875 -21.28125 C 4.710938 -23.34375 5.519531 -24.359375 7.09375 -24.328125 Z M 7.09375 -24.328125 "/></g></g><g transform="translate(373.955921, 61.034905)"><g><path d="M 13.34375 -19.640625 C 11.3125 -19.585938 9.789062 -18.878906 8.78125 -17.515625 C 7.226562 -15.410156 6.453125 -13.097656 6.453125 -10.578125 C 6.453125 -8.140625 7.015625 -6.316406 8.140625 -5.109375 C 9.285156 -3.867188 10.597656 -3.25 12.078125 -3.25 C 13.773438 -3.25 15.203125 -3.867188 16.359375 -5.109375 C 17.585938 -6.429688 18.207031 -8.546875 18.21875 -11.453125 C 18.238281 -16.972656 16.613281 -19.703125 13.34375 -19.640625 Z M 13.15625 -24.375 C 19.425781 -24.332031 22.554688 -19.867188 22.546875 -10.984375 C 22.523438 -7.210938 21.6875 -4.34375 20.03125 -2.375 C 18.175781 0 15.34375 1.171875 11.53125 1.140625 C 8.769531 1.117188 6.429688 -0.0234375 4.515625 -2.296875 C 2.773438 -4.359375 1.90625 -7.253906 1.90625 -10.984375 C 1.90625 -14.523438 2.941406 -17.65625 5.015625 -20.375 C 7.066406 -23.070312 9.78125 -24.40625 13.15625 -24.375 Z M 13.15625 -24.375 "/></g></g></g><g fill="#a91b60" fill-opacity="1"><g transform="translate(15.124172, 61.58838)"><g><path d="M 14.078125 -28.921875 C 8.453125 -28.921875 5.640625 -24.710938 5.640625 -16.296875 C 5.640625 -7.410156 8.234375 -2.96875 13.421875 -2.96875 C 18.648438 -2.96875 21.265625 -7.519531 21.265625 -16.625 C 21.265625 -24.820312 18.867188 -28.921875 14.078125 -28.921875 Z M 14 -33.046875 C 21.800781 -33.046875 25.703125 -27.546875 25.703125 -16.546875 C 25.703125 -4.785156 21.609375 1.09375 13.421875 1.09375 C 5.359375 1.09375 1.328125 -4.679688 1.328125 -16.234375 C 1.328125 -27.441406 5.550781 -33.046875 14 -33.046875 Z M 14 -33.046875 "/></g></g><g transform="translate(42.353216, 61.58838)"><g><path d="M 13.109375 -30.625 C 13.109375 -30.625 13.066406 -21.394531 12.984375 -2.9375 C 13.785156 -2.9375 14.578125 -2.9375 15.359375 -2.9375 C 16.847656 -2.9375 17.59375 -2.265625 17.59375 -0.921875 C 17.59375 0.390625 16.867188 1.046875 15.421875 1.046875 L 5.53125 1.046875 C 4.226562 1.046875 3.578125 0.4375 3.578125 -0.78125 C 3.585938 -2.238281 4.3125 -2.96875 5.75 -2.96875 C 6.820312 -2.96875 7.90625 -2.96875 9 -2.96875 L 9.046875 -26.078125 L 7.421875 -24.546875 C 6.046875 -23.222656 4.882812 -23.203125 3.9375 -24.484375 C 3.1875 -25.492188 3.328125 -26.488281 4.359375 -27.46875 L 8.6875 -31.546875 C 9.863281 -32.648438 10.945312 -33.082031 11.9375 -32.84375 C 12.738281 -32.664062 13.128906 -31.925781 13.109375 -30.625 Z M 13.109375 -30.625 "/></g></g></g></svg>