<svg xmlns="http://www.w3.org/2000/svg" xmlns:xlink="http://www.w3.org/1999/xlink" width="781" zoomAndPan="magnify" viewBox="0 0 585.75 86.249997" height="115" preserveAspectRatio="xMidYMid meet" version="1.0"><defs><g/></defs><g fill="#a91b60" fill-opacity="1"><g transform="translate(15.706071, 61.034904)"><g><path d="M 14.078125 -28.921875 C 8.453125 -28.921875 5.640625 -24.710938 5.640625 -16.296875 C 5.640625 -7.410156 8.234375 -2.96875 13.421875 -2.96875 C 18.648438 -2.96875 21.265625 -7.519531 21.265625 -16.625 C 21.265625 -24.820312 18.867188 -28.921875 14.078125 -28.921875 Z M 14 -33.046875 C 21.800781 -33.046875 25.703125 -27.546875 25.703125 -16.546875 C 25.703125 -4.785156 21.609375 1.09375 13.421875 1.09375 C 5.359375 1.09375 1.328125 -4.679688 1.328125 -16.234375 C 1.328125 -27.441406 5.550781 -33.046875 14 -33.046875 Z M 14 -33.046875 "/></g></g><g transform="translate(42.935115, 61.034904)"><g><path d="M 3.578125 -1.953125 C 3.660156 -4.890625 4.738281 -7.882812 6.8125 -10.9375 C 8.78125 -13.738281 11.679688 -16.066406 15.515625 -17.921875 C 18.003906 -19.128906 19.285156 -21.320312 19.359375 -24.5 C 19.398438 -26.300781 18.582031 -27.628906 16.90625 -28.484375 C 15.257812 -29.316406 13.5625 -29.453125 11.8125 -28.890625 C 10.757812 -28.535156 9.421875 -27.414062 7.796875 -25.53125 C 6.609375 -24.164062 5.460938 -23.945312 4.359375 -24.875 C 3.335938 -25.6875 3.234375 -26.585938 4.046875 -27.578125 C 5.722656 -29.617188 7.15625 -30.988281 8.34375 -31.6875 C 9.882812 -32.601562 11.835938 -33.0625 14.203125 -33.0625 C 16.421875 -33.0625 18.191406 -32.65625 19.515625 -31.84375 C 22.347656 -30.070312 23.726562 -27.503906 23.65625 -24.140625 C 23.550781 -19.609375 21.6875 -16.515625 18.0625 -14.859375 C 14.75 -13.347656 12.222656 -11.320312 10.484375 -8.78125 C 8.828125 -6.363281 7.945312 -4.453125 7.84375 -3.046875 C 12.445312 -3.035156 17.050781 -3.019531 21.65625 -3 C 23.207031 -3 23.972656 -2.332031 23.953125 -1 C 23.941406 0.394531 23.179688 1.082031 21.671875 1.0625 L 5.703125 1.0625 C 4.210938 1.0625 3.503906 0.0546875 3.578125 -1.953125 Z M 3.578125 -1.953125 "/></g></g></g><g fill="#a91b60" fill-opacity="1"><g transform="translate(122.87465, 61.034905)"><g><path d="M 33.375 1.28125 C 32.144531 0.800781 31.179688 -0.640625 30.484375 -3.046875 L 24.546875 -23.46875 L 18.59375 -3.0625 C 17.84375 -0.519531 16.875 0.914062 15.6875 1.25 C 15.25 1.375 14.816406 1.375 14.390625 1.25 C 13.191406 0.894531 12.226562 -0.539062 11.5 -3.0625 L 3.828125 -29.34375 C 2.679688 -33.300781 3.265625 -35.285156 5.578125 -35.296875 C 6.691406 -35.296875 7.410156 -34.738281 7.734375 -33.625 L 15.03125 -7.328125 L 22.359375 -33.625 C 22.671875 -34.726562 23.382812 -35.285156 24.5 -35.296875 C 25.675781 -35.296875 26.414062 -34.734375 26.71875 -33.609375 L 34.015625 -7.296875 L 41.3125 -33.609375 C 41.65625 -34.703125 42.382812 -35.257812 43.5 -35.28125 C 45.789062 -35.28125 46.363281 -33.296875 45.21875 -29.328125 L 37.546875 -3.046875 C 36.804688 -0.503906 35.847656 0.9375 34.671875 1.28125 C 34.234375 1.40625 33.800781 1.40625 33.375 1.28125 Z M 33.375 1.28125 "/></g></g><g transform="translate(172.342925, 61.034905)"><g><path d="M 6.375 -37.4375 C 7.976562 -37.4375 8.765625 -36.660156 8.734375 -35.109375 L 8.5 -21.359375 C 10.4375 -23.148438 13.019531 -24.046875 16.25 -24.046875 C 22.050781 -24.035156 24.921875 -20.503906 24.859375 -13.453125 L 24.765625 -1.671875 C 24.753906 0.203125 24.015625 1.203125 22.546875 1.328125 C 20.890625 1.460938 20.066406 0.601562 20.078125 -1.25 L 20.140625 -12.390625 C 20.171875 -16.503906 18.9375 -18.664062 16.4375 -18.875 C 13.5625 -19.113281 10.914062 -17.785156 8.5 -14.890625 L 8 -1.484375 C 7.9375 0.203125 7.082031 1.03125 5.4375 1 C 4.0625 0.96875 3.390625 0.125 3.421875 -1.53125 L 4.1875 -35.25 C 4.21875 -36.675781 4.945312 -37.40625 6.375 -37.4375 Z M 6.375 -37.4375 "/></g></g><g transform="translate(199.830464, 61.034905)"><g><path d="M 11.71875 1.296875 C 4.757812 1.316406 1.253906 -2.398438 1.203125 -9.859375 C 1.160156 -14.703125 2.757812 -18.445312 6 -21.09375 C 9.71875 -24.144531 13.601562 -25.03125 17.65625 -23.75 C 18.101562 -24.132812 18.800781 -24.21875 19.75 -24 C 21.613281 -23.582031 22.363281 -22.382812 22 -20.40625 C 21.644531 -18.46875 21.429688 -15.164062 21.359375 -10.5 C 21.296875 -6.78125 21.710938 -4.148438 22.609375 -2.609375 C 23.929688 -0.335938 23.742188 0.960938 22.046875 1.296875 C 20.117188 1.703125 19 0.882812 18.6875 -1.15625 C 15.476562 0.46875 13.15625 1.285156 11.71875 1.296875 Z M 14.40625 -3.375 C 14.96875 -3.570312 15.9375 -4.238281 17.3125 -5.375 C 16.75 -12.03125 16.828125 -16.613281 17.546875 -19.125 C 16.046875 -20.070312 14.472656 -20.34375 12.828125 -19.9375 C 11.679688 -19.65625 10.765625 -19.257812 10.078125 -18.75 C 7.328125 -16.75 5.878906 -13.929688 5.734375 -10.296875 C 5.785156 -5.554688 7.414062 -3.078125 10.625 -2.859375 C 11.96875 -2.765625 13.226562 -2.9375 14.40625 -3.375 Z M 14.40625 -3.375 "/></g></g><g transform="translate(224.181216, 61.034905)"><g><path d="M 11.4375 -37.421875 C 13.007812 -37.421875 13.796875 -36.648438 13.796875 -35.109375 C 13.765625 -31.160156 13.695312 -27.550781 13.59375 -24.28125 L 18.3125 -24.3125 C 20.21875 -24.320312 21.171875 -23.546875 21.171875 -21.984375 C 21.171875 -20.398438 20.265625 -19.609375 18.453125 -19.609375 C 16.796875 -19.609375 15.140625 -19.609375 13.484375 -19.609375 L 13.078125 -1.484375 C 13.066406 0.203125 12.222656 1.03125 10.546875 1 C 9.148438 0.96875 8.46875 0.125 8.5 -1.53125 L 8.921875 -19.609375 C 7.097656 -19.609375 5.28125 -19.609375 3.46875 -19.609375 C 2.132812 -19.609375 1.46875 -20.367188 1.46875 -21.890625 C 1.46875 -23.453125 2.203125 -24.234375 3.671875 -24.234375 C 5.453125 -24.234375 7.242188 -24.242188 9.046875 -24.265625 L 9.296875 -35.25 C 9.328125 -36.695312 10.039062 -37.421875 11.4375 -37.421875 Z M 11.4375 -37.421875 "/></g></g><g transform="translate(246.603427, 61.034905)"><g/></g><g transform="translate(260.823523, 61.034905)"><g><path d="M 5.015625 -34.71875 L 21.96875 -34.71875 C 23.832031 -34.71875 24.78125 -33.878906 24.8125 -32.203125 C 24.84375 -30.671875 23.847656 -29.90625 21.828125 -29.90625 L 14.84375 -29.90625 L 14.203125 -3.828125 L 21.640625 -3.828125 C 23.515625 -3.828125 24.46875 -2.992188 24.5 -1.328125 C 24.53125 0.203125 23.53125 0.96875 21.5 0.96875 L 4.484375 0.96875 C 2.535156 0.96875 1.5625 0.09375 1.5625 -1.65625 C 1.5625 -3.125 2.601562 -3.847656 4.6875 -3.828125 L 9.640625 -3.828125 L 10.3125 -29.90625 L 4.8125 -29.90625 C 2.851562 -29.90625 1.875 -30.773438 1.875 -32.515625 C 1.875 -33.984375 2.921875 -34.71875 5.015625 -34.71875 Z M 5.015625 -34.71875 "/></g></g><g transform="translate(286.823993, 61.034905)"><g/></g><g transform="translate(301.044089, 61.034905)"><g><path d="M 23.28125 -37.421875 C 24.894531 -37.421875 25.6875 -36.648438 25.65625 -35.109375 L 24.9375 -1.484375 C 24.914062 0.203125 24.070312 1.03125 22.40625 1 C 21.164062 0.96875 20.488281 0.300781 20.375 -1 C 18.082031 0.457031 15.632812 1.175781 13.03125 1.15625 C 10.351562 1.144531 7.984375 0.125 5.921875 -1.90625 C 3.628906 -4.195312 2.421875 -6.867188 2.296875 -9.921875 C 2.160156 -14.046875 3.226562 -17.507812 5.5 -20.3125 C 7.65625 -22.957031 10.46875 -24.28125 13.9375 -24.28125 C 15.800781 -24.28125 17.429688 -23.882812 18.828125 -23.09375 C 19.554688 -22.675781 20.222656 -22.257812 20.828125 -21.84375 L 21.140625 -35.25 C 21.171875 -36.664062 21.882812 -37.390625 23.28125 -37.421875 Z M 20.453125 -6.25 C 20.617188 -9.46875 20.703125 -12.882812 20.703125 -16.5 C 17.960938 -19.332031 15.257812 -20.425781 12.59375 -19.78125 C 10.644531 -19.300781 9.234375 -18.523438 8.359375 -17.453125 C 7.140625 -15.921875 6.5 -13.78125 6.4375 -11.03125 C 6.40625 -9.269531 7.046875 -7.53125 8.359375 -5.8125 C 9.421875 -4.414062 10.976562 -3.601562 13.03125 -3.375 C 15.207031 -3.125 17.679688 -4.082031 20.453125 -6.25 Z M 20.453125 -6.25 "/></g></g><g transform="translate(328.996336, 61.034905)"><g><path d="M 13.34375 -19.640625 C 11.3125 -19.585938 9.789062 -18.878906 8.78125 -17.515625 C 7.226562 -15.410156 6.453125 -13.097656 6.453125 -10.578125 C 6.453125 -8.140625 7.015625 -6.316406 8.140625 -5.109375 C 9.285156 -3.867188 10.597656 -3.25 12.078125 -3.25 C 13.773438 -3.25 15.203125 -3.867188 16.359375 -5.109375 C 17.585938 -6.429688 18.207031 -8.546875 18.21875 -11.453125 C 18.238281 -16.972656 16.613281 -19.703125 13.34375 -19.640625 Z M 13.15625 -24.375 C 19.425781 -24.332031 22.554688 -19.867188 22.546875 -10.984375 C 22.523438 -7.210938 21.6875 -4.34375 20.03125 -2.375 C 18.175781 0 15.34375 1.171875 11.53125 1.140625 C 8.769531 1.117188 6.429688 -0.0234375 4.515625 -2.296875 C 2.773438 -4.359375 1.90625 -7.253906 1.90625 -10.984375 C 1.90625 -14.523438 2.941406 -17.65625 5.015625 -20.375 C 7.066406 -23.070312 9.78125 -24.40625 13.15625 -24.375 Z M 13.15625 -24.375 "/></g></g><g transform="translate(354.020917, 61.034905)"><g/></g><g transform="translate(368.241013, 61.034905)"><g><path d="M 11.71875 1.296875 C 4.757812 1.316406 1.253906 -2.398438 1.203125 -9.859375 C 1.160156 -14.703125 2.757812 -18.445312 6 -21.09375 C 9.71875 -24.144531 13.601562 -25.03125 17.65625 -23.75 C 18.101562 -24.132812 18.800781 -24.21875 19.75 -24 C 21.613281 -23.582031 22.363281 -22.382812 22 -20.40625 C 21.644531 -18.46875 21.429688 -15.164062 21.359375 -10.5 C 21.296875 -6.78125 21.710938 -4.148438 22.609375 -2.609375 C 23.929688 -0.335938 23.742188 0.960938 22.046875 1.296875 C 20.117188 1.703125 19 0.882812 18.6875 -1.15625 C 15.476562 0.46875 13.15625 1.285156 11.71875 1.296875 Z M 14.40625 -3.375 C 14.96875 -3.570312 15.9375 -4.238281 17.3125 -5.375 C 16.75 -12.03125 16.828125 -16.613281 17.546875 -19.125 C 16.046875 -20.070312 14.472656 -20.34375 12.828125 -19.9375 C 11.679688 -19.65625 10.765625 -19.257812 10.078125 -18.75 C 7.328125 -16.75 5.878906 -13.929688 5.734375 -10.296875 C 5.785156 -5.554688 7.414062 -3.078125 10.625 -2.859375 C 11.96875 -2.765625 13.226562 -2.9375 14.40625 -3.375 Z M 14.40625 -3.375 "/></g></g><g transform="translate(392.591766, 61.034905)"><g><path d="M 5.8125 -25.421875 C 7.4375 -25.421875 8.226562 -24.65625 8.1875 -23.125 C 8.164062 -22.675781 8.148438 -22.21875 8.140625 -21.75 C 9.828125 -23.28125 11.988281 -24.046875 14.625 -24.046875 C 20.476562 -24.035156 23.347656 -20.503906 23.234375 -13.453125 L 23.046875 -1.828125 C 23.015625 0.0351562 22.273438 1.03125 20.828125 1.15625 C 19.140625 1.3125 18.316406 0.453125 18.359375 -1.421875 L 18.640625 -12.4375 C 18.742188 -16.707031 17.519531 -18.9375 14.96875 -19.125 C 12.8125 -19.28125 10.503906 -18.125 8.046875 -15.65625 L 7.671875 -1.609375 C 7.617188 0.078125 6.765625 0.910156 5.109375 0.890625 C 3.710938 0.859375 3.039062 0.0078125 3.09375 -1.65625 L 3.625 -23.265625 C 3.65625 -24.703125 4.382812 -25.421875 5.8125 -25.421875 Z M 5.8125 -25.421875 "/></g></g><g transform="translate(417.500169, 61.034905)"><g><path d="M 23.28125 -37.421875 C 24.894531 -37.421875 25.6875 -36.648438 25.65625 -35.109375 L 24.9375 -1.484375 C 24.914062 0.203125 24.070312 1.03125 22.40625 1 C 21.164062 0.96875 20.488281 0.300781 20.375 -1 C 18.082031 0.457031 15.632812 1.175781 13.03125 1.15625 C 10.351562 1.144531 7.984375 0.125 5.921875 -1.90625 C 3.628906 -4.195312 2.421875 -6.867188 2.296875 -9.921875 C 2.160156 -14.046875 3.226562 -17.507812 5.5 -20.3125 C 7.65625 -22.957031 10.46875 -24.28125 13.9375 -24.28125 C 15.800781 -24.28125 17.429688 -23.882812 18.828125 -23.09375 C 19.554688 -22.675781 20.222656 -22.257812 20.828125 -21.84375 L 21.140625 -35.25 C 21.171875 -36.664062 21.882812 -37.390625 23.28125 -37.421875 Z M 20.453125 -6.25 C 20.617188 -9.46875 20.703125 -12.882812 20.703125 -16.5 C 17.960938 -19.332031 15.257812 -20.425781 12.59375 -19.78125 C 10.644531 -19.300781 9.234375 -18.523438 8.359375 -17.453125 C 7.140625 -15.921875 6.5 -13.78125 6.4375 -11.03125 C 6.40625 -9.269531 7.046875 -7.53125 8.359375 -5.8125 C 9.421875 -4.414062 10.976562 -3.601562 13.03125 -3.375 C 15.207031 -3.125 17.679688 -4.082031 20.453125 -6.25 Z M 20.453125 -6.25 "/></g></g><g transform="translate(445.452416, 61.034905)"><g/></g><g transform="translate(459.672512, 61.034905)"><g><path d="M 6.375 -37.4375 C 7.976562 -37.4375 8.765625 -36.660156 8.734375 -35.109375 L 8.5 -21.359375 C 10.4375 -23.148438 13.019531 -24.046875 16.25 -24.046875 C 22.050781 -24.035156 24.921875 -20.503906 24.859375 -13.453125 L 24.765625 -1.671875 C 24.753906 0.203125 24.015625 1.203125 22.546875 1.328125 C 20.890625 1.460938 20.066406 0.601562 20.078125 -1.25 L 20.140625 -12.390625 C 20.171875 -16.503906 18.9375 -18.664062 16.4375 -18.875 C 13.5625 -19.113281 10.914062 -17.785156 8.5 -14.890625 L 8 -1.484375 C 7.9375 0.203125 7.082031 1.03125 5.4375 1 C 4.0625 0.96875 3.390625 0.125 3.421875 -1.53125 L 4.1875 -35.25 C 4.21875 -36.675781 4.945312 -37.40625 6.375 -37.4375 Z M 6.375 -37.4375 "/></g></g><g transform="translate(487.160051, 61.034905)"><g><path d="M 13.34375 -19.640625 C 11.3125 -19.585938 9.789062 -18.878906 8.78125 -17.515625 C 7.226562 -15.410156 6.453125 -13.097656 6.453125 -10.578125 C 6.453125 -8.140625 7.015625 -6.316406 8.140625 -5.109375 C 9.285156 -3.867188 10.597656 -3.25 12.078125 -3.25 C 13.773438 -3.25 15.203125 -3.867188 16.359375 -5.109375 C 17.585938 -6.429688 18.207031 -8.546875 18.21875 -11.453125 C 18.238281 -16.972656 16.613281 -19.703125 13.34375 -19.640625 Z M 13.15625 -24.375 C 19.425781 -24.332031 22.554688 -19.867188 22.546875 -10.984375 C 22.523438 -7.210938 21.6875 -4.34375 20.03125 -2.375 C 18.175781 0 15.34375 1.171875 11.53125 1.140625 C 8.769531 1.117188 6.429688 -0.0234375 4.515625 -2.296875 C 2.773438 -4.359375 1.90625 -7.253906 1.90625 -10.984375 C 1.90625 -14.523438 2.941406 -17.65625 5.015625 -20.375 C 7.066406 -23.070312 9.78125 -24.40625 13.15625 -24.375 Z M 13.15625 -24.375 "/></g></g><g transform="translate(512.184632, 61.034905)"><g><path d="M 18.984375 -21.265625 L 21.703125 -5.140625 L 26.859375 -21.265625 C 27.554688 -23.453125 28.476562 -24.457031 29.625 -24.28125 C 31.238281 -24.03125 31.710938 -22.945312 31.046875 -21.03125 L 24.328125 -1.671875 C 23.679688 0.210938 22.707031 1.15625 21.40625 1.15625 C 19.8125 1.15625 18.832031 0.210938 18.46875 -1.671875 L 16.015625 -14.4375 L 11.53125 -1.671875 C 10.863281 0.210938 9.882812 1.15625 8.59375 1.15625 C 7 1.15625 6.023438 0.210938 5.671875 -1.671875 L 2 -21.03125 C 1.625 -22.976562 2.148438 -24.0625 3.578125 -24.28125 C 4.941406 -24.5 5.8125 -23.492188 6.1875 -21.265625 L 8.90625 -5.140625 L 14.0625 -21.265625 C 14.707031 -23.296875 15.554688 -24.3125 16.609375 -24.3125 C 17.847656 -24.3125 18.640625 -23.296875 18.984375 -21.265625 Z M 18.984375 -21.265625 "/></g></g></g></svg>