<svg xmlns="http://www.w3.org/2000/svg" xmlns:xlink="http://www.w3.org/1999/xlink" width="781" zoomAndPan="magnify" viewBox="0 0 585.75 86.249997" height="115" preserveAspectRatio="xMidYMid meet" version="1.0"><defs><g/></defs><g fill="#a91b60" fill-opacity="1"><g transform="translate(15.706071, 61.034904)"><g><path d="M 14.078125 -28.921875 C 8.453125 -28.921875 5.640625 -24.710938 5.640625 -16.296875 C 5.640625 -7.410156 8.234375 -2.96875 13.421875 -2.96875 C 18.648438 -2.96875 21.265625 -7.519531 21.265625 -16.625 C 21.265625 -24.820312 18.867188 -28.921875 14.078125 -28.921875 Z M 14 -33.046875 C 21.800781 -33.046875 25.703125 -27.546875 25.703125 -16.546875 C 25.703125 -4.785156 21.609375 1.09375 13.421875 1.09375 C 5.359375 1.09375 1.328125 -4.679688 1.328125 -16.234375 C 1.328125 -27.441406 5.550781 -33.046875 14 -33.046875 Z M 14 -33.046875 "/></g></g><g transform="translate(42.935115, 61.034904)"><g><path d="M 14.828125 -31 C 15.816406 -32.34375 17.132812 -33.007812 18.78125 -33 C 20.257812 -32.988281 21 -32.21875 21 -30.6875 L 21 -13.328125 C 21.582031 -13.328125 22.160156 -13.328125 22.734375 -13.328125 C 24.785156 -13.328125 25.832031 -12.601562 25.875 -11.15625 C 25.90625 -9.726562 24.894531 -9.015625 22.84375 -9.015625 L 21 -9.015625 L 21 -1.21875 C 21 0.332031 20.332031 1.101562 19 1.09375 C 17.601562 1.070312 16.90625 0.285156 16.90625 -1.265625 C 16.882812 -3.847656 16.875 -6.429688 16.875 -9.015625 L 3.09375 -9 C 1.726562 -9 1.046875 -9.660156 1.046875 -10.984375 C 1.046875 -11.703125 1.300781 -12.410156 1.8125 -13.109375 Z M 16.859375 -13.3125 C 16.859375 -17.4375 16.875 -21.976562 16.90625 -26.9375 L 7.609375 -13.28125 Z M 16.859375 -13.3125 "/></g></g></g><g fill="#a91b60" fill-opacity="1"><g transform="translate(122.87465, 61.034905)"><g><path d="M 6.921875 -34.875 C 7.242188 -34.875 7.539062 -34.84375 7.8125 -34.78125 C 7.96875 -34.8125 8.132812 -34.828125 8.3125 -34.828125 L 24.46875 -34.921875 C 26.65625 -34.941406 27.769531 -34.0625 27.8125 -32.28125 C 27.863281 -30.851562 26.796875 -30.132812 24.609375 -30.125 C 19.484375 -30.09375 14.363281 -30.0625 9.25 -30.03125 L 9.046875 -21.734375 L 21.890625 -21.796875 C 24.078125 -21.816406 25.191406 -20.925781 25.234375 -19.125 C 25.285156 -17.71875 24.21875 -17.003906 22.03125 -16.984375 L 8.953125 -16.921875 L 8.578125 -1.375 C 8.554688 0.207031 7.710938 0.984375 6.046875 0.953125 C 4.648438 0.921875 3.96875 0.128906 4 -1.421875 L 4.78125 -32.859375 C 4.8125 -34.171875 5.523438 -34.84375 6.921875 -34.875 Z M 6.921875 -34.875 "/></g></g><g transform="translate(151.756316, 61.034905)"><g><path d="M 7.25 -34.875 C 7.28125 -34.875 7.3125 -34.875 7.34375 -34.875 C 7.863281 -34.875 8.347656 -34.742188 8.796875 -34.484375 C 9.273438 -34.203125 9.640625 -33.8125 9.890625 -33.3125 C 10.109375 -32.894531 10.21875 -32.445312 10.21875 -31.96875 C 10.21875 -31.894531 10.21875 -31.816406 10.21875 -31.734375 C 10.175781 -31.179688 9.984375 -30.679688 9.640625 -30.234375 C 9.328125 -29.828125 8.984375 -29.539062 8.609375 -29.375 C 8.222656 -29.164062 7.789062 -29.070312 7.3125 -29.09375 C 7.269531 -29.09375 7.222656 -29.09375 7.171875 -29.09375 C 6.691406 -29.101562 6.25 -29.234375 5.84375 -29.484375 C 5.425781 -29.734375 5.085938 -30.070312 4.828125 -30.5 C 4.566406 -30.957031 4.4375 -31.445312 4.4375 -31.96875 C 4.4375 -32.46875 4.554688 -32.929688 4.796875 -33.359375 C 5.066406 -33.804688 5.398438 -34.171875 5.796875 -34.453125 C 6.234375 -34.734375 6.71875 -34.875 7.25 -34.875 Z M 7.09375 -24.328125 C 8.5625 -24.296875 9.28125 -23.289062 9.25 -21.3125 L 8.921875 -1.96875 C 8.890625 0.113281 8.144531 1.15625 6.6875 1.15625 C 5.03125 1.144531 4.226562 0.160156 4.28125 -1.796875 L 4.671875 -21.28125 C 4.710938 -23.34375 5.519531 -24.359375 7.09375 -24.328125 Z M 7.09375 -24.328125 "/></g></g><g transform="translate(165.093465, 61.034905)"><g><path d="M 6.96875 -37.421875 C 8.582031 -37.421875 9.375 -36.648438 9.34375 -35.109375 L 8.625 -1.484375 C 8.601562 0.203125 7.757812 1.03125 6.09375 1 C 4.695312 0.96875 4.015625 0.125 4.046875 -1.53125 L 4.828125 -35.25 C 4.859375 -36.664062 5.570312 -37.390625 6.96875 -37.421875 Z M 6.96875 -37.421875 "/></g></g><g transform="translate(178.128553, 61.034905)"><g><path d="M 6.96875 -37.421875 C 8.582031 -37.421875 9.375 -36.648438 9.34375 -35.109375 L 8.625 -1.484375 C 8.601562 0.203125 7.757812 1.03125 6.09375 1 C 4.695312 0.96875 4.015625 0.125 4.046875 -1.53125 L 4.828125 -35.25 C 4.859375 -36.664062 5.570312 -37.390625 6.96875 -37.421875 Z M 6.96875 -37.421875 "/></g></g><g transform="translate(191.16364, 61.034905)"><g/></g><g transform="translate(205.383737, 61.034905)"><g><path d="M 7.25 -34.875 C 7.28125 -34.875 7.3125 -34.875 7.34375 -34.875 C 7.863281 -34.875 8.347656 -34.742188 8.796875 -34.484375 C 9.273438 -34.203125 9.640625 -33.8125 9.890625 -33.3125 C 10.109375 -32.894531 10.21875 -32.445312 10.21875 -31.96875 C 10.21875 -31.894531 10.21875 -31.816406 10.21875 -31.734375 C 10.175781 -31.179688 9.984375 -30.679688 9.640625 -30.234375 C 9.328125 -29.828125 8.984375 -29.539062 8.609375 -29.375 C 8.222656 -29.164062 7.789062 -29.070312 7.3125 -29.09375 C 7.269531 -29.09375 7.222656 -29.09375 7.171875 -29.09375 C 6.691406 -29.101562 6.25 -29.234375 5.84375 -29.484375 C 5.425781 -29.734375 5.085938 -30.070312 4.828125 -30.5 C 4.566406 -30.957031 4.4375 -31.445312 4.4375 -31.96875 C 4.4375 -32.46875 4.554688 -32.929688 4.796875 -33.359375 C 5.066406 -33.804688 5.398438 -34.171875 5.796875 -34.453125 C 6.234375 -34.734375 6.71875 -34.875 7.25 -34.875 Z M 7.09375 -24.328125 C 8.5625 -24.296875 9.28125 -23.289062 9.25 -21.3125 L 8.921875 -1.96875 C 8.890625 0.113281 8.144531 1.15625 6.6875 1.15625 C 5.03125 1.144531 4.226562 0.160156 4.28125 -1.796875 L 4.671875 -21.28125 C 4.710938 -23.34375 5.519531 -24.359375 7.09375 -24.328125 Z M 7.09375 -24.328125 "/></g></g><g transform="translate(218.720886, 61.034905)"><g><path d="M 5.8125 -25.421875 C 7.4375 -25.421875 8.226562 -24.65625 8.1875 -23.125 C 8.164062 -22.675781 8.148438 -22.21875 8.140625 -21.75 C 9.828125 -23.28125 11.988281 -24.046875 14.625 -24.046875 C 20.476562 -24.035156 23.347656 -20.503906 23.234375 -13.453125 L 23.046875 -1.828125 C 23.015625 0.0351562 22.273438 1.03125 20.828125 1.15625 C 19.140625 1.3125 18.316406 0.453125 18.359375 -1.421875 L 18.640625 -12.4375 C 18.742188 -16.707031 17.519531 -18.9375 14.96875 -19.125 C 12.8125 -19.28125 10.503906 -18.125 8.046875 -15.65625 L 7.671875 -1.609375 C 7.617188 0.078125 6.765625 0.910156 5.109375 0.890625 C 3.710938 0.859375 3.039062 0.0078125 3.09375 -1.65625 L 3.625 -23.265625 C 3.65625 -24.703125 4.382812 -25.421875 5.8125 -25.421875 Z M 5.8125 -25.421875 "/></g></g><g transform="translate(243.629289, 61.034905)"><g/></g><g transform="translate(257.849385, 61.034905)"><g><path d="M 11.4375 -37.421875 C 13.007812 -37.421875 13.796875 -36.648438 13.796875 -35.109375 C 13.765625 -31.160156 13.695312 -27.550781 13.59375 -24.28125 L 18.3125 -24.3125 C 20.21875 -24.320312 21.171875 -23.546875 21.171875 -21.984375 C 21.171875 -20.398438 20.265625 -19.609375 18.453125 -19.609375 C 16.796875 -19.609375 15.140625 -19.609375 13.484375 -19.609375 L 13.078125 -1.484375 C 13.066406 0.203125 12.222656 1.03125 10.546875 1 C 9.148438 0.96875 8.46875 0.125 8.5 -1.53125 L 8.921875 -19.609375 C 7.097656 -19.609375 5.28125 -19.609375 3.46875 -19.609375 C 2.132812 -19.609375 1.46875 -20.367188 1.46875 -21.890625 C 1.46875 -23.453125 2.203125 -24.234375 3.671875 -24.234375 C 5.453125 -24.234375 7.242188 -24.242188 9.046875 -24.265625 L 9.296875 -35.25 C 9.328125 -36.695312 10.039062 -37.421875 11.4375 -37.421875 Z M 11.4375 -37.421875 "/></g></g><g transform="translate(280.271596, 61.034905)"><g><path d="M 6.375 -37.4375 C 7.976562 -37.4375 8.765625 -36.660156 8.734375 -35.109375 L 8.5 -21.359375 C 10.4375 -23.148438 13.019531 -24.046875 16.25 -24.046875 C 22.050781 -24.035156 24.921875 -20.503906 24.859375 -13.453125 L 24.765625 -1.671875 C 24.753906 0.203125 24.015625 1.203125 22.546875 1.328125 C 20.890625 1.460938 20.066406 0.601562 20.078125 -1.25 L 20.140625 -12.390625 C 20.171875 -16.503906 18.9375 -18.664062 16.4375 -18.875 C 13.5625 -19.113281 10.914062 -17.785156 8.5 -14.890625 L 8 -1.484375 C 7.9375 0.203125 7.082031 1.03125 5.4375 1 C 4.0625 0.96875 3.390625 0.125 3.421875 -1.53125 L 4.1875 -35.25 C 4.21875 -36.675781 4.945312 -37.40625 6.375 -37.4375 Z M 6.375 -37.4375 "/></g></g><g transform="translate(307.759134, 61.034905)"><g><path d="M 7.25 -34.875 C 7.28125 -34.875 7.3125 -34.875 7.34375 -34.875 C 7.863281 -34.875 8.347656 -34.742188 8.796875 -34.484375 C 9.273438 -34.203125 9.640625 -33.8125 9.890625 -33.3125 C 10.109375 -32.894531 10.21875 -32.445312 10.21875 -31.96875 C 10.21875 -31.894531 10.21875 -31.816406 10.21875 -31.734375 C 10.175781 -31.179688 9.984375 -30.679688 9.640625 -30.234375 C 9.328125 -29.828125 8.984375 -29.539062 8.609375 -29.375 C 8.222656 -29.164062 7.789062 -29.070312 7.3125 -29.09375 C 7.269531 -29.09375 7.222656 -29.09375 7.171875 -29.09375 C 6.691406 -29.101562 6.25 -29.234375 5.84375 -29.484375 C 5.425781 -29.734375 5.085938 -30.070312 4.828125 -30.5 C 4.566406 -30.957031 4.4375 -31.445312 4.4375 -31.96875 C 4.4375 -32.46875 4.554688 -32.929688 4.796875 -33.359375 C 5.066406 -33.804688 5.398438 -34.171875 5.796875 -34.453125 C 6.234375 -34.734375 6.71875 -34.875 7.25 -34.875 Z M 7.09375 -24.328125 C 8.5625 -24.296875 9.28125 -23.289062 9.25 -21.3125 L 8.921875 -1.96875 C 8.890625 0.113281 8.144531 1.15625 6.6875 1.15625 C 5.03125 1.144531 4.226562 0.160156 4.28125 -1.796875 L 4.671875 -21.28125 C 4.710938 -23.34375 5.519531 -24.359375 7.09375 -24.328125 Z M 7.09375 -24.328125 "/></g></g><g transform="translate(321.096283, 61.034905)"><g><path d="M 9.109375 -3.34375 C 12.578125 -3.113281 14.703125 -3.5625 15.484375 -4.6875 C 16.097656 -5.664062 15.753906 -6.851562 14.453125 -8.25 C 13.585938 -9.175781 11.617188 -9.847656 8.546875 -10.265625 C 5.367188 -10.734375 3.539062 -11.957031 3.0625 -13.9375 C 2.695312 -15.488281 2.820312 -17.070312 3.4375 -18.6875 C 4.101562 -20.46875 5.085938 -21.820312 6.390625 -22.75 C 7.921875 -23.863281 9.695312 -24.515625 11.71875 -24.703125 C 13.976562 -24.898438 15.957031 -24.582031 17.65625 -23.75 C 19.875 -22.664062 21.09375 -21.421875 21.3125 -20.015625 C 21.445312 -19.078125 21.160156 -18.320312 20.453125 -17.75 C 19.566406 -17.019531 18.226562 -17.523438 16.4375 -19.265625 C 15.53125 -20.128906 14.203125 -20.53125 12.453125 -20.46875 C 10.578125 -20.375 9.191406 -19.800781 8.296875 -18.75 C 7.535156 -17.863281 7.3125 -16.941406 7.625 -15.984375 C 7.90625 -15.148438 8.984375 -14.632812 10.859375 -14.4375 C 12.328125 -14.28125 13.6875 -13.90625 14.9375 -13.3125 C 16.644531 -12.519531 17.832031 -11.722656 18.5 -10.921875 C 20.0625 -9.035156 20.726562 -7.113281 20.5 -5.15625 C 20.25 -3.15625 19.164062 -1.515625 17.25 -0.234375 C 15.695312 0.804688 13.632812 1.332031 11.0625 1.34375 C 8.894531 1.363281 7.128906 1.179688 5.765625 0.796875 C 4.929688 0.554688 3.910156 0.0859375 2.703125 -0.609375 C 1.609375 -1.222656 1.03125 -1.992188 0.96875 -2.921875 C 0.914062 -3.953125 1.242188 -4.695312 1.953125 -5.15625 C 2.816406 -5.726562 3.804688 -5.632812 4.921875 -4.875 C 6.285156 -3.945312 7.679688 -3.4375 9.109375 -3.34375 Z M 9.109375 -3.34375 "/></g></g><g transform="translate(344.262028, 61.034905)"><g/></g><g transform="translate(358.482124, 61.034905)"><g><path d="M 4.484375 -17.6875 C 2.804688 -17.6875 1.972656 -18.453125 1.984375 -19.984375 C 2.003906 -21.515625 2.929688 -22.28125 4.765625 -22.28125 L 8.390625 -22.28125 C 8.523438 -28.28125 9.320312 -32.328125 10.78125 -34.421875 C 11.976562 -36.140625 14.25 -37.050781 17.59375 -37.15625 C 20.894531 -37.269531 22.390625 -36.457031 22.078125 -34.71875 C 21.816406 -33.226562 20.753906 -32.570312 18.890625 -32.75 C 16.015625 -33.019531 14.21875 -31.898438 13.5 -29.390625 C 13.082031 -27.941406 12.878906 -25.570312 12.890625 -22.28125 L 18.21875 -22.28125 C 20.28125 -22.28125 21.359375 -21.582031 21.453125 -20.1875 C 21.554688 -18.519531 20.578125 -17.6875 18.515625 -17.6875 L 12.8125 -17.6875 L 12.578125 -1.25 C 12.546875 0.4375 11.691406 1.265625 10.015625 1.234375 C 8.617188 1.203125 7.9375 0.359375 7.96875 -1.296875 L 8.265625 -17.6875 Z M 4.484375 -17.6875 "/></g></g><g transform="translate(382.670228, 61.034905)"><g><path d="M 13.34375 -19.640625 C 11.3125 -19.585938 9.789062 -18.878906 8.78125 -17.515625 C 7.226562 -15.410156 6.453125 -13.097656 6.453125 -10.578125 C 6.453125 -8.140625 7.015625 -6.316406 8.140625 -5.109375 C 9.285156 -3.867188 10.597656 -3.25 12.078125 -3.25 C 13.773438 -3.25 15.203125 -3.867188 16.359375 -5.109375 C 17.585938 -6.429688 18.207031 -8.546875 18.21875 -11.453125 C 18.238281 -16.972656 16.613281 -19.703125 13.34375 -19.640625 Z M 13.15625 -24.375 C 19.425781 -24.332031 22.554688 -19.867188 22.546875 -10.984375 C 22.523438 -7.210938 21.6875 -4.34375 20.03125 -2.375 C 18.175781 0 15.34375 1.171875 11.53125 1.140625 C 8.769531 1.117188 6.429688 -0.0234375 4.515625 -2.296875 C 2.773438 -4.359375 1.90625 -7.253906 1.90625 -10.984375 C 1.90625 -14.523438 2.941406 -17.65625 5.015625 -20.375 C 7.066406 -23.070312 9.78125 -24.40625 13.15625 -24.375 Z M 13.15625 -24.375 "/></g></g><g transform="translate(407.694809, 61.034905)"><g><path d="M 5.8125 -25.421875 C 7.394531 -25.421875 8.1875 -24.65625 8.1875 -23.125 C 8.1875 -22.84375 8.1875 -22.554688 8.1875 -22.265625 C 9.914062 -23.578125 11.625 -24.25 13.3125 -24.28125 C 15.375 -24.3125 17.070312 -23.992188 18.40625 -23.328125 C 20.757812 -22.148438 21.726562 -20.9375 21.3125 -19.6875 C 20.625 -17.695312 19.390625 -17.304688 17.609375 -18.515625 C 16.222656 -19.460938 14.628906 -19.757812 12.828125 -19.40625 C 11.078125 -19.0625 9.472656 -18.171875 8.015625 -16.734375 L 7.625 -1.484375 C 7.570312 0.203125 6.734375 1.03125 5.109375 1 C 3.710938 0.96875 3.039062 0.125 3.09375 -1.53125 L 3.625 -23.265625 C 3.65625 -24.703125 4.382812 -25.421875 5.8125 -25.421875 Z M 5.8125 -25.421875 "/></g></g><g transform="translate(430.558493, 61.034905)"><g><path d="M 5.390625 -25.421875 C 7.003906 -25.421875 7.796875 -24.65625 7.765625 -23.125 L 7.734375 -22.171875 C 9.117188 -23.410156 10.800781 -24.035156 12.78125 -24.046875 C 16 -24.078125 18.175781 -22.941406 19.3125 -20.640625 C 20.894531 -22.929688 23.273438 -24.066406 26.453125 -24.046875 C 32.316406 -24.035156 35.195312 -20.503906 35.09375 -13.453125 L 34.90625 -1.90625 C 34.875 -0.03125 34.128906 0.96875 32.671875 1.09375 C 31.003906 1.25 30.179688 0.390625 30.203125 -1.484375 L 30.34375 -12.203125 C 30.40625 -16.785156 29.210938 -19.109375 26.765625 -19.171875 C 23.929688 -19.242188 22.003906 -17.953125 20.984375 -15.296875 C 20.941406 -15.242188 20.910156 -14.769531 20.890625 -13.875 L 20.609375 -2.234375 C 20.566406 -0.359375 19.820312 0.640625 18.375 0.765625 C 16.78125 0.898438 16.007812 0.0390625 16.0625 -1.8125 L 16.296875 -12.484375 C 16.390625 -16.898438 15.238281 -19.144531 12.84375 -19.21875 C 10.164062 -19.3125 8.410156 -17.75 7.578125 -14.53125 L 7.1875 -1.671875 C 7.132812 0.015625 6.300781 0.84375 4.6875 0.8125 C 3.300781 0.78125 2.628906 -0.0625 2.671875 -1.71875 L 3.203125 -23.265625 C 3.234375 -24.703125 3.960938 -25.421875 5.390625 -25.421875 Z M 5.390625 -25.421875 "/></g></g></g></svg>