<svg xmlns="http://www.w3.org/2000/svg" xmlns:xlink="http://www.w3.org/1999/xlink" width="781" zoomAndPan="magnify" viewBox="0 0 585.75 86.999996" height="116" preserveAspectRatio="xMidYMid meet" version="1.0"><defs><g/></defs><g fill="#a91b60" fill-opacity="1"><g transform="translate(13.415172, 57.664847)"><g><path d="M 14.1875 -29.171875 C 8.519531 -29.171875 5.6875 -24.925781 5.6875 -16.4375 C 5.6875 -7.46875 8.300781 -2.984375 13.53125 -2.984375 C 18.800781 -2.984375 21.4375 -7.578125 21.4375 -16.765625 C 21.4375 -25.035156 19.019531 -29.171875 14.1875 -29.171875 Z M 14.125 -33.328125 C 21.988281 -33.328125 25.921875 -27.78125 25.921875 -16.6875 C 25.921875 -4.832031 21.789062 1.09375 13.53125 1.09375 C 5.40625 1.09375 1.34375 -4.722656 1.34375 -16.359375 C 1.34375 -27.671875 5.601562 -33.328125 14.125 -33.328125 Z M 14.125 -33.328125 "/></g></g><g transform="translate(40.869274, 57.664847)"><g><path d="M 8.78125 -17.796875 C 8.8125 -18.640625 9.265625 -19.253906 10.140625 -19.640625 C 10.773438 -19.910156 12.5625 -20.40625 15.5 -21.125 C 18.050781 -21.757812 19.222656 -23.175781 19.015625 -25.375 C 18.796875 -27.738281 17.007812 -29.054688 13.65625 -29.328125 C 12.15625 -29.441406 10.828125 -29.085938 9.671875 -28.265625 C 7.984375 -27.066406 6.773438 -26.507812 6.046875 -26.59375 C 5.035156 -26.71875 4.492188 -27.289062 4.421875 -28.3125 C 4.328125 -29.570312 5 -30.625 6.4375 -31.46875 C 8.925781 -32.945312 11.164062 -33.625 13.15625 -33.5 C 17.3125 -33.226562 20.054688 -32.109375 21.390625 -30.140625 C 23.660156 -26.785156 23.769531 -23.597656 21.71875 -20.578125 C 20.976562 -19.484375 19.726562 -18.597656 17.96875 -17.921875 C 18.4375 -17.835938 19.285156 -17.398438 20.515625 -16.609375 C 23.160156 -14.921875 24.191406 -11.835938 23.609375 -7.359375 C 23.023438 -2.953125 20.382812 -0.265625 15.6875 0.703125 C 11.726562 1.503906 8.484375 0.984375 5.953125 -0.859375 C 4.191406 -2.148438 3.289062 -3.507812 3.25 -4.9375 C 3.207031 -6.300781 3.78125 -7.050781 4.96875 -7.1875 C 5.59375 -7.238281 6.644531 -6.363281 8.125 -4.5625 C 9.175781 -3.28125 11.195312 -2.859375 14.1875 -3.296875 C 17.863281 -3.835938 19.597656 -5.738281 19.390625 -9 C 19.171875 -12.75 16.828125 -15.003906 12.359375 -15.765625 C 9.960938 -15.972656 8.769531 -16.648438 8.78125 -17.796875 Z M 8.78125 -17.796875 "/></g></g></g><g fill="#a91b60" fill-opacity="1"><g transform="translate(121.469538, 62.520034)"><g><path d="M 20.4375 0.4375 C 19 0.34375 17.984375 -0.925781 17.390625 -3.375 L 12.375 -23.4375 L 7.453125 -1.515625 C 6.921875 0.929688 5.828125 1.6875 4.171875 0.75 C 2.703125 -0.0703125 2.25 -1.703125 2.8125 -4.140625 L 9.28125 -31.75 C 9.78125 -33.851562 10.75 -35.015625 12.1875 -35.234375 C 13.65625 -35.453125 14.59375 -34.71875 15 -33.03125 C 15 -33.03125 16.90625 -25.007812 20.71875 -8.96875 L 27.71875 -31.859375 C 28.507812 -34.453125 29.695312 -35.726562 31.28125 -35.6875 C 32.71875 -35.65625 33.707031 -34.328125 34.25 -31.703125 L 40.296875 -2.40625 C 40.765625 -0.175781 40.15625 1.035156 38.46875 1.234375 C 36.675781 1.453125 35.515625 0.207031 34.984375 -2.5 L 30.859375 -23.734375 L 24 -3.65625 C 23.03125 -0.8125 21.84375 0.550781 20.4375 0.4375 Z M 20.4375 0.4375 "/></g></g><g transform="translate(163.826458, 62.520034)"><g><path d="M 22.5 -24.109375 C 23.988281 -23.472656 24.335938 -22.234375 23.546875 -20.390625 L 10.171875 10.46875 C 9.085938 12.96875 7.859375 13.9375 6.484375 13.375 C 4.847656 12.707031 4.566406 11.128906 5.640625 8.640625 L 10.3125 -2.125 L 0.5625 -20.171875 C -0.4375 -22.015625 -0.25 -23.300781 1.125 -24.03125 C 2.570312 -24.8125 3.789062 -24.273438 4.78125 -22.421875 L 12.625 -7.5 L 19.046875 -22.28125 C 19.847656 -24.125 21 -24.734375 22.5 -24.109375 Z M 22.5 -24.109375 "/></g></g><g transform="translate(188.800173, 62.520034)"><g/></g><g transform="translate(203.137803, 62.520034)"><g><path d="M 20.15625 1.78125 C 18.53125 1.78125 17.734375 1.007812 17.765625 -0.53125 L 17.78125 -1.921875 C 16.082031 -0.378906 13.90625 0.390625 11.25 0.390625 C 5.375 0.378906 2.46875 -3.175781 2.53125 -10.28125 L 2.625 -21.796875 C 2.65625 -23.660156 3.40625 -24.664062 4.875 -24.8125 C 6.53125 -24.945312 7.34375 -24.082031 7.3125 -22.21875 L 7.265625 -11.96875 C 7.234375 -8.1875 7.8125 -5.882812 9 -5.0625 C 10.625 -3.96875 12.5625 -3.984375 14.8125 -5.109375 C 16.84375 -6.140625 17.894531 -7.9375 17.96875 -10.5 L 18.25 -22.328125 C 18.300781 -24.023438 19.15625 -24.867188 20.8125 -24.859375 C 22.21875 -24.828125 22.90625 -23.96875 22.875 -22.28125 L 22.3125 -0.390625 C 22.28125 1.054688 21.5625 1.78125 20.15625 1.78125 Z M 20.15625 1.78125 "/></g></g><g transform="translate(228.088091, 62.520034)"><g><path d="M 5.859375 -25.625 C 7.492188 -25.625 8.289062 -24.851562 8.25 -23.3125 C 8.226562 -22.863281 8.210938 -22.40625 8.203125 -21.9375 C 9.898438 -23.476562 12.078125 -24.25 14.734375 -24.25 C 20.640625 -24.226562 23.539062 -20.664062 23.4375 -13.5625 L 23.25 -1.84375 C 23.21875 0.0390625 22.46875 1.046875 21 1.171875 C 19.289062 1.328125 18.460938 0.460938 18.515625 -1.421875 L 18.796875 -12.53125 C 18.898438 -16.84375 17.664062 -19.09375 15.09375 -19.28125 C 12.914062 -19.4375 10.585938 -18.273438 8.109375 -15.796875 L 7.734375 -1.609375 C 7.679688 0.0859375 6.820312 0.921875 5.15625 0.890625 C 3.75 0.859375 3.066406 0.0078125 3.109375 -1.65625 L 3.65625 -23.453125 C 3.6875 -24.898438 4.421875 -25.625 5.859375 -25.625 Z M 5.859375 -25.625 "/></g></g><g transform="translate(253.202371, 62.520034)"><g><path d="M 7.3125 -35.171875 C 7.34375 -35.171875 7.375 -35.171875 7.40625 -35.171875 C 7.9375 -35.171875 8.425781 -35.035156 8.875 -34.765625 C 9.363281 -34.484375 9.734375 -34.09375 9.984375 -33.59375 C 10.203125 -33.175781 10.3125 -32.722656 10.3125 -32.234375 C 10.3125 -32.160156 10.3125 -32.082031 10.3125 -32 C 10.257812 -31.445312 10.0625 -30.941406 9.71875 -30.484375 C 9.40625 -30.078125 9.0625 -29.789062 8.6875 -29.625 C 8.300781 -29.414062 7.863281 -29.320312 7.375 -29.34375 C 7.332031 -29.34375 7.285156 -29.34375 7.234375 -29.34375 C 6.753906 -29.351562 6.3125 -29.484375 5.90625 -29.734375 C 5.476562 -29.984375 5.132812 -30.328125 4.875 -30.765625 C 4.601562 -31.222656 4.46875 -31.710938 4.46875 -32.234375 C 4.46875 -32.734375 4.59375 -33.203125 4.84375 -33.640625 C 5.113281 -34.097656 5.453125 -34.46875 5.859375 -34.75 C 6.296875 -35.03125 6.78125 -35.171875 7.3125 -35.171875 Z M 7.140625 -24.53125 C 8.628906 -24.5 9.359375 -23.484375 9.328125 -21.484375 L 9 -1.984375 C 8.96875 0.117188 8.21875 1.171875 6.75 1.171875 C 5.070312 1.148438 4.257812 0.160156 4.3125 -1.796875 L 4.703125 -21.46875 C 4.753906 -23.539062 5.566406 -24.5625 7.140625 -24.53125 Z M 7.140625 -24.53125 "/></g></g><g transform="translate(266.649756, 62.520034)"><g><path d="M 18.953125 13.359375 C 17.328125 13.359375 16.53125 12.582031 16.5625 11.03125 L 16.796875 0.46875 C 16.128906 0.84375 14.675781 1.019531 12.4375 1 C 9.519531 0.988281 7.03125 -0.0507812 4.96875 -2.125 C 2.6875 -4.394531 1.546875 -7.171875 1.546875 -10.453125 C 1.546875 -14.640625 2.613281 -17.984375 4.75 -20.484375 C 7.019531 -23.160156 9.84375 -24.5 13.21875 -24.5 C 15.09375 -24.5 16.484375 -24.222656 17.390625 -23.671875 C 17.648438 -24.835938 18.476562 -25.40625 19.875 -25.375 C 21.28125 -25.34375 21.96875 -24.492188 21.9375 -22.828125 L 21.140625 11.171875 C 21.109375 12.628906 20.378906 13.359375 18.953125 13.359375 Z M 16.921875 -5.0625 L 17.203125 -18.609375 C 16.265625 -19.703125 14.734375 -20.171875 12.609375 -20.015625 C 10.671875 -19.890625 9.109375 -19.019531 7.921875 -17.40625 C 6.609375 -15.613281 5.921875 -13.71875 5.859375 -11.71875 C 5.828125 -9.5 6.40625 -7.671875 7.59375 -6.234375 C 8.875 -4.703125 10.628906 -3.863281 12.859375 -3.71875 C 14.546875 -3.613281 15.898438 -4.0625 16.921875 -5.0625 Z M 16.921875 -5.0625 "/></g></g><g transform="translate(291.600044, 62.520034)"><g><path d="M 20.15625 1.78125 C 18.53125 1.78125 17.734375 1.007812 17.765625 -0.53125 L 17.78125 -1.921875 C 16.082031 -0.378906 13.90625 0.390625 11.25 0.390625 C 5.375 0.378906 2.46875 -3.175781 2.53125 -10.28125 L 2.625 -21.796875 C 2.65625 -23.660156 3.40625 -24.664062 4.875 -24.8125 C 6.53125 -24.945312 7.34375 -24.082031 7.3125 -22.21875 L 7.265625 -11.96875 C 7.234375 -8.1875 7.8125 -5.882812 9 -5.0625 C 10.625 -3.96875 12.5625 -3.984375 14.8125 -5.109375 C 16.84375 -6.140625 17.894531 -7.9375 17.96875 -10.5 L 18.25 -22.328125 C 18.300781 -24.023438 19.15625 -24.867188 20.8125 -24.859375 C 22.21875 -24.828125 22.90625 -23.96875 22.875 -22.28125 L 22.3125 -0.390625 C 22.28125 1.054688 21.5625 1.78125 20.15625 1.78125 Z M 20.15625 1.78125 "/></g></g><g transform="translate(316.550331, 62.520034)"><g><path d="M 6.0625 -10.140625 C 6.144531 -8.378906 6.941406 -6.832031 8.453125 -5.5 C 10.203125 -3.957031 12.171875 -3.191406 14.359375 -3.203125 C 17.546875 -3.234375 19.6875 -3.859375 20.78125 -5.078125 C 21.832031 -6.253906 22.691406 -6.910156 23.359375 -7.046875 C 24.109375 -7.203125 24.640625 -6.96875 24.953125 -6.34375 C 25.679688 -4.894531 25.335938 -3.535156 23.921875 -2.265625 C 21.421875 -0.0546875 18.140625 1.03125 14.078125 1 C 11.097656 0.96875 8.488281 0.0351562 6.25 -1.796875 C 3.46875 -4.078125 2.078125 -7.171875 2.078125 -11.078125 C 2.078125 -14.296875 2.953125 -17.164062 4.703125 -19.6875 C 6.890625 -22.820312 9.71875 -24.5 13.1875 -24.71875 C 16.800781 -24.9375 19.625 -24.046875 21.65625 -22.046875 C 23.570312 -20.171875 24.488281 -18.039062 24.40625 -15.65625 C 24.34375 -13.726562 23.476562 -12.648438 21.8125 -12.421875 Z M 6.578125 -14.015625 L 20.359375 -16.03125 C 20.128906 -17.382812 19.421875 -18.445312 18.234375 -19.21875 C 16.859375 -20.09375 15.394531 -20.519531 13.84375 -20.5 C 11.6875 -20.5 9.828125 -19.539062 8.265625 -17.625 C 7.578125 -16.757812 7.015625 -15.554688 6.578125 -14.015625 Z M 6.578125 -14.015625 "/></g></g></g></svg>