<svg xmlns="http://www.w3.org/2000/svg" xmlns:xlink="http://www.w3.org/1999/xlink" width="88" zoomAndPan="magnify" viewBox="0 0 66 66" height="88" preserveAspectRatio="xMidYMid meet" version="1.0"><defs><clipPath id="9a98a31b05"><path d="M 0 0 L 65.96875 0 L 65.96875 65.96875 L 0 65.96875 Z M 0 0 " clip-rule="nonzero"/></clipPath><clipPath id="0934997763"><path d="M 32.984375 0 C 14.769531 0 0 14.769531 0 32.984375 C 0 51.203125 14.769531 65.96875 32.984375 65.96875 C 51.203125 65.96875 65.96875 51.203125 65.96875 32.984375 C 65.96875 14.769531 51.203125 0 32.984375 0 Z M 32.984375 0 " clip-rule="nonzero"/></clipPath><clipPath id="4654f4953c"><path d="M 0 0 L 65.964844 0 L 65.964844 65.964844 L 0 65.964844 Z M 0 0 " clip-rule="nonzero"/></clipPath><clipPath id="7faabccfae"><path d="M 32.980469 0 C 14.765625 0 0 14.765625 0 32.984375 C 0 51.199219 14.765625 65.964844 32.980469 65.964844 C 51.199219 65.964844 65.964844 51.199219 65.964844 32.984375 C 65.964844 14.765625 51.199219 0 32.980469 0 Z M 32.980469 0 " clip-rule="nonzero"/></clipPath></defs><rect x="-6.6" width="79.2" fill="#ffffff" y="-6.6" height="79.2" fill-opacity="1"/><g clip-path="url(#9a98a31b05)"><g clip-path="url(#0934997763)"><path fill="#a91b60" d="M 0 0 L 65.96875 0 L 65.96875 65.96875 L 0 65.96875 Z M 0 0 " fill-opacity="1" fill-rule="nonzero"/></g></g><g clip-path="url(#4654f4953c)"><g clip-path="url(#7faabccfae)"><path stroke-linecap="butt" transform="matrix(0.75, 0, 0, 0.75, -0.000000000000005329, 0.000002)" fill="none" stroke-linejoin="miter" d="M 43.97396 -0.00000266667 C 19.687501 -0.00000266667 0.000000000000007105 19.687498 0.000000000000007105 43.979166 C 0.000000000000007105 68.265625 19.687501 87.953126 43.97396 87.953126 C 68.265628 87.953126 87.953129 68.265625 87.953129 43.979166 C 87.953129 19.687498 68.265628 -0.00000266667 43.97396 -0.00000266667 Z M 43.97396 -0.00000266667 " stroke="#6d123f" stroke-width="4" stroke-opacity="1" stroke-miterlimit="4"/></g></g><path fill="#ffffff" d="M 47.226562 47.660156 C 47.085938 48.933594 45.761719 49.777344 43.75 51.054688 C 40.257812 53.273438 36.765625 53.511719 35.277344 53.597656 C 30.667969 53.871094 27.273438 52.453125 25.507812 51.691406 C 22.488281 50.386719 20.976562 49.734375 20.726562 48.507812 C 20.125 45.53125 26.964844 40.109375 34.085938 40.027344 C 40.78125 39.949219 47.5625 44.566406 47.226562 47.660156 Z M 47.226562 47.660156 " fill-opacity="1" fill-rule="nonzero"/><path fill="#ffffff" d="M 52.859375 33.558594 C 52.800781 41.488281 47.800781 48.816406 40.285156 51.507812 C 32.765625 54.203125 24.101562 51.839844 18.972656 45.625 C 13.925781 39.5 13.320312 30.554688 17.382812 23.765625 C 21.484375 16.914062 29.707031 13.230469 37.546875 14.84375 C 46.398438 16.660156 52.792969 24.550781 52.855469 33.558594 C 52.867188 34.921875 54.988281 34.925781 54.976562 33.558594 C 54.914062 24.734375 49.386719 16.757812 41.109375 13.660156 C 32.824219 10.558594 23.101562 13.171875 17.472656 19.992188 C 11.816406 26.847656 10.972656 36.761719 15.550781 44.421875 C 20.109375 52.042969 29.121094 56.023438 37.828125 54.375 C 47.722656 52.496094 54.902344 43.550781 54.976562 33.558594 C 54.988281 32.191406 52.867188 32.191406 52.855469 33.558594 Z M 52.859375 33.558594 " fill-opacity="1" fill-rule="nonzero"/><path fill="#ffffff" d="M 42.394531 28.480469 C 42.394531 29.058594 42.335938 29.628906 42.226562 30.195312 C 42.113281 30.765625 41.945312 31.316406 41.722656 31.847656 C 41.503906 32.382812 41.230469 32.890625 40.910156 33.371094 C 40.589844 33.851562 40.222656 34.296875 39.8125 34.707031 C 39.40625 35.117188 38.960938 35.480469 38.480469 35.800781 C 38 36.125 37.492188 36.394531 36.957031 36.617188 C 36.421875 36.835938 35.871094 37.003906 35.304688 37.117188 C 34.738281 37.230469 34.164062 37.285156 33.585938 37.285156 C 33.007812 37.285156 32.433594 37.230469 31.867188 37.117188 C 31.300781 37.003906 30.75 36.835938 30.214844 36.617188 C 29.683594 36.394531 29.175781 36.125 28.691406 35.800781 C 28.210938 35.480469 27.765625 35.117188 27.359375 34.707031 C 26.949219 34.296875 26.585938 33.851562 26.261719 33.371094 C 25.941406 32.890625 25.671875 32.382812 25.449219 31.847656 C 25.226562 31.316406 25.0625 30.765625 24.949219 30.195312 C 24.835938 29.628906 24.777344 29.058594 24.777344 28.480469 C 24.777344 27.902344 24.835938 27.328125 24.949219 26.761719 C 25.0625 26.195312 25.226562 25.644531 25.449219 25.109375 C 25.671875 24.574219 25.941406 24.066406 26.261719 23.585938 C 26.585938 23.105469 26.949219 22.660156 27.359375 22.25 C 27.765625 21.84375 28.210938 21.476562 28.691406 21.15625 C 29.175781 20.835938 29.683594 20.5625 30.214844 20.34375 C 30.75 20.121094 31.300781 19.953125 31.867188 19.839844 C 32.433594 19.726562 33.007812 19.671875 33.585938 19.671875 C 34.164062 19.671875 34.738281 19.726562 35.304688 19.839844 C 35.871094 19.953125 36.421875 20.121094 36.957031 20.34375 C 37.492188 20.5625 38 20.835938 38.480469 21.15625 C 38.960938 21.476562 39.40625 21.84375 39.8125 22.25 C 40.222656 22.660156 40.589844 23.105469 40.910156 23.585938 C 41.230469 24.066406 41.503906 24.574219 41.722656 25.109375 C 41.945312 25.644531 42.113281 26.195312 42.226562 26.761719 C 42.335938 27.328125 42.394531 27.902344 42.394531 28.480469 Z M 42.394531 28.480469 " fill-opacity="1" fill-rule="nonzero"/></svg>