<svg xmlns="http://www.w3.org/2000/svg" xmlns:xlink="http://www.w3.org/1999/xlink" width="2082" zoomAndPan="magnify" viewBox="0 0 1561.5 155.249994" height="207" preserveAspectRatio="xMidYMid meet" version="1.0"><defs><g/><clipPath id="6645d6435e"><path d="M 65 104.664062 L 345 104.664062 L 345 151.886719 L 65 151.886719 Z M 65 104.664062 " clip-rule="nonzero"/></clipPath><clipPath id="2a3073f4f8"><path d="M 928.839844 15.75 L 957 15.75 L 957 44 L 928.839844 44 Z M 928.839844 15.75 " clip-rule="nonzero"/></clipPath><clipPath id="03569c7c67"><path d="M 942.894531 39.175781 L 1314.171875 39.175781 L 1314.171875 100.578125 L 942.894531 100.578125 Z M 942.894531 39.175781 " clip-rule="nonzero"/></clipPath><clipPath id="1dd6b9220f"><path d="M 1290.144531 39.175781 C 1303.46875 39.175781 1314.273438 52.921875 1314.273438 69.875 C 1314.273438 86.832031 1303.46875 100.578125 1290.144531 100.578125 L 967.023438 100.578125 C 953.699219 100.578125 942.894531 86.832031 942.894531 69.875 C 942.894531 52.921875 953.699219 39.175781 967.023438 39.175781 Z M 1290.144531 39.175781 " clip-rule="nonzero"/></clipPath><linearGradient x1="0" gradientTransform="matrix(0.239843, 0, 0, 0.239843, 942.895333, 39.176628)" y1="-0.0000124491" x2="0" gradientUnits="userSpaceOnUse" y2="255.999988" id="0e3c44e8da"><stop stop-opacity="1" stop-color="rgb(93.299866%, 64.698792%, 59.999084%)" offset="0"/><stop stop-opacity="1" stop-color="rgb(93.171692%, 64.569092%, 59.997559%)" offset="0.0078125"/><stop stop-opacity="1" stop-color="rgb(92.918396%, 64.308167%, 59.994507%)" offset="0.015625"/><stop stop-opacity="1" stop-color="rgb(92.663574%, 64.048767%, 59.991455%)" offset="0.0234375"/><stop stop-opacity="1" stop-color="rgb(92.410278%, 63.787842%, 59.988403%)" offset="0.03125"/><stop stop-opacity="1" stop-color="rgb(92.156982%, 63.528442%, 59.985352%)" offset="0.0390625"/><stop stop-opacity="1" stop-color="rgb(91.902161%, 63.267517%, 59.9823%)" offset="0.046875"/><stop stop-opacity="1" stop-color="rgb(91.648865%, 63.008118%, 59.979248%)" offset="0.0546875"/><stop stop-opacity="1" stop-color="rgb(91.394043%, 62.747192%, 59.976196%)" offset="0.0625"/><stop stop-opacity="1" stop-color="rgb(91.140747%, 62.487793%, 59.973145%)" offset="0.0703125"/><stop stop-opacity="1" stop-color="rgb(90.887451%, 62.226868%, 59.970093%)" offset="0.078125"/><stop stop-opacity="1" stop-color="rgb(90.632629%, 61.967468%, 59.967041%)" offset="0.0859375"/><stop stop-opacity="1" stop-color="rgb(90.379333%, 61.706543%, 59.963989%)" offset="0.09375"/><stop stop-opacity="1" stop-color="rgb(90.124512%, 61.447144%, 59.959412%)" offset="0.101562"/><stop stop-opacity="1" stop-color="rgb(89.871216%, 61.186218%, 59.95636%)" offset="0.109375"/><stop stop-opacity="1" stop-color="rgb(89.61792%, 60.926819%, 59.953308%)" offset="0.117188"/><stop stop-opacity="1" stop-color="rgb(89.363098%, 60.665894%, 59.950256%)" offset="0.125"/><stop stop-opacity="1" stop-color="rgb(89.109802%, 60.406494%, 59.947205%)" offset="0.132812"/><stop stop-opacity="1" stop-color="rgb(88.85498%, 60.145569%, 59.944153%)" offset="0.140625"/><stop stop-opacity="1" stop-color="rgb(88.601685%, 59.886169%, 59.941101%)" offset="0.148438"/><stop stop-opacity="1" stop-color="rgb(88.348389%, 59.625244%, 59.938049%)" offset="0.15625"/><stop stop-opacity="1" stop-color="rgb(88.093567%, 59.365845%, 59.934998%)" offset="0.164062"/><stop stop-opacity="1" stop-color="rgb(87.840271%, 59.104919%, 59.931946%)" offset="0.171875"/><stop stop-opacity="1" stop-color="rgb(87.585449%, 58.84552%, 59.928894%)" offset="0.179688"/><stop stop-opacity="1" stop-color="rgb(87.332153%, 58.584595%, 59.925842%)" offset="0.1875"/><stop stop-opacity="1" stop-color="rgb(87.078857%, 58.325195%, 59.922791%)" offset="0.195312"/><stop stop-opacity="1" stop-color="rgb(86.824036%, 58.06427%, 59.919739%)" offset="0.203125"/><stop stop-opacity="1" stop-color="rgb(86.57074%, 57.804871%, 59.916687%)" offset="0.210938"/><stop stop-opacity="1" stop-color="rgb(86.315918%, 57.543945%, 59.913635%)" offset="0.21875"/><stop stop-opacity="1" stop-color="rgb(86.062622%, 57.284546%, 59.910583%)" offset="0.226562"/><stop stop-opacity="1" stop-color="rgb(85.809326%, 57.023621%, 59.907532%)" offset="0.234375"/><stop stop-opacity="1" stop-color="rgb(85.554504%, 56.764221%, 59.90448%)" offset="0.242188"/><stop stop-opacity="1" stop-color="rgb(85.301208%, 56.503296%, 59.901428%)" offset="0.25"/><stop stop-opacity="1" stop-color="rgb(85.046387%, 56.243896%, 59.898376%)" offset="0.257812"/><stop stop-opacity="1" stop-color="rgb(84.793091%, 55.982971%, 59.893799%)" offset="0.265625"/><stop stop-opacity="1" stop-color="rgb(84.539795%, 55.723572%, 59.890747%)" offset="0.273438"/><stop stop-opacity="1" stop-color="rgb(84.284973%, 55.462646%, 59.887695%)" offset="0.28125"/><stop stop-opacity="1" stop-color="rgb(84.031677%, 55.203247%, 59.884644%)" offset="0.289062"/><stop stop-opacity="1" stop-color="rgb(83.776855%, 54.942322%, 59.881592%)" offset="0.296875"/><stop stop-opacity="1" stop-color="rgb(83.52356%, 54.682922%, 59.87854%)" offset="0.304688"/><stop stop-opacity="1" stop-color="rgb(83.270264%, 54.421997%, 59.875488%)" offset="0.3125"/><stop stop-opacity="1" stop-color="rgb(83.015442%, 54.162598%, 59.872437%)" offset="0.320312"/><stop stop-opacity="1" stop-color="rgb(82.762146%, 53.901672%, 59.869385%)" offset="0.328125"/><stop stop-opacity="1" stop-color="rgb(82.507324%, 53.642273%, 59.866333%)" offset="0.335938"/><stop stop-opacity="1" stop-color="rgb(82.254028%, 53.381348%, 59.863281%)" offset="0.34375"/><stop stop-opacity="1" stop-color="rgb(82.000732%, 53.121948%, 59.860229%)" offset="0.351562"/><stop stop-opacity="1" stop-color="rgb(81.745911%, 52.861023%, 59.857178%)" offset="0.359375"/><stop stop-opacity="1" stop-color="rgb(81.492615%, 52.601624%, 59.854126%)" offset="0.367188"/><stop stop-opacity="1" stop-color="rgb(81.237793%, 52.340698%, 59.851074%)" offset="0.375"/><stop stop-opacity="1" stop-color="rgb(80.984497%, 52.081299%, 59.848022%)" offset="0.382812"/><stop stop-opacity="1" stop-color="rgb(80.731201%, 51.820374%, 59.844971%)" offset="0.390625"/><stop stop-opacity="1" stop-color="rgb(80.476379%, 51.560974%, 59.841919%)" offset="0.398438"/><stop stop-opacity="1" stop-color="rgb(80.223083%, 51.301575%, 59.838867%)" offset="0.40625"/><stop stop-opacity="1" stop-color="rgb(79.968262%, 51.040649%, 59.835815%)" offset="0.414062"/><stop stop-opacity="1" stop-color="rgb(79.714966%, 50.78125%, 59.832764%)" offset="0.421875"/><stop stop-opacity="1" stop-color="rgb(79.46167%, 50.520325%, 59.828186%)" offset="0.429688"/><stop stop-opacity="1" stop-color="rgb(79.206848%, 50.260925%, 59.825134%)" offset="0.4375"/><stop stop-opacity="1" stop-color="rgb(78.953552%, 50%, 59.822083%)" offset="0.445312"/><stop stop-opacity="1" stop-color="rgb(78.69873%, 49.740601%, 59.819031%)" offset="0.453125"/><stop stop-opacity="1" stop-color="rgb(78.445435%, 49.479675%, 59.815979%)" offset="0.460938"/><stop stop-opacity="1" stop-color="rgb(78.192139%, 49.220276%, 59.812927%)" offset="0.46875"/><stop stop-opacity="1" stop-color="rgb(77.937317%, 48.959351%, 59.809875%)" offset="0.476562"/><stop stop-opacity="1" stop-color="rgb(77.684021%, 48.699951%, 59.806824%)" offset="0.484375"/><stop stop-opacity="1" stop-color="rgb(77.429199%, 48.439026%, 59.803772%)" offset="0.492188"/><stop stop-opacity="1" stop-color="rgb(77.175903%, 48.179626%, 59.80072%)" offset="0.5"/><stop stop-opacity="1" stop-color="rgb(76.922607%, 47.918701%, 59.797668%)" offset="0.507812"/><stop stop-opacity="1" stop-color="rgb(76.667786%, 47.659302%, 59.794617%)" offset="0.515625"/><stop stop-opacity="1" stop-color="rgb(76.41449%, 47.398376%, 59.791565%)" offset="0.523438"/><stop stop-opacity="1" stop-color="rgb(76.159668%, 47.138977%, 59.788513%)" offset="0.53125"/><stop stop-opacity="1" stop-color="rgb(75.906372%, 46.878052%, 59.785461%)" offset="0.539062"/><stop stop-opacity="1" stop-color="rgb(75.653076%, 46.618652%, 59.78241%)" offset="0.546875"/><stop stop-opacity="1" stop-color="rgb(75.398254%, 46.357727%, 59.779358%)" offset="0.554688"/><stop stop-opacity="1" stop-color="rgb(75.144958%, 46.098328%, 59.776306%)" offset="0.5625"/><stop stop-opacity="1" stop-color="rgb(74.890137%, 45.837402%, 59.773254%)" offset="0.570312"/><stop stop-opacity="1" stop-color="rgb(74.636841%, 45.578003%, 59.770203%)" offset="0.578125"/><stop stop-opacity="1" stop-color="rgb(74.383545%, 45.317078%, 59.767151%)" offset="0.585938"/><stop stop-opacity="1" stop-color="rgb(74.128723%, 45.057678%, 59.762573%)" offset="0.59375"/><stop stop-opacity="1" stop-color="rgb(73.875427%, 44.796753%, 59.759521%)" offset="0.601562"/><stop stop-opacity="1" stop-color="rgb(73.620605%, 44.537354%, 59.75647%)" offset="0.609375"/><stop stop-opacity="1" stop-color="rgb(73.36731%, 44.276428%, 59.753418%)" offset="0.617188"/><stop stop-opacity="1" stop-color="rgb(73.114014%, 44.017029%, 59.750366%)" offset="0.625"/><stop stop-opacity="1" stop-color="rgb(72.859192%, 43.756104%, 59.747314%)" offset="0.632812"/><stop stop-opacity="1" stop-color="rgb(72.605896%, 43.496704%, 59.744263%)" offset="0.640625"/><stop stop-opacity="1" stop-color="rgb(72.351074%, 43.235779%, 59.741211%)" offset="0.648438"/><stop stop-opacity="1" stop-color="rgb(72.097778%, 42.976379%, 59.738159%)" offset="0.65625"/><stop stop-opacity="1" stop-color="rgb(71.844482%, 42.715454%, 59.735107%)" offset="0.664062"/><stop stop-opacity="1" stop-color="rgb(71.589661%, 42.456055%, 59.732056%)" offset="0.671875"/><stop stop-opacity="1" stop-color="rgb(71.336365%, 42.195129%, 59.729004%)" offset="0.679688"/><stop stop-opacity="1" stop-color="rgb(71.081543%, 41.93573%, 59.725952%)" offset="0.6875"/><stop stop-opacity="1" stop-color="rgb(70.828247%, 41.674805%, 59.7229%)" offset="0.695312"/><stop stop-opacity="1" stop-color="rgb(70.574951%, 41.415405%, 59.719849%)" offset="0.703125"/><stop stop-opacity="1" stop-color="rgb(70.320129%, 41.15448%, 59.716797%)" offset="0.710938"/><stop stop-opacity="1" stop-color="rgb(70.066833%, 40.895081%, 59.713745%)" offset="0.71875"/><stop stop-opacity="1" stop-color="rgb(69.812012%, 40.634155%, 59.710693%)" offset="0.726562"/><stop stop-opacity="1" stop-color="rgb(69.558716%, 40.374756%, 59.707642%)" offset="0.734375"/><stop stop-opacity="1" stop-color="rgb(69.30542%, 40.113831%, 59.70459%)" offset="0.742188"/><stop stop-opacity="1" stop-color="rgb(69.050598%, 39.854431%, 59.700012%)" offset="0.75"/><stop stop-opacity="1" stop-color="rgb(68.797302%, 39.593506%, 59.69696%)" offset="0.757812"/><stop stop-opacity="1" stop-color="rgb(68.54248%, 39.334106%, 59.693909%)" offset="0.765625"/><stop stop-opacity="1" stop-color="rgb(68.289185%, 39.073181%, 59.690857%)" offset="0.773438"/><stop stop-opacity="1" stop-color="rgb(68.035889%, 38.813782%, 59.687805%)" offset="0.78125"/><stop stop-opacity="1" stop-color="rgb(67.781067%, 38.552856%, 59.684753%)" offset="0.789062"/><stop stop-opacity="1" stop-color="rgb(67.527771%, 38.293457%, 59.681702%)" offset="0.796875"/><stop stop-opacity="1" stop-color="rgb(67.272949%, 38.032532%, 59.67865%)" offset="0.804688"/><stop stop-opacity="1" stop-color="rgb(67.019653%, 37.773132%, 59.675598%)" offset="0.8125"/><stop stop-opacity="1" stop-color="rgb(66.766357%, 37.512207%, 59.672546%)" offset="0.820312"/><stop stop-opacity="1" stop-color="rgb(66.511536%, 37.252808%, 59.669495%)" offset="0.828125"/><stop stop-opacity="1" stop-color="rgb(66.25824%, 36.991882%, 59.666443%)" offset="0.835938"/><stop stop-opacity="1" stop-color="rgb(66.003418%, 36.732483%, 59.663391%)" offset="0.84375"/><stop stop-opacity="1" stop-color="rgb(65.750122%, 36.471558%, 59.660339%)" offset="0.851562"/><stop stop-opacity="1" stop-color="rgb(65.496826%, 36.212158%, 59.657288%)" offset="0.859375"/><stop stop-opacity="1" stop-color="rgb(65.242004%, 35.951233%, 59.654236%)" offset="0.867188"/><stop stop-opacity="1" stop-color="rgb(64.988708%, 35.691833%, 59.651184%)" offset="0.875"/><stop stop-opacity="1" stop-color="rgb(64.733887%, 35.430908%, 59.648132%)" offset="0.882812"/><stop stop-opacity="1" stop-color="rgb(64.480591%, 35.171509%, 59.645081%)" offset="0.890625"/><stop stop-opacity="1" stop-color="rgb(64.227295%, 34.910583%, 59.642029%)" offset="0.898438"/><stop stop-opacity="1" stop-color="rgb(63.972473%, 34.651184%, 59.638977%)" offset="0.90625"/><stop stop-opacity="1" stop-color="rgb(63.719177%, 34.390259%, 59.634399%)" offset="0.914062"/><stop stop-opacity="1" stop-color="rgb(63.464355%, 34.130859%, 59.631348%)" offset="0.921875"/><stop stop-opacity="1" stop-color="rgb(63.21106%, 33.869934%, 59.628296%)" offset="0.929688"/><stop stop-opacity="1" stop-color="rgb(62.957764%, 33.610535%, 59.625244%)" offset="0.9375"/><stop stop-opacity="1" stop-color="rgb(62.702942%, 33.349609%, 59.622192%)" offset="0.945312"/><stop stop-opacity="1" stop-color="rgb(62.449646%, 33.09021%, 59.619141%)" offset="0.953125"/><stop stop-opacity="1" stop-color="rgb(62.194824%, 32.829285%, 59.616089%)" offset="0.960938"/><stop stop-opacity="1" stop-color="rgb(61.941528%, 32.569885%, 59.613037%)" offset="0.96875"/><stop stop-opacity="1" stop-color="rgb(61.688232%, 32.30896%, 59.609985%)" offset="0.976562"/><stop stop-opacity="1" stop-color="rgb(61.433411%, 32.049561%, 59.606934%)" offset="0.984375"/><stop stop-opacity="1" stop-color="rgb(61.180115%, 31.788635%, 59.603882%)" offset="0.992188"/><stop stop-opacity="1" stop-color="rgb(60.925293%, 31.529236%, 59.60083%)" offset="1"/></linearGradient><clipPath id="e82510061a"><path d="M 942.921875 39.175781 L 1314.597656 39.175781 L 1314.597656 100.382812 L 942.921875 100.382812 Z M 942.921875 39.175781 " clip-rule="nonzero"/></clipPath><clipPath id="f4fe6f40c7"><path d="M 1290.121094 39.175781 C 1303.445312 39.175781 1314.246094 52.917969 1314.246094 69.871094 C 1314.246094 86.824219 1303.445312 100.566406 1290.121094 100.566406 L 967.046875 100.566406 C 953.722656 100.566406 942.921875 86.824219 942.921875 69.871094 C 942.921875 52.917969 953.722656 39.175781 967.046875 39.175781 Z M 1290.121094 39.175781 " clip-rule="nonzero"/></clipPath></defs><g clip-path="url(#6645d6435e)"><path fill="#a91b60" d="M 95.550781 150.9375 L 314.53125 150.9375 C 322.546875 150.9375 329.828125 147.660156 335.109375 142.378906 C 340.394531 137.097656 343.671875 129.8125 343.671875 121.792969 L 343.671875 92.652344 L 66.410156 92.652344 L 66.410156 121.792969 C 66.410156 129.8125 69.6875 137.09375 74.96875 142.378906 C 80.246094 147.660156 87.539062 150.9375 95.550781 150.9375 Z M 314.53125 152.039062 L 95.550781 152.039062 C 87.234375 152.039062 79.675781 148.636719 74.191406 143.15625 C 68.710938 137.675781 65.308594 130.117188 65.308594 121.792969 L 65.308594 91.554688 L 344.773438 91.554688 L 344.773438 121.792969 C 344.773438 130.117188 341.371094 137.675781 335.890625 143.15625 C 330.414062 148.640625 322.847656 152.039062 314.53125 152.039062 Z M 314.53125 152.039062 " fill-opacity="1" fill-rule="nonzero"/></g><g clip-path="url(#2a3073f4f8)"><path fill="#a91b60" d="M 956.945312 29.804688 C 946.40625 31.742188 944.832031 33.316406 942.890625 43.855469 C 940.953125 33.316406 939.378906 31.742188 928.839844 29.804688 C 939.378906 27.863281 940.953125 26.289062 942.890625 15.75 C 944.832031 26.289062 946.40625 27.863281 956.945312 29.804688 Z M 956.945312 29.804688 " fill-opacity="1" fill-rule="nonzero"/></g><g clip-path="url(#03569c7c67)"><g clip-path="url(#1dd6b9220f)"><path fill="url(#0e3c44e8da)" d="M 942.894531 39.175781 L 942.894531 100.578125 L 1314.171875 100.578125 L 1314.171875 39.175781 Z M 942.894531 39.175781 " fill-rule="nonzero"/></g></g><g clip-path="url(#e82510061a)"><g clip-path="url(#f4fe6f40c7)"><path stroke-linecap="butt" transform="matrix(0.746394, 0, 0, 0.746394, 942.921437, 39.176625)" fill="none" stroke-linejoin="miter" d="M 465.169273 -0.001131 C 483.020723 -0.001131 497.491335 18.410302 497.491335 41.123668 C 497.491335 63.837034 483.020723 82.248468 465.169273 82.248468 L 32.322648 82.248468 C 14.471198 82.248468 0.000586185 63.837034 0.000586185 41.123668 C 0.000586185 18.410302 14.471198 -0.001131 32.322648 -0.001131 Z M 465.169273 -0.001131 " stroke="#9b5098" stroke-width="4" stroke-opacity="1" stroke-miterlimit="4"/></g></g><g fill="#fcfffb" fill-opacity="1"><g transform="translate(997.376851, 88.615239)"><g><path d="M 12 -39.265625 C 12.875 -39.347656 13.78125 -39.367188 14.71875 -39.328125 C 15.664062 -39.285156 16.675781 -39.1875 17.75 -39.03125 C 19.945312 -38.675781 21.519531 -38.164062 22.46875 -37.5 C 23.457031 -36.789062 23.535156 -36.175781 22.703125 -35.65625 C 22.390625 -35.457031 21.847656 -35.328125 21.078125 -35.265625 C 20.316406 -35.210938 19.34375 -35.226562 18.15625 -35.3125 C 17.363281 -35.34375 16.632812 -35.367188 15.96875 -35.390625 C 15.300781 -35.410156 14.707031 -35.421875 14.1875 -35.421875 C 12.8125 -35.421875 11.890625 -35.34375 11.421875 -35.1875 C 10.503906 -34.875 9.726562 -34.320312 9.09375 -33.53125 C 8.46875 -32.738281 8.078125 -31.8125 7.921875 -30.75 C 7.679688 -29.25 8.078125 -27.929688 9.109375 -26.796875 C 9.617188 -26.273438 10.523438 -25.707031 11.828125 -25.09375 C 13.128906 -24.488281 14.644531 -23.851562 16.375 -23.1875 C 17.800781 -22.632812 18.976562 -22.117188 19.90625 -21.640625 C 20.832031 -21.171875 21.585938 -20.71875 22.171875 -20.28125 C 22.765625 -19.851562 23.226562 -19.410156 23.5625 -18.953125 C 23.894531 -18.503906 24.179688 -18.039062 24.421875 -17.5625 C 24.816406 -16.769531 25.0625 -15.890625 25.15625 -14.921875 C 25.257812 -13.960938 25.253906 -12.929688 25.140625 -11.828125 C 24.898438 -9.578125 24.269531 -7.664062 23.25 -6.09375 C 22.570312 -5.03125 21.660156 -4.050781 20.515625 -3.15625 C 19.378906 -2.269531 18.335938 -1.671875 17.390625 -1.359375 C 16.910156 -1.203125 16.34375 -1.082031 15.6875 -1 C 15.039062 -0.925781 14.265625 -0.890625 13.359375 -0.890625 C 12.179688 -0.890625 11.195312 -0.945312 10.40625 -1.0625 C 9.613281 -1.175781 8.875 -1.390625 8.1875 -1.703125 C 7.5 -2.023438 6.828125 -2.441406 6.171875 -2.953125 C 5.523438 -3.460938 4.769531 -4.113281 3.90625 -4.90625 C 2.875 -5.8125 2.171875 -6.578125 1.796875 -7.203125 C 1.421875 -7.835938 1.332031 -8.332031 1.53125 -8.6875 C 1.65625 -8.925781 1.863281 -9.132812 2.15625 -9.3125 C 2.457031 -9.488281 2.785156 -9.578125 3.140625 -9.578125 C 3.609375 -9.617188 4.140625 -9.460938 4.734375 -9.109375 C 5.003906 -8.953125 5.394531 -8.675781 5.90625 -8.28125 C 6.425781 -7.882812 7.078125 -7.367188 7.859375 -6.734375 C 8.648438 -6.109375 9.476562 -5.53125 10.34375 -5 C 11.21875 -4.46875 12.164062 -4.203125 13.1875 -4.203125 C 14.757812 -4.203125 16.140625 -4.734375 17.328125 -5.796875 C 18.515625 -6.859375 19.363281 -8.082031 19.875 -9.46875 C 20.5 -11.28125 20.632812 -13.015625 20.28125 -14.671875 C 20.207031 -15.140625 20.109375 -15.617188 19.984375 -16.109375 C 19.867188 -16.609375 19.65625 -16.992188 19.34375 -17.265625 C 18.789062 -17.773438 18.019531 -18.265625 17.03125 -18.734375 C 16.039062 -19.210938 14.601562 -19.867188 12.71875 -20.703125 C 11.457031 -21.253906 10.476562 -21.707031 9.78125 -22.0625 C 9.09375 -22.414062 8.492188 -22.75 7.984375 -23.0625 C 7.035156 -23.65625 6.175781 -24.273438 5.40625 -24.921875 C 4.644531 -25.578125 4.101562 -26.476562 3.78125 -27.625 C 3.707031 -27.851562 3.628906 -28.15625 3.546875 -28.53125 C 3.472656 -28.90625 3.4375 -29.347656 3.4375 -29.859375 C 3.4375 -31.046875 3.640625 -32.101562 4.046875 -33.03125 C 4.460938 -33.957031 5.066406 -34.851562 5.859375 -35.71875 C 6.328125 -36.269531 6.773438 -36.742188 7.203125 -37.140625 C 7.640625 -37.535156 8.09375 -37.867188 8.5625 -38.140625 C 9.039062 -38.421875 9.554688 -38.648438 10.109375 -38.828125 C 10.660156 -39.003906 11.289062 -39.148438 12 -39.265625 Z M 12 -39.265625 "/></g></g></g><g fill="#fcfffb" fill-opacity="1"><g transform="translate(1024.815811, 88.615239)"><g><path d="M 13.546875 -21.828125 C 13.035156 -22.054688 12.519531 -22.171875 12 -22.171875 C 10.894531 -22.171875 9.875 -21.703125 8.9375 -20.765625 C 8.382812 -20.085938 7.867188 -19.351562 7.390625 -18.5625 C 6.921875 -17.78125 6.523438 -16.914062 6.203125 -15.96875 C 5.847656 -14.78125 5.734375 -13.34375 5.859375 -11.65625 C 6.015625 -8.738281 6.84375 -6.46875 8.34375 -4.84375 C 9.289062 -3.90625 10.234375 -3.4375 11.171875 -3.4375 C 11.960938 -3.4375 12.679688 -3.648438 13.328125 -4.078125 C 13.984375 -4.515625 14.566406 -5.054688 15.078125 -5.703125 C 15.585938 -6.359375 16.007812 -7.066406 16.34375 -7.828125 C 16.6875 -8.597656 16.914062 -9.335938 17.03125 -10.046875 C 17.144531 -10.597656 17.203125 -11.546875 17.203125 -12.890625 C 17.203125 -14.503906 17.125 -15.609375 16.96875 -16.203125 C 16.457031 -18.960938 15.316406 -20.835938 13.546875 -21.828125 Z M 11.65625 -24.65625 C 13.382812 -24.65625 14.890625 -24.320312 16.171875 -23.65625 C 17.453125 -22.988281 18.503906 -22.09375 19.328125 -20.96875 C 20.160156 -19.84375 20.785156 -18.550781 21.203125 -17.09375 C 21.617188 -15.632812 21.828125 -14.113281 21.828125 -12.53125 C 21.828125 -9.144531 20.523438 -6.207031 17.921875 -3.71875 C 16.890625 -2.695312 15.867188 -1.976562 14.859375 -1.5625 C 13.859375 -1.15625 12.59375 -0.953125 11.0625 -0.953125 C 10.507812 -0.953125 10.023438 -0.988281 9.609375 -1.0625 C 9.191406 -1.144531 8.867188 -1.222656 8.640625 -1.296875 C 7.921875 -1.378906 7.226562 -1.609375 6.5625 -1.984375 C 5.894531 -2.359375 5.265625 -2.820312 4.671875 -3.375 C 4.078125 -3.925781 3.570312 -4.535156 3.15625 -5.203125 C 2.75 -5.867188 2.445312 -6.539062 2.25 -7.21875 C 2.125 -7.644531 2.015625 -8.179688 1.921875 -8.828125 C 1.828125 -9.484375 1.796875 -10.25 1.828125 -11.125 C 1.910156 -13.601562 2.285156 -15.648438 2.953125 -17.265625 C 3.628906 -18.878906 4.675781 -20.398438 6.09375 -21.828125 C 6.882812 -22.609375 7.722656 -23.273438 8.609375 -23.828125 C 9.492188 -24.378906 10.507812 -24.65625 11.65625 -24.65625 Z M 11.65625 -24.65625 "/></g></g></g><g fill="#fcfffb" fill-opacity="1"><g transform="translate(1048.410953, 88.615239)"><g><path d="M 12 -24.609375 C 12.476562 -24.609375 12.960938 -24.578125 13.453125 -24.515625 C 13.941406 -24.453125 14.347656 -24.382812 14.671875 -24.3125 C 16.171875 -23.957031 17.410156 -23.226562 18.390625 -22.125 C 19.054688 -21.332031 19.390625 -20.757812 19.390625 -20.40625 C 19.390625 -20.25 19.320312 -20.070312 19.1875 -19.875 C 19.050781 -19.675781 18.875 -19.5 18.65625 -19.34375 C 18.4375 -19.1875 18.21875 -19.066406 18 -18.984375 C 17.789062 -18.898438 17.625 -18.878906 17.5 -18.921875 C 17.425781 -18.960938 17.289062 -19.039062 17.09375 -19.15625 C 16.894531 -19.28125 16.640625 -19.476562 16.328125 -19.75 C 14.828125 -21.007812 13.523438 -21.640625 12.421875 -21.640625 C 11.585938 -21.640625 10.84375 -21.351562 10.1875 -20.78125 C 9.539062 -20.21875 8.984375 -19.53125 8.515625 -18.71875 C 8.046875 -17.90625 7.671875 -17.054688 7.390625 -16.171875 C 7.117188 -15.285156 6.941406 -14.507812 6.859375 -13.84375 C 6.773438 -13.207031 6.722656 -12.582031 6.703125 -11.96875 C 6.691406 -11.363281 6.722656 -10.765625 6.796875 -10.171875 C 6.878906 -9.578125 7.007812 -8.914062 7.1875 -8.1875 C 7.363281 -7.457031 7.617188 -6.765625 7.953125 -6.109375 C 8.285156 -5.460938 8.71875 -4.910156 9.25 -4.453125 C 9.78125 -4.003906 10.421875 -3.78125 11.171875 -3.78125 C 12.078125 -3.78125 13.34375 -4.234375 14.96875 -5.140625 C 16.425781 -6.015625 17.46875 -6.453125 18.09375 -6.453125 C 19.039062 -6.453125 19.601562 -6.125 19.78125 -5.46875 C 19.957031 -4.820312 19.691406 -4.203125 18.984375 -3.609375 C 17.609375 -2.546875 16.257812 -1.828125 14.9375 -1.453125 C 13.613281 -1.078125 12.101562 -0.890625 10.40625 -0.890625 C 9.257812 -0.890625 8.210938 -1.125 7.265625 -1.59375 C 6.328125 -2.070312 5.5 -2.703125 4.78125 -3.484375 C 4.070312 -4.273438 3.484375 -5.171875 3.015625 -6.171875 C 2.546875 -7.179688 2.210938 -8.195312 2.015625 -9.21875 C 1.859375 -9.8125 1.78125 -10.816406 1.78125 -12.234375 C 1.78125 -13.703125 1.859375 -14.769531 2.015625 -15.4375 C 2.210938 -16.695312 2.59375 -17.878906 3.15625 -18.984375 C 3.726562 -20.085938 4.445312 -21.050781 5.3125 -21.875 C 6.1875 -22.707031 7.1875 -23.367188 8.3125 -23.859375 C 9.4375 -24.359375 10.664062 -24.609375 12 -24.609375 Z M 12 -24.609375 "/></g></g></g><g fill="#fcfffb" fill-opacity="1"><g transform="translate(1069.463258, 88.615239)"><g><path d="M 4.015625 -24.609375 C 4.140625 -24.640625 4.414062 -24.65625 4.84375 -24.65625 C 5.28125 -24.65625 5.578125 -24.640625 5.734375 -24.609375 C 6.085938 -24.410156 6.34375 -23.757812 6.5 -22.65625 C 6.820312 -19.8125 7.0625 -16.988281 7.21875 -14.1875 C 7.375 -11.394531 7.488281 -8.578125 7.5625 -5.734375 C 7.601562 -4.515625 7.613281 -3.578125 7.59375 -2.921875 C 7.570312 -2.273438 7.546875 -1.875 7.515625 -1.71875 C 7.359375 -1.320312 6.707031 -1.125 5.5625 -1.125 C 5.164062 -1.125 4.859375 -1.148438 4.640625 -1.203125 C 4.421875 -1.265625 4.210938 -1.335938 4.015625 -1.421875 C 3.742188 -1.535156 3.566406 -1.65625 3.484375 -1.78125 C 3.285156 -2.289062 3.1875 -5.9375 3.1875 -12.71875 C 3.1875 -20.125 3.304688 -23.96875 3.546875 -24.25 C 3.660156 -24.40625 3.816406 -24.523438 4.015625 -24.609375 Z M 3.078125 -33.171875 C 3.472656 -33.296875 3.914062 -33.304688 4.40625 -33.203125 C 4.894531 -33.109375 5.300781 -32.921875 5.625 -32.640625 C 6.488281 -31.972656 7.097656 -31.285156 7.453125 -30.578125 C 7.523438 -30.421875 7.601562 -30.234375 7.6875 -30.015625 C 7.769531 -29.796875 7.8125 -29.609375 7.8125 -29.453125 C 7.882812 -28.984375 7.859375 -28.6875 7.734375 -28.5625 C 7.617188 -28.445312 7.367188 -28.269531 6.984375 -28.03125 C 6.785156 -27.914062 6.632812 -27.816406 6.53125 -27.734375 C 6.4375 -27.660156 6.3125 -27.601562 6.15625 -27.5625 C 5.757812 -27.5625 5.234375 -27.597656 4.578125 -27.671875 C 3.929688 -27.753906 3.453125 -27.914062 3.140625 -28.15625 C 3.054688 -28.269531 2.945312 -28.472656 2.8125 -28.765625 C 2.675781 -29.066406 2.546875 -29.394531 2.421875 -29.75 C 2.304688 -30.101562 2.195312 -30.445312 2.09375 -30.78125 C 2 -31.113281 1.929688 -31.359375 1.890625 -31.515625 C 1.816406 -31.867188 1.835938 -32.144531 1.953125 -32.34375 C 2.265625 -32.695312 2.640625 -32.972656 3.078125 -33.171875 Z M 3.078125 -33.171875 "/></g></g></g><g fill="#fcfffb" fill-opacity="1"><g transform="translate(1079.930273, 88.615239)"><g><path d="M 12.359375 -13.609375 C 10.585938 -13.609375 9.078125 -13.203125 7.828125 -12.390625 C 6.585938 -11.578125 5.96875 -10.164062 5.96875 -8.15625 C 6.007812 -7.644531 6.109375 -7.101562 6.265625 -6.53125 C 6.421875 -5.957031 6.65625 -5.441406 6.96875 -4.984375 C 7.289062 -4.535156 7.675781 -4.164062 8.125 -3.875 C 8.582031 -3.582031 9.109375 -3.4375 9.703125 -3.4375 C 10.253906 -3.4375 10.851562 -3.5625 11.5 -3.8125 C 12.15625 -4.070312 12.785156 -4.394531 13.390625 -4.78125 C 14.003906 -5.175781 14.578125 -5.59375 15.109375 -6.03125 C 15.640625 -6.46875 16.082031 -6.882812 16.4375 -7.28125 C 16.757812 -7.59375 16.957031 -7.9375 17.03125 -8.3125 C 17.113281 -8.6875 17.15625 -9.40625 17.15625 -10.46875 C 17.113281 -11.8125 16.992188 -12.597656 16.796875 -12.828125 C 16.710938 -12.984375 16.460938 -13.109375 16.046875 -13.203125 C 15.640625 -13.304688 15.195312 -13.390625 14.71875 -13.453125 C 14.25 -13.515625 13.785156 -13.554688 13.328125 -13.578125 C 12.878906 -13.597656 12.554688 -13.609375 12.359375 -13.609375 Z M 8.34375 -24.25 C 8.5 -24.25 8.851562 -24.265625 9.40625 -24.296875 C 9.957031 -24.335938 10.742188 -24.359375 11.765625 -24.359375 C 13.148438 -24.359375 14.351562 -24.269531 15.375 -24.09375 C 16.40625 -23.914062 17.53125 -23.550781 18.75 -23 C 19.539062 -22.644531 20.082031 -22.269531 20.375 -21.875 C 20.664062 -21.488281 20.851562 -20.84375 20.9375 -19.9375 C 21.007812 -19.414062 21.085938 -18.613281 21.171875 -17.53125 C 21.253906 -16.445312 21.332031 -14.976562 21.40625 -13.125 C 21.488281 -11.3125 21.546875 -9.675781 21.578125 -8.21875 C 21.617188 -6.757812 21.660156 -5.5 21.703125 -4.4375 C 21.703125 -2.894531 21.644531 -2.007812 21.53125 -1.78125 C 21.289062 -1.226562 20.675781 -0.953125 19.6875 -0.953125 C 19.019531 -0.953125 18.507812 -1.097656 18.15625 -1.390625 C 17.800781 -1.679688 17.582031 -2.179688 17.5 -2.890625 C 17.46875 -3.328125 17.410156 -3.566406 17.328125 -3.609375 C 17.285156 -3.648438 16.789062 -3.410156 15.84375 -2.890625 C 14.863281 -2.304688 13.757812 -1.875 12.53125 -1.59375 C 11.3125 -1.320312 10.148438 -1.1875 9.046875 -1.1875 C 8.054688 -1.1875 7.109375 -1.375 6.203125 -1.75 C 5.296875 -2.125 4.488281 -2.625 3.78125 -3.25 C 3.070312 -3.882812 2.507812 -4.644531 2.09375 -5.53125 C 1.6875 -6.414062 1.484375 -7.351562 1.484375 -8.34375 C 1.484375 -9.875 1.847656 -11.140625 2.578125 -12.140625 C 3.304688 -13.148438 4.226562 -13.941406 5.34375 -14.515625 C 6.46875 -15.085938 7.703125 -15.492188 9.046875 -15.734375 C 10.390625 -15.972656 11.691406 -16.09375 12.953125 -16.09375 C 13.460938 -16.09375 13.953125 -16.070312 14.421875 -16.03125 C 14.898438 -15.988281 15.375 -15.925781 15.84375 -15.84375 C 16.164062 -15.8125 16.441406 -15.832031 16.671875 -15.90625 L 16.96875 -16.03125 L 16.96875 -17.984375 C 16.96875 -19.242188 16.890625 -20.03125 16.734375 -20.34375 C 16.578125 -21.007812 16.003906 -21.484375 15.015625 -21.765625 C 14.109375 -21.960938 12.117188 -22.097656 9.046875 -22.171875 C 6.410156 -22.253906 5.03125 -22.351562 4.90625 -22.46875 C 4.707031 -22.664062 4.585938 -22.804688 4.546875 -22.890625 C 4.472656 -22.960938 4.453125 -23.03125 4.484375 -23.09375 C 4.523438 -23.15625 4.585938 -23.242188 4.671875 -23.359375 C 4.828125 -23.597656 5.023438 -23.738281 5.265625 -23.78125 C 5.578125 -23.851562 5.988281 -23.925781 6.5 -24 C 7.019531 -24.082031 7.632812 -24.164062 8.34375 -24.25 Z M 8.34375 -24.25 "/></g></g></g><g fill="#fcfffb" fill-opacity="1"><g transform="translate(1103.9985, 88.615239)"><g><path d="M 4.265625 -40.03125 C 4.421875 -40.195312 4.613281 -40.28125 4.84375 -40.28125 C 4.96875 -40.28125 5.15625 -40.207031 5.40625 -40.0625 C 5.664062 -39.925781 5.835938 -39.800781 5.921875 -39.6875 C 6.078125 -39.363281 6.191406 -37.890625 6.265625 -35.265625 C 6.347656 -32.648438 6.425781 -29.078125 6.5 -24.546875 C 6.582031 -22.847656 6.632812 -20.875 6.65625 -18.625 C 6.675781 -16.382812 6.703125 -14.175781 6.734375 -12 C 6.859375 -7.625 6.941406 -5.398438 6.984375 -5.328125 C 7.054688 -5.242188 7.210938 -5.28125 7.453125 -5.4375 C 7.691406 -5.59375 8.144531 -6.007812 8.8125 -6.6875 C 10.03125 -7.820312 10.914062 -8.390625 11.46875 -8.390625 C 11.664062 -8.390625 11.882812 -8.300781 12.125 -8.125 C 12.363281 -7.945312 12.5 -7.742188 12.53125 -7.515625 C 12.613281 -7.191406 12.3125 -6.585938 11.625 -5.703125 C 10.9375 -4.816406 10 -3.800781 8.8125 -2.65625 C 8.144531 -2.03125 7.601562 -1.609375 7.1875 -1.390625 C 6.769531 -1.171875 6.25 -1.0625 5.625 -1.0625 C 4.75 -1.0625 4.035156 -1.300781 3.484375 -1.78125 C 3.171875 -2.007812 2.984375 -2.269531 2.921875 -2.5625 C 2.867188 -2.863281 2.800781 -3.410156 2.71875 -4.203125 C 2.675781 -4.710938 2.664062 -6.296875 2.6875 -8.953125 C 2.707031 -11.617188 2.738281 -15.0625 2.78125 -19.28125 C 2.851562 -23.5 2.910156 -26.976562 2.953125 -29.71875 C 2.992188 -32.457031 3.054688 -34.28125 3.140625 -35.1875 C 3.171875 -36.09375 3.21875 -36.847656 3.28125 -37.453125 C 3.34375 -38.066406 3.410156 -38.535156 3.484375 -38.859375 C 3.609375 -39.484375 3.867188 -39.875 4.265625 -40.03125 Z M 4.265625 -40.03125 "/></g></g></g><g fill="#fcfffb" fill-opacity="1"><g transform="translate(1117.126627, 88.615239)"><g/></g></g><g fill="#fcfffb" fill-opacity="1"><g transform="translate(1130.727832, 88.615239)"><g><path d="M 29.390625 -38.921875 C 29.703125 -39.109375 30.097656 -39.203125 30.578125 -39.203125 L 30.75 -39.203125 C 31.65625 -39.171875 32.207031 -38.976562 32.40625 -38.625 C 32.601562 -38.300781 32.78125 -37.367188 32.9375 -35.828125 C 33.09375 -34.296875 33.226562 -32.457031 33.34375 -30.3125 C 33.46875 -28.164062 33.566406 -25.835938 33.640625 -23.328125 C 33.722656 -20.828125 33.796875 -18.421875 33.859375 -16.109375 C 33.921875 -13.804688 33.957031 -11.75 33.96875 -9.9375 C 33.988281 -8.125 34 -6.84375 34 -6.09375 C 34 -4.90625 33.988281 -3.945312 33.96875 -3.21875 C 33.957031 -2.488281 33.929688 -2.023438 33.890625 -1.828125 C 33.847656 -1.429688 33.59375 -1.140625 33.125 -0.953125 C 32.925781 -0.910156 32.738281 -0.890625 32.5625 -0.890625 C 32.382812 -0.890625 32.195312 -0.890625 32 -0.890625 L 31.515625 -0.890625 C 30.578125 -0.929688 30.085938 -1.03125 30.046875 -1.1875 C 29.847656 -1.5 29.691406 -5.816406 29.578125 -14.140625 C 29.492188 -18.984375 29.421875 -22.8125 29.359375 -25.625 C 29.304688 -28.445312 29.238281 -30.3125 29.15625 -31.21875 C 29.113281 -31.894531 29.035156 -32.289062 28.921875 -32.40625 L 29.09375 -32.40625 C 29.050781 -32.363281 29.03125 -32.304688 29.03125 -32.234375 C 29 -32.148438 28.972656 -32.054688 28.953125 -31.953125 C 28.929688 -31.859375 28.878906 -31.734375 28.796875 -31.578125 L 28.5 -30.75 C 28.34375 -30.320312 28.144531 -29.789062 27.90625 -29.15625 C 27.675781 -28.519531 27.40625 -27.769531 27.09375 -26.90625 C 27.050781 -26.789062 26.988281 -26.613281 26.90625 -26.375 L 26.671875 -25.671875 C 26.160156 -24.484375 25.6875 -23.203125 25.25 -21.828125 C 23.71875 -17.609375 22.515625 -14.40625 21.640625 -12.21875 C 20.773438 -10.03125 20.242188 -8.851562 20.046875 -8.6875 C 19.847656 -8.488281 19.582031 -8.34375 19.25 -8.25 C 18.914062 -8.15625 18.59375 -8.109375 18.28125 -8.109375 C 18.082031 -8.109375 17.875 -8.125 17.65625 -8.15625 C 17.4375 -8.195312 17.25 -8.257812 17.09375 -8.34375 C 16.894531 -8.539062 16.664062 -8.816406 16.40625 -9.171875 C 16.15625 -9.523438 15.890625 -10 15.609375 -10.59375 C 15.335938 -11.21875 14.992188 -12.171875 14.578125 -13.453125 C 14.160156 -14.734375 13.617188 -16.378906 12.953125 -18.390625 C 12.117188 -21.035156 11.359375 -23.410156 10.671875 -25.515625 C 9.984375 -27.628906 9.363281 -29.453125 8.8125 -30.984375 C 8.726562 -31.222656 8.6875 -31.363281 8.6875 -31.40625 C 8.65625 -31.476562 8.640625 -31.535156 8.640625 -31.578125 C 8.554688 -30.671875 8.492188 -28.828125 8.453125 -26.046875 C 8.410156 -23.265625 8.375 -19.550781 8.34375 -14.90625 C 8.300781 -7.96875 8.238281 -4.101562 8.15625 -3.3125 C 8.082031 -2.289062 7.96875 -1.695312 7.8125 -1.53125 C 7.414062 -1.101562 6.664062 -0.890625 5.5625 -0.890625 C 5.007812 -0.890625 4.601562 -0.957031 4.34375 -1.09375 C 4.09375 -1.226562 3.925781 -1.414062 3.84375 -1.65625 C 3.882812 -1.769531 3.90625 -2.171875 3.90625 -2.859375 C 3.90625 -3.554688 3.90625 -4.535156 3.90625 -5.796875 C 3.90625 -7.691406 3.941406 -9.546875 4.015625 -11.359375 C 4.097656 -13.171875 4.195312 -15.023438 4.3125 -16.921875 L 4.3125 -17.265625 C 4.394531 -19.003906 4.457031 -20.363281 4.5 -21.34375 C 4.5 -21.625 4.515625 -21.820312 4.546875 -21.9375 L 4.546875 -22.359375 C 4.546875 -22.910156 4.566406 -23.265625 4.609375 -23.421875 C 4.691406 -24.441406 4.753906 -25.566406 4.796875 -26.796875 C 4.867188 -27.066406 4.90625 -27.359375 4.90625 -27.671875 C 4.90625 -27.992188 4.90625 -28.289062 4.90625 -28.5625 C 5.0625 -31.5625 5.195312 -33.890625 5.3125 -35.546875 C 5.4375 -37.203125 5.554688 -38.1875 5.671875 -38.5 C 5.953125 -39.09375 6.40625 -39.390625 7.03125 -39.390625 L 7.21875 -39.390625 C 8.039062 -39.265625 8.707031 -38.832031 9.21875 -38.09375 C 9.769531 -37.21875 10.6875 -35.191406 11.96875 -32.015625 C 13.25 -28.847656 14.914062 -24.445312 16.96875 -18.8125 C 17.207031 -18.175781 17.40625 -17.628906 17.5625 -17.171875 C 17.71875 -16.722656 17.859375 -16.34375 17.984375 -16.03125 C 18.140625 -15.675781 18.253906 -15.378906 18.328125 -15.140625 C 18.453125 -15.453125 18.613281 -15.828125 18.8125 -16.265625 C 18.96875 -16.660156 19.144531 -17.132812 19.34375 -17.6875 C 19.539062 -18.238281 19.796875 -18.90625 20.109375 -19.6875 C 21.015625 -22.0625 21.851562 -24.222656 22.625 -26.171875 C 23.394531 -28.117188 24.148438 -29.898438 24.890625 -31.515625 C 25.484375 -32.816406 25.988281 -33.921875 26.40625 -34.828125 C 26.820312 -35.734375 27.1875 -36.445312 27.5 -36.96875 C 28.09375 -37.988281 28.765625 -38.640625 29.515625 -38.921875 Z M 29.390625 -38.921875 "/></g></g></g><g fill="#fcfffb" fill-opacity="1"><g transform="translate(1168.574672, 88.615239)"><g><path d="M 13.546875 -22.359375 C 12.710938 -22.359375 11.890625 -22.070312 11.078125 -21.5 C 10.273438 -20.925781 9.53125 -20.210938 8.84375 -19.359375 C 8.15625 -18.515625 7.570312 -17.617188 7.09375 -16.671875 C 6.625 -15.734375 6.328125 -14.867188 6.203125 -14.078125 C 6.085938 -13.398438 6.347656 -13.0625 6.984375 -13.0625 C 7.535156 -13.0625 8.144531 -13.140625 8.8125 -13.296875 C 9.476562 -13.460938 10.144531 -13.660156 10.8125 -13.890625 C 11.488281 -14.128906 12.140625 -14.382812 12.765625 -14.65625 C 13.398438 -14.9375 13.9375 -15.21875 14.375 -15.5 C 15.082031 -15.96875 15.632812 -16.4375 16.03125 -16.90625 C 16.425781 -17.382812 16.625 -18.054688 16.625 -18.921875 C 16.625 -19.785156 16.335938 -20.570312 15.765625 -21.28125 C 15.191406 -22 14.453125 -22.359375 13.546875 -22.359375 Z M 11.53125 -24.71875 C 11.84375 -24.757812 12.234375 -24.789062 12.703125 -24.8125 C 13.179688 -24.832031 13.71875 -24.820312 14.3125 -24.78125 C 14.90625 -24.738281 15.40625 -24.707031 15.8125 -24.6875 C 16.226562 -24.664062 16.554688 -24.617188 16.796875 -24.546875 C 18.566406 -24.035156 19.914062 -23.1875 20.84375 -22 C 21.769531 -20.8125 22.113281 -19.53125 21.875 -18.15625 C 21.71875 -17.25 21.320312 -16.429688 20.6875 -15.703125 C 20.0625 -14.972656 19.320312 -14.332031 18.46875 -13.78125 C 17.625 -13.226562 16.726562 -12.765625 15.78125 -12.390625 C 14.84375 -12.015625 13.957031 -11.726562 13.125 -11.53125 C 12.613281 -11.457031 11.984375 -11.378906 11.234375 -11.296875 C 10.484375 -11.210938 9.597656 -11.132812 8.578125 -11.0625 C 7.347656 -11.019531 6.617188 -10.957031 6.390625 -10.875 C 5.878906 -10.644531 6.015625 -9.640625 6.796875 -7.859375 C 6.992188 -7.472656 7.203125 -7.117188 7.421875 -6.796875 C 7.640625 -6.484375 7.882812 -6.191406 8.15625 -5.921875 C 8.75 -5.242188 9.378906 -4.71875 10.046875 -4.34375 C 10.722656 -3.96875 11.515625 -3.78125 12.421875 -3.78125 C 12.929688 -3.78125 13.707031 -3.890625 14.75 -4.109375 C 15.800781 -4.328125 17.113281 -4.671875 18.6875 -5.140625 C 19 -5.222656 19.300781 -5.28125 19.59375 -5.3125 C 19.894531 -5.351562 20.1875 -5.394531 20.46875 -5.4375 C 21.09375 -5.519531 21.523438 -5.484375 21.765625 -5.328125 C 22.160156 -5.128906 22.40625 -4.859375 22.5 -4.515625 C 22.601562 -4.179688 22.535156 -3.835938 22.296875 -3.484375 C 21.941406 -3.085938 21.328125 -2.734375 20.453125 -2.421875 C 19.585938 -2.109375 18.644531 -1.851562 17.625 -1.65625 C 16.601562 -1.457031 15.585938 -1.304688 14.578125 -1.203125 C 13.566406 -1.109375 12.769531 -1.0625 12.1875 -1.0625 C 9.625 -1.0625 7.515625 -1.601562 5.859375 -2.6875 C 4.203125 -3.769531 3 -5.632812 2.25 -8.28125 C 1.9375 -9.425781 1.796875 -10.585938 1.828125 -11.765625 C 1.867188 -12.953125 2.046875 -14.175781 2.359375 -15.4375 C 2.679688 -16.539062 3.097656 -17.625 3.609375 -18.6875 C 4.117188 -19.75 4.757812 -20.703125 5.53125 -21.546875 C 6.300781 -22.398438 7.1875 -23.113281 8.1875 -23.6875 C 9.195312 -24.257812 10.3125 -24.601562 11.53125 -24.71875 Z M 11.53125 -24.71875 "/></g></g></g><g fill="#fcfffb" fill-opacity="1"><g transform="translate(1192.347216, 88.615239)"><g><path d="M 11.890625 -22.296875 C 11.648438 -22.296875 11.332031 -22.21875 10.9375 -22.0625 C 9.789062 -21.664062 8.820312 -20.738281 8.03125 -19.28125 C 7.25 -17.820312 6.738281 -16.023438 6.5 -13.890625 C 6.46875 -13.660156 6.453125 -13.316406 6.453125 -12.859375 C 6.453125 -12.410156 6.453125 -11.9375 6.453125 -11.4375 C 6.453125 -10.945312 6.46875 -10.472656 6.5 -10.015625 C 6.539062 -9.566406 6.582031 -9.222656 6.625 -8.984375 C 6.78125 -8.078125 7.035156 -7.289062 7.390625 -6.625 C 7.742188 -5.957031 8.195312 -5.382812 8.75 -4.90625 C 9.257812 -4.4375 9.734375 -4.128906 10.171875 -3.984375 C 10.609375 -3.847656 11.0625 -3.800781 11.53125 -3.84375 C 11.769531 -3.84375 12.210938 -4 12.859375 -4.3125 C 13.515625 -4.632812 14.175781 -4.988281 14.84375 -5.375 C 15.507812 -5.769531 16.128906 -6.164062 16.703125 -6.5625 C 17.273438 -6.957031 17.625 -7.253906 17.75 -7.453125 C 18.132812 -7.960938 18.328125 -9.929688 18.328125 -13.359375 C 18.328125 -14.304688 18.296875 -15.066406 18.234375 -15.640625 C 18.179688 -16.210938 18.15625 -16.597656 18.15625 -16.796875 C 18.15625 -17.191406 17.898438 -17.722656 17.390625 -18.390625 C 17.109375 -18.785156 16.757812 -19.207031 16.34375 -19.65625 C 15.9375 -20.113281 15.492188 -20.539062 15.015625 -20.9375 C 14.546875 -21.332031 14.046875 -21.65625 13.515625 -21.90625 C 12.984375 -22.164062 12.441406 -22.296875 11.890625 -22.296875 Z M 19.9375 -39.453125 C 20.25 -39.609375 20.539062 -39.6875 20.8125 -39.6875 C 21.40625 -39.6875 21.800781 -39.289062 22 -38.5 C 22.15625 -37.90625 22.265625 -36.800781 22.328125 -35.1875 C 22.390625 -33.570312 22.4375 -31.441406 22.46875 -28.796875 C 22.46875 -26.191406 22.488281 -23.066406 22.53125 -19.421875 C 22.570312 -15.773438 22.628906 -11.90625 22.703125 -7.8125 C 22.742188 -6.738281 22.773438 -5.816406 22.796875 -5.046875 C 22.816406 -4.285156 22.804688 -3.628906 22.765625 -3.078125 C 22.722656 -2.015625 22.609375 -1.421875 22.421875 -1.296875 C 22.253906 -1.140625 21.71875 -1.023438 20.8125 -0.953125 C 20.382812 -0.953125 20.019531 -0.957031 19.71875 -0.96875 C 19.425781 -0.988281 19.179688 -1.039062 18.984375 -1.125 C 18.515625 -1.394531 18.296875 -1.945312 18.328125 -2.78125 C 18.367188 -3.019531 18.367188 -3.195312 18.328125 -3.3125 C 18.296875 -3.425781 18.257812 -3.523438 18.21875 -3.609375 C 18.175781 -3.679688 17.644531 -3.484375 16.625 -3.015625 C 15.320312 -2.378906 14.195312 -1.914062 13.25 -1.625 C 12.300781 -1.332031 11.429688 -1.1875 10.640625 -1.1875 C 9.066406 -1.1875 7.617188 -1.609375 6.296875 -2.453125 C 4.972656 -3.296875 3.9375 -4.410156 3.1875 -5.796875 C 2.757812 -6.660156 2.4375 -7.613281 2.21875 -8.65625 C 2 -9.707031 1.867188 -10.84375 1.828125 -12.0625 C 1.796875 -16.363281 3.078125 -19.851562 5.671875 -22.53125 C 6.421875 -23.320312 7.207031 -23.875 8.03125 -24.1875 C 8.863281 -24.5 9.910156 -24.675781 11.171875 -24.71875 C 12.316406 -24.71875 13.265625 -24.585938 14.015625 -24.328125 C 14.765625 -24.078125 15.648438 -23.554688 16.671875 -22.765625 C 17.191406 -22.367188 17.566406 -22.101562 17.796875 -21.96875 C 18.035156 -21.832031 18.210938 -21.765625 18.328125 -21.765625 C 18.410156 -21.765625 18.453125 -21.882812 18.453125 -22.125 C 18.492188 -22.195312 18.550781 -22.882812 18.625 -24.1875 C 18.707031 -25.488281 18.769531 -27.046875 18.8125 -28.859375 C 19.007812 -34.929688 19.203125 -38.285156 19.390625 -38.921875 C 19.472656 -39.109375 19.65625 -39.285156 19.9375 -39.453125 Z M 19.9375 -39.453125 "/></g></g></g><g fill="#fcfffb" fill-opacity="1"><g transform="translate(1217.53903, 88.615239)"><g><path d="M 4.015625 -24.609375 C 4.140625 -24.640625 4.414062 -24.65625 4.84375 -24.65625 C 5.28125 -24.65625 5.578125 -24.640625 5.734375 -24.609375 C 6.085938 -24.410156 6.34375 -23.757812 6.5 -22.65625 C 6.820312 -19.8125 7.0625 -16.988281 7.21875 -14.1875 C 7.375 -11.394531 7.488281 -8.578125 7.5625 -5.734375 C 7.601562 -4.515625 7.613281 -3.578125 7.59375 -2.921875 C 7.570312 -2.273438 7.546875 -1.875 7.515625 -1.71875 C 7.359375 -1.320312 6.707031 -1.125 5.5625 -1.125 C 5.164062 -1.125 4.859375 -1.148438 4.640625 -1.203125 C 4.421875 -1.265625 4.210938 -1.335938 4.015625 -1.421875 C 3.742188 -1.535156 3.566406 -1.65625 3.484375 -1.78125 C 3.285156 -2.289062 3.1875 -5.9375 3.1875 -12.71875 C 3.1875 -20.125 3.304688 -23.96875 3.546875 -24.25 C 3.660156 -24.40625 3.816406 -24.523438 4.015625 -24.609375 Z M 3.078125 -33.171875 C 3.472656 -33.296875 3.914062 -33.304688 4.40625 -33.203125 C 4.894531 -33.109375 5.300781 -32.921875 5.625 -32.640625 C 6.488281 -31.972656 7.097656 -31.285156 7.453125 -30.578125 C 7.523438 -30.421875 7.601562 -30.234375 7.6875 -30.015625 C 7.769531 -29.796875 7.8125 -29.609375 7.8125 -29.453125 C 7.882812 -28.984375 7.859375 -28.6875 7.734375 -28.5625 C 7.617188 -28.445312 7.367188 -28.269531 6.984375 -28.03125 C 6.785156 -27.914062 6.632812 -27.816406 6.53125 -27.734375 C 6.4375 -27.660156 6.3125 -27.601562 6.15625 -27.5625 C 5.757812 -27.5625 5.234375 -27.597656 4.578125 -27.671875 C 3.929688 -27.753906 3.453125 -27.914062 3.140625 -28.15625 C 3.054688 -28.269531 2.945312 -28.472656 2.8125 -28.765625 C 2.675781 -29.066406 2.546875 -29.394531 2.421875 -29.75 C 2.304688 -30.101562 2.195312 -30.445312 2.09375 -30.78125 C 2 -31.113281 1.929688 -31.359375 1.890625 -31.515625 C 1.816406 -31.867188 1.835938 -32.144531 1.953125 -32.34375 C 2.265625 -32.695312 2.640625 -32.972656 3.078125 -33.171875 Z M 3.078125 -33.171875 "/></g></g></g><g fill="#fcfffb" fill-opacity="1"><g transform="translate(1228.006045, 88.615239)"><g><path d="M 12.359375 -13.609375 C 10.585938 -13.609375 9.078125 -13.203125 7.828125 -12.390625 C 6.585938 -11.578125 5.96875 -10.164062 5.96875 -8.15625 C 6.007812 -7.644531 6.109375 -7.101562 6.265625 -6.53125 C 6.421875 -5.957031 6.65625 -5.441406 6.96875 -4.984375 C 7.289062 -4.535156 7.675781 -4.164062 8.125 -3.875 C 8.582031 -3.582031 9.109375 -3.4375 9.703125 -3.4375 C 10.253906 -3.4375 10.851562 -3.5625 11.5 -3.8125 C 12.15625 -4.070312 12.785156 -4.394531 13.390625 -4.78125 C 14.003906 -5.175781 14.578125 -5.59375 15.109375 -6.03125 C 15.640625 -6.46875 16.082031 -6.882812 16.4375 -7.28125 C 16.757812 -7.59375 16.957031 -7.9375 17.03125 -8.3125 C 17.113281 -8.6875 17.15625 -9.40625 17.15625 -10.46875 C 17.113281 -11.8125 16.992188 -12.597656 16.796875 -12.828125 C 16.710938 -12.984375 16.460938 -13.109375 16.046875 -13.203125 C 15.640625 -13.304688 15.195312 -13.390625 14.71875 -13.453125 C 14.25 -13.515625 13.785156 -13.554688 13.328125 -13.578125 C 12.878906 -13.597656 12.554688 -13.609375 12.359375 -13.609375 Z M 8.34375 -24.25 C 8.5 -24.25 8.851562 -24.265625 9.40625 -24.296875 C 9.957031 -24.335938 10.742188 -24.359375 11.765625 -24.359375 C 13.148438 -24.359375 14.351562 -24.269531 15.375 -24.09375 C 16.40625 -23.914062 17.53125 -23.550781 18.75 -23 C 19.539062 -22.644531 20.082031 -22.269531 20.375 -21.875 C 20.664062 -21.488281 20.851562 -20.84375 20.9375 -19.9375 C 21.007812 -19.414062 21.085938 -18.613281 21.171875 -17.53125 C 21.253906 -16.445312 21.332031 -14.976562 21.40625 -13.125 C 21.488281 -11.3125 21.546875 -9.675781 21.578125 -8.21875 C 21.617188 -6.757812 21.660156 -5.5 21.703125 -4.4375 C 21.703125 -2.894531 21.644531 -2.007812 21.53125 -1.78125 C 21.289062 -1.226562 20.675781 -0.953125 19.6875 -0.953125 C 19.019531 -0.953125 18.507812 -1.097656 18.15625 -1.390625 C 17.800781 -1.679688 17.582031 -2.179688 17.5 -2.890625 C 17.46875 -3.328125 17.410156 -3.566406 17.328125 -3.609375 C 17.285156 -3.648438 16.789062 -3.410156 15.84375 -2.890625 C 14.863281 -2.304688 13.757812 -1.875 12.53125 -1.59375 C 11.3125 -1.320312 10.148438 -1.1875 9.046875 -1.1875 C 8.054688 -1.1875 7.109375 -1.375 6.203125 -1.75 C 5.296875 -2.125 4.488281 -2.625 3.78125 -3.25 C 3.070312 -3.882812 2.507812 -4.644531 2.09375 -5.53125 C 1.6875 -6.414062 1.484375 -7.351562 1.484375 -8.34375 C 1.484375 -9.875 1.847656 -11.140625 2.578125 -12.140625 C 3.304688 -13.148438 4.226562 -13.941406 5.34375 -14.515625 C 6.46875 -15.085938 7.703125 -15.492188 9.046875 -15.734375 C 10.390625 -15.972656 11.691406 -16.09375 12.953125 -16.09375 C 13.460938 -16.09375 13.953125 -16.070312 14.421875 -16.03125 C 14.898438 -15.988281 15.375 -15.925781 15.84375 -15.84375 C 16.164062 -15.8125 16.441406 -15.832031 16.671875 -15.90625 L 16.96875 -16.03125 L 16.96875 -17.984375 C 16.96875 -19.242188 16.890625 -20.03125 16.734375 -20.34375 C 16.578125 -21.007812 16.003906 -21.484375 15.015625 -21.765625 C 14.109375 -21.960938 12.117188 -22.097656 9.046875 -22.171875 C 6.410156 -22.253906 5.03125 -22.351562 4.90625 -22.46875 C 4.707031 -22.664062 4.585938 -22.804688 4.546875 -22.890625 C 4.472656 -22.960938 4.453125 -23.03125 4.484375 -23.09375 C 4.523438 -23.15625 4.585938 -23.242188 4.671875 -23.359375 C 4.828125 -23.597656 5.023438 -23.738281 5.265625 -23.78125 C 5.578125 -23.851562 5.988281 -23.925781 6.5 -24 C 7.019531 -24.082031 7.632812 -24.164062 8.34375 -24.25 Z M 8.34375 -24.25 "/></g></g></g><g fill="#a91b60" fill-opacity="1"><g transform="translate(110.457222, 131.534543)"><g><path d="M 13.5625 -11.9375 C 14.882812 -11.425781 15.925781 -10.695312 16.6875 -9.75 C 17.445312 -8.8125 17.828125 -7.71875 17.828125 -6.46875 C 17.828125 -5 17.472656 -3.78125 16.765625 -2.8125 C 16.054688 -1.851562 15.125 -1.144531 13.96875 -0.6875 C 12.8125 -0.226562 11.539062 0 10.15625 0 L 3.3125 0 L 3.3125 -23.015625 L 9.265625 -23.015625 C 11.617188 -23.015625 13.441406 -22.53125 14.734375 -21.5625 C 16.035156 -20.601562 16.6875 -19.160156 16.6875 -17.234375 C 16.6875 -16.015625 16.414062 -14.953125 15.875 -14.046875 C 15.332031 -13.148438 14.5625 -12.445312 13.5625 -11.9375 Z M 6.40625 -12.953125 L 9.90625 -12.953125 C 11.09375 -12.953125 11.988281 -13.289062 12.59375 -13.96875 C 13.195312 -14.65625 13.5 -15.53125 13.5 -16.59375 C 13.5 -17.757812 13.140625 -18.628906 12.421875 -19.203125 C 11.703125 -19.773438 10.691406 -20.0625 9.390625 -20.0625 L 6.40625 -20.0625 Z M 10.03125 -2.859375 C 11.363281 -2.859375 12.460938 -3.160156 13.328125 -3.765625 C 14.203125 -4.378906 14.640625 -5.269531 14.640625 -6.4375 C 14.640625 -7.644531 14.164062 -8.535156 13.21875 -9.109375 C 12.28125 -9.679688 11.144531 -9.96875 9.8125 -9.96875 L 6.40625 -9.96875 L 6.40625 -2.859375 Z M 10.03125 -2.859375 "/></g></g></g><g fill="#a91b60" fill-opacity="1"><g transform="translate(130.165144, 131.534543)"><g><path d="M 5.546875 -13.1875 L 5.546875 0 L 2.578125 0 L 2.578125 -13.1875 Z M 2.359375 -17.9375 C 2.359375 -18.40625 2.535156 -18.796875 2.890625 -19.109375 C 3.253906 -19.429688 3.671875 -19.59375 4.140625 -19.59375 C 4.609375 -19.59375 5.015625 -19.429688 5.359375 -19.109375 C 5.710938 -18.796875 5.890625 -18.40625 5.890625 -17.9375 C 5.890625 -17.46875 5.710938 -17.070312 5.359375 -16.75 C 5.015625 -16.4375 4.609375 -16.28125 4.140625 -16.28125 C 3.671875 -16.28125 3.253906 -16.4375 2.890625 -16.75 C 2.535156 -17.070312 2.359375 -17.46875 2.359375 -17.9375 Z M 2.359375 -17.9375 "/></g></g></g><g fill="#a91b60" fill-opacity="1"><g transform="translate(138.283912, 131.534543)"><g><path d="M 8.75 -2.234375 C 9.851562 -2.234375 10.925781 -2.613281 11.96875 -3.375 L 13.34375 -1.171875 C 12.644531 -0.710938 11.882812 -0.347656 11.0625 -0.078125 C 10.25 0.179688 9.457031 0.3125 8.6875 0.3125 C 7.226562 0.3125 5.953125 0.0078125 4.859375 -0.59375 C 3.765625 -1.195312 2.921875 -2.03125 2.328125 -3.09375 C 1.734375 -4.15625 1.4375 -5.351562 1.4375 -6.6875 C 1.4375 -7.976562 1.757812 -9.160156 2.40625 -10.234375 C 3.050781 -11.304688 3.9375 -12.15625 5.0625 -12.78125 C 6.1875 -13.40625 7.414062 -13.71875 8.75 -13.71875 C 10.476562 -13.71875 11.921875 -13.210938 13.078125 -12.203125 C 14.234375 -11.203125 15.019531 -9.800781 15.4375 -8 L 5 -4.328125 C 5.382812 -3.671875 5.898438 -3.15625 6.546875 -2.78125 C 7.191406 -2.414062 7.925781 -2.234375 8.75 -2.234375 Z M 8.53125 -11.375 C 7.320312 -11.375 6.320312 -10.945312 5.53125 -10.09375 C 4.75 -9.25 4.359375 -8.164062 4.359375 -6.84375 C 4.359375 -6.53125 4.367188 -6.285156 4.390625 -6.109375 L 12.0625 -8.953125 C 11.75 -9.671875 11.300781 -10.253906 10.71875 -10.703125 C 10.132812 -11.148438 9.40625 -11.375 8.53125 -11.375 Z M 11.109375 -15.921875 L 8.5 -18.65625 L 6.015625 -15.921875 L 3.25 -15.921875 L 8.5 -21.359375 L 8.53125 -21.359375 L 13.875 -15.921875 Z M 11.109375 -15.921875 "/></g></g></g><g fill="#a91b60" fill-opacity="1"><g transform="translate(154.83984, 131.534543)"><g><path d="M 10.765625 -13.6875 C 11.992188 -13.6875 13.007812 -13.320312 13.8125 -12.59375 C 14.625 -11.863281 15.039062 -10.914062 15.0625 -9.75 L 15.0625 0 L 12.0625 0 L 12.0625 -8.71875 C 12.019531 -9.46875 11.796875 -10.050781 11.390625 -10.46875 C 10.992188 -10.894531 10.390625 -11.117188 9.578125 -11.140625 C 8.410156 -11.140625 7.445312 -10.671875 6.6875 -9.734375 C 5.925781 -8.804688 5.546875 -7.617188 5.546875 -6.171875 L 5.546875 0 L 2.578125 0 L 2.578125 -13.1875 L 5.25 -13.1875 L 5.4375 -10.640625 C 5.90625 -11.585938 6.609375 -12.332031 7.546875 -12.875 C 8.484375 -13.414062 9.554688 -13.6875 10.765625 -13.6875 Z M 10.765625 -13.6875 "/></g></g></g><g fill="#a91b60" fill-opacity="1"><g transform="translate(172.446433, 131.534543)"><g/></g></g><g fill="#a91b60" fill-opacity="1"><g transform="translate(182.507345, 131.534543)"><g><path d="M 6.84375 -18.984375 L 6.84375 -13.15625 L 10.4375 -13.15625 L 10.4375 -10.796875 L 6.84375 -10.796875 L 6.84375 0 L 3.859375 0 L 3.859375 -10.796875 L 1.4375 -10.796875 L 1.4375 -13.15625 L 3.859375 -13.15625 L 3.859375 -18.984375 Z M 6.84375 -18.984375 "/></g></g></g><g fill="#a91b60" fill-opacity="1"><g transform="translate(193.969147, 131.534543)"><g><path d="M 16.109375 -13.1875 L 16.109375 0 L 13.15625 0 L 13.15625 -2.171875 C 12.6875 -1.546875 12.003906 -0.972656 11.109375 -0.453125 C 10.222656 0.0546875 9.21875 0.3125 8.09375 0.3125 C 6.832031 0.3125 5.695312 0.0390625 4.6875 -0.5 C 3.6875 -1.039062 2.894531 -1.828125 2.3125 -2.859375 C 1.726562 -3.898438 1.4375 -5.144531 1.4375 -6.59375 C 1.4375 -8.03125 1.738281 -9.285156 2.34375 -10.359375 C 2.945312 -11.429688 3.765625 -12.257812 4.796875 -12.84375 C 5.828125 -13.425781 6.96875 -13.71875 8.21875 -13.71875 C 9.34375 -13.71875 10.316406 -13.472656 11.140625 -12.984375 C 11.972656 -12.503906 12.644531 -11.867188 13.15625 -11.078125 L 13.375 -13.1875 Z M 8.890625 -2.140625 C 9.972656 -2.140625 10.898438 -2.441406 11.671875 -3.046875 C 12.441406 -3.648438 12.9375 -4.472656 13.15625 -5.515625 L 13.15625 -8.125 C 12.894531 -9.050781 12.359375 -9.804688 11.546875 -10.390625 C 10.742188 -10.972656 9.820312 -11.265625 8.78125 -11.265625 C 8 -11.265625 7.273438 -11.070312 6.609375 -10.6875 C 5.941406 -10.3125 5.410156 -9.78125 5.015625 -9.09375 C 4.617188 -8.40625 4.421875 -7.625 4.421875 -6.75 C 4.421875 -5.90625 4.625 -5.128906 5.03125 -4.421875 C 5.4375 -3.722656 5.976562 -3.164062 6.65625 -2.75 C 7.332031 -2.34375 8.078125 -2.140625 8.890625 -2.140625 Z M 7.796875 3.21875 C 7.796875 2.8125 7.957031 2.460938 8.28125 2.171875 C 8.613281 1.890625 8.984375 1.75 9.390625 1.75 C 9.796875 1.75 10.15625 1.890625 10.46875 2.171875 C 10.789062 2.460938 10.953125 2.8125 10.953125 3.21875 C 10.953125 3.644531 10.796875 3.992188 10.484375 4.265625 C 10.179688 4.546875 9.816406 4.6875 9.390625 4.6875 C 8.960938 4.6875 8.585938 4.546875 8.265625 4.265625 C 7.953125 3.992188 7.796875 3.644531 7.796875 3.21875 Z M 12.296875 -15.890625 L 9.6875 -18.625 L 7.203125 -15.890625 L 4.4375 -15.890625 L 9.6875 -21.328125 L 9.71875 -21.328125 L 15.0625 -15.890625 Z M 12.296875 -15.890625 "/></g></g></g><g fill="#a91b60" fill-opacity="1"><g transform="translate(212.658248, 131.534543)"><g><path d="M 10.921875 -13.71875 C 12.148438 -13.71875 13.265625 -13.421875 14.265625 -12.828125 C 15.265625 -12.234375 16.050781 -11.398438 16.625 -10.328125 C 17.195312 -9.253906 17.484375 -8.019531 17.484375 -6.625 C 17.484375 -5.238281 17.175781 -4.019531 16.5625 -2.96875 C 15.945312 -1.925781 15.097656 -1.117188 14.015625 -0.546875 C 12.929688 0.0234375 11.71875 0.3125 10.375 0.3125 C 9.425781 0.3125 8.515625 0.109375 7.640625 -0.296875 C 6.773438 -0.710938 6.078125 -1.269531 5.546875 -1.96875 L 5.546875 6.34375 L 2.578125 6.34375 L 2.578125 -13.40625 L 5.15625 -13.40625 L 5.40625 -11.171875 C 6.09375 -11.941406 6.90625 -12.554688 7.84375 -13.015625 C 8.789062 -13.484375 9.816406 -13.71875 10.921875 -13.71875 Z M 9.8125 -2.0625 C 10.632812 -2.0625 11.398438 -2.257812 12.109375 -2.65625 C 12.828125 -3.050781 13.394531 -3.59375 13.8125 -4.28125 C 14.238281 -4.96875 14.453125 -5.738281 14.453125 -6.59375 C 14.453125 -7.457031 14.253906 -8.238281 13.859375 -8.9375 C 13.472656 -9.644531 12.9375 -10.195312 12.25 -10.59375 C 11.570312 -11 10.820312 -11.203125 10 -11.203125 C 8.875 -11.203125 7.910156 -10.890625 7.109375 -10.265625 C 6.316406 -9.640625 5.796875 -8.796875 5.546875 -7.734375 L 5.546875 -5.546875 C 5.710938 -4.523438 6.191406 -3.6875 6.984375 -3.03125 C 7.785156 -2.382812 8.726562 -2.0625 9.8125 -2.0625 Z M 9.8125 -2.0625 "/></g></g></g><g fill="#a91b60" fill-opacity="1"><g transform="translate(231.538378, 131.534543)"><g/></g></g><g fill="#a91b60" fill-opacity="1"><g transform="translate(241.59929, 131.534543)"><g><path d="M 15.125 -13.1875 L 8.09375 0.375 L 7.921875 0.375 L 0.609375 -13.1875 L 4.140625 -13.1875 L 8.125 -4.78125 L 11.8125 -13.1875 Z M 15.125 -13.1875 "/></g></g></g><g fill="#a91b60" fill-opacity="1"><g transform="translate(257.327427, 131.534543)"><g><path d="M 5.546875 -13.1875 L 5.546875 0 L 2.578125 0 L 2.578125 -13.1875 Z M 2.359375 -17.9375 C 2.359375 -18.40625 2.535156 -18.796875 2.890625 -19.109375 C 3.253906 -19.429688 3.671875 -19.59375 4.140625 -19.59375 C 4.609375 -19.59375 5.015625 -19.429688 5.359375 -19.109375 C 5.710938 -18.796875 5.890625 -18.40625 5.890625 -17.9375 C 5.890625 -17.46875 5.710938 -17.070312 5.359375 -16.75 C 5.015625 -16.4375 4.609375 -16.28125 4.140625 -16.28125 C 3.671875 -16.28125 3.253906 -16.4375 2.890625 -16.75 C 2.535156 -17.070312 2.359375 -17.46875 2.359375 -17.9375 Z M 2.359375 -17.9375 "/></g></g></g><g fill="#a91b60" fill-opacity="1"><g transform="translate(265.446195, 131.534543)"><g><path d="M 8.75 -2.234375 C 9.851562 -2.234375 10.925781 -2.613281 11.96875 -3.375 L 13.34375 -1.171875 C 12.644531 -0.710938 11.882812 -0.347656 11.0625 -0.078125 C 10.25 0.179688 9.457031 0.3125 8.6875 0.3125 C 7.226562 0.3125 5.953125 0.0078125 4.859375 -0.59375 C 3.765625 -1.195312 2.921875 -2.03125 2.328125 -3.09375 C 1.734375 -4.15625 1.4375 -5.351562 1.4375 -6.6875 C 1.4375 -7.976562 1.757812 -9.160156 2.40625 -10.234375 C 3.050781 -11.304688 3.9375 -12.15625 5.0625 -12.78125 C 6.1875 -13.40625 7.414062 -13.71875 8.75 -13.71875 C 10.476562 -13.71875 11.921875 -13.210938 13.078125 -12.203125 C 14.234375 -11.203125 15.019531 -9.800781 15.4375 -8 L 5 -4.328125 C 5.382812 -3.671875 5.898438 -3.15625 6.546875 -2.78125 C 7.191406 -2.414062 7.925781 -2.234375 8.75 -2.234375 Z M 8.53125 -11.375 C 7.320312 -11.375 6.320312 -10.945312 5.53125 -10.09375 C 4.75 -9.25 4.359375 -8.164062 4.359375 -6.84375 C 4.359375 -6.53125 4.367188 -6.285156 4.390625 -6.109375 L 12.0625 -8.953125 C 11.75 -9.671875 11.300781 -10.253906 10.71875 -10.703125 C 10.132812 -11.148438 9.40625 -11.375 8.53125 -11.375 Z M 11.109375 -15.921875 L 8.5 -18.65625 L 6.015625 -15.921875 L 3.25 -15.921875 L 8.5 -21.359375 L 8.53125 -21.359375 L 13.875 -15.921875 Z M 11.109375 -15.921875 "/></g></g></g><g fill="#a91b60" fill-opacity="1"><g transform="translate(282.002123, 131.534543)"><g><path d="M 10.765625 -13.6875 C 11.992188 -13.6875 13.007812 -13.320312 13.8125 -12.59375 C 14.625 -11.863281 15.039062 -10.914062 15.0625 -9.75 L 15.0625 0 L 12.0625 0 L 12.0625 -8.71875 C 12.019531 -9.46875 11.796875 -10.050781 11.390625 -10.46875 C 10.992188 -10.894531 10.390625 -11.117188 9.578125 -11.140625 C 8.410156 -11.140625 7.445312 -10.671875 6.6875 -9.734375 C 5.925781 -8.804688 5.546875 -7.617188 5.546875 -6.171875 L 5.546875 0 L 2.578125 0 L 2.578125 -13.1875 L 5.25 -13.1875 L 5.4375 -10.640625 C 5.90625 -11.585938 6.609375 -12.332031 7.546875 -12.875 C 8.484375 -13.414062 9.554688 -13.6875 10.765625 -13.6875 Z M 10.765625 -13.6875 "/></g></g></g><g fill="#a91b60" fill-opacity="1"><g transform="translate(48.787132, 68.837437)"><g><path d="M 18.359375 -42.484375 C 23.546875 -42.484375 27.5625 -41.203125 30.40625 -38.640625 C 33.257812 -36.078125 34.6875 -32.585938 34.6875 -28.171875 C 34.6875 -25.628906 34.195312 -23.25 33.21875 -21.03125 C 32.238281 -18.820312 30.640625 -17.003906 28.421875 -15.578125 C 26.210938 -14.160156 23.359375 -13.453125 19.859375 -13.453125 L 13.859375 -13.453125 L 13.859375 0 L 5.484375 0 L 5.484375 -42.484375 Z M 19.796875 -21.59375 C 21.367188 -21.59375 22.632812 -21.945312 23.59375 -22.65625 C 24.5625 -23.363281 25.253906 -24.195312 25.671875 -25.15625 C 26.097656 -26.125 26.3125 -27.050781 26.3125 -27.9375 C 26.3125 -29.4375 25.867188 -30.890625 24.984375 -32.296875 C 24.109375 -33.703125 22.398438 -34.40625 19.859375 -34.40625 L 13.859375 -34.40625 L 13.859375 -21.59375 Z M 19.796875 -21.59375 "/></g></g></g><g fill="#a91b60" fill-opacity="1"><g transform="translate(85.495349, 68.837437)"><g><path d="M 21.703125 -26.4375 C 24.085938 -26.4375 26.078125 -25.722656 27.671875 -24.296875 C 29.273438 -22.867188 30.09375 -21.0625 30.125 -18.875 L 30.125 0 L 22.046875 0 L 22.046875 -15.875 C 21.929688 -18.332031 20.703125 -19.5625 18.359375 -19.5625 C 16.503906 -19.5625 15.019531 -18.695312 13.90625 -16.96875 C 12.789062 -15.238281 12.234375 -13.007812 12.234375 -10.28125 L 12.234375 0 L 4.15625 0 L 4.15625 -45.546875 L 12.0625 -45.546875 L 12.0625 -21.234375 C 12.988281 -22.859375 14.269531 -24.128906 15.90625 -25.046875 C 17.539062 -25.972656 19.472656 -26.4375 21.703125 -26.4375 Z M 21.703125 -26.4375 "/></g></g></g><g fill="#a91b60" fill-opacity="1"><g transform="translate(119.779438, 68.837437)"><g><path d="M 2.1875 -12.921875 C 2.1875 -15.503906 2.789062 -17.816406 4 -19.859375 C 5.21875 -21.898438 6.929688 -23.503906 9.140625 -24.671875 C 11.359375 -25.847656 13.875 -26.4375 16.6875 -26.4375 C 19.488281 -26.4375 21.957031 -25.847656 24.09375 -24.671875 C 26.226562 -23.503906 27.875 -21.898438 29.03125 -19.859375 C 30.1875 -17.816406 30.765625 -15.503906 30.765625 -12.921875 C 30.765625 -10.347656 30.1875 -8.019531 29.03125 -5.9375 C 27.875 -3.863281 26.226562 -2.238281 24.09375 -1.0625 C 21.957031 0.101562 19.445312 0.6875 16.5625 0.6875 C 13.757812 0.6875 11.269531 0.140625 9.09375 -0.953125 C 6.914062 -2.046875 5.21875 -3.613281 4 -5.65625 C 2.789062 -7.695312 2.1875 -10.117188 2.1875 -12.921875 Z M 10.328125 -12.875 C 10.328125 -10.875 10.90625 -9.207031 12.0625 -7.875 C 13.21875 -6.550781 14.679688 -5.890625 16.453125 -5.890625 C 18.296875 -5.890625 19.785156 -6.539062 20.921875 -7.84375 C 22.054688 -9.15625 22.625 -10.832031 22.625 -12.875 C 22.625 -14.914062 22.054688 -16.585938 20.921875 -17.890625 C 19.785156 -19.203125 18.296875 -19.859375 16.453125 -19.859375 C 14.679688 -19.859375 13.21875 -19.191406 12.0625 -17.859375 C 10.90625 -16.535156 10.328125 -14.875 10.328125 -12.875 Z M 19.28125 -29.375 L 14.375 -29.375 L 18.875 -37.171875 L 27.828125 -37.171875 Z M 19.28125 -29.375 "/></g></g></g><g fill="#a91b60" fill-opacity="1"><g transform="translate(152.736028, 68.837437)"><g><path d="M 21.703125 -26.4375 C 24.085938 -26.4375 26.078125 -25.722656 27.671875 -24.296875 C 29.273438 -22.867188 30.09375 -21.0625 30.125 -18.875 L 30.125 0 L 22.046875 0 L 22.046875 -15.875 C 21.929688 -18.332031 20.703125 -19.5625 18.359375 -19.5625 C 16.503906 -19.5625 15.019531 -18.695312 13.90625 -16.96875 C 12.789062 -15.238281 12.234375 -13.007812 12.234375 -10.28125 L 12.234375 0 L 4.15625 0 L 4.15625 -25.21875 L 11.484375 -25.21875 L 12.0625 -21.1875 C 12.988281 -22.84375 14.269531 -24.128906 15.90625 -25.046875 C 17.539062 -25.972656 19.472656 -26.4375 21.703125 -26.4375 Z M 21.703125 -26.4375 "/></g></g></g><g fill="#a91b60" fill-opacity="1"><g transform="translate(187.020116, 68.837437)"><g><path d="M 32.375 -25.21875 L 32.375 0 C 32.375 2.382812 31.691406 4.546875 30.328125 6.484375 C 28.960938 8.429688 27.113281 9.953125 24.78125 11.046875 C 22.457031 12.148438 19.929688 12.703125 17.203125 12.703125 C 15.117188 12.703125 13.296875 12.453125 11.734375 11.953125 C 10.179688 11.453125 8.929688 10.890625 7.984375 10.265625 C 7.046875 9.648438 5.925781 8.804688 4.625 7.734375 L 9.34375 2.1875 C 10.5 3.269531 11.644531 4.117188 12.78125 4.734375 C 13.914062 5.347656 15.347656 5.65625 17.078125 5.65625 C 19.117188 5.65625 20.832031 5.144531 22.21875 4.125 C 23.601562 3.101562 24.296875 1.691406 24.296875 -0.109375 L 24.296875 -3.6875 C 23.523438 -2.382812 22.34375 -1.328125 20.75 -0.515625 C 19.15625 0.285156 17.203125 0.6875 14.890625 0.6875 C 12.617188 0.6875 10.507812 0.101562 8.5625 -1.0625 C 6.625 -2.238281 5.078125 -3.851562 3.921875 -5.90625 C 2.765625 -7.96875 2.1875 -10.25 2.1875 -12.75 C 2.1875 -15.289062 2.789062 -17.617188 4 -19.734375 C 5.21875 -21.859375 6.816406 -23.515625 8.796875 -24.703125 C 10.785156 -25.898438 12.875 -26.5 15.0625 -26.5 C 17.144531 -26.5 18.992188 -26.195312 20.609375 -25.59375 C 22.222656 -25 23.453125 -24.222656 24.296875 -23.265625 L 24.9375 -25.21875 Z M 17.3125 -5.890625 C 20.539062 -5.890625 22.867188 -7.160156 24.296875 -9.703125 L 24.296875 -15.875 C 23.753906 -17.101562 22.859375 -18.082031 21.609375 -18.8125 C 20.359375 -19.539062 18.925781 -19.90625 17.3125 -19.90625 C 15.351562 -19.90625 13.695312 -19.25 12.34375 -17.9375 C 11 -16.632812 10.328125 -14.984375 10.328125 -12.984375 C 10.328125 -10.984375 11 -9.300781 12.34375 -7.9375 C 13.695312 -6.570312 15.351562 -5.890625 17.3125 -5.890625 Z M 17.3125 -5.890625 "/></g></g></g><g fill="#a91b60" fill-opacity="1"><g transform="translate(223.555186, 68.837437)"><g/></g></g><g fill="#a91b60" fill-opacity="1"><g transform="translate(242.313328, 68.837437)"><g><path d="M 12.359375 0.515625 C 10.273438 0.515625 8.328125 0.148438 6.515625 -0.578125 C 4.710938 -1.304688 3.210938 -2.328125 2.015625 -3.640625 L 5.375 -8.078125 C 7.601562 -6.003906 9.695312 -4.96875 11.65625 -4.96875 C 12.695312 -4.96875 13.535156 -5.128906 14.171875 -5.453125 C 14.804688 -5.773438 15.125 -6.265625 15.125 -6.921875 C 15.125 -7.691406 14.753906 -8.28125 14.015625 -8.6875 C 13.285156 -9.09375 12.46875 -9.425781 11.5625 -9.6875 C 10.664062 -9.957031 10.0625 -10.132812 9.75 -10.21875 C 7.5625 -10.90625 5.925781 -11.929688 4.84375 -13.296875 C 3.769531 -14.671875 3.234375 -16.242188 3.234375 -18.015625 C 3.234375 -19.359375 3.585938 -20.671875 4.296875 -21.953125 C 5.015625 -23.242188 6.125 -24.300781 7.625 -25.125 C 9.125 -25.957031 10.988281 -26.375 13.21875 -26.375 C 15.289062 -26.375 17.054688 -26.160156 18.515625 -25.734375 C 19.984375 -25.316406 21.390625 -24.628906 22.734375 -23.671875 L 19.6875 -18.9375 C 18.914062 -19.550781 18.054688 -20.054688 17.109375 -20.453125 C 16.171875 -20.859375 15.316406 -21.0625 14.546875 -21.0625 C 13.617188 -21.0625 12.863281 -20.867188 12.28125 -20.484375 C 11.707031 -20.097656 11.421875 -19.640625 11.421875 -19.109375 C 11.390625 -18.296875 11.726562 -17.6875 12.4375 -17.28125 C 13.144531 -16.882812 14.25 -16.472656 15.75 -16.046875 C 15.988281 -15.972656 16.234375 -15.894531 16.484375 -15.8125 C 16.734375 -15.738281 16.992188 -15.660156 17.265625 -15.578125 C 21.222656 -14.273438 23.203125 -11.890625 23.203125 -8.421875 C 23.203125 -6.804688 22.796875 -5.328125 21.984375 -3.984375 C 21.179688 -2.640625 19.960938 -1.550781 18.328125 -0.71875 C 16.691406 0.101562 14.703125 0.515625 12.359375 0.515625 Z M 12.359375 0.515625 "/></g></g></g><g fill="#a91b60" fill-opacity="1"><g transform="translate(268.112968, 68.837437)"><g><path d="M 35.84375 -30.1875 C 35.03125 -25.414062 32.929688 -22.394531 29.546875 -21.125 L 29.546875 0 L 22.21875 0 L 21.640625 -4.046875 C 20.753906 -2.421875 19.515625 -1.132812 17.921875 -0.1875 C 16.328125 0.75 14.453125 1.21875 12.296875 1.21875 C 9.984375 1.21875 8.054688 0.503906 6.515625 -0.921875 C 4.984375 -2.347656 4.195312 -4.15625 4.15625 -6.34375 L 4.15625 -25.21875 L 12.234375 -25.21875 L 12.234375 -9.34375 C 12.347656 -6.882812 13.484375 -5.65625 15.640625 -5.65625 C 17.410156 -5.65625 18.820312 -6.519531 19.875 -8.25 C 20.9375 -9.976562 21.46875 -12.210938 21.46875 -14.953125 L 21.46875 -25.21875 L 25 -25.21875 C 26.34375 -25.21875 27.40625 -25.628906 28.1875 -26.453125 C 28.976562 -27.285156 29.546875 -28.53125 29.890625 -30.1875 Z M 13.171875 6.296875 C 13.171875 5.328125 13.550781 4.523438 14.3125 3.890625 C 15.082031 3.253906 15.929688 2.9375 16.859375 2.9375 C 17.785156 2.9375 18.613281 3.253906 19.34375 3.890625 C 20.070312 4.523438 20.4375 5.328125 20.4375 6.296875 C 20.4375 7.253906 20.070312 8.050781 19.34375 8.6875 C 18.613281 9.320312 17.785156 9.640625 16.859375 9.640625 C 15.898438 9.640625 15.046875 9.320312 14.296875 8.6875 C 13.546875 8.050781 13.171875 7.253906 13.171875 6.296875 Z M 13.171875 6.296875 "/></g></g></g><g fill="#a91b60" fill-opacity="1"><g transform="translate(301.81988, 68.837437)"><g/></g></g><g fill="#a91b60" fill-opacity="1"><g transform="translate(320.578022, 68.837437)"><g><path d="M 31.859375 -25.796875 L 31.859375 12.125 L 23.84375 12.125 L 23.84375 -2.1875 C 22.757812 -1.34375 21.378906 -0.648438 19.703125 -0.109375 C 18.035156 0.421875 16.203125 0.6875 14.203125 0.6875 C 12.003906 0.6875 9.988281 0.160156 8.15625 -0.890625 C 6.332031 -1.953125 4.878906 -3.484375 3.796875 -5.484375 C 2.722656 -7.484375 2.1875 -9.867188 2.1875 -12.640625 C 2.1875 -15.410156 2.78125 -17.84375 3.96875 -19.9375 C 5.164062 -22.039062 6.765625 -23.660156 8.765625 -24.796875 C 10.773438 -25.929688 12.953125 -26.5 15.296875 -26.5 C 17.179688 -26.5 18.796875 -26.21875 20.140625 -25.65625 C 21.484375 -25.09375 22.695312 -24.296875 23.78125 -23.265625 L 23.78125 -25.796875 Z M 23.78125 -15.875 C 23.082031 -17.144531 22.1875 -18.097656 21.09375 -18.734375 C 20 -19.367188 18.660156 -19.6875 17.078125 -19.6875 C 15.890625 -19.6875 14.785156 -19.375 13.765625 -18.75 C 12.742188 -18.132812 11.925781 -17.28125 11.3125 -16.1875 C 10.695312 -15.09375 10.390625 -13.890625 10.390625 -12.578125 C 10.390625 -10.617188 11.050781 -8.972656 12.375 -7.640625 C 13.707031 -6.316406 15.273438 -5.65625 17.078125 -5.65625 C 18.703125 -5.65625 20.109375 -6.019531 21.296875 -6.75 C 22.492188 -7.476562 23.320312 -8.460938 23.78125 -9.703125 Z M 23.78125 -15.875 "/></g></g></g><g fill="#a91b60" fill-opacity="1"><g transform="translate(356.593637, 68.837437)"><g><path d="M 29.546875 -25.21875 L 29.546875 0 L 22.21875 0 L 21.640625 -4.046875 C 20.753906 -2.421875 19.515625 -1.132812 17.921875 -0.1875 C 16.328125 0.75 14.453125 1.21875 12.296875 1.21875 C 9.984375 1.21875 8.054688 0.503906 6.515625 -0.921875 C 4.984375 -2.347656 4.195312 -4.15625 4.15625 -6.34375 L 4.15625 -25.21875 L 12.234375 -25.21875 L 12.234375 -9.34375 C 12.347656 -6.882812 13.484375 -5.65625 15.640625 -5.65625 C 17.410156 -5.65625 18.820312 -6.519531 19.875 -8.25 C 20.9375 -9.976562 21.46875 -12.210938 21.46875 -14.953125 L 21.46875 -25.21875 Z M 29.546875 -25.21875 "/></g></g></g><g fill="#a91b60" fill-opacity="1"><g transform="translate(390.30055, 68.837437)"><g><path d="M 31.28125 -25.21875 L 31.28125 0 L 23.203125 0 L 23.203125 -3.109375 C 20.773438 -0.578125 17.96875 0.6875 14.78125 0.6875 C 11.039062 0.6875 8.003906 -0.425781 5.671875 -2.65625 C 3.347656 -4.882812 2.1875 -8.191406 2.1875 -12.578125 C 2.1875 -15.347656 2.753906 -17.78125 3.890625 -19.875 C 5.023438 -21.976562 6.535156 -23.609375 8.421875 -24.765625 C 10.304688 -25.921875 12.328125 -26.5 14.484375 -26.5 C 16.710938 -26.5 18.484375 -26.160156 19.796875 -25.484375 C 21.109375 -24.804688 22.265625 -23.851562 23.265625 -22.625 L 23.78125 -25.21875 Z M 17.078125 -5.890625 C 19.890625 -5.890625 21.929688 -7.160156 23.203125 -9.703125 L 23.203125 -15.875 C 22.742188 -17.101562 21.945312 -18.082031 20.8125 -18.8125 C 19.675781 -19.539062 18.335938 -19.90625 16.796875 -19.90625 C 15.023438 -19.90625 13.515625 -19.25 12.265625 -17.9375 C 11.015625 -16.632812 10.390625 -14.984375 10.390625 -12.984375 C 10.390625 -11.679688 10.695312 -10.476562 11.3125 -9.375 C 11.925781 -8.28125 12.742188 -7.425781 13.765625 -6.8125 C 14.785156 -6.195312 15.890625 -5.890625 17.078125 -5.890625 Z M 17.078125 -5.890625 "/></g></g></g><g fill="#a91b60" fill-opacity="1"><g transform="translate(425.738989, 68.837437)"><g><path d="M 30.25 -25.21875 L 13.96875 12.125 L 6.171875 12.125 L 12.234375 -1.328125 L 0.578125 -25.21875 L 9.640625 -25.21875 L 16.28125 -10.328125 L 22.96875 -25.21875 Z M 30.25 -25.21875 "/></g></g></g><g fill="#a91b60" fill-opacity="1"><g transform="translate(456.560025, 68.837437)"><g/></g></g><g fill="#a91b60" fill-opacity="1"><g transform="translate(475.318144, 68.837437)"><g><path d="M 21.59375 -26.5 C 23.9375 -26.5 26.03125 -25.9375 27.875 -24.8125 C 29.726562 -23.695312 31.179688 -22.097656 32.234375 -20.015625 C 33.296875 -17.941406 33.828125 -15.503906 33.828125 -12.703125 C 33.828125 -9.929688 33.238281 -7.535156 32.0625 -5.515625 C 30.882812 -3.492188 29.25 -1.953125 27.15625 -0.890625 C 25.0625 0.160156 22.664062 0.6875 19.96875 0.6875 C 18.507812 0.6875 17.078125 0.429688 15.671875 -0.078125 C 14.265625 -0.597656 13.097656 -1.34375 12.171875 -2.3125 L 12.171875 12.125 L 4.15625 12.125 L 4.15625 -25.796875 L 11.078125 -25.796875 L 11.78125 -22.796875 C 14.851562 -25.265625 18.125 -26.5 21.59375 -26.5 Z M 18.359375 -5.65625 C 20.359375 -5.65625 22.066406 -6.304688 23.484375 -7.609375 C 24.910156 -8.921875 25.625 -10.578125 25.625 -12.578125 C 25.625 -14.660156 24.976562 -16.363281 23.6875 -17.6875 C 22.40625 -19.019531 20.820312 -19.6875 18.9375 -19.6875 C 17.351562 -19.6875 16.015625 -19.367188 14.921875 -18.734375 C 13.828125 -18.097656 12.929688 -17.144531 12.234375 -15.875 L 12.234375 -9.703125 C 12.660156 -8.460938 13.421875 -7.476562 14.515625 -6.75 C 15.609375 -6.019531 16.890625 -5.65625 18.359375 -5.65625 Z M 18.359375 -5.65625 "/></g></g></g><g fill="#a91b60" fill-opacity="1"><g transform="translate(511.333759, 68.837437)"><g><path d="M 21.703125 -26.4375 C 24.085938 -26.4375 26.078125 -25.722656 27.671875 -24.296875 C 29.273438 -22.867188 30.09375 -21.0625 30.125 -18.875 L 30.125 0 L 22.046875 0 L 22.046875 -15.875 C 21.929688 -18.332031 20.703125 -19.5625 18.359375 -19.5625 C 16.503906 -19.5625 15.019531 -18.695312 13.90625 -16.96875 C 12.789062 -15.238281 12.234375 -13.007812 12.234375 -10.28125 L 12.234375 0 L 4.15625 0 L 4.15625 -45.546875 L 12.0625 -45.546875 L 12.0625 -21.234375 C 12.988281 -22.859375 14.269531 -24.128906 15.90625 -25.046875 C 17.539062 -25.972656 19.472656 -26.4375 21.703125 -26.4375 Z M 21.703125 -26.4375 "/></g></g></g><g fill="#a91b60" fill-opacity="1"><g transform="translate(545.617869, 68.837437)"><g><path d="M 12.234375 -25.21875 L 12.234375 0 L 4.15625 0 L 4.15625 -25.21875 Z M 3.984375 -34.171875 C 3.984375 -35.328125 4.429688 -36.296875 5.328125 -37.078125 C 6.234375 -37.867188 7.265625 -38.265625 8.421875 -38.265625 C 9.535156 -38.265625 10.535156 -37.867188 11.421875 -37.078125 C 12.304688 -36.296875 12.75 -35.328125 12.75 -34.171875 C 12.75 -33.015625 12.304688 -32.050781 11.421875 -31.28125 C 10.535156 -30.507812 9.535156 -30.125 8.421875 -30.125 C 7.265625 -30.125 6.234375 -30.507812 5.328125 -31.28125 C 4.429688 -32.050781 3.984375 -33.015625 3.984375 -34.171875 Z M 3.984375 -34.171875 "/></g></g></g><g fill="#a91b60" fill-opacity="1"><g transform="translate(562.009568, 68.837437)"><g><path d="M 37.40625 -26.5 C 39.863281 -26.5 41.832031 -25.804688 43.3125 -24.421875 C 44.800781 -23.035156 45.582031 -21.207031 45.65625 -18.9375 L 45.65625 0 L 37.625 0 L 37.625 -15.578125 C 37.550781 -16.847656 37.34375 -17.800781 37 -18.4375 C 36.65625 -19.070312 35.984375 -19.429688 34.984375 -19.515625 C 33.097656 -19.515625 31.625 -18.597656 30.5625 -16.765625 C 29.5 -14.941406 28.96875 -12.796875 28.96875 -10.328125 L 28.96875 0 L 20.890625 0 L 20.890625 -15.578125 C 20.816406 -16.847656 20.585938 -17.800781 20.203125 -18.4375 C 19.816406 -19.070312 19.101562 -19.429688 18.0625 -19.515625 C 16.257812 -19.515625 14.835938 -18.597656 13.796875 -16.765625 C 12.753906 -14.941406 12.234375 -12.835938 12.234375 -10.453125 L 12.234375 0 L 4.15625 0 L 4.15625 -25.21875 L 11.484375 -25.21875 L 12.0625 -21.234375 C 14.101562 -24.742188 17.144531 -26.5 21.1875 -26.5 C 23.21875 -26.5 24.894531 -26.082031 26.21875 -25.25 C 27.550781 -24.425781 28.46875 -23.207031 28.96875 -21.59375 C 30.050781 -23.09375 31.332031 -24.285156 32.8125 -25.171875 C 34.289062 -26.054688 35.820312 -26.5 37.40625 -26.5 Z M 37.40625 -26.5 "/></g></g></g></svg>