<svg xmlns="http://www.w3.org/2000/svg" xmlns:xlink="http://www.w3.org/1999/xlink" width="955" zoomAndPan="magnify" viewBox="0 0 716.25 525.000007" height="700" preserveAspectRatio="xMidYMid meet" version="1.0"><defs><g/><clipPath id="a3b2b0fd17"><path d="M 174.222656 339.65625 L 216.140625 339.65625 L 216.140625 381.574219 L 174.222656 381.574219 Z M 174.222656 339.65625 " clip-rule="nonzero"/></clipPath><clipPath id="26783239b9"><path d="M 347.003906 247.503906 L 379.941406 247.503906 L 379.941406 280.441406 L 347.003906 280.441406 Z M 347.003906 247.503906 " clip-rule="nonzero"/></clipPath><clipPath id="bef3dcd10e"><path d="M 424.324219 339.65625 L 466.246094 339.65625 L 466.246094 381.574219 L 424.324219 381.574219 Z M 424.324219 339.65625 " clip-rule="nonzero"/></clipPath></defs><g fill="#a91b60" fill-opacity="0.4"><g transform="translate(47.409396, 197.021822)"><g><path d="M 49.023438 -68.203125 C 67.316406 -68.203125 85.433594 -77.261719 85.433594 -96.976562 C 85.433594 -117.402344 63.761719 -125.394531 37.652344 -125.394531 L 6.214844 -125.394531 L 6.214844 0 L 20.425781 0 L 20.425781 -98.929688 C 21.667969 -92.003906 23.976562 -85.964844 27.351562 -81.167969 C 33.035156 -73 40.496094 -68.203125 49.023438 -68.203125 Z M 71.222656 -96.976562 C 71.222656 -77.617188 60.921875 -69.625 49.023438 -69.625 C 40.671875 -69.625 33.570312 -74.066406 28.417969 -82.058594 C 23.089844 -89.515625 20.425781 -100.175781 20.425781 -112.429688 L 20.425781 -124.152344 L 37.652344 -124.152344 C 54.351562 -124.152344 71.222656 -117.226562 71.222656 -96.976562 Z M 71.222656 -96.976562 "/></g></g></g><g fill="#a91b60" fill-opacity="0.4"><g transform="translate(139.056613, 197.021822)"><g><path d="M 53.105469 -123.621094 C 19.539062 -114.5625 -0.53125 -80.105469 8.347656 -46.355469 C 17.582031 -12.253906 51.863281 7.816406 85.253906 -1.597656 C 119 -10.480469 139.070312 -45.46875 129.660156 -78.683594 C 120.957031 -112.429688 86.320312 -133.03125 53.105469 -123.621094 Z M 53.285156 -122.199219 C 83.832031 -130.722656 108.699219 -102.484375 115.980469 -75.128906 C 122.910156 -48.132812 115.273438 -10.65625 84.898438 -2.84375 C 54.882812 5.152344 29.839844 -23.265625 22.734375 -50.085938 C 15.453125 -77.261719 23.089844 -114.382812 53.285156 -122.199219 Z M 53.285156 -122.199219 "/></g></g></g><g fill="#a91b60" fill-opacity="0.4"><g transform="translate(277.415493, 197.021822)"><g><path d="M 56.480469 -69.269531 C 71.933594 -71.222656 85.078125 -80.105469 85.078125 -97.511719 C 85.078125 -117.757812 63.585938 -125.574219 37.476562 -125.574219 L 6.214844 -125.574219 L 6.214844 0 L 20.246094 0 L 20.246094 -99.640625 C 21.847656 -92.183594 23.976562 -86.5 27.175781 -81.347656 C 32.503906 -73 40.140625 -68.558594 48.84375 -68.558594 C 88.984375 -68.558594 48.84375 0 113.496094 0 L 113.496094 -1.421875 C 101.59375 -1.421875 95.023438 -14.917969 88.273438 -30.371094 C 81.167969 -47.066406 74.953125 -65.007812 56.480469 -69.269531 Z M 71.046875 -97.511719 C 71.046875 -78.859375 61.453125 -70.511719 50.085938 -69.800781 L 48.84375 -69.800781 C 40.671875 -69.800781 33.390625 -74.953125 28.417969 -82.234375 C 23.445312 -90.050781 20.246094 -100.175781 20.246094 -113.140625 L 20.246094 -124.152344 L 37.476562 -124.152344 C 54.707031 -124.152344 71.046875 -117.757812 71.046875 -97.511719 Z M 71.046875 -97.511719 "/></g></g></g><g fill="#a91b60" fill-opacity="0.4"><g transform="translate(397.125238, 197.021822)"><g><path d="M 48.488281 0 L 62.164062 0 L 62.164062 -124.152344 C 80.992188 -123.976562 92.359375 -122.910156 104.4375 -111.71875 L 104.4375 -125.574219 L 6.214844 -125.574219 L 6.214844 -111.71875 C 17.9375 -122.910156 29.484375 -123.976562 48.488281 -124.152344 Z M 48.488281 0 "/></g></g></g><g fill="#a91b60" fill-opacity="1"><g transform="translate(39.559786, 189.17221)"><g><path d="M 49.023438 -68.203125 C 67.316406 -68.203125 85.433594 -77.261719 85.433594 -96.976562 C 85.433594 -117.402344 63.761719 -125.394531 37.652344 -125.394531 L 6.214844 -125.394531 L 6.214844 0 L 20.425781 0 L 20.425781 -98.929688 C 21.667969 -92.003906 23.976562 -85.964844 27.351562 -81.167969 C 33.035156 -73 40.496094 -68.203125 49.023438 -68.203125 Z M 71.222656 -96.976562 C 71.222656 -77.617188 60.921875 -69.625 49.023438 -69.625 C 40.671875 -69.625 33.570312 -74.066406 28.417969 -82.058594 C 23.089844 -89.515625 20.425781 -100.175781 20.425781 -112.429688 L 20.425781 -124.152344 L 37.652344 -124.152344 C 54.351562 -124.152344 71.222656 -117.226562 71.222656 -96.976562 Z M 71.222656 -96.976562 "/></g></g></g><g fill="#a91b60" fill-opacity="1"><g transform="translate(131.207002, 189.17221)"><g><path d="M 53.105469 -123.621094 C 19.539062 -114.5625 -0.53125 -80.105469 8.347656 -46.355469 C 17.582031 -12.253906 51.863281 7.816406 85.253906 -1.597656 C 119 -10.480469 139.070312 -45.46875 129.660156 -78.683594 C 120.957031 -112.429688 86.320312 -133.03125 53.105469 -123.621094 Z M 53.285156 -122.199219 C 83.832031 -130.722656 108.699219 -102.484375 115.980469 -75.128906 C 122.910156 -48.132812 115.273438 -10.65625 84.898438 -2.84375 C 54.882812 5.152344 29.839844 -23.265625 22.734375 -50.085938 C 15.453125 -77.261719 23.089844 -114.382812 53.285156 -122.199219 Z M 53.285156 -122.199219 "/></g></g></g><g fill="#a91b60" fill-opacity="1"><g transform="translate(269.565882, 189.17221)"><g><path d="M 56.480469 -69.269531 C 71.933594 -71.222656 85.078125 -80.105469 85.078125 -97.511719 C 85.078125 -117.757812 63.585938 -125.574219 37.476562 -125.574219 L 6.214844 -125.574219 L 6.214844 0 L 20.246094 0 L 20.246094 -99.640625 C 21.847656 -92.183594 23.976562 -86.5 27.175781 -81.347656 C 32.503906 -73 40.140625 -68.558594 48.84375 -68.558594 C 88.984375 -68.558594 48.84375 0 113.496094 0 L 113.496094 -1.421875 C 101.59375 -1.421875 95.023438 -14.917969 88.273438 -30.371094 C 81.167969 -47.066406 74.953125 -65.007812 56.480469 -69.269531 Z M 71.046875 -97.511719 C 71.046875 -78.859375 61.453125 -70.511719 50.085938 -69.800781 L 48.84375 -69.800781 C 40.671875 -69.800781 33.390625 -74.953125 28.417969 -82.234375 C 23.445312 -90.050781 20.246094 -100.175781 20.246094 -113.140625 L 20.246094 -124.152344 L 37.476562 -124.152344 C 54.707031 -124.152344 71.046875 -117.757812 71.046875 -97.511719 Z M 71.046875 -97.511719 "/></g></g></g><g fill="#a91b60" fill-opacity="1"><g transform="translate(389.275628, 189.17221)"><g><path d="M 48.488281 0 L 62.164062 0 L 62.164062 -124.152344 C 80.992188 -123.976562 92.359375 -122.910156 104.4375 -111.71875 L 104.4375 -125.574219 L 6.214844 -125.574219 L 6.214844 -111.71875 C 17.9375 -122.910156 29.484375 -123.976562 48.488281 -124.152344 Z M 48.488281 0 "/></g></g></g><g fill="#a91b60" fill-opacity="0.4"><g transform="translate(47.409396, 421.628049)"><g><path d="M 19.894531 -83.65625 C 25.222656 -62.699219 46.179688 -63.761719 57.015625 -52.039062 L 57.015625 -66.074219 C 32.324219 -66.074219 19.894531 -71.046875 19.894531 -95.378906 L 19.894531 -124.152344 L 34.28125 -124.152344 C 56.304688 -124.152344 65.539062 -123.265625 77.972656 -111.1875 L 77.972656 -125.394531 L 6.214844 -125.394531 L 6.214844 0 L 19.894531 0 Z M 19.894531 -83.65625 "/></g></g></g><g fill="#a91b60" fill-opacity="0.4"><g transform="translate(131.596948, 421.628049)"><g><path d="M 53.105469 -123.621094 C 19.539062 -114.5625 -0.53125 -80.105469 8.347656 -46.355469 C 17.582031 -12.253906 51.863281 7.816406 85.253906 -1.597656 C 119 -10.480469 139.070312 -45.46875 129.660156 -78.683594 C 120.957031 -112.429688 86.320312 -133.03125 53.105469 -123.621094 Z M 53.285156 -122.199219 C 83.832031 -130.722656 108.699219 -102.484375 115.980469 -75.128906 C 122.910156 -48.132812 115.273438 -10.65625 84.898438 -2.84375 C 54.882812 5.152344 29.839844 -23.265625 22.734375 -50.085938 C 15.453125 -77.261719 23.089844 -114.382812 53.285156 -122.199219 Z M 53.285156 -122.199219 "/></g></g></g><g fill="#a91b60" fill-opacity="0.4"><g transform="translate(269.955814, 421.628049)"><g><path d="M 81.347656 -26.285156 C 74.777344 -8.347656 65.71875 -1.421875 50.441406 -1.421875 L 20.425781 -1.421875 L 20.425781 -125.394531 L 6.214844 -125.394531 L 6.214844 0 L 77.085938 0 Z M 81.347656 -26.285156 "/></g></g></g><g fill="#a91b60" fill-opacity="0.4"><g transform="translate(357.517969, 421.628049)"><g><path d="M 6.214844 0 L 19.539062 0 L 19.539062 -125.394531 L 6.214844 -125.394531 Z M 6.214844 0 "/></g></g></g><g fill="#a91b60" fill-opacity="0.4"><g transform="translate(383.271541, 421.628049)"><g><path d="M 53.105469 -123.621094 C 19.539062 -114.5625 -0.53125 -80.105469 8.347656 -46.355469 C 17.582031 -12.253906 51.863281 7.816406 85.253906 -1.597656 C 119 -10.480469 139.070312 -45.46875 129.660156 -78.683594 C 120.957031 -112.429688 86.320312 -133.03125 53.105469 -123.621094 Z M 53.285156 -122.199219 C 83.832031 -130.722656 108.699219 -102.484375 115.980469 -75.128906 C 122.910156 -48.132812 115.273438 -10.65625 84.898438 -2.84375 C 54.882812 5.152344 29.839844 -23.265625 22.734375 -50.085938 C 15.453125 -77.261719 23.089844 -114.382812 53.285156 -122.199219 Z M 53.285156 -122.199219 "/></g></g></g><g fill="#a91b60" fill-opacity="1"><g transform="translate(39.559786, 413.778432)"><g><path d="M 19.894531 -83.65625 C 25.222656 -62.699219 46.179688 -63.761719 57.015625 -52.039062 L 57.015625 -66.074219 C 32.324219 -66.074219 19.894531 -71.046875 19.894531 -95.378906 L 19.894531 -124.152344 L 34.28125 -124.152344 C 56.304688 -124.152344 65.539062 -123.265625 77.972656 -111.1875 L 77.972656 -125.394531 L 6.214844 -125.394531 L 6.214844 0 L 19.894531 0 Z M 19.894531 -83.65625 "/></g></g></g><g fill="#a91b60" fill-opacity="1"><g transform="translate(123.747337, 413.778432)"><g><path d="M 53.105469 -123.621094 C 19.539062 -114.5625 -0.53125 -80.105469 8.347656 -46.355469 C 17.582031 -12.253906 51.863281 7.816406 85.253906 -1.597656 C 119 -10.480469 139.070312 -45.46875 129.660156 -78.683594 C 120.957031 -112.429688 86.320312 -133.03125 53.105469 -123.621094 Z M 53.285156 -122.199219 C 83.832031 -130.722656 108.699219 -102.484375 115.980469 -75.128906 C 122.910156 -48.132812 115.273438 -10.65625 84.898438 -2.84375 C 54.882812 5.152344 29.839844 -23.265625 22.734375 -50.085938 C 15.453125 -77.261719 23.089844 -114.382812 53.285156 -122.199219 Z M 53.285156 -122.199219 "/></g></g></g><g fill="#a91b60" fill-opacity="1"><g transform="translate(262.106203, 413.778432)"><g><path d="M 81.347656 -26.285156 C 74.777344 -8.347656 65.71875 -1.421875 50.441406 -1.421875 L 20.425781 -1.421875 L 20.425781 -125.394531 L 6.214844 -125.394531 L 6.214844 0 L 77.085938 0 Z M 81.347656 -26.285156 "/></g></g></g><g fill="#a91b60" fill-opacity="1"><g transform="translate(349.668358, 413.778432)"><g><path d="M 6.214844 0 L 19.539062 0 L 19.539062 -125.394531 L 6.214844 -125.394531 Z M 6.214844 0 "/></g></g></g><g fill="#a91b60" fill-opacity="1"><g transform="translate(375.42193, 413.778432)"><g><path d="M 53.105469 -123.621094 C 19.539062 -114.5625 -0.53125 -80.105469 8.347656 -46.355469 C 17.582031 -12.253906 51.863281 7.816406 85.253906 -1.597656 C 119 -10.480469 139.070312 -45.46875 129.660156 -78.683594 C 120.957031 -112.429688 86.320312 -133.03125 53.105469 -123.621094 Z M 53.285156 -122.199219 C 83.832031 -130.722656 108.699219 -102.484375 115.980469 -75.128906 C 122.910156 -48.132812 115.273438 -10.65625 84.898438 -2.84375 C 54.882812 5.152344 29.839844 -23.265625 22.734375 -50.085938 C 15.453125 -77.261719 23.089844 -114.382812 53.285156 -122.199219 Z M 53.285156 -122.199219 "/></g></g></g><g fill="#6d123f" fill-opacity="1"><g transform="translate(187.767647, 116.022359)"><g><path d="M 16.515625 -21.207031 C 15.746094 -22.992188 14.207031 -23.902344 11.933594 -23.902344 C 9.867188 -23.902344 8.082031 -23.304688 6.578125 -22.082031 C 4.898438 -20.714844 3.988281 -19.667969 3.8125 -18.933594 C 4.058594 -18.617188 4.375 -18.511719 4.757812 -18.582031 C 6.265625 -19.945312 7.105469 -20.714844 7.277344 -20.855469 C 8.292969 -21.589844 9.34375 -22.011719 10.359375 -22.082031 C 11.863281 -21.765625 12.878906 -21.101562 13.332031 -20.015625 C 13.4375 -19.84375 13.472656 -19.5625 13.507812 -19.246094 C 13.507812 -18.617188 13.578125 -18.230469 13.753906 -18.058594 C 13.332031 -16.449219 12.351562 -14.871094 10.8125 -13.296875 C 10.464844 -12.914062 8.992188 -11.617188 6.367188 -9.414062 C 4.550781 -7.839844 3.253906 -6.4375 2.519531 -5.214844 C 1.996094 -4.480469 1.503906 -3.78125 0.980469 -3.078125 C 0.386719 -2.203125 0.0703125 -1.433594 0.0703125 -0.769531 C 0.0703125 -0.246094 0.210938 0.210938 0.523438 0.664062 C 1.085938 0.839844 1.820312 0.875 2.695312 0.769531 C 3.988281 0.628906 4.757812 0.558594 4.96875 0.558594 C 5.5625 0.558594 6.125 0.664062 6.578125 0.839844 C 6.964844 0.664062 7.488281 0.558594 8.082031 0.558594 C 8.539062 0.558594 9.796875 0.664062 10.253906 0.664062 C 10.8125 0.664062 11.269531 0.558594 11.652344 0.386719 C 12.667969 -1.050781 13.15625 -1.785156 13.191406 -1.820312 C 13.71875 -2.695312 14.03125 -3.535156 14.136719 -4.339844 C 13.996094 -4.550781 13.789062 -4.621094 13.472656 -4.550781 C 12.527344 -3.042969 10.882812 -2.308594 8.46875 -2.308594 C 8.082031 -2.308594 7.523438 -2.308594 6.71875 -2.34375 C 5.949219 -2.378906 5.390625 -2.414062 5.003906 -2.414062 C 4.199219 -2.414062 3.535156 -2.34375 3.007812 -2.238281 C 2.589844 -2.378906 2.414062 -2.730469 2.519531 -3.253906 C 3.21875 -4.6875 4.339844 -6.054688 5.84375 -7.277344 C 6.578125 -7.839844 8.046875 -8.820312 10.289062 -10.183594 C 12.214844 -11.375 13.613281 -12.421875 14.558594 -13.332031 C 16.0625 -14.417969 16.796875 -16.132812 16.796875 -18.511719 C 16.796875 -19.316406 16.691406 -20.191406 16.515625 -21.207031 Z M 16.515625 -21.207031 "/></g></g></g><g fill="#6d123f" fill-opacity="1"><g transform="translate(203.476154, 116.022359)"><g><path d="M 16.761719 -14.628906 C 16.832031 -15.851562 16.867188 -16.832031 16.867188 -17.566406 C 16.867188 -20.332031 16.273438 -22.398438 15.082031 -23.761719 C 14.699219 -24.285156 14.136719 -24.601562 13.402344 -24.671875 C 12.386719 -24.742188 11.757812 -24.847656 11.511719 -24.949219 C 9.761719 -24.636719 8.117188 -23.621094 6.542969 -21.90625 C 5.320312 -20.507812 4.269531 -18.863281 3.429688 -16.9375 C 1.503906 -13.472656 0.59375 -9.519531 0.699219 -5.109375 C 1.15625 -3.535156 1.574219 -2.449219 1.960938 -1.785156 C 2.625 -0.59375 3.535156 0.140625 4.621094 0.421875 C 5.320312 0.523438 5.914062 0.59375 6.367188 0.59375 C 7.453125 0.59375 8.292969 0.316406 8.886719 -0.246094 C 10.21875 -1.015625 11.375 -2.132812 12.386719 -3.640625 C 13.261719 -5.003906 14.101562 -6.335938 14.941406 -7.699219 C 15.746094 -10.742188 16.378906 -13.054688 16.761719 -14.628906 Z M 13.472656 -16.449219 C 12.878906 -13.367188 12.527344 -11.546875 12.457031 -10.988281 L 11.09375 -6.789062 C 10.570312 -5.144531 9.9375 -3.8125 9.203125 -2.835938 C 9.167969 -2.835938 8.75 -2.484375 7.945312 -1.785156 C 7.453125 -1.363281 7 -1.15625 6.578125 -1.15625 C 6.402344 -1.15625 6.230469 -1.191406 6.054688 -1.261719 C 5.109375 -1.398438 4.445312 -1.960938 4.058594 -2.972656 L 3.429688 -5.597656 C 3.605469 -5.949219 3.710938 -6.367188 3.710938 -6.824219 L 3.710938 -7.347656 C 3.675781 -7.59375 3.675781 -7.804688 3.675781 -7.910156 C 3.675781 -8.292969 3.710938 -8.609375 3.8125 -8.886719 C 4.550781 -11.441406 5.25 -14.03125 5.984375 -16.585938 C 7 -19.527344 8.433594 -21.695312 10.359375 -23.132812 C 10.601562 -23.304688 10.847656 -23.410156 11.164062 -23.410156 C 11.410156 -23.410156 12.074219 -23.132812 13.121094 -22.605469 C 13.472656 -21.90625 13.648438 -20.925781 13.648438 -19.667969 C 13.648438 -19.210938 13.613281 -18.652344 13.578125 -17.988281 C 13.507812 -17.113281 13.472656 -16.621094 13.472656 -16.449219 Z M 13.472656 -16.449219 "/></g></g></g><g fill="#6d123f" fill-opacity="1"><g transform="translate(187.957373, 164.592209)"><g><path d="M 16.515625 -21.207031 C 15.746094 -22.992188 14.207031 -23.902344 11.933594 -23.902344 C 9.867188 -23.902344 8.082031 -23.304688 6.578125 -22.082031 C 4.898438 -20.714844 3.988281 -19.667969 3.8125 -18.933594 C 4.058594 -18.617188 4.375 -18.511719 4.757812 -18.582031 C 6.265625 -19.945312 7.105469 -20.714844 7.277344 -20.855469 C 8.292969 -21.589844 9.34375 -22.011719 10.359375 -22.082031 C 11.863281 -21.765625 12.878906 -21.101562 13.332031 -20.015625 C 13.4375 -19.84375 13.472656 -19.5625 13.507812 -19.246094 C 13.507812 -18.617188 13.578125 -18.230469 13.753906 -18.058594 C 13.332031 -16.449219 12.351562 -14.871094 10.8125 -13.296875 C 10.464844 -12.914062 8.992188 -11.617188 6.367188 -9.414062 C 4.550781 -7.839844 3.253906 -6.4375 2.519531 -5.214844 C 1.996094 -4.480469 1.503906 -3.78125 0.980469 -3.078125 C 0.386719 -2.203125 0.0703125 -1.433594 0.0703125 -0.769531 C 0.0703125 -0.246094 0.210938 0.210938 0.523438 0.664062 C 1.085938 0.839844 1.820312 0.875 2.695312 0.769531 C 3.988281 0.628906 4.757812 0.558594 4.96875 0.558594 C 5.5625 0.558594 6.125 0.664062 6.578125 0.839844 C 6.964844 0.664062 7.488281 0.558594 8.082031 0.558594 C 8.539062 0.558594 9.796875 0.664062 10.253906 0.664062 C 10.8125 0.664062 11.269531 0.558594 11.652344 0.386719 C 12.667969 -1.050781 13.15625 -1.785156 13.191406 -1.820312 C 13.71875 -2.695312 14.03125 -3.535156 14.136719 -4.339844 C 13.996094 -4.550781 13.789062 -4.621094 13.472656 -4.550781 C 12.527344 -3.042969 10.882812 -2.308594 8.46875 -2.308594 C 8.082031 -2.308594 7.523438 -2.308594 6.71875 -2.34375 C 5.949219 -2.378906 5.390625 -2.414062 5.003906 -2.414062 C 4.199219 -2.414062 3.535156 -2.34375 3.007812 -2.238281 C 2.589844 -2.378906 2.414062 -2.730469 2.519531 -3.253906 C 3.21875 -4.6875 4.339844 -6.054688 5.84375 -7.277344 C 6.578125 -7.839844 8.046875 -8.820312 10.289062 -10.183594 C 12.214844 -11.375 13.613281 -12.421875 14.558594 -13.332031 C 16.0625 -14.417969 16.796875 -16.132812 16.796875 -18.511719 C 16.796875 -19.316406 16.691406 -20.191406 16.515625 -21.207031 Z M 16.515625 -21.207031 "/></g></g></g><g fill="#6d123f" fill-opacity="1"><g transform="translate(203.66588, 164.592209)"><g><path d="M 16.238281 -23.691406 C 15.992188 -23.972656 15.78125 -24.144531 15.609375 -24.179688 C 15.222656 -24.285156 14.871094 -24.320312 14.558594 -24.320312 C 13.789062 -24.320312 13.226562 -24.109375 12.84375 -23.691406 L 10.953125 -20.960938 C 10.183594 -19.875 9.449219 -19.003906 8.75 -18.300781 C 8.574219 -17.742188 8.046875 -17.042969 7.242188 -16.203125 C 6.648438 -15.609375 5.808594 -14.628906 4.722656 -13.261719 C 3.640625 -11.933594 2.835938 -10.953125 2.238281 -10.324219 C 1.539062 -9.484375 0.628906 -8.644531 0.628906 -7.839844 C 0.628906 -7.699219 0.664062 -7.558594 0.699219 -7.417969 C 0.804688 -6.894531 1.191406 -6.683594 1.785156 -6.789062 C 2.519531 -6.894531 3.007812 -6.859375 3.183594 -6.753906 C 3.535156 -6.71875 4.058594 -6.789062 4.757812 -6.894531 C 5.460938 -7 5.949219 -7.070312 6.265625 -7.070312 C 6.929688 -7.070312 7.523438 -6.894531 7.980469 -6.542969 C 8.082031 -6.089844 8.152344 -5.773438 8.152344 -5.527344 C 8.152344 -5.144531 8.015625 -4.863281 7.734375 -4.722656 C 7.734375 -4.128906 7.453125 -3.324219 6.894531 -2.308594 C 6.367188 -1.292969 6.089844 -0.558594 6.089844 -0.0703125 C 6.089844 0.421875 6.265625 0.875 6.578125 1.328125 C 6.929688 1.398438 7.277344 1.433594 7.59375 1.433594 C 8.398438 1.433594 8.957031 1.191406 9.273438 0.664062 C 9.796875 -0.875 10.113281 -2.238281 10.21875 -3.394531 C 10.5 -3.710938 10.707031 -4.234375 10.882812 -5.003906 C 11.058594 -5.808594 11.269531 -6.367188 11.511719 -6.683594 C 12.039062 -6.578125 12.597656 -6.507812 13.15625 -6.507812 C 14.242188 -6.507812 15.152344 -6.71875 15.816406 -7.175781 C 15.886719 -7.417969 15.921875 -7.664062 15.921875 -7.839844 C 15.921875 -8.433594 15.46875 -8.679688 14.523438 -8.574219 C 13.332031 -8.398438 12.597656 -8.433594 12.351562 -8.644531 C 12.109375 -8.855469 12.003906 -9.097656 12.003906 -9.414062 C 12.003906 -9.867188 12.527344 -11.058594 12.527344 -11.476562 C 12.949219 -13.261719 13.542969 -15.152344 14.277344 -17.148438 C 14.3125 -17.953125 14.628906 -19.035156 15.222656 -20.402344 C 15.851562 -21.765625 16.203125 -22.886719 16.238281 -23.691406 Z M 11.511719 -17.882812 C 11.058594 -16.832031 10.570312 -15.363281 10.078125 -13.4375 C 9.484375 -11.199219 9.0625 -9.660156 8.75 -8.855469 L 8.117188 -8.644531 L 3.007812 -8.855469 C 2.941406 -9.027344 2.90625 -9.167969 2.90625 -9.273438 C 2.90625 -9.519531 3.113281 -9.796875 3.570312 -10.113281 C 4.023438 -10.429688 4.269531 -10.707031 4.339844 -10.953125 C 5.003906 -11.546875 5.808594 -12.492188 6.753906 -13.789062 C 7.839844 -15.257812 8.609375 -16.238281 9.0625 -16.726562 C 9.378906 -16.761719 9.796875 -17.113281 10.253906 -17.847656 C 10.742188 -18.582031 11.058594 -18.96875 11.164062 -18.96875 C 11.339844 -18.96875 11.441406 -18.617188 11.511719 -17.882812 Z M 11.511719 -17.882812 "/></g></g></g><g clip-path="url(#a3b2b0fd17)"><path fill="#a91b60" d="M 216.429688 360.757812 C 200.601562 363.671875 198.242188 366.035156 195.328125 381.863281 C 192.414062 366.035156 190.050781 363.671875 174.222656 360.757812 C 190.050781 357.84375 192.414062 355.484375 195.328125 339.65625 C 198.242188 355.484375 200.601562 357.84375 216.429688 360.757812 Z M 216.429688 360.757812 " fill-opacity="1" fill-rule="nonzero"/></g><g clip-path="url(#26783239b9)"><path fill="#a91b60" d="M 379.707031 263.851562 C 367.445312 266.109375 365.613281 267.941406 363.355469 280.203125 C 361.097656 267.941406 359.269531 266.109375 347.003906 263.851562 C 359.269531 261.59375 361.097656 259.765625 363.355469 247.503906 C 365.613281 259.765625 367.445312 261.59375 379.707031 263.851562 Z M 379.707031 263.851562 " fill-opacity="1" fill-rule="nonzero"/></g><g clip-path="url(#bef3dcd10e)"><path fill="#a91b60" d="M 466.535156 360.757812 C 450.703125 363.671875 448.34375 366.035156 445.429688 381.863281 C 442.515625 366.035156 440.152344 363.671875 424.324219 360.757812 C 440.152344 357.84375 442.515625 355.484375 445.429688 339.65625 C 448.34375 355.484375 450.703125 357.84375 466.535156 360.757812 Z M 466.535156 360.757812 " fill-opacity="1" fill-rule="nonzero"/></g></svg>