<svg xmlns="http://www.w3.org/2000/svg" xmlns:xlink="http://www.w3.org/1999/xlink" width="951" zoomAndPan="magnify" viewBox="0 0 713.25 98.249997" height="131" preserveAspectRatio="xMidYMid meet" version="1.0"><defs><g/><clipPath id="df9c6c773b"><path d="M 2.347656 0 L 710 0 L 710 84.109375 L 2.347656 84.109375 Z M 2.347656 0 " clip-rule="nonzero"/></clipPath><clipPath id="b550fde9ce"><path d="M 669.171875 0 C 691.652344 0 709.878906 18.828125 709.878906 42.054688 C 709.878906 65.28125 691.652344 84.109375 669.171875 84.109375 L 43.054688 84.109375 C 20.574219 84.109375 2.347656 65.28125 2.347656 42.054688 C 2.347656 18.828125 20.574219 0 43.054688 0 Z M 669.171875 0 " clip-rule="nonzero"/></clipPath></defs><g fill="#6d123f" fill-opacity="1"><g transform="translate(122.912923, 63.073332)"><g><path d="M 4.949219 -30.851562 C 4.949219 -24.289062 10.992188 -21.007812 17.152344 -18.246094 C 30.5625 -12.085938 31.597656 -6.160156 27.800781 -2.992188 C 20.546875 3.109375 7.65625 -1.898438 2.015625 -16.175781 L 2.015625 -8.171875 C 8.519531 0.171875 21.699219 2.476562 28.261719 -2.53125 C 30.332031 -4.203125 31.597656 -6.621094 31.597656 -9.726562 C 31.597656 -16.519531 25.613281 -19.800781 19.339844 -22.503906 C 5.296875 -29.066406 4.835938 -35.398438 9.324219 -38.332031 C 14.621094 -42.015625 25.09375 -41.152344 30.910156 -29.355469 L 30.910156 -35.398438 C 25.957031 -43.398438 4.949219 -43.6875 4.949219 -30.851562 Z M 4.949219 -30.851562 "/></g></g></g><g fill="#6d123f" fill-opacity="1"><g transform="translate(156.526083, 63.073332)"><g><path d="M 6.445312 -27.109375 C 8.117188 -20.316406 15.023438 -20.664062 18.359375 -16.863281 L 18.359375 -21.410156 C 10.476562 -21.410156 6.445312 -23.023438 6.445312 -30.910156 L 6.445312 -40.234375 L 11.167969 -40.234375 C 18.1875 -40.234375 21.179688 -39.945312 25.269531 -36.03125 L 25.269531 -40.636719 L 2.015625 -40.636719 L 2.015625 0 L 24.921875 0 L 26.246094 -8.519531 C 24.175781 -2.707031 21.179688 -0.460938 16.175781 -0.460938 L 6.445312 -0.460938 Z M 6.445312 -27.109375 "/></g></g></g><g fill="#6d123f" fill-opacity="1"><g transform="translate(184.786469, 63.073332)"><g><path d="M 6.445312 -27.109375 C 8.117188 -20.316406 15.023438 -20.664062 18.359375 -16.863281 L 18.359375 -21.410156 C 10.476562 -21.410156 6.445312 -23.023438 6.445312 -30.910156 L 6.445312 -40.234375 L 11.167969 -40.234375 C 18.1875 -40.234375 21.179688 -39.945312 25.269531 -36.03125 L 25.269531 -40.636719 L 2.015625 -40.636719 L 2.015625 0 L 24.921875 0 L 26.246094 -8.519531 C 24.175781 -2.707031 21.179688 -0.460938 16.175781 -0.460938 L 6.445312 -0.460938 Z M 6.445312 -27.109375 "/></g></g></g><g fill="#6d123f" fill-opacity="1"><g transform="translate(213.046855, 63.073332)"><g/></g></g><g fill="#6d123f" fill-opacity="1"><g transform="translate(229.105198, 63.073332)"><g><path d="M 36.894531 -40.636719 C 24.691406 -40.636719 21.007812 -23.542969 19.914062 -10.304688 L 6.792969 -40.636719 L 2.015625 -40.636719 L 2.015625 0 L 2.359375 0 L 2.359375 -39.601562 L 3.972656 -35.800781 L 19.511719 0 L 20.085938 0 C 20.085938 -10.476562 21.007812 -34.417969 32.519531 -39.253906 L 32.519531 0 L 36.894531 0 Z M 36.894531 -40.636719 "/></g></g></g><g fill="#6d123f" fill-opacity="1"><g transform="translate(268.013584, 63.073332)"><g><path d="M 30.503906 -37.414062 C 30.910156 -38.449219 33.097656 -40.578125 34.59375 -40.695312 L 28.089844 -40.695312 C 29.183594 -40.578125 31.023438 -39.484375 29.816406 -37.125 L 20.316406 -18.707031 L 16.058594 -25.785156 L 7.195312 -40.695312 L 2.015625 -40.695312 L 16.058594 -17.09375 L 16.058594 0 L 20.605469 0 L 20.605469 -18.304688 Z M 30.503906 -37.414062 "/></g></g></g><g fill="#6d123f" fill-opacity="1"><g transform="translate(304.6197, 63.073332)"><g/></g></g><g fill="#6d123f" fill-opacity="1"><g transform="translate(320.678032, 63.073332)"><g><path d="M 15.886719 -22.101562 C 21.816406 -22.101562 27.683594 -25.039062 27.683594 -31.425781 C 27.683594 -38.046875 20.664062 -40.636719 12.203125 -40.636719 L 2.015625 -40.636719 L 2.015625 0 L 6.621094 0 L 6.621094 -32.058594 C 7.023438 -29.816406 7.769531 -27.859375 8.863281 -26.304688 C 10.707031 -23.65625 13.125 -22.101562 15.886719 -22.101562 Z M 23.082031 -31.425781 C 23.082031 -25.152344 19.742188 -22.5625 15.886719 -22.5625 C 13.179688 -22.5625 10.878906 -24 9.210938 -26.59375 C 7.484375 -29.007812 6.621094 -32.460938 6.621094 -36.433594 L 6.621094 -40.234375 L 12.203125 -40.234375 C 17.613281 -40.234375 23.082031 -37.988281 23.082031 -31.425781 Z M 23.082031 -31.425781 "/></g></g></g><g fill="#6d123f" fill-opacity="1"><g transform="translate(350.377342, 63.073332)"><g><path d="M 17.210938 -40.058594 C 6.332031 -37.125 -0.171875 -25.957031 2.707031 -15.023438 C 5.699219 -3.972656 16.808594 2.53125 27.628906 -0.519531 C 38.5625 -3.394531 45.066406 -14.734375 42.015625 -25.5 C 39.195312 -36.433594 27.972656 -43.109375 17.210938 -40.058594 Z M 17.265625 -39.601562 C 27.167969 -42.363281 35.226562 -33.210938 37.585938 -24.347656 C 39.832031 -15.597656 37.355469 -3.453125 27.511719 -0.921875 C 17.785156 1.667969 9.667969 -7.539062 7.367188 -16.230469 C 5.007812 -25.039062 7.484375 -37.066406 17.265625 -39.601562 Z M 17.265625 -39.601562 "/></g></g></g><g fill="#6d123f" fill-opacity="1"><g transform="translate(395.214082, 63.073332)"><g><path d="M 18.304688 -22.449219 C 23.3125 -23.082031 27.570312 -25.957031 27.570312 -31.597656 C 27.570312 -38.160156 20.605469 -40.695312 12.144531 -40.695312 L 2.015625 -40.695312 L 2.015625 0 L 6.5625 0 L 6.5625 -32.289062 C 7.078125 -29.871094 7.769531 -28.03125 8.804688 -26.363281 C 10.53125 -23.65625 13.007812 -22.21875 15.828125 -22.21875 C 28.835938 -22.21875 15.828125 0 36.78125 0 L 36.78125 -0.460938 C 32.921875 -0.460938 30.792969 -4.835938 28.605469 -9.84375 C 26.304688 -15.253906 24.289062 -21.066406 18.304688 -22.449219 Z M 23.023438 -31.597656 C 23.023438 -25.554688 19.914062 -22.851562 16.230469 -22.621094 L 15.828125 -22.621094 C 13.179688 -22.621094 10.820312 -24.289062 9.210938 -26.648438 C 7.597656 -29.183594 6.5625 -32.460938 6.5625 -36.664062 L 6.5625 -40.234375 L 12.144531 -40.234375 C 17.726562 -40.234375 23.023438 -38.160156 23.023438 -31.597656 Z M 23.023438 -31.597656 "/></g></g></g><g fill="#6d123f" fill-opacity="1"><g transform="translate(434.007372, 63.073332)"><g><path d="M 15.714844 0 L 20.144531 0 L 20.144531 -40.234375 C 26.246094 -40.175781 29.929688 -39.832031 33.84375 -36.203125 L 33.84375 -40.695312 L 2.015625 -40.695312 L 2.015625 -36.203125 C 5.8125 -39.832031 9.554688 -40.175781 15.714844 -40.234375 Z M 15.714844 0 "/></g></g></g><g fill="#6d123f" fill-opacity="1"><g transform="translate(469.865252, 63.073332)"><g><path d="M 6.445312 -27.109375 C 8.171875 -20.316406 14.964844 -20.664062 18.476562 -16.863281 L 18.476562 -21.410156 C 10.476562 -21.410156 6.445312 -23.023438 6.445312 -30.910156 L 6.445312 -40.234375 L 11.109375 -40.234375 C 18.246094 -40.234375 21.238281 -39.945312 25.269531 -36.03125 L 25.269531 -40.636719 L 2.015625 -40.636719 L 2.015625 0 L 6.445312 0 Z M 6.445312 -27.109375 "/></g></g></g><g fill="#6d123f" fill-opacity="1"><g transform="translate(497.147164, 63.073332)"><g><path d="M 17.210938 -40.058594 C 6.332031 -37.125 -0.171875 -25.957031 2.707031 -15.023438 C 5.699219 -3.972656 16.808594 2.53125 27.628906 -0.519531 C 38.5625 -3.394531 45.066406 -14.734375 42.015625 -25.5 C 39.195312 -36.433594 27.972656 -43.109375 17.210938 -40.058594 Z M 17.265625 -39.601562 C 27.167969 -42.363281 35.226562 -33.210938 37.585938 -24.347656 C 39.832031 -15.597656 37.355469 -3.453125 27.511719 -0.921875 C 17.785156 1.667969 9.667969 -7.539062 7.367188 -16.230469 C 5.007812 -25.039062 7.484375 -37.066406 17.265625 -39.601562 Z M 17.265625 -39.601562 "/></g></g></g><g fill="#6d123f" fill-opacity="1"><g transform="translate(541.983926, 63.073332)"><g><path d="M 26.363281 -8.519531 C 24.230469 -2.707031 21.296875 -0.460938 16.347656 -0.460938 L 6.621094 -0.460938 L 6.621094 -40.636719 L 2.015625 -40.636719 L 2.015625 0 L 24.980469 0 Z M 26.363281 -8.519531 "/></g></g></g><g fill="#6d123f" fill-opacity="1"><g transform="translate(570.35942, 63.073332)"><g><path d="M 2.015625 0 L 6.332031 0 L 6.332031 -40.636719 L 2.015625 -40.636719 Z M 2.015625 0 "/></g></g></g><g fill="#6d123f" fill-opacity="1"><g transform="translate(578.70515, 63.073332)"><g><path d="M 17.210938 -40.058594 C 6.332031 -37.125 -0.171875 -25.957031 2.707031 -15.023438 C 5.699219 -3.972656 16.808594 2.53125 27.628906 -0.519531 C 38.5625 -3.394531 45.066406 -14.734375 42.015625 -25.5 C 39.195312 -36.433594 27.972656 -43.109375 17.210938 -40.058594 Z M 17.265625 -39.601562 C 27.167969 -42.363281 35.226562 -33.210938 37.585938 -24.347656 C 39.832031 -15.597656 37.355469 -3.453125 27.511719 -0.921875 C 17.785156 1.667969 9.667969 -7.539062 7.367188 -16.230469 C 5.007812 -25.039062 7.484375 -37.066406 17.265625 -39.601562 Z M 17.265625 -39.601562 "/></g></g></g><g clip-path="url(#df9c6c773b)"><g clip-path="url(#b550fde9ce)"><path stroke-linecap="butt" transform="matrix(0.744318, 0, 0, 0.744318, 2.348584, 0.000000000000015866)" fill="none" stroke-linejoin="miter" d="M 895.884791 -0.000000000000021316 C 926.087561 -0.000000000000021316 950.575158 25.295803 950.575158 56.500958 C 950.575158 87.706113 926.087561 113.001917 895.884791 113.001917 L 54.68912 113.001917 C 24.486351 113.001917 -0.0012466 87.706113 -0.0012466 56.500958 C -0.0012466 25.295803 24.486351 -0.000000000000021316 54.68912 -0.000000000000021316 Z M 895.884791 -0.000000000000021316 " stroke="#9b5098" stroke-width="4" stroke-opacity="1" stroke-miterlimit="4"/></g></g></svg>