<svg xmlns="http://www.w3.org/2000/svg" xmlns:xlink="http://www.w3.org/1999/xlink" width="842" zoomAndPan="magnify" viewBox="0 0 631.5 116.249996" height="155" preserveAspectRatio="xMidYMid meet" version="1.0"><defs><g/><clipPath id="0b29faa3c1"><path d="M 1.777344 7.875 L 29.640625 7.875 L 29.640625 35.738281 L 1.777344 35.738281 Z M 1.777344 7.875 " clip-rule="nonzero"/></clipPath><clipPath id="f907adc7a8"><path d="M 372.554688 87.375 L 400.421875 87.375 L 400.421875 115.242188 L 372.554688 115.242188 Z M 372.554688 87.375 " clip-rule="nonzero"/></clipPath><clipPath id="5abb085b3c"><path d="M 15.808594 31.261719 L 386.488281 31.261719 L 386.488281 92.5625 L 15.808594 92.5625 Z M 15.808594 31.261719 " clip-rule="nonzero"/></clipPath><clipPath id="de39b3d7c6"><path d="M 362.496094 31.261719 C 375.804688 31.261719 386.589844 44.984375 386.589844 61.910156 C 386.589844 78.839844 375.804688 92.5625 362.496094 92.5625 L 39.898438 92.5625 C 26.59375 92.5625 15.808594 78.839844 15.808594 61.910156 C 15.808594 44.984375 26.59375 31.261719 39.898438 31.261719 Z M 362.496094 31.261719 " clip-rule="nonzero"/></clipPath><linearGradient x1="0" gradientTransform="matrix(0.239456, 0, 0, 0.239456, 15.808376, 31.261356)" y1="0.00000601258" x2="0" gradientUnits="userSpaceOnUse" y2="255.999993" id="fa189cc81f"><stop stop-opacity="1" stop-color="rgb(93.299866%, 64.698792%, 59.999084%)" offset="0"/><stop stop-opacity="1" stop-color="rgb(93.171692%, 64.569092%, 59.997559%)" offset="0.0078125"/><stop stop-opacity="1" stop-color="rgb(92.918396%, 64.308167%, 59.994507%)" offset="0.015625"/><stop stop-opacity="1" stop-color="rgb(92.663574%, 64.048767%, 59.991455%)" offset="0.0234375"/><stop stop-opacity="1" stop-color="rgb(92.410278%, 63.787842%, 59.988403%)" offset="0.03125"/><stop stop-opacity="1" stop-color="rgb(92.156982%, 63.528442%, 59.985352%)" offset="0.0390625"/><stop stop-opacity="1" stop-color="rgb(91.902161%, 63.267517%, 59.9823%)" offset="0.046875"/><stop stop-opacity="1" stop-color="rgb(91.648865%, 63.008118%, 59.979248%)" offset="0.0546875"/><stop stop-opacity="1" stop-color="rgb(91.394043%, 62.747192%, 59.976196%)" offset="0.0625"/><stop stop-opacity="1" stop-color="rgb(91.140747%, 62.487793%, 59.973145%)" offset="0.0703125"/><stop stop-opacity="1" stop-color="rgb(90.887451%, 62.226868%, 59.970093%)" offset="0.078125"/><stop stop-opacity="1" stop-color="rgb(90.632629%, 61.967468%, 59.967041%)" offset="0.0859375"/><stop stop-opacity="1" stop-color="rgb(90.379333%, 61.706543%, 59.963989%)" offset="0.09375"/><stop stop-opacity="1" stop-color="rgb(90.124512%, 61.447144%, 59.959412%)" offset="0.101562"/><stop stop-opacity="1" stop-color="rgb(89.871216%, 61.186218%, 59.95636%)" offset="0.109375"/><stop stop-opacity="1" stop-color="rgb(89.61792%, 60.926819%, 59.953308%)" offset="0.117188"/><stop stop-opacity="1" stop-color="rgb(89.363098%, 60.665894%, 59.950256%)" offset="0.125"/><stop stop-opacity="1" stop-color="rgb(89.109802%, 60.406494%, 59.947205%)" offset="0.132813"/><stop stop-opacity="1" stop-color="rgb(88.85498%, 60.145569%, 59.944153%)" offset="0.140625"/><stop stop-opacity="1" stop-color="rgb(88.601685%, 59.886169%, 59.941101%)" offset="0.148438"/><stop stop-opacity="1" stop-color="rgb(88.348389%, 59.625244%, 59.938049%)" offset="0.15625"/><stop stop-opacity="1" stop-color="rgb(88.093567%, 59.365845%, 59.934998%)" offset="0.164062"/><stop stop-opacity="1" stop-color="rgb(87.840271%, 59.104919%, 59.931946%)" offset="0.171875"/><stop stop-opacity="1" stop-color="rgb(87.585449%, 58.84552%, 59.928894%)" offset="0.179688"/><stop stop-opacity="1" stop-color="rgb(87.332153%, 58.584595%, 59.925842%)" offset="0.1875"/><stop stop-opacity="1" stop-color="rgb(87.078857%, 58.325195%, 59.922791%)" offset="0.195312"/><stop stop-opacity="1" stop-color="rgb(86.824036%, 58.06427%, 59.919739%)" offset="0.203125"/><stop stop-opacity="1" stop-color="rgb(86.57074%, 57.804871%, 59.916687%)" offset="0.210937"/><stop stop-opacity="1" stop-color="rgb(86.315918%, 57.543945%, 59.913635%)" offset="0.21875"/><stop stop-opacity="1" stop-color="rgb(86.062622%, 57.284546%, 59.910583%)" offset="0.226563"/><stop stop-opacity="1" stop-color="rgb(85.809326%, 57.023621%, 59.907532%)" offset="0.234375"/><stop stop-opacity="1" stop-color="rgb(85.554504%, 56.764221%, 59.90448%)" offset="0.242188"/><stop stop-opacity="1" stop-color="rgb(85.301208%, 56.503296%, 59.901428%)" offset="0.25"/><stop stop-opacity="1" stop-color="rgb(85.046387%, 56.243896%, 59.898376%)" offset="0.257812"/><stop stop-opacity="1" stop-color="rgb(84.793091%, 55.982971%, 59.893799%)" offset="0.265625"/><stop stop-opacity="1" stop-color="rgb(84.539795%, 55.723572%, 59.890747%)" offset="0.273438"/><stop stop-opacity="1" stop-color="rgb(84.284973%, 55.462646%, 59.887695%)" offset="0.28125"/><stop stop-opacity="1" stop-color="rgb(84.031677%, 55.203247%, 59.884644%)" offset="0.289063"/><stop stop-opacity="1" stop-color="rgb(83.776855%, 54.942322%, 59.881592%)" offset="0.296875"/><stop stop-opacity="1" stop-color="rgb(83.52356%, 54.682922%, 59.87854%)" offset="0.304688"/><stop stop-opacity="1" stop-color="rgb(83.270264%, 54.421997%, 59.875488%)" offset="0.3125"/><stop stop-opacity="1" stop-color="rgb(83.015442%, 54.162598%, 59.872437%)" offset="0.320312"/><stop stop-opacity="1" stop-color="rgb(82.762146%, 53.901672%, 59.869385%)" offset="0.328125"/><stop stop-opacity="1" stop-color="rgb(82.507324%, 53.642273%, 59.866333%)" offset="0.335938"/><stop stop-opacity="1" stop-color="rgb(82.254028%, 53.381348%, 59.863281%)" offset="0.34375"/><stop stop-opacity="1" stop-color="rgb(82.000732%, 53.121948%, 59.860229%)" offset="0.351562"/><stop stop-opacity="1" stop-color="rgb(81.745911%, 52.861023%, 59.857178%)" offset="0.359375"/><stop stop-opacity="1" stop-color="rgb(81.492615%, 52.601624%, 59.854126%)" offset="0.367188"/><stop stop-opacity="1" stop-color="rgb(81.237793%, 52.340698%, 59.851074%)" offset="0.375"/><stop stop-opacity="1" stop-color="rgb(80.984497%, 52.081299%, 59.848022%)" offset="0.382812"/><stop stop-opacity="1" stop-color="rgb(80.731201%, 51.820374%, 59.844971%)" offset="0.390625"/><stop stop-opacity="1" stop-color="rgb(80.476379%, 51.560974%, 59.841919%)" offset="0.398437"/><stop stop-opacity="1" stop-color="rgb(80.223083%, 51.300049%, 59.838867%)" offset="0.40625"/><stop stop-opacity="1" stop-color="rgb(79.968262%, 51.040649%, 59.835815%)" offset="0.414062"/><stop stop-opacity="1" stop-color="rgb(79.714966%, 50.78125%, 59.832764%)" offset="0.421875"/><stop stop-opacity="1" stop-color="rgb(79.46167%, 50.520325%, 59.828186%)" offset="0.429688"/><stop stop-opacity="1" stop-color="rgb(79.206848%, 50.260925%, 59.825134%)" offset="0.4375"/><stop stop-opacity="1" stop-color="rgb(78.953552%, 50%, 59.822083%)" offset="0.445312"/><stop stop-opacity="1" stop-color="rgb(78.69873%, 49.740601%, 59.819031%)" offset="0.453125"/><stop stop-opacity="1" stop-color="rgb(78.445435%, 49.479675%, 59.815979%)" offset="0.460938"/><stop stop-opacity="1" stop-color="rgb(78.192139%, 49.220276%, 59.812927%)" offset="0.46875"/><stop stop-opacity="1" stop-color="rgb(77.937317%, 48.959351%, 59.809875%)" offset="0.476562"/><stop stop-opacity="1" stop-color="rgb(77.684021%, 48.699951%, 59.806824%)" offset="0.484375"/><stop stop-opacity="1" stop-color="rgb(77.429199%, 48.439026%, 59.803772%)" offset="0.492188"/><stop stop-opacity="1" stop-color="rgb(77.175903%, 48.179626%, 59.80072%)" offset="0.5"/><stop stop-opacity="1" stop-color="rgb(76.922607%, 47.918701%, 59.797668%)" offset="0.507812"/><stop stop-opacity="1" stop-color="rgb(76.667786%, 47.659302%, 59.794617%)" offset="0.515625"/><stop stop-opacity="1" stop-color="rgb(76.41449%, 47.398376%, 59.791565%)" offset="0.523438"/><stop stop-opacity="1" stop-color="rgb(76.159668%, 47.138977%, 59.788513%)" offset="0.53125"/><stop stop-opacity="1" stop-color="rgb(75.906372%, 46.878052%, 59.785461%)" offset="0.539062"/><stop stop-opacity="1" stop-color="rgb(75.653076%, 46.618652%, 59.78241%)" offset="0.546875"/><stop stop-opacity="1" stop-color="rgb(75.398254%, 46.357727%, 59.779358%)" offset="0.554688"/><stop stop-opacity="1" stop-color="rgb(75.144958%, 46.098328%, 59.776306%)" offset="0.5625"/><stop stop-opacity="1" stop-color="rgb(74.890137%, 45.837402%, 59.773254%)" offset="0.570312"/><stop stop-opacity="1" stop-color="rgb(74.636841%, 45.578003%, 59.770203%)" offset="0.578125"/><stop stop-opacity="1" stop-color="rgb(74.383545%, 45.317078%, 59.767151%)" offset="0.585938"/><stop stop-opacity="1" stop-color="rgb(74.128723%, 45.057678%, 59.762573%)" offset="0.59375"/><stop stop-opacity="1" stop-color="rgb(73.875427%, 44.796753%, 59.759521%)" offset="0.601562"/><stop stop-opacity="1" stop-color="rgb(73.620605%, 44.537354%, 59.75647%)" offset="0.609375"/><stop stop-opacity="1" stop-color="rgb(73.36731%, 44.276428%, 59.753418%)" offset="0.617188"/><stop stop-opacity="1" stop-color="rgb(73.114014%, 44.017029%, 59.750366%)" offset="0.625"/><stop stop-opacity="1" stop-color="rgb(72.859192%, 43.756104%, 59.747314%)" offset="0.632813"/><stop stop-opacity="1" stop-color="rgb(72.605896%, 43.496704%, 59.744263%)" offset="0.640625"/><stop stop-opacity="1" stop-color="rgb(72.351074%, 43.235779%, 59.741211%)" offset="0.648438"/><stop stop-opacity="1" stop-color="rgb(72.097778%, 42.976379%, 59.738159%)" offset="0.65625"/><stop stop-opacity="1" stop-color="rgb(71.844482%, 42.715454%, 59.735107%)" offset="0.664063"/><stop stop-opacity="1" stop-color="rgb(71.589661%, 42.456055%, 59.732056%)" offset="0.671875"/><stop stop-opacity="1" stop-color="rgb(71.336365%, 42.195129%, 59.729004%)" offset="0.679688"/><stop stop-opacity="1" stop-color="rgb(71.081543%, 41.93573%, 59.725952%)" offset="0.6875"/><stop stop-opacity="1" stop-color="rgb(70.828247%, 41.674805%, 59.7229%)" offset="0.695312"/><stop stop-opacity="1" stop-color="rgb(70.574951%, 41.415405%, 59.719849%)" offset="0.703125"/><stop stop-opacity="1" stop-color="rgb(70.320129%, 41.15448%, 59.716797%)" offset="0.710938"/><stop stop-opacity="1" stop-color="rgb(70.066833%, 40.895081%, 59.713745%)" offset="0.71875"/><stop stop-opacity="1" stop-color="rgb(69.812012%, 40.634155%, 59.710693%)" offset="0.726562"/><stop stop-opacity="1" stop-color="rgb(69.558716%, 40.374756%, 59.707642%)" offset="0.734375"/><stop stop-opacity="1" stop-color="rgb(69.30542%, 40.113831%, 59.70459%)" offset="0.742188"/><stop stop-opacity="1" stop-color="rgb(69.050598%, 39.854431%, 59.700012%)" offset="0.75"/><stop stop-opacity="1" stop-color="rgb(68.797302%, 39.593506%, 59.69696%)" offset="0.757812"/><stop stop-opacity="1" stop-color="rgb(68.54248%, 39.334106%, 59.693909%)" offset="0.765625"/><stop stop-opacity="1" stop-color="rgb(68.289185%, 39.073181%, 59.690857%)" offset="0.773438"/><stop stop-opacity="1" stop-color="rgb(68.035889%, 38.813782%, 59.687805%)" offset="0.78125"/><stop stop-opacity="1" stop-color="rgb(67.781067%, 38.552856%, 59.684753%)" offset="0.789062"/><stop stop-opacity="1" stop-color="rgb(67.527771%, 38.293457%, 59.681702%)" offset="0.796875"/><stop stop-opacity="1" stop-color="rgb(67.272949%, 38.032532%, 59.67865%)" offset="0.804688"/><stop stop-opacity="1" stop-color="rgb(67.019653%, 37.773132%, 59.675598%)" offset="0.8125"/><stop stop-opacity="1" stop-color="rgb(66.766357%, 37.512207%, 59.672546%)" offset="0.820312"/><stop stop-opacity="1" stop-color="rgb(66.511536%, 37.252808%, 59.669495%)" offset="0.828125"/><stop stop-opacity="1" stop-color="rgb(66.25824%, 36.991882%, 59.666443%)" offset="0.835938"/><stop stop-opacity="1" stop-color="rgb(66.003418%, 36.732483%, 59.663391%)" offset="0.84375"/><stop stop-opacity="1" stop-color="rgb(65.750122%, 36.471558%, 59.660339%)" offset="0.851562"/><stop stop-opacity="1" stop-color="rgb(65.496826%, 36.212158%, 59.657288%)" offset="0.859375"/><stop stop-opacity="1" stop-color="rgb(65.242004%, 35.951233%, 59.654236%)" offset="0.867188"/><stop stop-opacity="1" stop-color="rgb(64.988708%, 35.691833%, 59.651184%)" offset="0.875"/><stop stop-opacity="1" stop-color="rgb(64.733887%, 35.430908%, 59.648132%)" offset="0.882812"/><stop stop-opacity="1" stop-color="rgb(64.480591%, 35.171509%, 59.645081%)" offset="0.890625"/><stop stop-opacity="1" stop-color="rgb(64.227295%, 34.910583%, 59.642029%)" offset="0.898438"/><stop stop-opacity="1" stop-color="rgb(63.972473%, 34.651184%, 59.638977%)" offset="0.90625"/><stop stop-opacity="1" stop-color="rgb(63.719177%, 34.390259%, 59.634399%)" offset="0.914062"/><stop stop-opacity="1" stop-color="rgb(63.464355%, 34.130859%, 59.631348%)" offset="0.921875"/><stop stop-opacity="1" stop-color="rgb(63.21106%, 33.869934%, 59.628296%)" offset="0.929688"/><stop stop-opacity="1" stop-color="rgb(62.957764%, 33.610535%, 59.625244%)" offset="0.9375"/><stop stop-opacity="1" stop-color="rgb(62.702942%, 33.349609%, 59.622192%)" offset="0.945312"/><stop stop-opacity="1" stop-color="rgb(62.449646%, 33.09021%, 59.619141%)" offset="0.953125"/><stop stop-opacity="1" stop-color="rgb(62.194824%, 32.829285%, 59.616089%)" offset="0.960938"/><stop stop-opacity="1" stop-color="rgb(61.941528%, 32.569885%, 59.613037%)" offset="0.96875"/><stop stop-opacity="1" stop-color="rgb(61.688232%, 32.30896%, 59.609985%)" offset="0.976562"/><stop stop-opacity="1" stop-color="rgb(61.433411%, 32.049561%, 59.606934%)" offset="0.984375"/><stop stop-opacity="1" stop-color="rgb(61.180115%, 31.788635%, 59.603882%)" offset="0.992188"/><stop stop-opacity="1" stop-color="rgb(60.925293%, 31.529236%, 59.60083%)" offset="1"/></linearGradient><clipPath id="16131a6920"><path d="M 15.824219 31.261719 L 386.503906 31.261719 L 386.503906 92.464844 L 15.824219 92.464844 Z M 15.824219 31.261719 " clip-rule="nonzero"/></clipPath><clipPath id="603028dae7"><path d="M 362.484375 31.261719 C 375.785156 31.261719 386.570312 44.984375 386.570312 61.910156 C 386.570312 78.835938 375.785156 92.554688 362.484375 92.554688 L 39.914062 92.554688 C 26.609375 92.554688 15.824219 78.835938 15.824219 61.910156 C 15.824219 44.984375 26.609375 31.261719 39.914062 31.261719 Z M 362.484375 31.261719 " clip-rule="nonzero"/></clipPath></defs><g clip-path="url(#0b29faa3c1)"><path fill="#a91b60" d="M 29.832031 21.902344 C 19.3125 23.839844 17.742188 25.410156 15.804688 35.929688 C 13.867188 25.410156 12.296875 23.839844 1.777344 21.902344 C 12.296875 19.964844 13.867188 18.394531 15.804688 7.875 C 17.742188 18.394531 19.3125 19.964844 29.832031 21.902344 Z M 29.832031 21.902344 " fill-opacity="1" fill-rule="nonzero"/></g><g clip-path="url(#f907adc7a8)"><path fill="#a91b60" d="M 400.613281 101.40625 C 390.089844 103.339844 388.519531 104.910156 386.585938 115.433594 C 384.648438 104.910156 383.078125 103.339844 372.554688 101.40625 C 383.078125 99.46875 384.648438 97.898438 386.585938 87.375 C 388.519531 97.898438 390.089844 99.46875 400.613281 101.40625 Z M 400.613281 101.40625 " fill-opacity="1" fill-rule="nonzero"/></g><g clip-path="url(#5abb085b3c)"><g clip-path="url(#de39b3d7c6)"><path fill="url(#fa189cc81f)" d="M 15.808594 31.261719 L 15.808594 92.5625 L 386.488281 92.5625 L 386.488281 31.261719 Z M 15.808594 31.261719 " fill-rule="nonzero"/></g></g><g clip-path="url(#16131a6920)"><g clip-path="url(#603028dae7)"><path stroke-linecap="butt" transform="matrix(0.497576, 0, 0, 0.497576, 15.825071, 31.261357)" fill="none" stroke-linejoin="miter" d="M 696.696117 0.00072637 C 723.42727 0.00072637 745.102662 27.579739 745.102662 61.59621 C 745.102662 95.612681 723.42727 123.183843 696.696117 123.183843 L 48.412682 123.183843 C 21.673679 123.183843 -0.00171376 95.612681 -0.00171376 61.59621 C -0.00171376 27.579739 21.673679 0.00072637 48.412682 0.00072637 Z M 696.696117 0.00072637 " stroke="#9b5098" stroke-width="5.99058" stroke-opacity="1" stroke-miterlimit="4"/></g></g><g fill="#fcfffb" fill-opacity="1"><g transform="translate(70.202232, 80.620356)"><g><path d="M 11.984375 -39.203125 C 12.847656 -39.285156 13.753906 -39.304688 14.703125 -39.265625 C 15.648438 -39.222656 16.65625 -39.125 17.71875 -38.96875 C 19.914062 -38.613281 21.488281 -38.101562 22.4375 -37.4375 C 23.414062 -36.726562 23.492188 -36.117188 22.671875 -35.609375 C 22.359375 -35.410156 21.816406 -35.28125 21.046875 -35.21875 C 20.285156 -35.164062 19.3125 -35.175781 18.125 -35.25 C 17.34375 -35.289062 16.613281 -35.320312 15.9375 -35.34375 C 15.269531 -35.363281 14.679688 -35.375 14.171875 -35.375 C 12.796875 -35.375 11.867188 -35.296875 11.390625 -35.140625 C 10.484375 -34.816406 9.71875 -34.257812 9.09375 -33.46875 C 8.46875 -32.6875 8.070312 -31.765625 7.90625 -30.703125 C 7.675781 -29.203125 8.070312 -27.882812 9.09375 -26.75 C 9.601562 -26.238281 10.507812 -25.675781 11.8125 -25.0625 C 13.113281 -24.457031 14.628906 -23.816406 16.359375 -23.140625 C 17.773438 -22.585938 18.941406 -22.078125 19.859375 -21.609375 C 20.785156 -21.140625 21.546875 -20.6875 22.140625 -20.25 C 22.734375 -19.820312 23.195312 -19.378906 23.53125 -18.921875 C 23.863281 -18.472656 24.148438 -18.007812 24.390625 -17.53125 C 24.785156 -16.75 25.03125 -15.875 25.125 -14.90625 C 25.21875 -13.945312 25.207031 -12.914062 25.09375 -11.8125 C 24.851562 -9.5625 24.222656 -7.648438 23.203125 -6.078125 C 22.535156 -5.015625 21.628906 -4.039062 20.484375 -3.15625 C 19.347656 -2.269531 18.304688 -1.671875 17.359375 -1.359375 C 16.890625 -1.203125 16.328125 -1.082031 15.671875 -1 C 15.023438 -0.925781 14.25 -0.890625 13.34375 -0.890625 C 12.164062 -0.890625 11.179688 -0.945312 10.390625 -1.0625 C 9.609375 -1.175781 8.867188 -1.390625 8.171875 -1.703125 C 7.484375 -2.023438 6.816406 -2.441406 6.171875 -2.953125 C 5.523438 -3.460938 4.765625 -4.113281 3.890625 -4.90625 C 2.867188 -5.8125 2.171875 -6.578125 1.796875 -7.203125 C 1.421875 -7.835938 1.332031 -8.332031 1.53125 -8.6875 C 1.65625 -8.914062 1.863281 -9.117188 2.15625 -9.296875 C 2.445312 -9.472656 2.769531 -9.5625 3.125 -9.5625 C 3.601562 -9.601562 4.132812 -9.445312 4.71875 -9.09375 C 5 -8.9375 5.394531 -8.660156 5.90625 -8.265625 C 6.414062 -7.867188 7.066406 -7.359375 7.859375 -6.734375 C 8.640625 -6.097656 9.460938 -5.515625 10.328125 -4.984375 C 11.191406 -4.453125 12.140625 -4.1875 13.171875 -4.1875 C 14.742188 -4.1875 16.117188 -4.71875 17.296875 -5.78125 C 18.484375 -6.84375 19.332031 -8.066406 19.84375 -9.453125 C 20.46875 -11.253906 20.601562 -12.984375 20.25 -14.640625 C 20.175781 -15.117188 20.078125 -15.601562 19.953125 -16.09375 C 19.835938 -16.582031 19.625 -16.960938 19.3125 -17.234375 C 18.757812 -17.753906 17.988281 -18.25 17 -18.71875 C 16.019531 -19.1875 14.582031 -19.835938 12.6875 -20.671875 C 11.4375 -21.222656 10.460938 -21.675781 9.765625 -22.03125 C 9.078125 -22.382812 8.476562 -22.71875 7.96875 -23.03125 C 7.019531 -23.613281 6.160156 -24.226562 5.390625 -24.875 C 4.628906 -25.53125 4.09375 -26.429688 3.78125 -27.578125 C 3.695312 -27.804688 3.613281 -28.109375 3.53125 -28.484375 C 3.457031 -28.859375 3.421875 -29.300781 3.421875 -29.8125 C 3.421875 -31 3.628906 -32.050781 4.046875 -32.96875 C 4.460938 -33.894531 5.0625 -34.796875 5.84375 -35.671875 C 6.3125 -36.210938 6.765625 -36.679688 7.203125 -37.078125 C 7.640625 -37.472656 8.09375 -37.804688 8.5625 -38.078125 C 9.03125 -38.359375 9.539062 -38.585938 10.09375 -38.765625 C 10.644531 -38.941406 11.273438 -39.085938 11.984375 -39.203125 Z M 11.984375 -39.203125 "/></g></g></g><g fill="#fcfffb" fill-opacity="1"><g transform="translate(97.597007, 80.620356)"><g><path d="M 13.515625 -21.78125 C 13.003906 -22.019531 12.492188 -22.140625 11.984375 -22.140625 C 10.878906 -22.140625 9.859375 -21.664062 8.921875 -20.71875 C 8.367188 -20.050781 7.851562 -19.320312 7.375 -18.53125 C 6.90625 -17.75 6.515625 -16.882812 6.203125 -15.9375 C 5.847656 -14.757812 5.726562 -13.320312 5.84375 -11.625 C 6 -8.71875 6.828125 -6.457031 8.328125 -4.84375 C 9.273438 -3.894531 10.21875 -3.421875 11.15625 -3.421875 C 11.945312 -3.421875 12.664062 -3.632812 13.3125 -4.0625 C 13.96875 -4.5 14.550781 -5.039062 15.0625 -5.6875 C 15.570312 -6.34375 15.992188 -7.050781 16.328125 -7.8125 C 16.660156 -8.582031 16.882812 -9.320312 17 -10.03125 C 17.125 -10.582031 17.1875 -11.53125 17.1875 -12.875 C 17.1875 -14.488281 17.109375 -15.585938 16.953125 -16.171875 C 16.429688 -18.929688 15.285156 -20.800781 13.515625 -21.78125 Z M 11.625 -24.625 C 13.363281 -24.625 14.867188 -24.285156 16.140625 -23.609375 C 17.421875 -22.941406 18.472656 -22.046875 19.296875 -20.921875 C 20.128906 -19.804688 20.75 -18.519531 21.15625 -17.0625 C 21.570312 -15.601562 21.78125 -14.085938 21.78125 -12.515625 C 21.78125 -9.128906 20.484375 -6.195312 17.890625 -3.71875 C 16.867188 -2.695312 15.851562 -1.976562 14.84375 -1.5625 C 13.84375 -1.144531 12.578125 -0.9375 11.046875 -0.9375 C 10.492188 -0.9375 10.007812 -0.976562 9.59375 -1.0625 C 9.175781 -1.144531 8.851562 -1.222656 8.625 -1.296875 C 7.914062 -1.378906 7.222656 -1.601562 6.546875 -1.96875 C 5.878906 -2.34375 5.25 -2.804688 4.65625 -3.359375 C 4.070312 -3.910156 3.570312 -4.519531 3.15625 -5.1875 C 2.738281 -5.863281 2.4375 -6.535156 2.25 -7.203125 C 2.125 -7.640625 2.007812 -8.179688 1.90625 -8.828125 C 1.8125 -9.472656 1.785156 -10.226562 1.828125 -11.09375 C 1.910156 -13.582031 2.285156 -15.628906 2.953125 -17.234375 C 3.617188 -18.847656 4.660156 -20.363281 6.078125 -21.78125 C 6.867188 -22.570312 7.707031 -23.242188 8.59375 -23.796875 C 9.476562 -24.347656 10.488281 -24.625 11.625 -24.625 Z M 11.625 -24.625 "/></g></g></g><g fill="#fcfffb" fill-opacity="1"><g transform="translate(121.154153, 80.620356)"><g><path d="M 11.984375 -24.5625 C 12.453125 -24.5625 12.929688 -24.53125 13.421875 -24.46875 C 13.921875 -24.414062 14.328125 -24.347656 14.640625 -24.265625 C 16.140625 -23.910156 17.378906 -23.179688 18.359375 -22.078125 C 19.035156 -21.296875 19.375 -20.726562 19.375 -20.375 C 19.375 -20.21875 19.300781 -20.039062 19.15625 -19.84375 C 19.019531 -19.644531 18.84375 -19.46875 18.625 -19.3125 C 18.40625 -19.15625 18.1875 -19.035156 17.96875 -18.953125 C 17.757812 -18.878906 17.597656 -18.859375 17.484375 -18.890625 C 17.398438 -18.929688 17.257812 -19.007812 17.0625 -19.125 C 16.863281 -19.25 16.609375 -19.445312 16.296875 -19.71875 C 14.796875 -20.976562 13.5 -21.609375 12.40625 -21.609375 C 11.570312 -21.609375 10.832031 -21.320312 10.1875 -20.75 C 9.539062 -20.1875 8.976562 -19.5 8.5 -18.6875 C 8.03125 -17.882812 7.65625 -17.039062 7.375 -16.15625 C 7.101562 -15.269531 6.925781 -14.488281 6.84375 -13.8125 C 6.769531 -13.1875 6.722656 -12.566406 6.703125 -11.953125 C 6.679688 -11.347656 6.710938 -10.75 6.796875 -10.15625 C 6.867188 -9.5625 6.992188 -8.898438 7.171875 -8.171875 C 7.347656 -7.441406 7.601562 -6.753906 7.9375 -6.109375 C 8.269531 -5.460938 8.703125 -4.910156 9.234375 -4.453125 C 9.765625 -4.003906 10.40625 -3.78125 11.15625 -3.78125 C 12.0625 -3.78125 13.320312 -4.234375 14.9375 -5.140625 C 16.394531 -6.003906 17.4375 -6.4375 18.0625 -6.4375 C 19.007812 -6.4375 19.570312 -6.109375 19.75 -5.453125 C 19.925781 -4.804688 19.660156 -4.191406 18.953125 -3.609375 C 17.578125 -2.535156 16.226562 -1.8125 14.90625 -1.4375 C 13.59375 -1.070312 12.085938 -0.890625 10.390625 -0.890625 C 9.253906 -0.890625 8.210938 -1.125 7.265625 -1.59375 C 6.316406 -2.0625 5.488281 -2.691406 4.78125 -3.484375 C 4.070312 -4.273438 3.476562 -5.171875 3 -6.171875 C 2.53125 -7.171875 2.195312 -8.1875 2 -9.21875 C 1.84375 -9.800781 1.765625 -10.800781 1.765625 -12.21875 C 1.765625 -13.675781 1.84375 -14.738281 2 -15.40625 C 2.195312 -16.664062 2.582031 -17.847656 3.15625 -18.953125 C 3.726562 -20.054688 4.445312 -21.019531 5.3125 -21.84375 C 6.175781 -22.675781 7.171875 -23.335938 8.296875 -23.828125 C 9.421875 -24.316406 10.648438 -24.5625 11.984375 -24.5625 Z M 11.984375 -24.5625 "/></g></g></g><g fill="#fcfffb" fill-opacity="1"><g transform="translate(142.172558, 80.620356)"><g><path d="M 4.015625 -24.5625 C 4.128906 -24.601562 4.398438 -24.625 4.828125 -24.625 C 5.265625 -24.625 5.566406 -24.601562 5.734375 -24.5625 C 6.085938 -24.363281 6.34375 -23.710938 6.5 -22.609375 C 6.8125 -19.773438 7.046875 -16.960938 7.203125 -14.171875 C 7.359375 -11.378906 7.476562 -8.566406 7.5625 -5.734375 C 7.59375 -4.503906 7.597656 -3.566406 7.578125 -2.921875 C 7.566406 -2.273438 7.539062 -1.875 7.5 -1.71875 C 7.34375 -1.320312 6.691406 -1.125 5.546875 -1.125 C 5.148438 -1.125 4.84375 -1.148438 4.625 -1.203125 C 4.414062 -1.265625 4.210938 -1.335938 4.015625 -1.421875 C 3.742188 -1.535156 3.566406 -1.648438 3.484375 -1.765625 C 3.285156 -2.273438 3.1875 -5.914062 3.1875 -12.6875 C 3.1875 -20.09375 3.304688 -23.929688 3.546875 -24.203125 C 3.660156 -24.367188 3.816406 -24.488281 4.015625 -24.5625 Z M 3.078125 -33.125 C 3.460938 -33.238281 3.898438 -33.242188 4.390625 -33.140625 C 4.890625 -33.046875 5.296875 -32.863281 5.609375 -32.59375 C 6.472656 -31.925781 7.082031 -31.238281 7.4375 -30.53125 C 7.519531 -30.375 7.597656 -30.1875 7.671875 -29.96875 C 7.753906 -29.75 7.796875 -29.5625 7.796875 -29.40625 C 7.867188 -28.9375 7.847656 -28.640625 7.734375 -28.515625 C 7.617188 -28.398438 7.363281 -28.222656 6.96875 -27.984375 C 6.769531 -27.867188 6.617188 -27.769531 6.515625 -27.6875 C 6.421875 -27.613281 6.296875 -27.554688 6.140625 -27.515625 C 5.742188 -27.515625 5.222656 -27.550781 4.578125 -27.625 C 3.929688 -27.707031 3.445312 -27.867188 3.125 -28.109375 C 3.050781 -28.222656 2.941406 -28.425781 2.796875 -28.71875 C 2.660156 -29.019531 2.535156 -29.347656 2.421875 -29.703125 C 2.304688 -30.054688 2.195312 -30.398438 2.09375 -30.734375 C 2 -31.066406 1.929688 -31.3125 1.890625 -31.46875 C 1.804688 -31.820312 1.828125 -32.097656 1.953125 -32.296875 C 2.265625 -32.648438 2.640625 -32.925781 3.078125 -33.125 Z M 3.078125 -33.125 "/></g></g></g><g fill="#fcfffb" fill-opacity="1"><g transform="translate(152.622718, 80.620356)"><g><path d="M 12.34375 -13.578125 C 10.570312 -13.578125 9.066406 -13.171875 7.828125 -12.359375 C 6.585938 -11.554688 5.96875 -10.15625 5.96875 -8.15625 C 6 -7.632812 6.09375 -7.085938 6.25 -6.515625 C 6.414062 -5.953125 6.65625 -5.441406 6.96875 -4.984375 C 7.28125 -4.535156 7.660156 -4.160156 8.109375 -3.859375 C 8.566406 -3.566406 9.09375 -3.421875 9.6875 -3.421875 C 10.238281 -3.421875 10.835938 -3.546875 11.484375 -3.796875 C 12.128906 -4.054688 12.757812 -4.382812 13.375 -4.78125 C 13.988281 -5.175781 14.5625 -5.585938 15.09375 -6.015625 C 15.625 -6.453125 16.066406 -6.867188 16.421875 -7.265625 C 16.734375 -7.578125 16.925781 -7.921875 17 -8.296875 C 17.082031 -8.671875 17.125 -9.390625 17.125 -10.453125 C 17.082031 -11.785156 16.960938 -12.570312 16.765625 -12.8125 C 16.691406 -12.96875 16.445312 -13.09375 16.03125 -13.1875 C 15.613281 -13.289062 15.171875 -13.367188 14.703125 -13.421875 C 14.234375 -13.484375 13.769531 -13.523438 13.3125 -13.546875 C 12.863281 -13.566406 12.539062 -13.578125 12.34375 -13.578125 Z M 8.328125 -24.203125 C 8.484375 -24.203125 8.835938 -24.222656 9.390625 -24.265625 C 9.941406 -24.304688 10.726562 -24.328125 11.75 -24.328125 C 13.125 -24.328125 14.320312 -24.238281 15.34375 -24.0625 C 16.375 -23.882812 17.5 -23.519531 18.71875 -22.96875 C 19.507812 -22.613281 20.050781 -22.238281 20.34375 -21.84375 C 20.632812 -21.445312 20.820312 -20.800781 20.90625 -19.90625 C 20.976562 -19.382812 21.050781 -18.582031 21.125 -17.5 C 21.207031 -16.425781 21.289062 -14.960938 21.375 -13.109375 C 21.457031 -11.296875 21.515625 -9.660156 21.546875 -8.203125 C 21.585938 -6.742188 21.628906 -5.484375 21.671875 -4.421875 C 21.671875 -2.890625 21.613281 -2.003906 21.5 -1.765625 C 21.257812 -1.210938 20.644531 -0.9375 19.65625 -0.9375 C 18.988281 -0.9375 18.476562 -1.082031 18.125 -1.375 C 17.769531 -1.675781 17.554688 -2.179688 17.484375 -2.890625 C 17.441406 -3.328125 17.378906 -3.566406 17.296875 -3.609375 C 17.253906 -3.640625 16.765625 -3.398438 15.828125 -2.890625 C 14.835938 -2.296875 13.734375 -1.863281 12.515625 -1.59375 C 11.296875 -1.320312 10.132812 -1.1875 9.03125 -1.1875 C 8.050781 -1.1875 7.109375 -1.367188 6.203125 -1.734375 C 5.296875 -2.109375 4.488281 -2.609375 3.78125 -3.234375 C 3.070312 -3.867188 2.507812 -4.628906 2.09375 -5.515625 C 1.675781 -6.398438 1.46875 -7.335938 1.46875 -8.328125 C 1.46875 -9.859375 1.832031 -11.125 2.5625 -12.125 C 3.289062 -13.132812 4.21875 -13.925781 5.34375 -14.5 C 6.46875 -15.070312 7.695312 -15.472656 9.03125 -15.703125 C 10.375 -15.941406 11.675781 -16.0625 12.9375 -16.0625 C 13.445312 -16.0625 13.9375 -16.039062 14.40625 -16 C 14.875 -15.957031 15.347656 -15.898438 15.828125 -15.828125 C 16.140625 -15.785156 16.414062 -15.804688 16.65625 -15.890625 L 16.953125 -16 L 16.953125 -17.953125 C 16.953125 -19.210938 16.867188 -20 16.703125 -20.3125 C 16.546875 -20.976562 15.976562 -21.453125 15 -21.734375 C 14.09375 -21.929688 12.101562 -22.066406 9.03125 -22.140625 C 6.394531 -22.222656 5.019531 -22.320312 4.90625 -22.4375 C 4.707031 -22.632812 4.585938 -22.769531 4.546875 -22.84375 C 4.460938 -22.925781 4.441406 -22.992188 4.484375 -23.046875 C 4.523438 -23.109375 4.585938 -23.203125 4.671875 -23.328125 C 4.828125 -23.554688 5.019531 -23.691406 5.25 -23.734375 C 5.570312 -23.816406 5.988281 -23.894531 6.5 -23.96875 C 7.007812 -24.050781 7.617188 -24.128906 8.328125 -24.203125 Z M 8.328125 -24.203125 "/></g></g></g><g fill="#fcfffb" fill-opacity="1"><g transform="translate(176.652188, 80.620356)"><g><path d="M 4.25 -39.96875 C 4.40625 -40.132812 4.601562 -40.21875 4.84375 -40.21875 C 4.957031 -40.21875 5.140625 -40.144531 5.390625 -40 C 5.648438 -39.863281 5.820312 -39.738281 5.90625 -39.625 C 6.0625 -39.300781 6.175781 -37.832031 6.25 -35.21875 C 6.332031 -32.601562 6.414062 -29.03125 6.5 -24.5 C 6.570312 -22.8125 6.617188 -20.84375 6.640625 -18.59375 C 6.660156 -16.351562 6.691406 -14.148438 6.734375 -11.984375 C 6.847656 -7.617188 6.925781 -5.394531 6.96875 -5.3125 C 7.039062 -5.238281 7.195312 -5.28125 7.4375 -5.4375 C 7.675781 -5.59375 8.128906 -6.003906 8.796875 -6.671875 C 10.015625 -7.816406 10.898438 -8.390625 11.453125 -8.390625 C 11.648438 -8.390625 11.863281 -8.300781 12.09375 -8.125 C 12.332031 -7.945312 12.472656 -7.738281 12.515625 -7.5 C 12.597656 -7.1875 12.289062 -6.585938 11.59375 -5.703125 C 10.90625 -4.816406 9.972656 -3.800781 8.796875 -2.65625 C 8.128906 -2.03125 7.585938 -1.609375 7.171875 -1.390625 C 6.753906 -1.171875 6.234375 -1.0625 5.609375 -1.0625 C 4.742188 -1.0625 4.035156 -1.296875 3.484375 -1.765625 C 3.171875 -2.003906 2.984375 -2.269531 2.921875 -2.5625 C 2.859375 -2.863281 2.789062 -3.40625 2.71875 -4.1875 C 2.675781 -4.695312 2.664062 -6.28125 2.6875 -8.9375 C 2.707031 -11.601562 2.738281 -15.039062 2.78125 -19.25 C 2.851562 -23.457031 2.910156 -26.929688 2.953125 -29.671875 C 2.992188 -32.410156 3.050781 -34.234375 3.125 -35.140625 C 3.164062 -36.035156 3.210938 -36.789062 3.265625 -37.40625 C 3.328125 -38.019531 3.398438 -38.484375 3.484375 -38.796875 C 3.597656 -39.421875 3.851562 -39.8125 4.25 -39.96875 Z M 4.25 -39.96875 "/></g></g></g><g fill="#fcfffb" fill-opacity="1"><g transform="translate(189.759175, 80.620356)"><g/></g></g><g fill="#fcfffb" fill-opacity="1"><g transform="translate(203.338477, 80.620356)"><g><path d="M 29.34375 -38.859375 C 29.65625 -39.046875 30.050781 -39.140625 30.53125 -39.140625 L 30.703125 -39.140625 C 31.609375 -39.109375 32.160156 -38.914062 32.359375 -38.5625 C 32.554688 -38.238281 32.734375 -37.3125 32.890625 -35.78125 C 33.046875 -34.25 33.179688 -32.410156 33.296875 -30.265625 C 33.421875 -28.117188 33.519531 -25.796875 33.59375 -23.296875 C 33.675781 -20.796875 33.742188 -18.394531 33.796875 -16.09375 C 33.859375 -13.789062 33.898438 -11.734375 33.921875 -9.921875 C 33.941406 -8.109375 33.953125 -6.828125 33.953125 -6.078125 C 33.953125 -4.898438 33.941406 -3.945312 33.921875 -3.21875 C 33.898438 -2.488281 33.867188 -2.023438 33.828125 -1.828125 C 33.796875 -1.429688 33.539062 -1.132812 33.0625 -0.9375 C 32.863281 -0.90625 32.675781 -0.890625 32.5 -0.890625 C 32.320312 -0.890625 32.132812 -0.890625 31.9375 -0.890625 L 31.46875 -0.890625 C 30.53125 -0.921875 30.039062 -1.019531 30 -1.1875 C 29.800781 -1.5 29.644531 -5.804688 29.53125 -14.109375 C 29.445312 -18.953125 29.375 -22.78125 29.3125 -25.59375 C 29.257812 -28.40625 29.191406 -30.265625 29.109375 -31.171875 C 29.066406 -31.847656 28.988281 -32.242188 28.875 -32.359375 L 29.046875 -32.359375 C 29.003906 -32.316406 28.984375 -32.257812 28.984375 -32.1875 C 28.953125 -32.101562 28.925781 -32.007812 28.90625 -31.90625 C 28.882812 -31.8125 28.832031 -31.6875 28.75 -31.53125 L 28.453125 -30.703125 C 28.296875 -30.273438 28.097656 -29.742188 27.859375 -29.109375 C 27.628906 -28.484375 27.359375 -27.734375 27.046875 -26.859375 C 27.003906 -26.742188 26.941406 -26.566406 26.859375 -26.328125 L 26.625 -25.625 C 26.113281 -24.445312 25.644531 -23.164062 25.21875 -21.78125 C 23.675781 -17.570312 22.472656 -14.375 21.609375 -12.1875 C 20.742188 -10.007812 20.210938 -8.84375 20.015625 -8.6875 C 19.816406 -8.488281 19.550781 -8.335938 19.21875 -8.234375 C 18.882812 -8.140625 18.5625 -8.09375 18.25 -8.09375 C 18.050781 -8.09375 17.84375 -8.109375 17.625 -8.140625 C 17.40625 -8.179688 17.21875 -8.242188 17.0625 -8.328125 C 16.863281 -8.523438 16.632812 -8.800781 16.375 -9.15625 C 16.125 -9.507812 15.863281 -9.976562 15.59375 -10.5625 C 15.3125 -11.195312 14.960938 -12.15625 14.546875 -13.4375 C 14.140625 -14.71875 13.601562 -16.359375 12.9375 -18.359375 C 12.101562 -20.992188 11.34375 -23.363281 10.65625 -25.46875 C 9.96875 -27.582031 9.347656 -29.40625 8.796875 -30.9375 C 8.722656 -31.175781 8.6875 -31.316406 8.6875 -31.359375 C 8.644531 -31.429688 8.625 -31.488281 8.625 -31.53125 C 8.539062 -30.625 8.476562 -28.78125 8.4375 -26 C 8.40625 -23.226562 8.367188 -19.519531 8.328125 -14.875 C 8.285156 -7.945312 8.226562 -4.09375 8.15625 -3.3125 C 8.070312 -2.28125 7.953125 -1.6875 7.796875 -1.53125 C 7.398438 -1.101562 6.648438 -0.890625 5.546875 -0.890625 C 4.992188 -0.890625 4.585938 -0.957031 4.328125 -1.09375 C 4.078125 -1.226562 3.914062 -1.414062 3.84375 -1.65625 C 3.875 -1.769531 3.890625 -2.171875 3.890625 -2.859375 C 3.890625 -3.546875 3.890625 -4.519531 3.890625 -5.78125 C 3.890625 -7.675781 3.929688 -9.523438 4.015625 -11.328125 C 4.097656 -13.140625 4.195312 -14.992188 4.3125 -16.890625 L 4.3125 -17.234375 C 4.382812 -18.972656 4.441406 -20.332031 4.484375 -21.3125 C 4.484375 -21.59375 4.503906 -21.789062 4.546875 -21.90625 L 4.546875 -22.3125 C 4.546875 -22.863281 4.566406 -23.21875 4.609375 -23.375 C 4.679688 -24.40625 4.738281 -25.53125 4.78125 -26.75 C 4.863281 -27.019531 4.90625 -27.3125 4.90625 -27.625 C 4.90625 -27.945312 4.90625 -28.242188 4.90625 -28.515625 C 5.0625 -31.503906 5.195312 -33.828125 5.3125 -35.484375 C 5.425781 -37.140625 5.546875 -38.125 5.671875 -38.4375 C 5.941406 -39.03125 6.394531 -39.328125 7.03125 -39.328125 L 7.203125 -39.328125 C 8.023438 -39.203125 8.695312 -38.769531 9.21875 -38.03125 C 9.757812 -37.164062 10.671875 -35.144531 11.953125 -31.96875 C 13.234375 -28.800781 14.898438 -24.40625 16.953125 -18.78125 C 17.179688 -18.144531 17.375 -17.597656 17.53125 -17.140625 C 17.6875 -16.691406 17.828125 -16.3125 17.953125 -16 C 18.109375 -15.644531 18.222656 -15.347656 18.296875 -15.109375 C 18.421875 -15.429688 18.582031 -15.804688 18.78125 -16.234375 C 18.9375 -16.628906 19.113281 -17.101562 19.3125 -17.65625 C 19.507812 -18.207031 19.765625 -18.875 20.078125 -19.65625 C 20.984375 -22.019531 21.816406 -24.175781 22.578125 -26.125 C 23.347656 -28.070312 24.109375 -29.851562 24.859375 -31.46875 C 25.453125 -32.769531 25.953125 -33.875 26.359375 -34.78125 C 26.773438 -35.6875 27.140625 -36.394531 27.453125 -36.90625 C 28.046875 -37.925781 28.71875 -38.578125 29.46875 -38.859375 Z M 29.34375 -38.859375 "/></g></g></g><g fill="#fcfffb" fill-opacity="1"><g transform="translate(241.124373, 80.620356)"><g><path d="M 13.515625 -22.3125 C 12.691406 -22.3125 11.875 -22.023438 11.0625 -21.453125 C 10.257812 -20.890625 9.515625 -20.179688 8.828125 -19.328125 C 8.140625 -18.484375 7.554688 -17.585938 7.078125 -16.640625 C 6.609375 -15.703125 6.316406 -14.835938 6.203125 -14.046875 C 6.078125 -13.378906 6.332031 -13.046875 6.96875 -13.046875 C 7.519531 -13.046875 8.128906 -13.125 8.796875 -13.28125 C 9.460938 -13.4375 10.128906 -13.632812 10.796875 -13.875 C 11.472656 -14.113281 12.125 -14.367188 12.75 -14.640625 C 13.382812 -14.921875 13.914062 -15.195312 14.34375 -15.46875 C 15.050781 -15.9375 15.601562 -16.40625 16 -16.875 C 16.394531 -17.351562 16.59375 -18.023438 16.59375 -18.890625 C 16.59375 -19.753906 16.304688 -20.539062 15.734375 -21.25 C 15.160156 -21.957031 14.421875 -22.3125 13.515625 -22.3125 Z M 11.515625 -24.6875 C 11.828125 -24.71875 12.21875 -24.742188 12.6875 -24.765625 C 13.164062 -24.785156 13.703125 -24.773438 14.296875 -24.734375 C 14.878906 -24.703125 15.378906 -24.675781 15.796875 -24.65625 C 16.210938 -24.632812 16.535156 -24.582031 16.765625 -24.5 C 18.535156 -23.988281 19.882812 -23.140625 20.8125 -21.953125 C 21.738281 -20.773438 22.082031 -19.5 21.84375 -18.125 C 21.6875 -17.21875 21.289062 -16.398438 20.65625 -15.671875 C 20.03125 -14.941406 19.296875 -14.300781 18.453125 -13.75 C 17.609375 -13.207031 16.710938 -12.75 15.765625 -12.375 C 14.816406 -12 13.929688 -11.710938 13.109375 -11.515625 C 12.597656 -11.429688 11.96875 -11.347656 11.21875 -11.265625 C 10.46875 -11.191406 9.582031 -11.117188 8.5625 -11.046875 C 7.34375 -11.003906 6.613281 -10.941406 6.375 -10.859375 C 5.863281 -10.628906 6.003906 -9.628906 6.796875 -7.859375 C 6.984375 -7.460938 7.1875 -7.101562 7.40625 -6.78125 C 7.625 -6.46875 7.875 -6.175781 8.15625 -5.90625 C 8.738281 -5.238281 9.363281 -4.71875 10.03125 -4.34375 C 10.707031 -3.96875 11.5 -3.78125 12.40625 -3.78125 C 12.914062 -3.78125 13.691406 -3.882812 14.734375 -4.09375 C 15.773438 -4.3125 17.082031 -4.660156 18.65625 -5.140625 C 18.96875 -5.210938 19.269531 -5.269531 19.5625 -5.3125 C 19.863281 -5.351562 20.15625 -5.394531 20.4375 -5.4375 C 21.0625 -5.507812 21.492188 -5.46875 21.734375 -5.3125 C 22.117188 -5.113281 22.359375 -4.847656 22.453125 -4.515625 C 22.554688 -4.179688 22.492188 -3.835938 22.265625 -3.484375 C 21.910156 -3.085938 21.296875 -2.734375 20.421875 -2.421875 C 19.554688 -2.109375 18.613281 -1.851562 17.59375 -1.65625 C 16.570312 -1.457031 15.554688 -1.304688 14.546875 -1.203125 C 13.546875 -1.109375 12.75 -1.0625 12.15625 -1.0625 C 9.601562 -1.0625 7.5 -1.601562 5.84375 -2.6875 C 4.1875 -3.769531 2.988281 -5.628906 2.25 -8.265625 C 1.925781 -9.410156 1.785156 -10.570312 1.828125 -11.75 C 1.867188 -12.925781 2.046875 -14.144531 2.359375 -15.40625 C 2.671875 -16.507812 3.082031 -17.59375 3.59375 -18.65625 C 4.113281 -19.71875 4.753906 -20.671875 5.515625 -21.515625 C 6.285156 -22.367188 7.171875 -23.078125 8.171875 -23.640625 C 9.179688 -24.210938 10.296875 -24.5625 11.515625 -24.6875 Z M 11.515625 -24.6875 "/></g></g></g><g fill="#fcfffb" fill-opacity="1"><g transform="translate(264.858636, 80.620356)"><g><path d="M 11.875 -22.265625 C 11.632812 -22.265625 11.316406 -22.1875 10.921875 -22.03125 C 9.785156 -21.632812 8.820312 -20.707031 8.03125 -19.25 C 7.238281 -17.789062 6.726562 -16 6.5 -13.875 C 6.457031 -13.632812 6.4375 -13.285156 6.4375 -12.828125 C 6.4375 -12.378906 6.4375 -11.910156 6.4375 -11.421875 C 6.4375 -10.929688 6.453125 -10.457031 6.484375 -10 C 6.523438 -9.550781 6.566406 -9.207031 6.609375 -8.96875 C 6.765625 -8.0625 7.019531 -7.273438 7.375 -6.609375 C 7.726562 -5.941406 8.179688 -5.375 8.734375 -4.90625 C 9.242188 -4.425781 9.71875 -4.117188 10.15625 -3.984375 C 10.59375 -3.847656 11.046875 -3.800781 11.515625 -3.84375 C 11.753906 -3.84375 12.195312 -4 12.84375 -4.3125 C 13.488281 -4.625 14.144531 -4.976562 14.8125 -5.375 C 15.488281 -5.769531 16.109375 -6.160156 16.671875 -6.546875 C 17.242188 -6.941406 17.59375 -7.238281 17.71875 -7.4375 C 18.101562 -7.945312 18.296875 -9.914062 18.296875 -13.34375 C 18.296875 -14.289062 18.265625 -15.046875 18.203125 -15.609375 C 18.148438 -16.179688 18.125 -16.566406 18.125 -16.765625 C 18.125 -17.160156 17.867188 -17.691406 17.359375 -18.359375 C 17.085938 -18.753906 16.742188 -19.175781 16.328125 -19.625 C 15.910156 -20.082031 15.46875 -20.507812 15 -20.90625 C 14.53125 -21.300781 14.023438 -21.625 13.484375 -21.875 C 12.953125 -22.132812 12.414062 -22.265625 11.875 -22.265625 Z M 19.90625 -39.390625 C 20.21875 -39.546875 20.507812 -39.625 20.78125 -39.625 C 21.375 -39.625 21.769531 -39.226562 21.96875 -38.4375 C 22.125 -37.84375 22.226562 -36.738281 22.28125 -35.125 C 22.34375 -33.519531 22.394531 -31.394531 22.4375 -28.75 C 22.4375 -26.15625 22.457031 -23.035156 22.5 -19.390625 C 22.539062 -15.753906 22.597656 -11.890625 22.671875 -7.796875 C 22.710938 -6.734375 22.742188 -5.816406 22.765625 -5.046875 C 22.785156 -4.273438 22.773438 -3.617188 22.734375 -3.078125 C 22.691406 -2.003906 22.570312 -1.410156 22.375 -1.296875 C 22.21875 -1.140625 21.6875 -1.019531 20.78125 -0.9375 C 20.351562 -0.9375 19.988281 -0.945312 19.6875 -0.96875 C 19.394531 -0.988281 19.148438 -1.039062 18.953125 -1.125 C 18.484375 -1.394531 18.265625 -1.945312 18.296875 -2.78125 C 18.335938 -3.007812 18.335938 -3.179688 18.296875 -3.296875 C 18.265625 -3.421875 18.226562 -3.523438 18.1875 -3.609375 C 18.144531 -3.679688 17.613281 -3.484375 16.59375 -3.015625 C 15.289062 -2.378906 14.164062 -1.914062 13.21875 -1.625 C 12.28125 -1.332031 11.414062 -1.1875 10.625 -1.1875 C 9.050781 -1.1875 7.601562 -1.609375 6.28125 -2.453125 C 4.96875 -3.296875 3.9375 -4.40625 3.1875 -5.78125 C 2.75 -6.644531 2.421875 -7.597656 2.203125 -8.640625 C 1.992188 -9.691406 1.867188 -10.828125 1.828125 -12.046875 C 1.785156 -16.335938 3.066406 -19.820312 5.671875 -22.5 C 6.421875 -23.28125 7.207031 -23.828125 8.03125 -24.140625 C 8.851562 -24.460938 9.894531 -24.644531 11.15625 -24.6875 C 12.300781 -24.6875 13.242188 -24.554688 13.984375 -24.296875 C 14.734375 -24.035156 15.625 -23.515625 16.65625 -22.734375 C 17.164062 -22.335938 17.535156 -22.070312 17.765625 -21.9375 C 18.003906 -21.800781 18.179688 -21.734375 18.296875 -21.734375 C 18.378906 -21.734375 18.421875 -21.847656 18.421875 -22.078125 C 18.460938 -22.160156 18.519531 -22.847656 18.59375 -24.140625 C 18.675781 -25.441406 18.738281 -27 18.78125 -28.8125 C 18.976562 -34.875 19.175781 -38.222656 19.375 -38.859375 C 19.445312 -39.046875 19.625 -39.222656 19.90625 -39.390625 Z M 19.90625 -39.390625 "/></g></g></g><g fill="#fcfffb" fill-opacity="1"><g transform="translate(290.009884, 80.620356)"><g><path d="M 4.015625 -24.5625 C 4.128906 -24.601562 4.398438 -24.625 4.828125 -24.625 C 5.265625 -24.625 5.566406 -24.601562 5.734375 -24.5625 C 6.085938 -24.363281 6.34375 -23.710938 6.5 -22.609375 C 6.8125 -19.773438 7.046875 -16.960938 7.203125 -14.171875 C 7.359375 -11.378906 7.476562 -8.566406 7.5625 -5.734375 C 7.59375 -4.503906 7.597656 -3.566406 7.578125 -2.921875 C 7.566406 -2.273438 7.539062 -1.875 7.5 -1.71875 C 7.34375 -1.320312 6.691406 -1.125 5.546875 -1.125 C 5.148438 -1.125 4.84375 -1.148438 4.625 -1.203125 C 4.414062 -1.265625 4.210938 -1.335938 4.015625 -1.421875 C 3.742188 -1.535156 3.566406 -1.648438 3.484375 -1.765625 C 3.285156 -2.273438 3.1875 -5.914062 3.1875 -12.6875 C 3.1875 -20.09375 3.304688 -23.929688 3.546875 -24.203125 C 3.660156 -24.367188 3.816406 -24.488281 4.015625 -24.5625 Z M 3.078125 -33.125 C 3.460938 -33.238281 3.898438 -33.242188 4.390625 -33.140625 C 4.890625 -33.046875 5.296875 -32.863281 5.609375 -32.59375 C 6.472656 -31.925781 7.082031 -31.238281 7.4375 -30.53125 C 7.519531 -30.375 7.597656 -30.1875 7.671875 -29.96875 C 7.753906 -29.75 7.796875 -29.5625 7.796875 -29.40625 C 7.867188 -28.9375 7.847656 -28.640625 7.734375 -28.515625 C 7.617188 -28.398438 7.363281 -28.222656 6.96875 -27.984375 C 6.769531 -27.867188 6.617188 -27.769531 6.515625 -27.6875 C 6.421875 -27.613281 6.296875 -27.554688 6.140625 -27.515625 C 5.742188 -27.515625 5.222656 -27.550781 4.578125 -27.625 C 3.929688 -27.707031 3.445312 -27.867188 3.125 -28.109375 C 3.050781 -28.222656 2.941406 -28.425781 2.796875 -28.71875 C 2.660156 -29.019531 2.535156 -29.347656 2.421875 -29.703125 C 2.304688 -30.054688 2.195312 -30.398438 2.09375 -30.734375 C 2 -31.066406 1.929688 -31.3125 1.890625 -31.46875 C 1.804688 -31.820312 1.828125 -32.097656 1.953125 -32.296875 C 2.265625 -32.648438 2.640625 -32.925781 3.078125 -33.125 Z M 3.078125 -33.125 "/></g></g></g><g fill="#fcfffb" fill-opacity="1"><g transform="translate(300.460044, 80.620356)"><g><path d="M 12.34375 -13.578125 C 10.570312 -13.578125 9.066406 -13.171875 7.828125 -12.359375 C 6.585938 -11.554688 5.96875 -10.15625 5.96875 -8.15625 C 6 -7.632812 6.09375 -7.085938 6.25 -6.515625 C 6.414062 -5.953125 6.65625 -5.441406 6.96875 -4.984375 C 7.28125 -4.535156 7.660156 -4.160156 8.109375 -3.859375 C 8.566406 -3.566406 9.09375 -3.421875 9.6875 -3.421875 C 10.238281 -3.421875 10.835938 -3.546875 11.484375 -3.796875 C 12.128906 -4.054688 12.757812 -4.382812 13.375 -4.78125 C 13.988281 -5.175781 14.5625 -5.585938 15.09375 -6.015625 C 15.625 -6.453125 16.066406 -6.867188 16.421875 -7.265625 C 16.734375 -7.578125 16.925781 -7.921875 17 -8.296875 C 17.082031 -8.671875 17.125 -9.390625 17.125 -10.453125 C 17.082031 -11.785156 16.960938 -12.570312 16.765625 -12.8125 C 16.691406 -12.96875 16.445312 -13.09375 16.03125 -13.1875 C 15.613281 -13.289062 15.171875 -13.367188 14.703125 -13.421875 C 14.234375 -13.484375 13.769531 -13.523438 13.3125 -13.546875 C 12.863281 -13.566406 12.539062 -13.578125 12.34375 -13.578125 Z M 8.328125 -24.203125 C 8.484375 -24.203125 8.835938 -24.222656 9.390625 -24.265625 C 9.941406 -24.304688 10.726562 -24.328125 11.75 -24.328125 C 13.125 -24.328125 14.320312 -24.238281 15.34375 -24.0625 C 16.375 -23.882812 17.5 -23.519531 18.71875 -22.96875 C 19.507812 -22.613281 20.050781 -22.238281 20.34375 -21.84375 C 20.632812 -21.445312 20.820312 -20.800781 20.90625 -19.90625 C 20.976562 -19.382812 21.050781 -18.582031 21.125 -17.5 C 21.207031 -16.425781 21.289062 -14.960938 21.375 -13.109375 C 21.457031 -11.296875 21.515625 -9.660156 21.546875 -8.203125 C 21.585938 -6.742188 21.628906 -5.484375 21.671875 -4.421875 C 21.671875 -2.890625 21.613281 -2.003906 21.5 -1.765625 C 21.257812 -1.210938 20.644531 -0.9375 19.65625 -0.9375 C 18.988281 -0.9375 18.476562 -1.082031 18.125 -1.375 C 17.769531 -1.675781 17.554688 -2.179688 17.484375 -2.890625 C 17.441406 -3.328125 17.378906 -3.566406 17.296875 -3.609375 C 17.253906 -3.640625 16.765625 -3.398438 15.828125 -2.890625 C 14.835938 -2.296875 13.734375 -1.863281 12.515625 -1.59375 C 11.296875 -1.320312 10.132812 -1.1875 9.03125 -1.1875 C 8.050781 -1.1875 7.109375 -1.367188 6.203125 -1.734375 C 5.296875 -2.109375 4.488281 -2.609375 3.78125 -3.234375 C 3.070312 -3.867188 2.507812 -4.628906 2.09375 -5.515625 C 1.675781 -6.398438 1.46875 -7.335938 1.46875 -8.328125 C 1.46875 -9.859375 1.832031 -11.125 2.5625 -12.125 C 3.289062 -13.132812 4.21875 -13.925781 5.34375 -14.5 C 6.46875 -15.070312 7.695312 -15.472656 9.03125 -15.703125 C 10.375 -15.941406 11.675781 -16.0625 12.9375 -16.0625 C 13.445312 -16.0625 13.9375 -16.039062 14.40625 -16 C 14.875 -15.957031 15.347656 -15.898438 15.828125 -15.828125 C 16.140625 -15.785156 16.414062 -15.804688 16.65625 -15.890625 L 16.953125 -16 L 16.953125 -17.953125 C 16.953125 -19.210938 16.867188 -20 16.703125 -20.3125 C 16.546875 -20.976562 15.976562 -21.453125 15 -21.734375 C 14.09375 -21.929688 12.101562 -22.066406 9.03125 -22.140625 C 6.394531 -22.222656 5.019531 -22.320312 4.90625 -22.4375 C 4.707031 -22.632812 4.585938 -22.769531 4.546875 -22.84375 C 4.460938 -22.925781 4.441406 -22.992188 4.484375 -23.046875 C 4.523438 -23.109375 4.585938 -23.203125 4.671875 -23.328125 C 4.828125 -23.554688 5.019531 -23.691406 5.25 -23.734375 C 5.570312 -23.816406 5.988281 -23.894531 6.5 -23.96875 C 7.007812 -24.050781 7.617188 -24.128906 8.328125 -24.203125 Z M 8.328125 -24.203125 "/></g></g></g></svg>