<svg xmlns="http://www.w3.org/2000/svg" xmlns:xlink="http://www.w3.org/1999/xlink" width="1029" zoomAndPan="magnify" viewBox="0 0 771.75 137.249994" height="183" preserveAspectRatio="xMidYMid meet" version="1.0"><defs><g/><clipPath id="0e1181dc7c"><path d="M 81 85.882812 L 336 85.882812 L 336 128.667969 L 81 128.667969 Z M 81 85.882812 " clip-rule="nonzero"/></clipPath><clipPath id="74c2c5609e"><path d="M 376 87 L 631 87 L 631 129.785156 L 376 129.785156 Z M 376 87 " clip-rule="nonzero"/></clipPath></defs><g fill="#a91b60" fill-opacity="1"><g transform="translate(23.027777, 68.794061)"><g><path d="M 28.15625 -32.1875 C 24.457031 -34.226562 21.242188 -35.25 18.515625 -35.25 C 16.671875 -35.25 15.238281 -34.882812 14.21875 -34.15625 C 13.195312 -33.425781 12.6875 -32.328125 12.6875 -30.859375 C 12.6875 -29.515625 13.425781 -28.332031 14.90625 -27.3125 C 16.394531 -26.289062 18.367188 -25.320312 20.828125 -24.40625 C 22.828125 -23.675781 24.535156 -22.835938 25.953125 -21.890625 C 27.378906 -20.953125 28.5625 -19.65625 29.5 -18 C 30.445312 -16.34375 30.921875 -14.242188 30.921875 -11.703125 C 30.921875 -9.515625 30.351562 -7.488281 29.21875 -5.625 C 28.082031 -3.757812 26.414062 -2.273438 24.21875 -1.171875 C 22.03125 -0.078125 19.421875 0.46875 16.390625 0.46875 C 13.847656 0.46875 11.328125 0.09375 8.828125 -0.65625 C 6.328125 -1.40625 4 -2.550781 1.84375 -4.09375 L 5.53125 -10.609375 C 7 -9.535156 8.675781 -8.648438 10.5625 -7.953125 C 12.445312 -7.265625 14.140625 -6.921875 15.640625 -6.921875 C 17.398438 -6.921875 18.929688 -7.296875 20.234375 -8.046875 C 21.546875 -8.796875 22.203125 -10.015625 22.203125 -11.703125 C 22.203125 -13.898438 20.144531 -15.804688 16.03125 -17.421875 C 13.613281 -18.378906 11.597656 -19.300781 9.984375 -20.1875 C 8.367188 -21.070312 6.972656 -22.34375 5.796875 -24 C 4.617188 -25.65625 4.03125 -27.734375 4.03125 -30.234375 C 4.03125 -33.878906 5.234375 -36.816406 7.640625 -39.046875 C 10.046875 -41.285156 13.25 -42.5 17.25 -42.6875 C 20.40625 -42.6875 23.039062 -42.328125 25.15625 -41.609375 C 27.269531 -40.898438 29.328125 -39.894531 31.328125 -38.59375 Z M 28.15625 -32.1875 "/></g></g></g><g fill="#a91b60" fill-opacity="1"><g transform="translate(56.655767, 68.794061)"><g><path d="M 21.578125 -26.484375 C 23.921875 -26.484375 26.015625 -25.921875 27.859375 -24.796875 C 29.703125 -23.679688 31.15625 -22.085938 32.21875 -20.015625 C 33.28125 -17.941406 33.8125 -15.5 33.8125 -12.6875 C 33.8125 -9.914062 33.222656 -7.519531 32.046875 -5.5 C 30.867188 -3.488281 29.234375 -1.953125 27.140625 -0.890625 C 25.046875 0.160156 22.648438 0.6875 19.953125 0.6875 C 18.492188 0.6875 17.0625 0.429688 15.65625 -0.078125 C 14.257812 -0.597656 13.097656 -1.34375 12.171875 -2.3125 L 12.171875 12.109375 L 4.15625 12.109375 L 4.15625 -25.78125 L 11.078125 -25.78125 L 11.765625 -22.78125 C 14.847656 -25.25 18.117188 -26.484375 21.578125 -26.484375 Z M 18.34375 -5.65625 C 20.34375 -5.65625 22.050781 -6.304688 23.46875 -7.609375 C 24.894531 -8.921875 25.609375 -10.578125 25.609375 -12.578125 C 25.609375 -14.648438 24.960938 -16.347656 23.671875 -17.671875 C 22.390625 -19.003906 20.804688 -19.671875 18.921875 -19.671875 C 17.347656 -19.671875 16.007812 -19.351562 14.90625 -18.71875 C 13.8125 -18.082031 12.921875 -17.128906 12.234375 -15.859375 L 12.234375 -9.6875 C 12.648438 -8.457031 13.40625 -7.476562 14.5 -6.75 C 15.601562 -6.019531 16.882812 -5.65625 18.34375 -5.65625 Z M 18.34375 -5.65625 "/></g></g></g><g fill="#a91b60" fill-opacity="1"><g transform="translate(92.648688, 68.794061)"><g><path d="M 31.265625 -25.203125 L 31.265625 0 L 23.1875 0 L 23.1875 -3.109375 C 20.769531 -0.578125 17.960938 0.6875 14.765625 0.6875 C 11.035156 0.6875 8.003906 -0.425781 5.671875 -2.65625 C 3.347656 -4.882812 2.1875 -8.191406 2.1875 -12.578125 C 2.1875 -15.347656 2.753906 -17.78125 3.890625 -19.875 C 5.023438 -21.96875 6.535156 -23.59375 8.421875 -24.75 C 10.304688 -25.90625 12.328125 -26.484375 14.484375 -26.484375 C 16.710938 -26.484375 18.476562 -26.144531 19.78125 -25.46875 C 21.09375 -24.789062 22.25 -23.835938 23.25 -22.609375 L 23.765625 -25.203125 Z M 17.078125 -5.890625 C 19.878906 -5.890625 21.914062 -7.15625 23.1875 -9.6875 L 23.1875 -15.859375 C 22.726562 -17.085938 21.929688 -18.066406 20.796875 -18.796875 C 19.660156 -19.535156 18.320312 -19.90625 16.78125 -19.90625 C 15.019531 -19.90625 13.515625 -19.25 12.265625 -17.9375 C 11.015625 -16.632812 10.390625 -14.984375 10.390625 -12.984375 C 10.390625 -11.671875 10.695312 -10.46875 11.3125 -9.375 C 11.925781 -8.28125 12.738281 -7.425781 13.75 -6.8125 C 14.769531 -6.195312 15.878906 -5.890625 17.078125 -5.890625 Z M 17.078125 -5.890625 "/></g></g></g><g fill="#a91b60" fill-opacity="1"><g transform="translate(128.064796, 68.794061)"><g><path d="M 12.0625 -19.4375 C 12.75 -20.78125 13.695312 -21.988281 14.90625 -23.0625 C 16.125 -24.144531 17.363281 -24.984375 18.625 -25.578125 C 19.894531 -26.179688 20.898438 -26.484375 21.640625 -26.484375 L 21.234375 -18.40625 C 21.003906 -18.4375 20.675781 -18.453125 20.25 -18.453125 C 18.632812 -18.453125 17.210938 -18.03125 15.984375 -17.1875 C 14.753906 -16.34375 13.8125 -15.253906 13.15625 -13.921875 C 12.5 -12.597656 12.171875 -11.242188 12.171875 -9.859375 L 12.171875 0 L 4.15625 0 L 4.15625 -25.203125 L 11.421875 -25.203125 Z M 12.0625 -19.4375 "/></g></g></g><g fill="#a91b60" fill-opacity="1"><g transform="translate(151.713983, 68.794061)"><g><path d="M 14.484375 -10.5 L 12.234375 -8.828125 L 12.234375 0 L 4.15625 0 L 4.15625 -45.515625 L 12.234375 -45.515625 L 12.234375 -17.015625 L 24.234375 -25.84375 L 29.125 -21.515625 L 20.1875 -14.765625 L 30.0625 0 L 20.65625 0 Z M 14.484375 -10.5 "/></g></g></g><g fill="#a91b60" fill-opacity="1"><g transform="translate(183.207788, 68.794061)"><g/></g></g><g fill="#a91b60" fill-opacity="1"><g transform="translate(201.954099, 68.794061)"><g><path d="M 28.15625 -32.1875 C 24.457031 -34.226562 21.242188 -35.25 18.515625 -35.25 C 16.671875 -35.25 15.238281 -34.882812 14.21875 -34.15625 C 13.195312 -33.425781 12.6875 -32.328125 12.6875 -30.859375 C 12.6875 -29.515625 13.425781 -28.332031 14.90625 -27.3125 C 16.394531 -26.289062 18.367188 -25.320312 20.828125 -24.40625 C 22.828125 -23.675781 24.535156 -22.835938 25.953125 -21.890625 C 27.378906 -20.953125 28.5625 -19.65625 29.5 -18 C 30.445312 -16.34375 30.921875 -14.242188 30.921875 -11.703125 C 30.921875 -9.515625 30.351562 -7.488281 29.21875 -5.625 C 28.082031 -3.757812 26.414062 -2.273438 24.21875 -1.171875 C 22.03125 -0.078125 19.421875 0.46875 16.390625 0.46875 C 13.847656 0.46875 11.328125 0.09375 8.828125 -0.65625 C 6.328125 -1.40625 4 -2.550781 1.84375 -4.09375 L 5.53125 -10.609375 C 7 -9.535156 8.675781 -8.648438 10.5625 -7.953125 C 12.445312 -7.265625 14.140625 -6.921875 15.640625 -6.921875 C 17.398438 -6.921875 18.929688 -7.296875 20.234375 -8.046875 C 21.546875 -8.796875 22.203125 -10.015625 22.203125 -11.703125 C 22.203125 -13.898438 20.144531 -15.804688 16.03125 -17.421875 C 13.613281 -18.378906 11.597656 -19.300781 9.984375 -20.1875 C 8.367188 -21.070312 6.972656 -22.34375 5.796875 -24 C 4.617188 -25.65625 4.03125 -27.734375 4.03125 -30.234375 C 4.03125 -33.878906 5.234375 -36.816406 7.640625 -39.046875 C 10.046875 -41.285156 13.25 -42.5 17.25 -42.6875 C 20.40625 -42.6875 23.039062 -42.328125 25.15625 -41.609375 C 27.269531 -40.898438 29.328125 -39.894531 31.328125 -38.59375 Z M 28.15625 -32.1875 "/></g></g></g><g fill="#a91b60" fill-opacity="1"><g transform="translate(235.582088, 68.794061)"><g><path d="M 14.59375 -36.28125 L 14.59375 -25.328125 L 20.703125 -25.328125 L 20.703125 -19.03125 L 14.59375 -19.03125 L 14.59375 0 L 6.515625 0 L 6.515625 -19.03125 L 2.59375 -19.03125 L 2.59375 -25.328125 L 6.515625 -25.328125 L 6.515625 -36.28125 Z M 14.59375 -36.28125 "/></g></g></g><g fill="#a91b60" fill-opacity="1"><g transform="translate(258.308386, 68.794061)"><g><path d="M 31.265625 -25.203125 L 31.265625 0 L 23.1875 0 L 23.1875 -3.109375 C 20.769531 -0.578125 17.960938 0.6875 14.765625 0.6875 C 11.035156 0.6875 8.003906 -0.425781 5.671875 -2.65625 C 3.347656 -4.882812 2.1875 -8.191406 2.1875 -12.578125 C 2.1875 -15.347656 2.753906 -17.78125 3.890625 -19.875 C 5.023438 -21.96875 6.535156 -23.59375 8.421875 -24.75 C 10.304688 -25.90625 12.328125 -26.484375 14.484375 -26.484375 C 16.710938 -26.484375 18.476562 -26.144531 19.78125 -25.46875 C 21.09375 -24.789062 22.25 -23.835938 23.25 -22.609375 L 23.765625 -25.203125 Z M 17.078125 -5.890625 C 19.878906 -5.890625 21.914062 -7.15625 23.1875 -9.6875 L 23.1875 -15.859375 C 22.726562 -17.085938 21.929688 -18.066406 20.796875 -18.796875 C 19.660156 -19.535156 18.320312 -19.90625 16.78125 -19.90625 C 15.019531 -19.90625 13.515625 -19.25 12.265625 -17.9375 C 11.015625 -16.632812 10.390625 -14.984375 10.390625 -12.984375 C 10.390625 -11.671875 10.695312 -10.46875 11.3125 -9.375 C 11.925781 -8.28125 12.738281 -7.425781 13.75 -6.8125 C 14.769531 -6.195312 15.878906 -5.890625 17.078125 -5.890625 Z M 17.078125 -5.890625 "/></g></g></g><g fill="#a91b60" fill-opacity="1"><g transform="translate(293.724495, 68.794061)"><g><path d="M 12.0625 -19.4375 C 12.75 -20.78125 13.695312 -21.988281 14.90625 -23.0625 C 16.125 -24.144531 17.363281 -24.984375 18.625 -25.578125 C 19.894531 -26.179688 20.898438 -26.484375 21.640625 -26.484375 L 21.234375 -18.40625 C 21.003906 -18.4375 20.675781 -18.453125 20.25 -18.453125 C 18.632812 -18.453125 17.210938 -18.03125 15.984375 -17.1875 C 14.753906 -16.34375 13.8125 -15.253906 13.15625 -13.921875 C 12.5 -12.597656 12.171875 -11.242188 12.171875 -9.859375 L 12.171875 0 L 4.15625 0 L 4.15625 -25.203125 L 11.421875 -25.203125 Z M 12.0625 -19.4375 "/></g></g></g><g fill="#a91b60" fill-opacity="1"><g transform="translate(317.373682, 68.794061)"><g><path d="M 12.34375 0.515625 C 10.269531 0.515625 8.328125 0.148438 6.515625 -0.578125 C 4.710938 -1.304688 3.210938 -2.328125 2.015625 -3.640625 L 5.359375 -8.078125 C 7.585938 -6.003906 9.6875 -4.96875 11.65625 -4.96875 C 12.6875 -4.96875 13.519531 -5.128906 14.15625 -5.453125 C 14.789062 -5.773438 15.109375 -6.265625 15.109375 -6.921875 C 15.109375 -7.691406 14.742188 -8.273438 14.015625 -8.671875 C 13.285156 -9.078125 12.46875 -9.414062 11.5625 -9.6875 C 10.65625 -9.957031 10.050781 -10.128906 9.75 -10.203125 C 7.5625 -10.898438 5.925781 -11.929688 4.84375 -13.296875 C 3.769531 -14.660156 3.234375 -16.226562 3.234375 -18 C 3.234375 -19.34375 3.585938 -20.65625 4.296875 -21.9375 C 5.003906 -23.226562 6.109375 -24.285156 7.609375 -25.109375 C 9.109375 -25.941406 10.972656 -26.359375 13.203125 -26.359375 C 15.285156 -26.359375 17.054688 -26.144531 18.515625 -25.71875 C 19.972656 -25.300781 21.378906 -24.613281 22.734375 -23.65625 L 19.671875 -18.921875 C 18.898438 -19.535156 18.039062 -20.046875 17.09375 -20.453125 C 16.15625 -20.859375 15.300781 -21.0625 14.53125 -21.0625 C 13.613281 -21.0625 12.863281 -20.867188 12.28125 -20.484375 C 11.707031 -20.097656 11.421875 -19.632812 11.421875 -19.09375 C 11.378906 -18.289062 11.710938 -17.6875 12.421875 -17.28125 C 13.140625 -16.875 14.25 -16.457031 15.75 -16.03125 C 15.976562 -15.957031 16.21875 -15.878906 16.46875 -15.796875 C 16.71875 -15.722656 16.976562 -15.648438 17.25 -15.578125 C 21.207031 -14.265625 23.1875 -11.878906 23.1875 -8.421875 C 23.1875 -6.804688 22.78125 -5.328125 21.96875 -3.984375 C 21.164062 -2.640625 19.945312 -1.550781 18.3125 -0.71875 C 16.675781 0.101562 14.6875 0.515625 12.34375 0.515625 Z M 12.34375 0.515625 "/></g></g></g><g fill="#a91b60" fill-opacity="1"><g transform="translate(343.157065, 68.794061)"><g/></g></g><g fill="#a91b60" fill-opacity="1"><g transform="translate(361.903386, 68.794061)"><g><path d="M 18.34375 -42.453125 C 23.53125 -42.453125 27.546875 -41.171875 30.390625 -38.609375 C 33.242188 -36.054688 34.671875 -32.570312 34.671875 -28.15625 C 34.671875 -25.613281 34.179688 -23.234375 33.203125 -21.015625 C 32.222656 -18.804688 30.625 -16.988281 28.40625 -15.5625 C 26.195312 -14.144531 23.34375 -13.4375 19.84375 -13.4375 L 13.84375 -13.4375 L 13.84375 0 L 5.484375 0 L 5.484375 -42.453125 Z M 19.78125 -21.578125 C 21.363281 -21.578125 22.632812 -21.929688 23.59375 -22.640625 C 24.550781 -23.347656 25.242188 -24.179688 25.671875 -25.140625 C 26.097656 -26.109375 26.3125 -27.035156 26.3125 -27.921875 C 26.3125 -29.421875 25.867188 -30.867188 24.984375 -32.265625 C 24.097656 -33.671875 22.382812 -34.375 19.84375 -34.375 L 13.84375 -34.375 L 13.84375 -21.578125 Z M 19.78125 -21.578125 "/></g></g></g><g fill="#a91b60" fill-opacity="1"><g transform="translate(398.588462, 68.794061)"><g><path d="M 12.0625 -19.4375 C 12.75 -20.78125 13.695312 -21.988281 14.90625 -23.0625 C 16.125 -24.144531 17.363281 -24.984375 18.625 -25.578125 C 19.894531 -26.179688 20.898438 -26.484375 21.640625 -26.484375 L 21.234375 -18.40625 C 21.003906 -18.4375 20.675781 -18.453125 20.25 -18.453125 C 18.632812 -18.453125 17.210938 -18.03125 15.984375 -17.1875 C 14.753906 -16.34375 13.8125 -15.253906 13.15625 -13.921875 C 12.5 -12.597656 12.171875 -11.242188 12.171875 -9.859375 L 12.171875 0 L 4.15625 0 L 4.15625 -25.203125 L 11.421875 -25.203125 Z M 12.0625 -19.4375 "/></g></g></g><g fill="#a91b60" fill-opacity="1"><g transform="translate(422.237627, 68.794061)"><g><path d="M 2.1875 -12.921875 C 2.1875 -15.492188 2.789062 -17.800781 4 -19.84375 C 5.21875 -21.882812 6.929688 -23.488281 9.140625 -24.65625 C 11.347656 -25.832031 13.859375 -26.421875 16.671875 -26.421875 C 19.484375 -26.421875 21.953125 -25.832031 24.078125 -24.65625 C 26.210938 -23.488281 27.859375 -21.882812 29.015625 -19.84375 C 30.171875 -17.800781 30.75 -15.492188 30.75 -12.921875 C 30.75 -10.347656 30.171875 -8.019531 29.015625 -5.9375 C 27.859375 -3.863281 26.210938 -2.238281 24.078125 -1.0625 C 21.953125 0.101562 19.445312 0.6875 16.5625 0.6875 C 13.75 0.6875 11.253906 0.140625 9.078125 -0.953125 C 6.910156 -2.046875 5.21875 -3.609375 4 -5.640625 C 2.789062 -7.679688 2.1875 -10.109375 2.1875 -12.921875 Z M 10.328125 -12.859375 C 10.328125 -10.859375 10.898438 -9.195312 12.046875 -7.875 C 13.203125 -6.550781 14.664062 -5.890625 16.4375 -5.890625 C 18.28125 -5.890625 19.769531 -6.539062 20.90625 -7.84375 C 22.039062 -9.15625 22.609375 -10.828125 22.609375 -12.859375 C 22.609375 -14.898438 22.039062 -16.570312 20.90625 -17.875 C 19.769531 -19.1875 18.28125 -19.84375 16.4375 -19.84375 C 14.664062 -19.84375 13.203125 -19.175781 12.046875 -17.84375 C 10.898438 -16.519531 10.328125 -14.859375 10.328125 -12.859375 Z M 10.328125 -12.859375 "/></g></g></g><g fill="#a91b60" fill-opacity="1"><g transform="translate(455.173461, 68.794061)"><g><path d="M 31.84375 -45.515625 L 31.84375 0 L 23.765625 0 L 23.765625 -2.65625 C 20.847656 -0.425781 17.734375 0.6875 14.421875 0.6875 C 12.078125 0.6875 9.976562 0.128906 8.125 -0.984375 C 6.28125 -2.097656 4.828125 -3.691406 3.765625 -5.765625 C 2.710938 -7.847656 2.1875 -10.289062 2.1875 -13.09375 C 2.1875 -15.863281 2.753906 -18.257812 3.890625 -20.28125 C 5.023438 -22.300781 6.59375 -23.835938 8.59375 -24.890625 C 10.59375 -25.953125 12.878906 -26.484375 15.453125 -26.484375 C 17.109375 -26.484375 18.664062 -26.222656 20.125 -25.703125 C 21.59375 -25.179688 22.828125 -24.421875 23.828125 -23.421875 L 23.828125 -45.515625 Z M 17.078125 -6.109375 C 18.691406 -6.109375 20.035156 -6.425781 21.109375 -7.0625 C 22.191406 -7.695312 23.078125 -8.648438 23.765625 -9.921875 L 23.765625 -16.09375 C 23.304688 -17.320312 22.476562 -18.300781 21.28125 -19.03125 C 20.09375 -19.769531 18.691406 -20.140625 17.078125 -20.140625 C 15.265625 -20.140625 13.695312 -19.484375 12.375 -18.171875 C 11.050781 -16.859375 10.390625 -15.203125 10.390625 -13.203125 C 10.390625 -11.898438 10.695312 -10.695312 11.3125 -9.59375 C 11.925781 -8.5 12.738281 -7.644531 13.75 -7.03125 C 14.769531 -6.414062 15.878906 -6.109375 17.078125 -6.109375 Z M 17.078125 -6.109375 "/></g></g></g><g fill="#a91b60" fill-opacity="1"><g transform="translate(491.166381, 68.794061)"><g><path d="M 29.53125 -25.203125 L 29.53125 0 L 22.203125 0 L 21.640625 -4.03125 C 20.753906 -2.414062 19.507812 -1.132812 17.90625 -0.1875 C 16.3125 0.75 14.4375 1.21875 12.28125 1.21875 C 9.976562 1.21875 8.054688 0.503906 6.515625 -0.921875 C 4.984375 -2.347656 4.195312 -4.15625 4.15625 -6.34375 L 4.15625 -25.203125 L 12.234375 -25.203125 L 12.234375 -9.34375 C 12.347656 -6.882812 13.484375 -5.65625 15.640625 -5.65625 C 17.398438 -5.65625 18.804688 -6.519531 19.859375 -8.25 C 20.921875 -9.976562 21.453125 -12.207031 21.453125 -14.9375 L 21.453125 -25.203125 Z M 29.53125 -25.203125 "/></g></g></g><g fill="#a91b60" fill-opacity="1"><g transform="translate(524.852055, 68.794061)"><g><path d="M 25.5625 -2.25 C 24.4375 -1.363281 23.035156 -0.648438 21.359375 -0.109375 C 19.691406 0.421875 18.050781 0.6875 16.4375 0.6875 C 12.050781 0.6875 8.578125 -0.492188 6.015625 -2.859375 C 3.460938 -5.222656 2.1875 -8.484375 2.1875 -12.640625 C 2.1875 -15.328125 2.8125 -17.679688 4.0625 -19.703125 C 5.3125 -21.722656 6.957031 -23.257812 9 -24.3125 C 11.039062 -25.375 13.234375 -25.90625 15.578125 -25.90625 C 19.765625 -25.90625 23.164062 -24.789062 25.78125 -22.5625 L 21.859375 -17.359375 C 20.210938 -18.671875 18.367188 -19.328125 16.328125 -19.328125 C 14.628906 -19.328125 13.191406 -18.691406 12.015625 -17.421875 C 10.847656 -16.148438 10.265625 -14.554688 10.265625 -12.640625 C 10.265625 -10.710938 10.898438 -9.101562 12.171875 -7.8125 C 13.441406 -6.53125 15.097656 -5.890625 17.140625 -5.890625 C 18.898438 -5.890625 20.359375 -6.367188 21.515625 -7.328125 Z M 25.5625 -2.25 "/></g></g></g><g fill="#a91b60" fill-opacity="1"><g transform="translate(552.48124, 68.794061)"><g><path d="M 14.59375 -36.28125 L 14.59375 -25.328125 L 20.703125 -25.328125 L 20.703125 -19.03125 L 14.59375 -19.03125 L 14.59375 0 L 6.515625 0 L 6.515625 -19.03125 L 2.59375 -19.03125 L 2.59375 -25.328125 L 6.515625 -25.328125 L 6.515625 -36.28125 Z M 14.59375 -36.28125 "/></g></g></g><g fill="#a91b60" fill-opacity="1"><g transform="translate(575.20756, 68.794061)"><g><path d="M 12.234375 -25.203125 L 12.234375 0 L 4.15625 0 L 4.15625 -25.203125 Z M 3.984375 -34.15625 C 3.984375 -35.300781 4.429688 -36.269531 5.328125 -37.0625 C 6.234375 -37.851562 7.265625 -38.25 8.421875 -38.25 C 9.535156 -38.25 10.535156 -37.851562 11.421875 -37.0625 C 12.304688 -36.269531 12.75 -35.300781 12.75 -34.15625 C 12.75 -33 12.304688 -32.035156 11.421875 -31.265625 C 10.535156 -30.492188 9.535156 -30.109375 8.421875 -30.109375 C 7.265625 -30.109375 6.234375 -30.492188 5.328125 -31.265625 C 4.429688 -32.035156 3.984375 -33 3.984375 -34.15625 Z M 3.984375 -34.15625 "/></g></g></g><g fill="#a91b60" fill-opacity="1"><g transform="translate(591.588929, 68.794061)"><g><path d="M 2.1875 -12.921875 C 2.1875 -15.492188 2.789062 -17.800781 4 -19.84375 C 5.21875 -21.882812 6.929688 -23.488281 9.140625 -24.65625 C 11.347656 -25.832031 13.859375 -26.421875 16.671875 -26.421875 C 19.484375 -26.421875 21.953125 -25.832031 24.078125 -24.65625 C 26.210938 -23.488281 27.859375 -21.882812 29.015625 -19.84375 C 30.171875 -17.800781 30.75 -15.492188 30.75 -12.921875 C 30.75 -10.347656 30.171875 -8.019531 29.015625 -5.9375 C 27.859375 -3.863281 26.210938 -2.238281 24.078125 -1.0625 C 21.953125 0.101562 19.445312 0.6875 16.5625 0.6875 C 13.75 0.6875 11.253906 0.140625 9.078125 -0.953125 C 6.910156 -2.046875 5.21875 -3.609375 4 -5.640625 C 2.789062 -7.679688 2.1875 -10.109375 2.1875 -12.921875 Z M 10.328125 -12.859375 C 10.328125 -10.859375 10.898438 -9.195312 12.046875 -7.875 C 13.203125 -6.550781 14.664062 -5.890625 16.4375 -5.890625 C 18.28125 -5.890625 19.769531 -6.539062 20.90625 -7.84375 C 22.039062 -9.15625 22.609375 -10.828125 22.609375 -12.859375 C 22.609375 -14.898438 22.039062 -16.570312 20.90625 -17.875 C 19.769531 -19.1875 18.28125 -19.84375 16.4375 -19.84375 C 14.664062 -19.84375 13.203125 -19.175781 12.046875 -17.84375 C 10.898438 -16.519531 10.328125 -14.859375 10.328125 -12.859375 Z M 10.328125 -12.859375 "/></g></g></g><g fill="#a91b60" fill-opacity="1"><g transform="translate(624.524763, 68.794061)"><g><path d="M 21.6875 -26.421875 C 24.070312 -26.421875 26.0625 -25.707031 27.65625 -24.28125 C 29.257812 -22.863281 30.078125 -21.054688 30.109375 -18.859375 L 30.109375 0 L 22.03125 0 L 22.03125 -15.859375 C 21.914062 -18.328125 20.6875 -19.5625 18.34375 -19.5625 C 16.5 -19.5625 15.019531 -18.691406 13.90625 -16.953125 C 12.789062 -15.222656 12.234375 -12.992188 12.234375 -10.265625 L 12.234375 0 L 4.15625 0 L 4.15625 -25.203125 L 11.484375 -25.203125 L 12.0625 -21.171875 C 12.976562 -22.828125 14.253906 -24.113281 15.890625 -25.03125 C 17.523438 -25.957031 19.457031 -26.421875 21.6875 -26.421875 Z M 21.6875 -26.421875 "/></g></g></g><g fill="#a91b60" fill-opacity="1"><g transform="translate(440.102463, 115.652134)"><g><path d="M 5.59375 -20.125 L 5.59375 0 L 2.890625 0 L 2.890625 -20.125 Z M 5.59375 -20.125 "/></g></g></g><g fill="#a91b60" fill-opacity="1"><g transform="translate(448.594893, 115.652134)"><g><path d="M 9.40625 -11.96875 C 10.488281 -11.96875 11.378906 -11.644531 12.078125 -11 C 12.785156 -10.363281 13.148438 -9.535156 13.171875 -8.515625 L 13.171875 0 L 10.546875 0 L 10.546875 -7.625 C 10.515625 -8.28125 10.320312 -8.789062 9.96875 -9.15625 C 9.613281 -9.53125 9.082031 -9.726562 8.375 -9.75 C 7.351562 -9.75 6.507812 -9.335938 5.84375 -8.515625 C 5.175781 -7.703125 4.84375 -6.664062 4.84375 -5.40625 L 4.84375 0 L 2.25 0 L 2.25 -11.53125 L 4.59375 -11.53125 L 4.765625 -9.296875 C 5.171875 -10.128906 5.78125 -10.78125 6.59375 -11.25 C 7.414062 -11.726562 8.351562 -11.96875 9.40625 -11.96875 Z M 9.40625 -11.96875 "/></g></g></g><g fill="#a91b60" fill-opacity="1"><g transform="translate(463.992639, 115.652134)"><g><path d="M 5.984375 -16.59375 L 5.984375 -11.5 L 9.125 -11.5 L 9.125 -9.4375 L 5.984375 -9.4375 L 5.984375 0 L 3.375 0 L 3.375 -9.4375 L 1.25 -9.4375 L 1.25 -11.5 L 3.375 -11.5 L 3.375 -16.59375 Z M 5.984375 -16.59375 "/></g></g></g><g fill="#a91b60" fill-opacity="1"><g transform="translate(474.016491, 115.652134)"><g><path d="M 7.65625 -1.953125 C 8.625 -1.953125 9.5625 -2.285156 10.46875 -2.953125 L 11.671875 -1.03125 C 11.054688 -0.625 10.390625 -0.300781 9.671875 -0.0625 C 8.960938 0.164062 8.269531 0.28125 7.59375 0.28125 C 6.320312 0.28125 5.207031 0.015625 4.25 -0.515625 C 3.289062 -1.046875 2.550781 -1.773438 2.03125 -2.703125 C 1.507812 -3.628906 1.25 -4.675781 1.25 -5.84375 C 1.25 -6.976562 1.53125 -8.015625 2.09375 -8.953125 C 2.664062 -9.890625 3.441406 -10.628906 4.421875 -11.171875 C 5.410156 -11.722656 6.488281 -12 7.65625 -12 C 9.15625 -12 10.410156 -11.554688 11.421875 -10.671875 C 12.441406 -9.796875 13.132812 -8.566406 13.5 -6.984375 L 4.375 -3.78125 C 4.707031 -3.207031 5.15625 -2.757812 5.71875 -2.4375 C 6.289062 -2.113281 6.9375 -1.953125 7.65625 -1.953125 Z M 7.46875 -9.9375 C 6.40625 -9.9375 5.53125 -9.566406 4.84375 -8.828125 C 4.15625 -8.085938 3.8125 -7.140625 3.8125 -5.984375 C 3.8125 -5.703125 3.820312 -5.488281 3.84375 -5.34375 L 10.546875 -7.828125 C 10.273438 -8.453125 9.882812 -8.957031 9.375 -9.34375 C 8.863281 -9.738281 8.226562 -9.9375 7.46875 -9.9375 Z M 7.46875 -9.9375 "/></g></g></g><g fill="#a91b60" fill-opacity="1"><g transform="translate(488.495388, 115.652134)"><g><path d="M 4.765625 -8.796875 C 5.054688 -9.429688 5.472656 -9.988281 6.015625 -10.46875 C 6.566406 -10.945312 7.148438 -11.316406 7.765625 -11.578125 C 8.378906 -11.835938 8.921875 -11.976562 9.390625 -12 L 9.265625 -9.40625 C 8.429688 -9.445312 7.675781 -9.28125 7 -8.90625 C 6.320312 -8.539062 5.789062 -8.023438 5.40625 -7.359375 C 5.03125 -6.703125 4.84375 -6.003906 4.84375 -5.265625 L 4.84375 0 L 2.25 0 L 2.25 -11.53125 L 4.5625 -11.53125 Z M 4.765625 -8.796875 "/></g></g></g><g fill="#a91b60" fill-opacity="1"><g transform="translate(498.964739, 115.652134)"><g><path d="M 9.40625 -11.96875 C 10.488281 -11.96875 11.378906 -11.644531 12.078125 -11 C 12.785156 -10.363281 13.148438 -9.535156 13.171875 -8.515625 L 13.171875 0 L 10.546875 0 L 10.546875 -7.625 C 10.515625 -8.28125 10.320312 -8.789062 9.96875 -9.15625 C 9.613281 -9.53125 9.082031 -9.726562 8.375 -9.75 C 7.351562 -9.75 6.507812 -9.335938 5.84375 -8.515625 C 5.175781 -7.703125 4.84375 -6.664062 4.84375 -5.40625 L 4.84375 0 L 2.25 0 L 2.25 -11.53125 L 4.59375 -11.53125 L 4.765625 -9.296875 C 5.171875 -10.128906 5.78125 -10.78125 6.59375 -11.25 C 7.414062 -11.726562 8.351562 -11.96875 9.40625 -11.96875 Z M 9.40625 -11.96875 "/></g></g></g><g fill="#a91b60" fill-opacity="1"><g transform="translate(514.362485, 115.652134)"><g><path d="M 5.515625 0.25 C 4.660156 0.25 3.847656 0.101562 3.078125 -0.1875 C 2.304688 -0.488281 1.679688 -0.925781 1.203125 -1.5 L 2.3125 -3 C 2.769531 -2.5625 3.253906 -2.21875 3.765625 -1.96875 C 4.273438 -1.726562 4.785156 -1.609375 5.296875 -1.609375 C 5.898438 -1.609375 6.394531 -1.726562 6.78125 -1.96875 C 7.175781 -2.21875 7.375 -2.59375 7.375 -3.09375 C 7.375 -3.476562 7.253906 -3.789062 7.015625 -4.03125 C 6.773438 -4.28125 6.5 -4.457031 6.1875 -4.5625 C 5.882812 -4.675781 5.375 -4.84375 4.65625 -5.0625 C 2.6875 -5.695312 1.703125 -6.820312 1.703125 -8.4375 C 1.703125 -9.40625 2.054688 -10.226562 2.765625 -10.90625 C 3.484375 -11.59375 4.484375 -11.9375 5.765625 -11.9375 C 6.578125 -11.9375 7.296875 -11.832031 7.921875 -11.625 C 8.554688 -11.425781 9.144531 -11.109375 9.6875 -10.671875 L 8.65625 -9.078125 C 8.363281 -9.390625 7.988281 -9.640625 7.53125 -9.828125 C 7.070312 -10.015625 6.640625 -10.117188 6.234375 -10.140625 C 5.710938 -10.140625 5.265625 -10.015625 4.890625 -9.765625 C 4.523438 -9.515625 4.34375 -9.175781 4.34375 -8.75 C 4.34375 -8.394531 4.460938 -8.097656 4.703125 -7.859375 C 4.941406 -7.628906 5.191406 -7.460938 5.453125 -7.359375 C 5.710938 -7.265625 6.222656 -7.09375 6.984375 -6.84375 C 7.929688 -6.53125 8.671875 -6.125 9.203125 -5.625 C 9.734375 -5.125 10 -4.445312 10 -3.59375 C 10 -2.476562 9.609375 -1.554688 8.828125 -0.828125 C 8.046875 -0.109375 6.941406 0.25 5.515625 0.25 Z M 5.515625 0.25 "/></g></g></g><g fill="#a91b60" fill-opacity="1"><g transform="translate(525.722845, 115.652134)"><g><path d="M 9.40625 -11.96875 C 10.488281 -11.96875 11.378906 -11.644531 12.078125 -11 C 12.785156 -10.363281 13.148438 -9.535156 13.171875 -8.515625 L 13.171875 0 L 10.546875 0 L 10.546875 -7.625 C 10.515625 -8.28125 10.320312 -8.789062 9.96875 -9.15625 C 9.613281 -9.53125 9.082031 -9.726562 8.375 -9.75 C 7.707031 -9.75 7.101562 -9.5625 6.5625 -9.1875 C 6.03125 -8.8125 5.609375 -8.289062 5.296875 -7.625 C 4.992188 -6.957031 4.84375 -6.21875 4.84375 -5.40625 L 4.84375 0 L 2.25 0 L 2.25 -21.578125 L 4.796875 -21.578125 L 4.796875 -9.4375 C 5.210938 -10.195312 5.828125 -10.804688 6.640625 -11.265625 C 7.453125 -11.734375 8.375 -11.96875 9.40625 -11.96875 Z M 9.40625 -11.96875 "/></g></g></g><g fill="#a91b60" fill-opacity="1"><g transform="translate(541.120591, 115.652134)"><g><path d="M 4.84375 -11.53125 L 4.84375 0 L 2.25 0 L 2.25 -11.53125 Z M 2.0625 -15.6875 C 2.0625 -16.09375 2.21875 -16.429688 2.53125 -16.703125 C 2.84375 -16.984375 3.203125 -17.125 3.609375 -17.125 C 4.023438 -17.125 4.382812 -16.984375 4.6875 -16.703125 C 4.988281 -16.429688 5.140625 -16.09375 5.140625 -15.6875 C 5.140625 -15.269531 4.988281 -14.921875 4.6875 -14.640625 C 4.382812 -14.367188 4.023438 -14.234375 3.609375 -14.234375 C 3.203125 -14.234375 2.84375 -14.367188 2.53125 -14.640625 C 2.21875 -14.921875 2.0625 -15.269531 2.0625 -15.6875 Z M 2.0625 -15.6875 "/></g></g></g><g fill="#a91b60" fill-opacity="1"><g transform="translate(548.220822, 115.652134)"><g><path d="M 9.546875 -12 C 10.628906 -12 11.601562 -11.738281 12.46875 -11.21875 C 13.34375 -10.695312 14.03125 -9.96875 14.53125 -9.03125 C 15.03125 -8.09375 15.28125 -7.015625 15.28125 -5.796875 C 15.28125 -4.585938 15.007812 -3.519531 14.46875 -2.59375 C 13.9375 -1.675781 13.195312 -0.96875 12.25 -0.46875 C 11.300781 0.03125 10.242188 0.28125 9.078125 0.28125 C 8.242188 0.28125 7.445312 0.0976562 6.6875 -0.265625 C 5.925781 -0.628906 5.3125 -1.113281 4.84375 -1.71875 L 4.84375 5.546875 L 2.25 5.546875 L 2.25 -11.71875 L 4.515625 -11.71875 L 4.734375 -9.765625 C 5.328125 -10.441406 6.035156 -10.984375 6.859375 -11.390625 C 7.691406 -11.796875 8.585938 -12 9.546875 -12 Z M 8.578125 -1.8125 C 9.296875 -1.8125 9.96875 -1.984375 10.59375 -2.328125 C 11.21875 -2.671875 11.710938 -3.144531 12.078125 -3.75 C 12.453125 -4.351562 12.640625 -5.023438 12.640625 -5.765625 C 12.640625 -6.523438 12.46875 -7.210938 12.125 -7.828125 C 11.78125 -8.441406 11.3125 -8.921875 10.71875 -9.265625 C 10.125 -9.617188 9.46875 -9.796875 8.75 -9.796875 C 7.757812 -9.796875 6.914062 -9.519531 6.21875 -8.96875 C 5.519531 -8.425781 5.0625 -7.691406 4.84375 -6.765625 L 4.84375 -4.84375 C 4.988281 -3.957031 5.410156 -3.226562 6.109375 -2.65625 C 6.804688 -2.09375 7.628906 -1.8125 8.578125 -1.8125 Z M 8.578125 -1.8125 "/></g></g></g><g fill="#a91b60" fill-opacity="1"><g transform="translate(109.194311, 115.652134)"><g><path d="M 17.6875 -1.5 C 17.03125 -1.070312 16.207031 -0.675781 15.21875 -0.3125 C 14.226562 0.0390625 13.144531 0.21875 11.96875 0.21875 C 9.90625 0.21875 8.085938 -0.234375 6.515625 -1.140625 C 4.953125 -2.046875 3.75 -3.269531 2.90625 -4.8125 C 2.0625 -6.351562 1.640625 -8.050781 1.640625 -9.90625 C 1.640625 -11.894531 2.066406 -13.679688 2.921875 -15.265625 C 3.773438 -16.859375 4.957031 -18.101562 6.46875 -19 C 7.988281 -19.90625 9.703125 -20.359375 11.609375 -20.359375 C 12.742188 -20.359375 13.800781 -20.207031 14.78125 -19.90625 C 15.769531 -19.613281 16.65625 -19.222656 17.4375 -18.734375 L 16.34375 -16.203125 C 14.800781 -17.242188 13.25 -17.765625 11.6875 -17.765625 C 10.394531 -17.765625 9.195312 -17.421875 8.09375 -16.734375 C 6.988281 -16.046875 6.101562 -15.113281 5.4375 -13.9375 C 4.78125 -12.757812 4.453125 -11.460938 4.453125 -10.046875 C 4.453125 -8.597656 4.753906 -7.289062 5.359375 -6.125 C 5.960938 -4.957031 6.828125 -4.039062 7.953125 -3.375 C 9.078125 -2.71875 10.367188 -2.390625 11.828125 -2.390625 C 13.628906 -2.390625 15.203125 -2.898438 16.546875 -3.921875 Z M 17.6875 -1.5 "/></g></g></g><g fill="#a91b60" fill-opacity="1"><g transform="translate(128.51807, 115.652134)"><g><path d="M 1.25 -5.875 C 1.25 -7.007812 1.519531 -8.046875 2.0625 -8.984375 C 2.613281 -9.921875 3.375 -10.65625 4.34375 -11.1875 C 5.320312 -11.726562 6.425781 -12 7.65625 -12 C 8.882812 -12 9.972656 -11.726562 10.921875 -11.1875 C 11.878906 -10.65625 12.625 -9.921875 13.15625 -8.984375 C 13.6875 -8.054688 13.953125 -7.019531 13.953125 -5.875 C 13.953125 -4.726562 13.6875 -3.6875 13.15625 -2.75 C 12.625 -1.8125 11.875 -1.070312 10.90625 -0.53125 C 9.945312 0.0078125 8.84375 0.28125 7.59375 0.28125 C 6.394531 0.28125 5.3125 0.0234375 4.34375 -0.484375 C 3.375 -0.992188 2.613281 -1.710938 2.0625 -2.640625 C 1.519531 -3.566406 1.25 -4.644531 1.25 -5.875 Z M 3.875 -5.84375 C 3.875 -5.125 4.035156 -4.457031 4.359375 -3.84375 C 4.679688 -3.226562 5.125 -2.742188 5.6875 -2.390625 C 6.257812 -2.035156 6.890625 -1.859375 7.578125 -1.859375 C 8.648438 -1.859375 9.535156 -2.238281 10.234375 -3 C 10.941406 -3.769531 11.296875 -4.71875 11.296875 -5.84375 C 11.296875 -6.976562 10.941406 -7.929688 10.234375 -8.703125 C 9.535156 -9.472656 8.648438 -9.859375 7.578125 -9.859375 C 6.867188 -9.859375 6.234375 -9.675781 5.671875 -9.3125 C 5.117188 -8.945312 4.679688 -8.457031 4.359375 -7.84375 C 4.035156 -7.238281 3.875 -6.570312 3.875 -5.84375 Z M 3.875 -5.84375 "/></g></g></g><g fill="#a91b60" fill-opacity="1"><g transform="translate(143.693061, 115.652134)"><g><path d="M 9.40625 -11.96875 C 10.488281 -11.96875 11.378906 -11.644531 12.078125 -11 C 12.785156 -10.363281 13.148438 -9.535156 13.171875 -8.515625 L 13.171875 0 L 10.546875 0 L 10.546875 -7.625 C 10.515625 -8.28125 10.320312 -8.789062 9.96875 -9.15625 C 9.613281 -9.53125 9.082031 -9.726562 8.375 -9.75 C 7.351562 -9.75 6.507812 -9.335938 5.84375 -8.515625 C 5.175781 -7.703125 4.84375 -6.664062 4.84375 -5.40625 L 4.84375 0 L 2.25 0 L 2.25 -11.53125 L 4.59375 -11.53125 L 4.765625 -9.296875 C 5.171875 -10.128906 5.78125 -10.78125 6.59375 -11.25 C 7.414062 -11.726562 8.351562 -11.96875 9.40625 -11.96875 Z M 9.40625 -11.96875 "/></g></g></g><g fill="#a91b60" fill-opacity="1"><g transform="translate(159.090807, 115.652134)"><g><path d="M 5.984375 -16.59375 L 5.984375 -11.5 L 9.125 -11.5 L 9.125 -9.4375 L 5.984375 -9.4375 L 5.984375 0 L 3.375 0 L 3.375 -9.4375 L 1.25 -9.4375 L 1.25 -11.5 L 3.375 -11.5 L 3.375 -16.59375 Z M 5.984375 -16.59375 "/></g></g></g><g fill="#a91b60" fill-opacity="1"><g transform="translate(169.114659, 115.652134)"><g><path d="M 7.65625 -1.953125 C 8.625 -1.953125 9.5625 -2.285156 10.46875 -2.953125 L 11.671875 -1.03125 C 11.054688 -0.625 10.390625 -0.300781 9.671875 -0.0625 C 8.960938 0.164062 8.269531 0.28125 7.59375 0.28125 C 6.320312 0.28125 5.207031 0.015625 4.25 -0.515625 C 3.289062 -1.046875 2.550781 -1.773438 2.03125 -2.703125 C 1.507812 -3.628906 1.25 -4.675781 1.25 -5.84375 C 1.25 -6.976562 1.53125 -8.015625 2.09375 -8.953125 C 2.664062 -9.890625 3.441406 -10.628906 4.421875 -11.171875 C 5.410156 -11.722656 6.488281 -12 7.65625 -12 C 9.15625 -12 10.410156 -11.554688 11.421875 -10.671875 C 12.441406 -9.796875 13.132812 -8.566406 13.5 -6.984375 L 4.375 -3.78125 C 4.707031 -3.207031 5.15625 -2.757812 5.71875 -2.4375 C 6.289062 -2.113281 6.9375 -1.953125 7.65625 -1.953125 Z M 7.46875 -9.9375 C 6.40625 -9.9375 5.53125 -9.566406 4.84375 -8.828125 C 4.15625 -8.085938 3.8125 -7.140625 3.8125 -5.984375 C 3.8125 -5.703125 3.820312 -5.488281 3.84375 -5.34375 L 10.546875 -7.828125 C 10.273438 -8.453125 9.882812 -8.957031 9.375 -9.34375 C 8.863281 -9.738281 8.226562 -9.9375 7.46875 -9.9375 Z M 7.46875 -9.9375 "/></g></g></g><g fill="#a91b60" fill-opacity="1"><g transform="translate(183.593556, 115.652134)"><g><path d="M 9.40625 -11.96875 C 10.488281 -11.96875 11.378906 -11.644531 12.078125 -11 C 12.785156 -10.363281 13.148438 -9.535156 13.171875 -8.515625 L 13.171875 0 L 10.546875 0 L 10.546875 -7.625 C 10.515625 -8.28125 10.320312 -8.789062 9.96875 -9.15625 C 9.613281 -9.53125 9.082031 -9.726562 8.375 -9.75 C 7.351562 -9.75 6.507812 -9.335938 5.84375 -8.515625 C 5.175781 -7.703125 4.84375 -6.664062 4.84375 -5.40625 L 4.84375 0 L 2.25 0 L 2.25 -11.53125 L 4.59375 -11.53125 L 4.765625 -9.296875 C 5.171875 -10.128906 5.78125 -10.78125 6.59375 -11.25 C 7.414062 -11.726562 8.351562 -11.96875 9.40625 -11.96875 Z M 9.40625 -11.96875 "/></g></g></g><g fill="#a91b60" fill-opacity="1"><g transform="translate(198.991302, 115.652134)"><g><path d="M 5.984375 -16.59375 L 5.984375 -11.5 L 9.125 -11.5 L 9.125 -9.4375 L 5.984375 -9.4375 L 5.984375 0 L 3.375 0 L 3.375 -9.4375 L 1.25 -9.4375 L 1.25 -11.5 L 3.375 -11.5 L 3.375 -16.59375 Z M 5.984375 -16.59375 "/></g></g></g><g fill="#a91b60" fill-opacity="1"><g transform="translate(209.015154, 115.652134)"><g/></g></g><g fill="#a91b60" fill-opacity="1"><g transform="translate(217.813871, 115.652134)"><g><path d="M 11.609375 -1.078125 C 11.085938 -0.660156 10.46875 -0.328125 9.75 -0.078125 C 9.039062 0.160156 8.316406 0.28125 7.578125 0.28125 C 6.328125 0.28125 5.222656 0.03125 4.265625 -0.46875 C 3.316406 -0.96875 2.578125 -1.675781 2.046875 -2.59375 C 1.515625 -3.519531 1.25 -4.585938 1.25 -5.796875 C 1.25 -6.984375 1.523438 -8.035156 2.078125 -8.953125 C 2.640625 -9.867188 3.382812 -10.578125 4.3125 -11.078125 C 5.238281 -11.578125 6.242188 -11.828125 7.328125 -11.828125 C 9.085938 -11.828125 10.539062 -11.347656 11.6875 -10.390625 L 10.390625 -8.6875 C 10.015625 -8.96875 9.582031 -9.203125 9.09375 -9.390625 C 8.613281 -9.585938 8.097656 -9.6875 7.546875 -9.6875 C 6.859375 -9.6875 6.226562 -9.515625 5.65625 -9.171875 C 5.09375 -8.828125 4.648438 -8.359375 4.328125 -7.765625 C 4.003906 -7.171875 3.84375 -6.515625 3.84375 -5.796875 C 3.84375 -5.066406 4.015625 -4.40625 4.359375 -3.8125 C 4.703125 -3.21875 5.171875 -2.742188 5.765625 -2.390625 C 6.359375 -2.035156 7.035156 -1.859375 7.796875 -1.859375 C 8.742188 -1.859375 9.570312 -2.140625 10.28125 -2.703125 Z M 11.609375 -1.078125 "/></g></g></g><g fill="#a91b60" fill-opacity="1"><g transform="translate(230.51075, 115.652134)"><g><path d="M 4.765625 -8.796875 C 5.054688 -9.429688 5.472656 -9.988281 6.015625 -10.46875 C 6.566406 -10.945312 7.148438 -11.316406 7.765625 -11.578125 C 8.378906 -11.835938 8.921875 -11.976562 9.390625 -12 L 9.265625 -9.40625 C 8.429688 -9.445312 7.675781 -9.28125 7 -8.90625 C 6.320312 -8.539062 5.789062 -8.023438 5.40625 -7.359375 C 5.03125 -6.703125 4.84375 -6.003906 4.84375 -5.265625 L 4.84375 0 L 2.25 0 L 2.25 -11.53125 L 4.5625 -11.53125 Z M 4.765625 -8.796875 "/></g></g></g><g fill="#a91b60" fill-opacity="1"><g transform="translate(240.980102, 115.652134)"><g><path d="M 7.65625 -1.953125 C 8.625 -1.953125 9.5625 -2.285156 10.46875 -2.953125 L 11.671875 -1.03125 C 11.054688 -0.625 10.390625 -0.300781 9.671875 -0.0625 C 8.960938 0.164062 8.269531 0.28125 7.59375 0.28125 C 6.320312 0.28125 5.207031 0.015625 4.25 -0.515625 C 3.289062 -1.046875 2.550781 -1.773438 2.03125 -2.703125 C 1.507812 -3.628906 1.25 -4.675781 1.25 -5.84375 C 1.25 -6.976562 1.53125 -8.015625 2.09375 -8.953125 C 2.664062 -9.890625 3.441406 -10.628906 4.421875 -11.171875 C 5.410156 -11.722656 6.488281 -12 7.65625 -12 C 9.15625 -12 10.410156 -11.554688 11.421875 -10.671875 C 12.441406 -9.796875 13.132812 -8.566406 13.5 -6.984375 L 4.375 -3.78125 C 4.707031 -3.207031 5.15625 -2.757812 5.71875 -2.4375 C 6.289062 -2.113281 6.9375 -1.953125 7.65625 -1.953125 Z M 7.46875 -9.9375 C 6.40625 -9.9375 5.53125 -9.566406 4.84375 -8.828125 C 4.15625 -8.085938 3.8125 -7.140625 3.8125 -5.984375 C 3.8125 -5.703125 3.820312 -5.488281 3.84375 -5.34375 L 10.546875 -7.828125 C 10.273438 -8.453125 9.882812 -8.957031 9.375 -9.34375 C 8.863281 -9.738281 8.226562 -9.9375 7.46875 -9.9375 Z M 7.46875 -9.9375 "/></g></g></g><g fill="#a91b60" fill-opacity="1"><g transform="translate(255.458998, 115.652134)"><g><path d="M 14.09375 -11.53125 L 14.09375 0 L 11.5 0 L 11.5 -1.890625 C 11.09375 -1.347656 10.5 -0.847656 9.71875 -0.390625 C 8.9375 0.0546875 8.054688 0.28125 7.078125 0.28125 C 5.972656 0.28125 4.976562 0.046875 4.09375 -0.421875 C 3.21875 -0.898438 2.523438 -1.59375 2.015625 -2.5 C 1.503906 -3.414062 1.25 -4.503906 1.25 -5.765625 C 1.25 -7.023438 1.515625 -8.125 2.046875 -9.0625 C 2.578125 -10 3.289062 -10.722656 4.1875 -11.234375 C 5.09375 -11.742188 6.09375 -12 7.1875 -12 C 8.164062 -12 9.015625 -11.785156 9.734375 -11.359375 C 10.460938 -10.929688 11.050781 -10.375 11.5 -9.6875 L 11.6875 -11.53125 Z M 7.765625 -1.859375 C 8.710938 -1.859375 9.523438 -2.125 10.203125 -2.65625 C 10.878906 -3.1875 11.3125 -3.90625 11.5 -4.8125 L 11.5 -7.09375 C 11.28125 -7.914062 10.816406 -8.582031 10.109375 -9.09375 C 9.398438 -9.601562 8.59375 -9.859375 7.6875 -9.859375 C 7 -9.859375 6.363281 -9.691406 5.78125 -9.359375 C 5.195312 -9.023438 4.734375 -8.554688 4.390625 -7.953125 C 4.046875 -7.347656 3.875 -6.664062 3.875 -5.90625 C 3.875 -5.164062 4.046875 -4.488281 4.390625 -3.875 C 4.742188 -3.257812 5.21875 -2.769531 5.8125 -2.40625 C 6.40625 -2.039062 7.054688 -1.859375 7.765625 -1.859375 Z M 7.765625 -1.859375 "/></g></g></g><g fill="#a91b60" fill-opacity="1"><g transform="translate(271.803444, 115.652134)"><g><path d="M 5.984375 -16.59375 L 5.984375 -11.5 L 9.125 -11.5 L 9.125 -9.4375 L 5.984375 -9.4375 L 5.984375 0 L 3.375 0 L 3.375 -9.4375 L 1.25 -9.4375 L 1.25 -11.5 L 3.375 -11.5 L 3.375 -16.59375 Z M 5.984375 -16.59375 "/></g></g></g><g fill="#a91b60" fill-opacity="1"><g transform="translate(281.827297, 115.652134)"><g><path d="M 1.25 -5.875 C 1.25 -7.007812 1.519531 -8.046875 2.0625 -8.984375 C 2.613281 -9.921875 3.375 -10.65625 4.34375 -11.1875 C 5.320312 -11.726562 6.425781 -12 7.65625 -12 C 8.882812 -12 9.972656 -11.726562 10.921875 -11.1875 C 11.878906 -10.65625 12.625 -9.921875 13.15625 -8.984375 C 13.6875 -8.054688 13.953125 -7.019531 13.953125 -5.875 C 13.953125 -4.726562 13.6875 -3.6875 13.15625 -2.75 C 12.625 -1.8125 11.875 -1.070312 10.90625 -0.53125 C 9.945312 0.0078125 8.84375 0.28125 7.59375 0.28125 C 6.394531 0.28125 5.3125 0.0234375 4.34375 -0.484375 C 3.375 -0.992188 2.613281 -1.710938 2.0625 -2.640625 C 1.519531 -3.566406 1.25 -4.644531 1.25 -5.875 Z M 3.875 -5.84375 C 3.875 -5.125 4.035156 -4.457031 4.359375 -3.84375 C 4.679688 -3.226562 5.125 -2.742188 5.6875 -2.390625 C 6.257812 -2.035156 6.890625 -1.859375 7.578125 -1.859375 C 8.648438 -1.859375 9.535156 -2.238281 10.234375 -3 C 10.941406 -3.769531 11.296875 -4.71875 11.296875 -5.84375 C 11.296875 -6.976562 10.941406 -7.929688 10.234375 -8.703125 C 9.535156 -9.472656 8.648438 -9.859375 7.578125 -9.859375 C 6.867188 -9.859375 6.234375 -9.675781 5.671875 -9.3125 C 5.117188 -8.945312 4.679688 -8.457031 4.359375 -7.84375 C 4.035156 -7.238281 3.875 -6.570312 3.875 -5.84375 Z M 3.875 -5.84375 "/></g></g></g><g fill="#a91b60" fill-opacity="1"><g transform="translate(297.002288, 115.652134)"><g><path d="M 4.765625 -8.796875 C 5.054688 -9.429688 5.472656 -9.988281 6.015625 -10.46875 C 6.566406 -10.945312 7.148438 -11.316406 7.765625 -11.578125 C 8.378906 -11.835938 8.921875 -11.976562 9.390625 -12 L 9.265625 -9.40625 C 8.429688 -9.445312 7.675781 -9.28125 7 -8.90625 C 6.320312 -8.539062 5.789062 -8.023438 5.40625 -7.359375 C 5.03125 -6.703125 4.84375 -6.003906 4.84375 -5.265625 L 4.84375 0 L 2.25 0 L 2.25 -11.53125 L 4.5625 -11.53125 Z M 4.765625 -8.796875 "/></g></g></g><g clip-path="url(#0e1181dc7c)"><path fill="#a91b60" d="M 108.824219 127.941406 L 307.875 127.941406 C 315.15625 127.941406 321.777344 124.960938 326.578125 120.160156 C 331.382812 115.359375 334.363281 108.738281 334.363281 101.449219 L 334.363281 74.960938 L 82.335938 74.960938 L 82.335938 101.449219 C 82.335938 108.734375 85.316406 115.359375 90.117188 120.160156 C 94.914062 124.960938 101.539062 127.941406 108.824219 127.941406 Z M 307.875 128.941406 L 108.824219 128.941406 C 101.265625 128.941406 94.390625 125.847656 89.410156 120.867188 C 84.425781 115.886719 81.335938 109.015625 81.335938 101.449219 L 81.335938 73.960938 L 335.363281 73.960938 L 335.363281 101.449219 C 335.363281 109.011719 332.269531 115.886719 327.289062 120.867188 C 322.308594 125.851562 315.433594 128.941406 307.875 128.941406 Z M 307.875 128.941406 " fill-opacity="1" fill-rule="nonzero"/></g><g clip-path="url(#74c2c5609e)"><path fill="#a91b60" d="M 403.53125 129.058594 L 602.582031 129.058594 C 609.863281 129.058594 616.484375 126.078125 621.285156 121.277344 C 626.089844 116.476562 629.070312 109.855469 629.070312 102.566406 L 629.070312 76.078125 L 377.042969 76.078125 L 377.042969 102.566406 C 377.042969 109.855469 380.023438 116.476562 384.824219 121.277344 C 389.621094 126.078125 396.246094 129.058594 403.53125 129.058594 Z M 602.582031 130.0625 L 403.53125 130.0625 C 395.972656 130.0625 389.097656 126.96875 384.117188 121.988281 C 379.132812 117.003906 376.042969 110.132812 376.042969 102.566406 L 376.042969 75.082031 L 630.070312 75.082031 L 630.070312 102.566406 C 630.070312 110.132812 626.976562 117.003906 621.996094 121.988281 C 617.015625 126.96875 610.140625 130.0625 602.582031 130.0625 Z M 602.582031 130.0625 " fill-opacity="1" fill-rule="nonzero"/></g></svg>