<svg xmlns="http://www.w3.org/2000/svg" xmlns:xlink="http://www.w3.org/1999/xlink" width="106" zoomAndPan="magnify" viewBox="0 0 79.5 101.249998" height="135" preserveAspectRatio="xMidYMid meet" version="1.0"><defs><clipPath id="deaeec5ee7"><path d="M 15 11 L 55 11 L 55 90 L 15 90 Z M 15 11 " clip-rule="nonzero"/></clipPath><clipPath id="ac500c1add"><path d="M 0.0429688 17.675781 L 49.09375 0.0664062 L 78.527344 82.046875 L 29.480469 99.65625 Z M 0.0429688 17.675781 " clip-rule="nonzero"/></clipPath><clipPath id="dd5d595cdb"><path d="M 0.0429688 17.675781 L 49.09375 0.0664062 L 78.527344 82.046875 L 29.480469 99.65625 Z M 0.0429688 17.675781 " clip-rule="nonzero"/></clipPath><clipPath id="25894930d9"><path d="M 14 10 L 66 10 L 66 91 L 14 91 Z M 14 10 " clip-rule="nonzero"/></clipPath><clipPath id="425711f005"><path d="M 0.0429688 17.675781 L 49.09375 0.0664062 L 78.527344 82.046875 L 29.480469 99.65625 Z M 0.0429688 17.675781 " clip-rule="nonzero"/></clipPath><clipPath id="614b8c5840"><path d="M 0.0429688 17.675781 L 49.09375 0.0664062 L 78.527344 82.046875 L 29.480469 99.65625 Z M 0.0429688 17.675781 " clip-rule="nonzero"/></clipPath><clipPath id="9ec29c9142"><path d="M 15 11 L 55 11 L 55 90 L 15 90 Z M 15 11 " clip-rule="nonzero"/></clipPath><clipPath id="d27e422b4d"><path d="M 0.0429688 17.675781 L 49.09375 0.0664062 L 78.527344 82.046875 L 29.480469 99.65625 Z M 0.0429688 17.675781 " clip-rule="nonzero"/></clipPath><clipPath id="c87286c732"><path d="M 0.0429688 17.675781 L 49.09375 0.0664062 L 78.527344 82.046875 L 29.480469 99.65625 Z M 0.0429688 17.675781 " clip-rule="nonzero"/></clipPath><clipPath id="352cd48f37"><path d="M 14 10 L 66 10 L 66 91 L 14 91 Z M 14 10 " clip-rule="nonzero"/></clipPath><clipPath id="a7c50a51f3"><path d="M 0.0429688 17.675781 L 49.09375 0.0664062 L 78.527344 82.046875 L 29.480469 99.65625 Z M 0.0429688 17.675781 " clip-rule="nonzero"/></clipPath><clipPath id="8ccb953581"><path d="M 0.0429688 17.675781 L 49.09375 0.0664062 L 78.527344 82.046875 L 29.480469 99.65625 Z M 0.0429688 17.675781 " clip-rule="nonzero"/></clipPath></defs><g clip-path="url(#deaeec5ee7)"><g clip-path="url(#ac500c1add)"><g clip-path="url(#dd5d595cdb)"><path fill="#a91b60" d="M 54.5 43.214844 C 40.753906 59.332031 48.855469 89.449219 48.855469 89.449219 C 48.855469 89.449219 35.949219 61.054688 15.09375 57.363281 C 28.835938 41.246094 20.734375 11.128906 20.734375 11.128906 C 20.734375 11.128906 33.644531 39.519531 54.5 43.214844 Z M 54.5 43.214844 C 40.753906 59.332031 48.855469 89.449219 48.855469 89.449219 C 48.855469 89.449219 35.949219 61.054688 15.09375 57.363281 C 28.835938 41.246094 20.734375 11.128906 20.734375 11.128906 C 20.734375 11.128906 33.644531 39.519531 54.5 43.214844 Z M 54.5 43.214844 " fill-opacity="1" fill-rule="nonzero"/></g></g></g><g clip-path="url(#25894930d9)"><g clip-path="url(#425711f005)"><g clip-path="url(#614b8c5840)"><path fill="#6d123f" d="M 65.324219 45.621094 C 49.242188 42.285156 38.011719 24.375 33.972656 16.929688 C 33.71875 16.464844 33.007812 16.71875 33.109375 17.238281 C 33.695312 20.261719 34.429688 24.953125 34.632812 30.316406 C 33.058594 28.640625 31.644531 26.949219 30.410156 25.351562 C 24.6875 17.945312 21.449219 10.886719 21.417969 10.816406 C 21.257812 10.460938 20.851562 10.289062 20.484375 10.421875 C 20.113281 10.554688 19.910156 10.945312 20.011719 11.324219 C 20.03125 11.398438 22.023438 18.90625 22.320312 28.257812 C 22.59375 36.824219 21.460938 48.742188 14.519531 56.875 C 14.347656 57.082031 14.296875 57.363281 14.386719 57.617188 C 14.476562 57.871094 14.695312 58.054688 14.960938 58.101562 C 25.488281 59.964844 33.945312 68.441406 39.183594 75.222656 C 44.902344 82.628906 48.140625 89.6875 48.175781 89.757812 C 48.335938 90.113281 48.742188 90.285156 49.109375 90.15625 C 49.476562 90.023438 49.683594 89.632812 49.582031 89.253906 C 49.5625 89.179688 47.59375 81.777344 47.277344 72.492188 C 52.78125 78.417969 56.722656 84.949219 58.785156 88.753906 C 59.039062 89.21875 59.75 88.964844 59.648438 88.445312 C 58.027344 80.128906 55.300781 59.167969 65.589844 46.359375 C 65.804688 46.09375 65.660156 45.691406 65.324219 45.621094 Z M 47.019531 84.335938 C 45.46875 81.609375 43.230469 78.011719 40.390625 74.332031 C 35.1875 67.59375 26.886719 59.230469 16.457031 56.875 C 23.003906 48.417969 24.089844 36.683594 23.816406 28.179688 C 23.667969 23.53125 23.109375 19.332031 22.570312 16.242188 C 24.125 18.96875 26.363281 22.5625 29.203125 26.246094 C 34.402344 32.984375 42.707031 41.347656 53.136719 43.703125 C 46.585938 52.15625 45.5 63.890625 45.773438 72.398438 C 45.925781 77.046875 46.484375 81.246094 47.019531 84.335938 Z M 47.019531 84.335938 " fill-opacity="1" fill-rule="nonzero"/></g></g></g><g clip-path="url(#9ec29c9142)"><g clip-path="url(#d27e422b4d)"><g clip-path="url(#c87286c732)"><path fill="#a91b60" d="M 54.5 43.214844 C 40.753906 59.332031 48.855469 89.449219 48.855469 89.449219 C 48.855469 89.449219 35.949219 61.054688 15.09375 57.363281 C 28.835938 41.246094 20.734375 11.128906 20.734375 11.128906 C 20.734375 11.128906 33.644531 39.519531 54.5 43.214844 Z M 54.5 43.214844 C 40.753906 59.332031 48.855469 89.449219 48.855469 89.449219 C 48.855469 89.449219 35.949219 61.054688 15.09375 57.363281 C 28.835938 41.246094 20.734375 11.128906 20.734375 11.128906 C 20.734375 11.128906 33.644531 39.519531 54.5 43.214844 Z M 54.5 43.214844 " fill-opacity="1" fill-rule="nonzero"/></g></g></g><g clip-path="url(#352cd48f37)"><g clip-path="url(#a7c50a51f3)"><g clip-path="url(#8ccb953581)"><path fill="#6d123f" d="M 65.324219 45.621094 C 49.242188 42.285156 38.011719 24.375 33.972656 16.929688 C 33.71875 16.464844 33.007812 16.71875 33.109375 17.238281 C 33.695312 20.261719 34.429688 24.953125 34.632812 30.316406 C 33.058594 28.640625 31.644531 26.949219 30.410156 25.351562 C 24.6875 17.945312 21.449219 10.886719 21.417969 10.816406 C 21.257812 10.460938 20.851562 10.289062 20.484375 10.421875 C 20.113281 10.554688 19.910156 10.945312 20.011719 11.324219 C 20.03125 11.398438 22.023438 18.90625 22.320312 28.257812 C 22.59375 36.824219 21.460938 48.742188 14.519531 56.875 C 14.347656 57.082031 14.296875 57.363281 14.386719 57.617188 C 14.476562 57.871094 14.695312 58.054688 14.960938 58.101562 C 25.488281 59.964844 33.945312 68.441406 39.183594 75.222656 C 44.902344 82.628906 48.140625 89.6875 48.175781 89.757812 C 48.335938 90.113281 48.742188 90.285156 49.109375 90.15625 C 49.476562 90.023438 49.683594 89.632812 49.582031 89.253906 C 49.5625 89.179688 47.59375 81.777344 47.277344 72.492188 C 52.78125 78.417969 56.722656 84.949219 58.785156 88.753906 C 59.039062 89.21875 59.75 88.964844 59.648438 88.445312 C 58.027344 80.128906 55.300781 59.167969 65.589844 46.359375 C 65.804688 46.09375 65.660156 45.691406 65.324219 45.621094 Z M 47.019531 84.335938 C 45.46875 81.609375 43.230469 78.011719 40.390625 74.332031 C 35.1875 67.59375 26.886719 59.230469 16.457031 56.875 C 23.003906 48.417969 24.089844 36.683594 23.816406 28.179688 C 23.667969 23.53125 23.109375 19.332031 22.570312 16.242188 C 24.125 18.96875 26.363281 22.5625 29.203125 26.246094 C 34.402344 32.984375 42.707031 41.347656 53.136719 43.703125 C 46.585938 52.15625 45.5 63.890625 45.773438 72.398438 C 45.925781 77.046875 46.484375 81.246094 47.019531 84.335938 Z M 47.019531 84.335938 " fill-opacity="1" fill-rule="nonzero"/></g></g></g></svg>