<svg xmlns="http://www.w3.org/2000/svg" xmlns:xlink="http://www.w3.org/1999/xlink" width="579" zoomAndPan="magnify" viewBox="0 0 434.25 64.499998" height="86" preserveAspectRatio="xMidYMid meet" version="1.0"><defs><g/><clipPath id="8b08b5fade"><path d="M 42 4.246094 L 392 4.246094 L 392 63.757812 L 42 63.757812 Z M 42 4.246094 " clip-rule="nonzero"/></clipPath></defs><g clip-path="url(#8b08b5fade)"><path fill="#a91b60" d="M 79.949219 62.039062 L 353.445312 62.039062 C 363.453125 62.039062 372.550781 57.945312 379.148438 51.347656 C 385.75 44.753906 389.84375 35.65625 389.84375 25.640625 L 389.84375 -10.753906 L 43.550781 -10.753906 L 43.550781 25.640625 C 43.550781 35.652344 47.644531 44.75 54.242188 51.347656 C 60.835938 57.945312 69.941406 62.039062 79.949219 62.039062 Z M 353.445312 63.417969 L 79.949219 63.417969 C 69.558594 63.417969 60.117188 59.167969 53.273438 52.324219 C 46.425781 45.476562 42.179688 36.035156 42.179688 25.640625 L 42.179688 -12.128906 L 391.21875 -12.128906 L 391.21875 25.640625 C 391.21875 36.035156 386.96875 45.476562 380.125 52.324219 C 373.28125 59.167969 363.832031 63.417969 353.445312 63.417969 Z M 353.445312 63.417969 " fill-opacity="1" fill-rule="nonzero"/></g><g fill="#a91b60" fill-opacity="1"><g transform="translate(64.469502, 32.082868)"><g><path d="M 14.25 -19.40625 L 14.25 -16.90625 L 9.046875 -16.90625 L 9.046875 0 L 6.4375 0 L 6.4375 -16.90625 L 1.375 -16.90625 L 1.375 -19.40625 Z M 14.25 -19.40625 "/></g></g></g><g fill="#a91b60" fill-opacity="1"><g transform="translate(80.088919, 32.082868)"><g><path d="M 4.59375 -8.484375 C 4.875 -9.085938 5.28125 -9.625 5.8125 -10.09375 C 6.34375 -10.5625 6.898438 -10.921875 7.484375 -11.171875 C 8.078125 -11.421875 8.597656 -11.550781 9.046875 -11.5625 L 8.9375 -9.078125 C 8.132812 -9.109375 7.40625 -8.941406 6.75 -8.578125 C 6.09375 -8.222656 5.582031 -7.726562 5.21875 -7.09375 C 4.851562 -6.457031 4.671875 -5.785156 4.671875 -5.078125 L 4.671875 0 L 2.171875 0 L 2.171875 -11.109375 L 4.40625 -11.109375 Z M 4.59375 -8.484375 "/></g></g></g><g fill="#a91b60" fill-opacity="1"><g transform="translate(90.179819, 32.082868)"><g><path d="M 15.4375 -13.609375 C 15.289062 -12.410156 14.972656 -11.503906 14.484375 -10.890625 C 13.992188 -10.285156 13.335938 -9.894531 12.515625 -9.71875 L 12.515625 0 L 10.25 0 L 10.09375 -2.125 C 9.71875 -1.375 9.132812 -0.757812 8.34375 -0.28125 C 7.5625 0.1875 6.6875 0.421875 5.71875 0.421875 C 4.695312 0.421875 3.859375 0.113281 3.203125 -0.5 C 2.554688 -1.113281 2.210938 -1.914062 2.171875 -2.90625 L 2.171875 -11.109375 L 4.671875 -11.109375 L 4.671875 -3.78125 C 4.703125 -3.15625 4.882812 -2.660156 5.21875 -2.296875 C 5.550781 -1.929688 6.050781 -1.738281 6.71875 -1.71875 C 7.320312 -1.71875 7.875 -1.898438 8.375 -2.265625 C 8.875 -2.628906 9.269531 -3.132812 9.5625 -3.78125 C 9.863281 -4.425781 10.015625 -5.144531 10.015625 -5.9375 L 10.015625 -11.109375 L 11.09375 -11.109375 C 11.84375 -11.109375 12.410156 -11.304688 12.796875 -11.703125 C 13.191406 -12.097656 13.445312 -12.734375 13.5625 -13.609375 Z M 15.4375 -13.609375 "/></g></g></g><g fill="#a91b60" fill-opacity="1"><g transform="translate(104.859924, 32.082868)"><g><path d="M 11.65625 -9.953125 C 12.226562 -9.421875 12.671875 -8.785156 12.984375 -8.046875 C 13.296875 -7.316406 13.453125 -6.519531 13.453125 -5.65625 C 13.453125 -4.550781 13.195312 -3.546875 12.6875 -2.640625 C 12.175781 -1.734375 11.453125 -1.019531 10.515625 -0.5 C 9.585938 0.0078125 8.523438 0.265625 7.328125 0.265625 C 6.160156 0.265625 5.113281 0.0195312 4.1875 -0.46875 C 3.257812 -0.957031 2.53125 -1.648438 2 -2.546875 C 1.46875 -3.441406 1.203125 -4.476562 1.203125 -5.65625 C 1.203125 -6.75 1.46875 -7.75 2 -8.65625 C 2.53125 -9.5625 3.265625 -10.269531 4.203125 -10.78125 C 5.140625 -11.300781 6.195312 -11.5625 7.375 -11.5625 C 8.195312 -11.5625 9.015625 -11.421875 9.828125 -11.140625 C 10.453125 -11.191406 10.929688 -11.414062 11.265625 -11.8125 C 11.609375 -12.207031 11.828125 -12.804688 11.921875 -13.609375 L 13.796875 -13.609375 C 13.578125 -11.734375 12.863281 -10.515625 11.65625 -9.953125 Z M 7.296875 -1.796875 C 8.335938 -1.796875 9.195312 -2.160156 9.875 -2.890625 C 10.5625 -3.628906 10.90625 -4.546875 10.90625 -5.640625 C 10.90625 -6.734375 10.5625 -7.648438 9.875 -8.390625 C 9.195312 -9.128906 8.335938 -9.5 7.296875 -9.5 C 6.617188 -9.5 6.007812 -9.320312 5.46875 -8.96875 C 4.9375 -8.625 4.515625 -8.15625 4.203125 -7.5625 C 3.890625 -6.976562 3.734375 -6.335938 3.734375 -5.640625 C 3.734375 -4.941406 3.890625 -4.296875 4.203125 -3.703125 C 4.515625 -3.109375 4.941406 -2.640625 5.484375 -2.296875 C 6.035156 -1.960938 6.640625 -1.796875 7.296875 -1.796875 Z M 6.796875 -13.53125 C 7.222656 -13.851562 7.53125 -14.125 7.71875 -14.34375 C 7.90625 -14.570312 8 -14.835938 8 -15.140625 C 8 -15.429688 7.921875 -15.660156 7.765625 -15.828125 C 7.617188 -15.992188 7.398438 -16.078125 7.109375 -16.078125 C 6.835938 -16.078125 6.601562 -16.007812 6.40625 -15.875 C 6.21875 -15.738281 6.039062 -15.53125 5.875 -15.25 L 4.90625 -15.859375 C 5.21875 -16.421875 5.585938 -16.835938 6.015625 -17.109375 C 6.441406 -17.390625 6.914062 -17.53125 7.4375 -17.53125 C 8.082031 -17.53125 8.582031 -17.332031 8.9375 -16.9375 C 9.289062 -16.539062 9.46875 -16.039062 9.46875 -15.4375 C 9.46875 -14.863281 9.289062 -14.367188 8.9375 -13.953125 C 8.582031 -13.546875 8.082031 -13.132812 7.4375 -12.71875 Z M 6.796875 -13.53125 "/></g></g></g><g fill="#a91b60" fill-opacity="1"><g transform="translate(119.486358, 32.082868)"><g><path d="M 9.078125 -11.546875 C 10.109375 -11.546875 10.960938 -11.234375 11.640625 -10.609375 C 12.328125 -9.992188 12.679688 -9.195312 12.703125 -8.21875 L 12.703125 0 L 10.171875 0 L 10.171875 -7.359375 C 10.140625 -7.984375 9.953125 -8.472656 9.609375 -8.828125 C 9.265625 -9.191406 8.753906 -9.378906 8.078125 -9.390625 C 7.097656 -9.390625 6.285156 -8.992188 5.640625 -8.203125 C 4.992188 -7.421875 4.671875 -6.421875 4.671875 -5.203125 L 4.671875 0 L 2.171875 0 L 2.171875 -11.109375 L 4.421875 -11.109375 L 4.59375 -8.96875 C 4.988281 -9.769531 5.578125 -10.398438 6.359375 -10.859375 C 7.148438 -11.316406 8.054688 -11.546875 9.078125 -11.546875 Z M 9.078125 -11.546875 "/></g></g></g><g fill="#a91b60" fill-opacity="1"><g transform="translate(134.327487, 32.082868)"><g><path d="M 13.90625 -11.109375 L 13.90625 0.078125 C 13.90625 1.097656 13.644531 2.019531 13.125 2.84375 C 12.601562 3.664062 11.863281 4.316406 10.90625 4.796875 C 9.945312 5.285156 8.828125 5.53125 7.546875 5.53125 C 6.421875 5.53125 5.445312 5.34375 4.625 4.96875 C 3.8125 4.59375 2.992188 4.035156 2.171875 3.296875 L 3.65625 1.578125 C 4.257812 2.148438 4.863281 2.582031 5.46875 2.875 C 6.082031 3.175781 6.753906 3.328125 7.484375 3.328125 C 8.722656 3.328125 9.675781 3.03125 10.34375 2.4375 C 11.019531 1.851562 11.363281 1.054688 11.375 0.046875 L 11.40625 -2.046875 C 11 -1.347656 10.394531 -0.785156 9.59375 -0.359375 C 8.800781 0.0546875 7.882812 0.265625 6.84375 0.265625 C 5.820312 0.265625 4.878906 0.0078125 4.015625 -0.5 C 3.160156 -1.019531 2.476562 -1.726562 1.96875 -2.625 C 1.457031 -3.519531 1.203125 -4.515625 1.203125 -5.609375 C 1.203125 -6.734375 1.46875 -7.75 2 -8.65625 C 2.53125 -9.5625 3.238281 -10.269531 4.125 -10.78125 C 5.019531 -11.300781 5.976562 -11.5625 7 -11.5625 C 7.945312 -11.5625 8.820312 -11.375 9.625 -11 C 10.4375 -10.625 11.039062 -10.144531 11.4375 -9.5625 L 11.625 -11.109375 Z M 7.5625 -1.796875 C 8.519531 -1.796875 9.347656 -2.054688 10.046875 -2.578125 C 10.742188 -3.097656 11.195312 -3.773438 11.40625 -4.609375 L 11.40625 -6.8125 C 11.15625 -7.625 10.679688 -8.273438 9.984375 -8.765625 C 9.285156 -9.253906 8.476562 -9.5 7.5625 -9.5 C 6.476562 -9.5 5.566406 -9.140625 4.828125 -8.421875 C 4.097656 -7.710938 3.734375 -6.800781 3.734375 -5.6875 C 3.734375 -4.96875 3.898438 -4.3125 4.234375 -3.71875 C 4.578125 -3.132812 5.039062 -2.664062 5.625 -2.3125 C 6.21875 -1.96875 6.863281 -1.796875 7.5625 -1.796875 Z M 7.5625 -1.796875 "/></g></g></g><g fill="#a91b60" fill-opacity="1"><g transform="translate(150.403144, 32.082868)"><g/></g></g><g fill="#a91b60" fill-opacity="1"><g transform="translate(158.883788, 32.082868)"><g><path d="M 9.28125 -11.5625 C 10.289062 -11.5625 11.207031 -11.320312 12.03125 -10.84375 C 12.863281 -10.363281 13.519531 -9.679688 14 -8.796875 C 14.488281 -7.921875 14.734375 -6.90625 14.734375 -5.75 C 14.734375 -4.53125 14.472656 -3.460938 13.953125 -2.546875 C 13.441406 -1.640625 12.738281 -0.941406 11.84375 -0.453125 C 10.957031 0.0234375 10 0.265625 8.96875 0.265625 C 8.050781 0.265625 7.222656 0.0859375 6.484375 -0.265625 C 5.742188 -0.628906 5.140625 -1.113281 4.671875 -1.71875 L 4.671875 0 L 2.171875 0 L 2.171875 -20.796875 L 4.671875 -20.796875 L 4.671875 -9.640625 C 5.140625 -10.222656 5.78125 -10.6875 6.59375 -11.03125 C 7.40625 -11.382812 8.300781 -11.5625 9.28125 -11.5625 Z M 8.421875 -1.875 C 9.515625 -1.875 10.414062 -2.238281 11.125 -2.96875 C 11.832031 -3.707031 12.1875 -4.632812 12.1875 -5.75 C 12.1875 -6.457031 12.019531 -7.101562 11.6875 -7.6875 C 11.351562 -8.269531 10.898438 -8.726562 10.328125 -9.0625 C 9.753906 -9.40625 9.117188 -9.578125 8.421875 -9.578125 C 7.515625 -9.578125 6.71875 -9.332031 6.03125 -8.84375 C 5.34375 -8.351562 4.890625 -7.707031 4.671875 -6.90625 L 4.671875 -4.640625 C 4.890625 -3.835938 5.335938 -3.175781 6.015625 -2.65625 C 6.691406 -2.132812 7.492188 -1.875 8.421875 -1.875 Z M 8.421875 -1.875 "/></g></g></g><g fill="#a91b60" fill-opacity="1"><g transform="translate(174.798421, 32.082868)"><g><path d="M 13.578125 -11.109375 L 13.578125 0 L 11.09375 0 L 11.09375 -1.828125 C 10.695312 -1.304688 10.117188 -0.828125 9.359375 -0.390625 C 8.609375 0.046875 7.757812 0.265625 6.8125 0.265625 C 5.757812 0.265625 4.804688 0.0390625 3.953125 -0.40625 C 3.109375 -0.863281 2.4375 -1.53125 1.9375 -2.40625 C 1.445312 -3.289062 1.203125 -4.34375 1.203125 -5.5625 C 1.203125 -6.769531 1.457031 -7.828125 1.96875 -8.734375 C 2.476562 -9.640625 3.164062 -10.335938 4.03125 -10.828125 C 4.90625 -11.316406 5.867188 -11.5625 6.921875 -11.5625 C 7.867188 -11.5625 8.691406 -11.351562 9.390625 -10.9375 C 10.085938 -10.53125 10.65625 -10 11.09375 -9.34375 L 11.28125 -11.109375 Z M 7.484375 -1.796875 C 8.398438 -1.796875 9.179688 -2.050781 9.828125 -2.5625 C 10.484375 -3.070312 10.90625 -3.765625 11.09375 -4.640625 L 11.09375 -6.84375 C 10.875 -7.632812 10.421875 -8.273438 9.734375 -8.765625 C 9.054688 -9.253906 8.28125 -9.5 7.40625 -9.5 C 6.75 -9.5 6.132812 -9.335938 5.5625 -9.015625 C 5 -8.691406 4.550781 -8.238281 4.21875 -7.65625 C 3.894531 -7.082031 3.734375 -6.425781 3.734375 -5.6875 C 3.734375 -4.96875 3.898438 -4.3125 4.234375 -3.71875 C 4.578125 -3.132812 5.035156 -2.664062 5.609375 -2.3125 C 6.179688 -1.96875 6.804688 -1.796875 7.484375 -1.796875 Z M 7.484375 -1.796875 "/></g></g></g><g fill="#a91b60" fill-opacity="1"><g transform="translate(190.55203, 32.082868)"><g><path d="M 9.078125 -11.546875 C 10.109375 -11.546875 10.960938 -11.234375 11.640625 -10.609375 C 12.328125 -9.992188 12.679688 -9.195312 12.703125 -8.21875 L 12.703125 0 L 10.171875 0 L 10.171875 -7.359375 C 10.140625 -7.984375 9.953125 -8.472656 9.609375 -8.828125 C 9.265625 -9.191406 8.753906 -9.378906 8.078125 -9.390625 C 7.097656 -9.390625 6.285156 -8.992188 5.640625 -8.203125 C 4.992188 -7.421875 4.671875 -6.421875 4.671875 -5.203125 L 4.671875 0 L 2.171875 0 L 2.171875 -11.109375 L 4.421875 -11.109375 L 4.59375 -8.96875 C 4.988281 -9.769531 5.578125 -10.398438 6.359375 -10.859375 C 7.148438 -11.316406 8.054688 -11.546875 9.078125 -11.546875 Z M 9.078125 -11.546875 "/></g></g></g><g fill="#a91b60" fill-opacity="1"><g transform="translate(205.393152, 32.082868)"><g/></g></g><g fill="#a91b60" fill-opacity="1"><g transform="translate(213.873788, 32.082868)"><g><path d="M 5.765625 -16 L 5.765625 -11.09375 L 8.8125 -11.09375 L 8.8125 -9.09375 L 5.765625 -9.09375 L 5.765625 0 L 3.25 0 L 3.25 -9.09375 L 1.203125 -9.09375 L 1.203125 -11.09375 L 3.25 -11.09375 L 3.25 -16 Z M 5.765625 -16 "/></g></g></g><g fill="#a91b60" fill-opacity="1"><g transform="translate(223.535288, 32.082868)"><g><path d="M 4.59375 -8.484375 C 4.875 -9.085938 5.28125 -9.625 5.8125 -10.09375 C 6.34375 -10.5625 6.898438 -10.921875 7.484375 -11.171875 C 8.078125 -11.421875 8.597656 -11.550781 9.046875 -11.5625 L 8.9375 -9.078125 C 8.132812 -9.109375 7.40625 -8.941406 6.75 -8.578125 C 6.09375 -8.222656 5.582031 -7.726562 5.21875 -7.09375 C 4.851562 -6.457031 4.671875 -5.785156 4.671875 -5.078125 L 4.671875 0 L 2.171875 0 L 2.171875 -11.109375 L 4.40625 -11.109375 Z M 4.59375 -8.484375 "/></g></g></g><g fill="#a91b60" fill-opacity="1"><g transform="translate(233.626196, 32.082868)"><g><path d="M 12.515625 -11.109375 L 12.515625 0 L 10.25 0 L 10.09375 -2.125 C 9.71875 -1.375 9.132812 -0.757812 8.34375 -0.28125 C 7.5625 0.1875 6.6875 0.421875 5.71875 0.421875 C 4.695312 0.421875 3.859375 0.113281 3.203125 -0.5 C 2.554688 -1.113281 2.210938 -1.914062 2.171875 -2.90625 L 2.171875 -11.109375 L 4.671875 -11.109375 L 4.671875 -3.78125 C 4.703125 -3.15625 4.882812 -2.660156 5.21875 -2.296875 C 5.550781 -1.929688 6.050781 -1.738281 6.71875 -1.71875 C 7.320312 -1.71875 7.875 -1.898438 8.375 -2.265625 C 8.875 -2.628906 9.269531 -3.132812 9.5625 -3.78125 C 9.863281 -4.425781 10.015625 -5.144531 10.015625 -5.9375 L 10.015625 -11.109375 Z M 12.515625 -11.109375 "/></g></g></g><g fill="#a91b60" fill-opacity="1"><g transform="translate(248.306301, 32.082868)"><g><path d="M 12.75 -11.109375 L 5.578125 5.34375 L 3.109375 5.34375 L 5.65625 -0.375 L 0.515625 -11.109375 L 3.328125 -11.109375 L 6.921875 -3.1875 L 10.4375 -11.109375 Z M 12.75 -11.109375 "/></g></g></g><g fill="#a91b60" fill-opacity="1"><g transform="translate(261.564023, 32.082868)"><g><path d="M 7.375 -1.875 C 8.3125 -1.875 9.21875 -2.195312 10.09375 -2.84375 L 11.25 -1 C 10.65625 -0.601562 10.015625 -0.289062 9.328125 -0.0625 C 8.640625 0.15625 7.972656 0.265625 7.328125 0.265625 C 6.085938 0.265625 5.007812 0.0078125 4.09375 -0.5 C 3.175781 -1.007812 2.460938 -1.710938 1.953125 -2.609375 C 1.453125 -3.503906 1.203125 -4.515625 1.203125 -5.640625 C 1.203125 -6.734375 1.472656 -7.726562 2.015625 -8.625 C 2.566406 -9.53125 3.316406 -10.242188 4.265625 -10.765625 C 5.210938 -11.296875 6.25 -11.5625 7.375 -11.5625 C 8.832031 -11.5625 10.046875 -11.132812 11.015625 -10.28125 C 11.992188 -9.4375 12.660156 -8.253906 13.015625 -6.734375 L 4.21875 -3.65625 C 4.539062 -3.09375 4.972656 -2.65625 5.515625 -2.34375 C 6.054688 -2.03125 6.675781 -1.875 7.375 -1.875 Z M 7.1875 -9.578125 C 6.164062 -9.578125 5.320312 -9.21875 4.65625 -8.5 C 4 -7.789062 3.671875 -6.878906 3.671875 -5.765625 C 3.671875 -5.503906 3.679688 -5.300781 3.703125 -5.15625 L 10.171875 -7.546875 C 9.898438 -8.148438 9.519531 -8.640625 9.03125 -9.015625 C 8.539062 -9.390625 7.925781 -9.578125 7.1875 -9.578125 Z M 9.234375 -13.203125 L 7.03125 -15.515625 L 4.9375 -13.203125 L 2.609375 -13.203125 L 7.03125 -17.796875 L 7.0625 -17.796875 L 11.5625 -13.203125 Z M 1.796875 -19.671875 L 3.71875 -16.078125 L 2.140625 -16.078125 L -1 -19.671875 Z M 1.796875 -19.671875 "/></g></g></g><g fill="#a91b60" fill-opacity="1"><g transform="translate(275.519521, 32.082868)"><g><path d="M 9.078125 -11.546875 C 10.109375 -11.546875 10.960938 -11.234375 11.640625 -10.609375 C 12.328125 -9.992188 12.679688 -9.195312 12.703125 -8.21875 L 12.703125 0 L 10.171875 0 L 10.171875 -7.359375 C 10.140625 -7.984375 9.953125 -8.472656 9.609375 -8.828125 C 9.265625 -9.191406 8.753906 -9.378906 8.078125 -9.390625 C 7.097656 -9.390625 6.285156 -8.992188 5.640625 -8.203125 C 4.992188 -7.421875 4.671875 -6.421875 4.671875 -5.203125 L 4.671875 0 L 2.171875 0 L 2.171875 -11.109375 L 4.421875 -11.109375 L 4.59375 -8.96875 C 4.988281 -9.769531 5.578125 -10.398438 6.359375 -10.859375 C 7.148438 -11.316406 8.054688 -11.546875 9.078125 -11.546875 Z M 9.078125 -11.546875 "/></g></g></g><g fill="#a91b60" fill-opacity="1"><g transform="translate(290.360651, 32.082868)"><g/></g></g><g fill="#a91b60" fill-opacity="1"><g transform="translate(298.841303, 32.082868)"><g><path d="M 5.765625 -16 L 5.765625 -11.09375 L 8.8125 -11.09375 L 8.8125 -9.09375 L 5.765625 -9.09375 L 5.765625 0 L 3.25 0 L 3.25 -9.09375 L 1.203125 -9.09375 L 1.203125 -11.09375 L 3.25 -11.09375 L 3.25 -16 Z M 5.765625 -16 "/></g></g></g><g fill="#a91b60" fill-opacity="1"><g transform="translate(308.502803, 32.082868)"><g><path d="M 9.078125 -11.546875 C 10.109375 -11.546875 10.960938 -11.234375 11.640625 -10.609375 C 12.328125 -9.992188 12.679688 -9.195312 12.703125 -8.21875 L 12.703125 0 L 10.171875 0 L 10.171875 -7.359375 C 10.140625 -7.984375 9.953125 -8.472656 9.609375 -8.828125 C 9.265625 -9.191406 8.753906 -9.378906 8.078125 -9.390625 C 7.429688 -9.390625 6.847656 -9.210938 6.328125 -8.859375 C 5.816406 -8.503906 5.410156 -8.003906 5.109375 -7.359375 C 4.816406 -6.710938 4.671875 -5.992188 4.671875 -5.203125 L 4.671875 0 L 2.171875 0 L 2.171875 -20.796875 L 4.609375 -20.796875 L 4.609375 -9.09375 C 5.023438 -9.832031 5.617188 -10.425781 6.390625 -10.875 C 7.171875 -11.320312 8.066406 -11.546875 9.078125 -11.546875 Z M 9.078125 -11.546875 "/></g></g></g><g fill="#a91b60" fill-opacity="1"><g transform="translate(323.343933, 32.082868)"><g><path d="M 1.203125 -5.65625 C 1.203125 -6.75 1.46875 -7.75 2 -8.65625 C 2.53125 -9.5625 3.265625 -10.269531 4.203125 -10.78125 C 5.140625 -11.300781 6.195312 -11.5625 7.375 -11.5625 C 8.5625 -11.5625 9.613281 -11.300781 10.53125 -10.78125 C 11.457031 -10.269531 12.175781 -9.566406 12.6875 -8.671875 C 13.195312 -7.773438 13.453125 -6.769531 13.453125 -5.65625 C 13.453125 -4.550781 13.195312 -3.546875 12.6875 -2.640625 C 12.175781 -1.734375 11.453125 -1.019531 10.515625 -0.5 C 9.585938 0.0078125 8.523438 0.265625 7.328125 0.265625 C 6.160156 0.265625 5.113281 0.0195312 4.1875 -0.46875 C 3.257812 -0.957031 2.53125 -1.648438 2 -2.546875 C 1.46875 -3.441406 1.203125 -4.476562 1.203125 -5.65625 Z M 3.734375 -5.640625 C 3.734375 -4.941406 3.890625 -4.296875 4.203125 -3.703125 C 4.515625 -3.109375 4.941406 -2.640625 5.484375 -2.296875 C 6.035156 -1.960938 6.640625 -1.796875 7.296875 -1.796875 C 8.335938 -1.796875 9.195312 -2.160156 9.875 -2.890625 C 10.5625 -3.628906 10.90625 -4.546875 10.90625 -5.640625 C 10.90625 -6.734375 10.5625 -7.648438 9.875 -8.390625 C 9.195312 -9.128906 8.335938 -9.5 7.296875 -9.5 C 6.617188 -9.5 6.007812 -9.320312 5.46875 -8.96875 C 4.9375 -8.625 4.515625 -8.15625 4.203125 -7.5625 C 3.890625 -6.976562 3.734375 -6.335938 3.734375 -5.640625 Z M 9.484375 -13.390625 L 7.28125 -15.703125 L 5.1875 -13.390625 L 2.859375 -13.390625 L 7.28125 -17.984375 L 7.3125 -17.984375 L 11.8125 -13.390625 Z M 9.484375 -13.390625 "/></g></g></g><g fill="#a91b60" fill-opacity="1"><g transform="translate(337.970374, 32.082868)"><g><path d="M 9.078125 -11.546875 C 10.109375 -11.546875 10.960938 -11.234375 11.640625 -10.609375 C 12.328125 -9.992188 12.679688 -9.195312 12.703125 -8.21875 L 12.703125 0 L 10.171875 0 L 10.171875 -7.359375 C 10.140625 -7.984375 9.953125 -8.472656 9.609375 -8.828125 C 9.265625 -9.191406 8.753906 -9.378906 8.078125 -9.390625 C 7.097656 -9.390625 6.285156 -8.992188 5.640625 -8.203125 C 4.992188 -7.421875 4.671875 -6.421875 4.671875 -5.203125 L 4.671875 0 L 2.171875 0 L 2.171875 -11.109375 L 4.421875 -11.109375 L 4.59375 -8.96875 C 4.988281 -9.769531 5.578125 -10.398438 6.359375 -10.859375 C 7.148438 -11.316406 8.054688 -11.546875 9.078125 -11.546875 Z M 9.078125 -11.546875 "/></g></g></g><g fill="#a91b60" fill-opacity="1"><g transform="translate(352.81152, 32.082868)"><g><path d="M 13.90625 -11.109375 L 13.90625 0.078125 C 13.90625 1.097656 13.644531 2.019531 13.125 2.84375 C 12.601562 3.664062 11.863281 4.316406 10.90625 4.796875 C 9.945312 5.285156 8.828125 5.53125 7.546875 5.53125 C 6.421875 5.53125 5.445312 5.34375 4.625 4.96875 C 3.8125 4.59375 2.992188 4.035156 2.171875 3.296875 L 3.65625 1.578125 C 4.257812 2.148438 4.863281 2.582031 5.46875 2.875 C 6.082031 3.175781 6.753906 3.328125 7.484375 3.328125 C 8.722656 3.328125 9.675781 3.03125 10.34375 2.4375 C 11.019531 1.851562 11.363281 1.054688 11.375 0.046875 L 11.40625 -2.046875 C 11 -1.347656 10.394531 -0.785156 9.59375 -0.359375 C 8.800781 0.0546875 7.882812 0.265625 6.84375 0.265625 C 5.820312 0.265625 4.878906 0.0078125 4.015625 -0.5 C 3.160156 -1.019531 2.476562 -1.726562 1.96875 -2.625 C 1.457031 -3.519531 1.203125 -4.515625 1.203125 -5.609375 C 1.203125 -6.734375 1.46875 -7.75 2 -8.65625 C 2.53125 -9.5625 3.238281 -10.269531 4.125 -10.78125 C 5.019531 -11.300781 5.976562 -11.5625 7 -11.5625 C 7.945312 -11.5625 8.820312 -11.375 9.625 -11 C 10.4375 -10.625 11.039062 -10.144531 11.4375 -9.5625 L 11.625 -11.109375 Z M 7.5625 -1.796875 C 8.519531 -1.796875 9.347656 -2.054688 10.046875 -2.578125 C 10.742188 -3.097656 11.195312 -3.773438 11.40625 -4.609375 L 11.40625 -6.8125 C 11.15625 -7.625 10.679688 -8.273438 9.984375 -8.765625 C 9.285156 -9.253906 8.476562 -9.5 7.5625 -9.5 C 6.476562 -9.5 5.566406 -9.140625 4.828125 -8.421875 C 4.097656 -7.710938 3.734375 -6.800781 3.734375 -5.6875 C 3.734375 -4.96875 3.898438 -4.3125 4.234375 -3.71875 C 4.578125 -3.132812 5.039062 -2.664062 5.625 -2.3125 C 6.21875 -1.96875 6.863281 -1.796875 7.5625 -1.796875 Z M 7.5625 -1.796875 "/></g></g></g></svg>