<svg xmlns="http://www.w3.org/2000/svg" xmlns:xlink="http://www.w3.org/1999/xlink" width="448" zoomAndPan="magnify" viewBox="0 0 336 50.249999" height="67" preserveAspectRatio="xMidYMid meet" version="1.0"><defs><g/><clipPath id="30e59eabdc"><path d="M 2.46875 0 L 320.226562 0 L 320.226562 49.511719 L 2.46875 49.511719 Z M 2.46875 0 " clip-rule="nonzero"/></clipPath></defs><path fill="#fdf7f7" d="M 295.40625 48.238281 L 27.097656 48.238281 C 14.046875 48.238281 3.46875 37.660156 3.46875 24.609375 C 3.46875 11.5625 14.046875 0.984375 27.097656 0.984375 L 295.40625 0.984375 C 308.453125 0.984375 319.03125 11.5625 319.03125 24.609375 C 319.03125 37.660156 308.453125 48.238281 295.40625 48.238281 Z M 295.40625 48.238281 " fill-opacity="1" fill-rule="nonzero"/><g clip-path="url(#30e59eabdc)"><path fill="#182739" d="M 295.40625 49.242188 L 27.097656 49.242188 C 13.515625 49.242188 2.464844 38.191406 2.464844 24.613281 C 2.464844 11.03125 13.515625 -0.0195312 27.097656 -0.0195312 L 295.40625 -0.0195312 C 308.988281 -0.0195312 320.035156 11.03125 320.035156 24.613281 C 320.035156 38.191406 308.988281 49.242188 295.40625 49.242188 Z M 27.097656 1.988281 C 14.621094 1.988281 4.472656 12.136719 4.472656 24.609375 C 4.472656 37.085938 14.621094 47.230469 27.097656 47.230469 L 295.40625 47.230469 C 307.878906 47.230469 318.027344 37.085938 318.027344 24.609375 C 318.027344 12.136719 307.878906 1.988281 295.40625 1.988281 Z M 27.097656 1.988281 " fill-opacity="1" fill-rule="nonzero"/></g><path fill="#182739" d="M 22.027344 36.855469 C 21.769531 36.855469 21.511719 36.757812 21.316406 36.558594 C 20.921875 36.167969 20.921875 35.53125 21.316406 35.140625 L 31.230469 25.226562 C 31.625 24.835938 32.257812 24.835938 32.652344 25.226562 C 33.042969 25.621094 33.042969 26.253906 32.652344 26.648438 L 22.738281 36.558594 C 22.539062 36.757812 22.285156 36.855469 22.027344 36.855469 Z M 22.027344 36.855469 " fill-opacity="1" fill-rule="nonzero"/><path fill="#a91b60" d="M 44.503906 20.621094 C 44.503906 21.097656 44.457031 21.570312 44.367188 22.035156 C 44.273438 22.503906 44.136719 22.957031 43.953125 23.394531 C 43.769531 23.835938 43.546875 24.253906 43.28125 24.648438 C 43.019531 25.042969 42.71875 25.410156 42.382812 25.746094 C 42.046875 26.082031 41.679688 26.382812 41.28125 26.648438 C 40.886719 26.914062 40.46875 27.136719 40.03125 27.316406 C 39.589844 27.5 39.136719 27.636719 38.667969 27.730469 C 38.203125 27.824219 37.730469 27.871094 37.253906 27.871094 C 36.78125 27.871094 36.308594 27.824219 35.839844 27.730469 C 35.375 27.636719 34.921875 27.5 34.480469 27.316406 C 34.042969 27.136719 33.625 26.914062 33.226562 26.648438 C 32.832031 26.382812 32.464844 26.082031 32.128906 25.746094 C 31.792969 25.410156 31.492188 25.042969 31.226562 24.648438 C 30.964844 24.253906 30.742188 23.835938 30.558594 23.394531 C 30.375 22.957031 30.238281 22.503906 30.144531 22.035156 C 30.054688 21.570312 30.007812 21.097656 30.007812 20.621094 C 30.007812 20.144531 30.054688 19.671875 30.144531 19.207031 C 30.238281 18.738281 30.375 18.285156 30.558594 17.847656 C 30.742188 17.40625 30.964844 16.988281 31.226562 16.59375 C 31.492188 16.199219 31.792969 15.832031 32.128906 15.496094 C 32.464844 15.160156 32.832031 14.859375 33.226562 14.59375 C 33.625 14.328125 34.042969 14.105469 34.480469 13.921875 C 34.921875 13.742188 35.375 13.605469 35.839844 13.511719 C 36.308594 13.417969 36.78125 13.371094 37.253906 13.371094 C 37.730469 13.371094 38.203125 13.417969 38.667969 13.511719 C 39.136719 13.605469 39.589844 13.742188 40.03125 13.921875 C 40.46875 14.105469 40.886719 14.328125 41.28125 14.59375 C 41.679688 14.859375 42.046875 15.160156 42.382812 15.496094 C 42.71875 15.832031 43.019531 16.199219 43.28125 16.59375 C 43.546875 16.988281 43.769531 17.40625 43.953125 17.847656 C 44.136719 18.285156 44.273438 18.738281 44.367188 19.207031 C 44.457031 19.671875 44.503906 20.144531 44.503906 20.621094 Z M 44.503906 20.621094 " fill-opacity="1" fill-rule="nonzero"/><path fill="#182739" d="M 37.253906 28.875 C 35.050781 28.875 32.980469 28.015625 31.417969 26.457031 C 29.859375 24.898438 29.003906 22.828125 29.003906 20.621094 C 29.003906 18.414062 29.859375 16.34375 31.417969 14.785156 C 34.636719 11.570312 39.871094 11.570312 43.089844 14.785156 C 44.648438 16.34375 45.507812 18.414062 45.507812 20.621094 C 45.507812 22.828125 44.648438 24.898438 43.089844 26.457031 C 41.53125 28.015625 39.460938 28.875 37.253906 28.875 Z M 37.257812 14.378906 C 35.65625 14.378906 34.058594 14.988281 32.839844 16.207031 C 31.660156 17.386719 31.011719 18.953125 31.011719 20.621094 C 31.011719 22.289062 31.660156 23.855469 32.839844 25.035156 C 34.019531 26.214844 35.589844 26.863281 37.253906 26.863281 C 38.921875 26.863281 40.492188 26.214844 41.671875 25.035156 C 42.851562 23.855469 43.5 22.289062 43.5 20.621094 C 43.5 18.953125 42.851562 17.382812 41.671875 16.207031 C 40.453125 14.988281 38.855469 14.378906 37.257812 14.378906 Z M 37.257812 14.378906 " fill-opacity="1" fill-rule="nonzero"/><g fill="#182739" fill-opacity="1"><g transform="translate(37.988057, 32.957279)"><g/></g></g><g fill="#182739" fill-opacity="1"><g transform="translate(45.08642, 32.957279)"><g/></g></g><g fill="#182739" fill-opacity="1"><g transform="translate(52.193214, 32.957279)"><g><path d="M 0.683594 -13.683594 C 0.824219 -13.601562 0.964844 -13.523438 1.101562 -13.441406 C 1.40625 -13.28125 1.683594 -13 1.847656 -12.699219 L 6.640625 -0.5625 C 6.78125 -0.21875 7.121094 0 7.484375 0 L 9.972656 0 C 10.332031 0 10.652344 -0.21875 10.792969 -0.5625 L 13.644531 -7.746094 L 16.292969 -0.582031 C 16.410156 -0.21875 16.753906 0 17.113281 0 L 19.601562 0 C 19.964844 0 20.285156 -0.21875 20.425781 -0.5625 L 25.21875 -12.601562 C 25.339844 -12.921875 25.621094 -13.203125 25.980469 -13.382812 C 26.183594 -13.484375 26.34375 -13.582031 26.503906 -13.683594 C 26.84375 -13.925781 26.664062 -14.546875 26.242188 -14.546875 L 23.535156 -14.546875 C 23.132812 -14.546875 22.953125 -13.925781 23.292969 -13.683594 C 23.355469 -13.644531 23.414062 -13.601562 23.472656 -13.5625 C 23.773438 -13.382812 23.875 -12.980469 23.753906 -12.621094 L 20.304688 -3.75 L 17.375 -12.621094 C 17.316406 -12.921875 17.433594 -13.222656 17.714844 -13.441406 C 17.835938 -13.523438 17.9375 -13.621094 18.035156 -13.683594 C 18.378906 -13.925781 18.199219 -14.546875 17.796875 -14.546875 L 10.972656 -14.546875 C 10.554688 -14.546875 10.371094 -13.925781 10.714844 -13.683594 C 10.855469 -13.601562 10.996094 -13.523438 11.136719 -13.441406 C 11.457031 -13.261719 11.738281 -12.941406 11.855469 -12.621094 L 12.960938 -9.628906 L 10.652344 -3.691406 L 7.421875 -12.539062 C 7.324219 -12.859375 7.421875 -13.203125 7.722656 -13.460938 C 7.824219 -13.542969 7.90625 -13.621094 8.003906 -13.683594 C 8.347656 -13.925781 8.164062 -14.546875 7.746094 -14.546875 L 0.941406 -14.546875 C 0.523438 -14.546875 0.339844 -13.925781 0.683594 -13.683594 Z M 0.683594 -13.683594 "/></g></g></g><g fill="#182739" fill-opacity="1"><g transform="translate(79.443517, 32.957279)"><g><path d="M 0.703125 -7.261719 C 0.703125 -2.6875 3.449219 0.261719 8.566406 0.261719 C 13.683594 0.261719 16.472656 -2.6875 16.453125 -7.261719 C 16.453125 -11.835938 13.683594 -14.808594 8.566406 -14.808594 C 3.449219 -14.808594 0.703125 -11.835938 0.703125 -7.261719 Z M 7.824219 -13.5625 C 9.953125 -13.824219 10.953125 -11.316406 11.414062 -7.605469 C 11.855469 -3.914062 11.496094 -1.242188 9.347656 -0.984375 C 7.222656 -0.722656 6.179688 -3.210938 5.738281 -6.921875 C 5.277344 -10.632812 5.699219 -13.300781 7.824219 -13.5625 Z M 7.824219 -13.5625 "/></g></g></g><g fill="#182739" fill-opacity="1"><g transform="translate(96.467463, 32.957279)"><g><path d="M 0.582031 -13.621094 C 0.683594 -13.5625 0.824219 -13.484375 0.984375 -13.402344 C 1.304688 -13.222656 1.523438 -12.878906 1.523438 -12.519531 L 1.523438 -1.886719 C 1.484375 -1.566406 1.285156 -1.242188 0.984375 -1.101562 C 0.84375 -1.023438 0.683594 -0.941406 0.582031 -0.863281 C 0.242188 -0.621094 0.421875 0 0.84375 0 L 7.042969 0 C 7.464844 0 7.644531 -0.621094 7.304688 -0.863281 C 7.183594 -0.941406 7.082031 -1.023438 6.960938 -1.082031 C 6.640625 -1.285156 6.441406 -1.625 6.441406 -1.964844 L 6.441406 -5.957031 L 6.863281 -5.957031 C 7.863281 -5.9375 8.648438 -5.65625 9.589844 -3.53125 L 10.230469 -2.027344 L 10.210938 -2.027344 L 10.273438 -1.90625 C 10.414062 -1.566406 10.3125 -1.242188 9.972656 -1.082031 C 9.851562 -1.003906 9.710938 -0.941406 9.609375 -0.863281 C 9.269531 -0.621094 9.449219 0 9.871094 0 L 16.753906 0 C 17.175781 0 17.355469 -0.621094 17.011719 -0.863281 C 16.914062 -0.921875 16.832031 -0.964844 16.734375 -1.003906 C 16.390625 -1.125 16.070312 -1.40625 15.910156 -1.746094 L 14.765625 -4.152344 C 14.164062 -5.636719 13.320312 -6.378906 12.539062 -6.519531 C 14.925781 -7.183594 16.3125 -8.386719 16.3125 -10.191406 C 16.3125 -13.082031 12.800781 -14.527344 7.261719 -14.503906 L 0.824219 -14.484375 C 0.421875 -14.484375 0.242188 -13.863281 0.582031 -13.621094 Z M 6.441406 -12.679688 C 6.441406 -13.042969 6.679688 -13.300781 7.042969 -13.300781 C 10.050781 -13.28125 11.394531 -12.296875 11.394531 -10.171875 C 11.394531 -8.066406 10.011719 -7.164062 7.042969 -7.164062 C 6.679688 -7.164062 6.441406 -7.402344 6.441406 -7.765625 Z M 6.441406 -12.679688 "/></g></g></g><g fill="#182739" fill-opacity="1"><g transform="translate(114.333587, 32.957279)"><g><path d="M 0.824219 0 L 7.042969 0 C 7.464844 0 7.644531 -0.621094 7.304688 -0.863281 C 7.183594 -0.941406 7.0625 -1.023438 6.960938 -1.082031 C 6.640625 -1.285156 6.441406 -1.625 6.441406 -1.964844 L 6.441406 -6.460938 L 7.5625 -7.402344 L 10.230469 -1.867188 C 10.394531 -1.542969 10.273438 -1.242188 9.953125 -1.0625 C 9.832031 -1.003906 9.710938 -0.921875 9.609375 -0.863281 C 9.269531 -0.621094 9.449219 0 9.871094 0 L 16.832031 0 C 17.253906 0 17.433594 -0.621094 17.09375 -0.863281 C 16.992188 -0.921875 16.894531 -0.984375 16.792969 -1.023438 C 16.472656 -1.183594 16.152344 -1.503906 15.992188 -1.804688 L 11.316406 -10.554688 L 13.984375 -12.800781 C 14.285156 -13.042969 14.6875 -13.28125 14.988281 -13.421875 C 15.1875 -13.503906 15.386719 -13.582031 15.550781 -13.703125 C 15.890625 -13.925781 15.6875 -14.546875 15.289062 -14.546875 L 12.238281 -14.546875 C 11.835938 -14.546875 11.65625 -13.925781 11.976562 -13.703125 C 12.058594 -13.644531 12.097656 -13.601562 12.160156 -13.5625 C 12.417969 -13.300781 12.417969 -13.042969 12.160156 -12.820312 L 6.441406 -8.164062 L 6.441406 -12.578125 C 6.441406 -12.921875 6.640625 -13.261719 6.960938 -13.460938 C 7.0625 -13.523438 7.183594 -13.601562 7.304688 -13.683594 C 7.644531 -13.925781 7.464844 -14.546875 7.042969 -14.546875 L 0.824219 -14.546875 C 0.421875 -14.546875 0.242188 -13.925781 0.582031 -13.683594 C 0.683594 -13.601562 0.824219 -13.523438 0.984375 -13.441406 C 1.304688 -13.28125 1.523438 -12.941406 1.523438 -12.578125 L 1.523438 -1.964844 C 1.523438 -1.605469 1.304688 -1.265625 0.984375 -1.101562 C 0.824219 -1.023438 0.683594 -0.941406 0.582031 -0.863281 C 0.242188 -0.621094 0.421875 0 0.824219 0 Z M 0.824219 0 "/></g></g></g><g fill="#182739" fill-opacity="1"><g transform="translate(131.678364, 32.957279)"><g/></g></g><g fill="#182739" fill-opacity="1"><g transform="translate(138.776728, 32.957279)"><g><path d="M 0.582031 -13.644531 C 0.683594 -13.5625 0.824219 -13.484375 0.984375 -13.402344 C 1.304688 -13.242188 1.523438 -12.902344 1.523438 -12.539062 L 1.523438 -1.964844 C 1.523438 -1.605469 1.304688 -1.265625 0.984375 -1.101562 C 0.824219 -1.023438 0.683594 -0.941406 0.582031 -0.863281 C 0.242188 -0.621094 0.421875 0 0.824219 0 L 12.761719 0 C 13.121094 0 13.421875 -0.242188 13.503906 -0.582031 C 13.644531 -1.125 13.84375 -1.945312 13.945312 -2.667969 C 14.042969 -3.210938 13.742188 -3.511719 13.363281 -3.511719 C 13.082031 -3.511719 12.78125 -3.351562 12.558594 -3.007812 C 12.019531 -2.1875 11.71875 -1.203125 9.628906 -1.203125 L 7.042969 -1.203125 C 6.679688 -1.203125 6.441406 -1.445312 6.441406 -1.804688 L 6.441406 -6.941406 L 7.886719 -6.941406 C 10.492188 -6.941406 9.609375 -5.335938 10.511719 -5.257812 C 11.554688 -5.15625 11.675781 -9.929688 10.613281 -9.890625 C 9.652344 -9.851562 10.492188 -8.125 7.886719 -8.125 L 6.441406 -8.125 L 6.441406 -12.699219 C 6.441406 -13.0625 6.679688 -13.300781 7.042969 -13.300781 L 9.230469 -13.300781 C 11.316406 -13.300781 11.617188 -12.296875 12.160156 -11.476562 C 12.378906 -11.15625 12.679688 -10.996094 12.941406 -10.996094 C 13.320312 -10.996094 13.621094 -11.277344 13.542969 -11.835938 C 13.421875 -12.558594 13.242188 -13.363281 13.101562 -13.902344 C 13.019531 -14.265625 12.699219 -14.503906 12.339844 -14.503906 L 0.824219 -14.503906 C 0.421875 -14.503906 0.242188 -13.882812 0.582031 -13.644531 Z M 0.582031 -13.644531 "/></g></g></g><g fill="#182739" fill-opacity="1"><g transform="translate(153.655149, 32.957279)"><g><path d="M 1.242188 -0.0195312 L 4.273438 -0.0195312 C 4.675781 -0.0195312 4.855469 -0.640625 4.515625 -0.882812 C 4.453125 -0.921875 4.414062 -0.964844 4.355469 -1.003906 C 4.074219 -1.265625 4.03125 -1.585938 4.253906 -1.847656 L 7.304688 -5.65625 L 9.789062 -1.867188 C 9.972656 -1.585938 9.910156 -1.265625 9.652344 -1.003906 C 9.589844 -0.941406 9.550781 -0.902344 9.488281 -0.863281 C 9.148438 -0.621094 9.328125 0 9.730469 0 L 16.875 0 C 17.292969 0 17.476562 -0.621094 17.132812 -0.863281 C 16.972656 -0.964844 16.753906 -1.0625 16.53125 -1.144531 C 16.210938 -1.265625 15.871094 -1.566406 15.667969 -1.867188 L 11.675781 -7.964844 L 15.488281 -12.71875 C 15.730469 -13 16.089844 -13.28125 16.410156 -13.421875 C 16.613281 -13.503906 16.8125 -13.582031 16.972656 -13.703125 C 17.316406 -13.925781 17.113281 -14.546875 16.710938 -14.546875 L 13.664062 -14.546875 C 13.261719 -14.546875 13.082031 -13.925781 13.402344 -13.703125 C 13.484375 -13.644531 13.523438 -13.601562 13.582031 -13.5625 C 13.84375 -13.300781 13.882812 -13 13.683594 -12.71875 L 10.875 -9.167969 L 8.566406 -12.679688 C 8.386719 -12.960938 8.445312 -13.28125 8.707031 -13.5625 C 8.769531 -13.601562 8.808594 -13.644531 8.867188 -13.683594 C 9.210938 -13.925781 9.027344 -14.546875 8.628906 -14.546875 L 1.484375 -14.546875 C 1.0625 -14.546875 0.882812 -13.925781 1.222656 -13.683594 C 1.382812 -13.582031 1.605469 -13.484375 1.824219 -13.402344 C 2.148438 -13.28125 2.488281 -12.980469 2.6875 -12.679688 L 6.519531 -6.863281 L 2.449219 -1.847656 C 2.226562 -1.566406 1.867188 -1.285156 1.542969 -1.164062 C 1.324219 -1.0625 1.125 -0.984375 0.984375 -0.882812 C 0.640625 -0.640625 0.824219 -0.0195312 1.242188 -0.0195312 Z M 1.242188 -0.0195312 "/></g></g></g><g fill="#182739" fill-opacity="1"><g transform="translate(171.842088, 32.957279)"><g><path d="M 0.582031 -13.621094 C 0.683594 -13.5625 0.824219 -13.484375 0.984375 -13.402344 C 1.304688 -13.222656 1.523438 -12.878906 1.523438 -12.519531 L 1.523438 -1.886719 C 1.484375 -1.566406 1.285156 -1.242188 0.984375 -1.101562 C 0.84375 -1.023438 0.683594 -0.941406 0.582031 -0.863281 C 0.242188 -0.621094 0.421875 0 0.84375 0 L 7.042969 0 C 7.464844 0 7.644531 -0.621094 7.304688 -0.863281 C 7.183594 -0.941406 7.082031 -1.023438 6.960938 -1.082031 C 6.640625 -1.285156 6.441406 -1.625 6.441406 -1.964844 L 6.441406 -4.292969 L 7.261719 -4.292969 C 12.839844 -4.292969 16.3125 -5.980469 16.3125 -9.390625 C 16.3125 -12.800781 12.800781 -14.527344 7.261719 -14.503906 L 0.824219 -14.484375 C 0.421875 -14.484375 0.242188 -13.863281 0.582031 -13.621094 Z M 6.441406 -12.320312 L 6.441406 -12.679688 C 6.441406 -13.042969 6.679688 -13.300781 7.042969 -13.300781 C 10.050781 -13.28125 11.394531 -12.039062 11.394531 -9.371094 C 11.394531 -6.722656 10.011719 -5.496094 7.042969 -5.496094 C 6.679688 -5.496094 6.441406 -5.738281 6.441406 -6.097656 Z M 6.441406 -12.320312 "/></g></g></g><g fill="#182739" fill-opacity="1"><g transform="translate(188.825934, 32.957279)"><g><path d="M 0.582031 -13.644531 C 0.683594 -13.5625 0.824219 -13.484375 0.984375 -13.402344 C 1.304688 -13.242188 1.523438 -12.902344 1.523438 -12.539062 L 1.523438 -1.964844 C 1.523438 -1.605469 1.304688 -1.265625 0.984375 -1.101562 C 0.824219 -1.023438 0.683594 -0.941406 0.582031 -0.863281 C 0.242188 -0.621094 0.421875 0 0.824219 0 L 12.761719 0 C 13.121094 0 13.421875 -0.242188 13.503906 -0.582031 C 13.644531 -1.125 13.84375 -1.945312 13.945312 -2.667969 C 14.042969 -3.210938 13.742188 -3.511719 13.363281 -3.511719 C 13.082031 -3.511719 12.78125 -3.351562 12.558594 -3.007812 C 12.019531 -2.1875 11.71875 -1.203125 9.628906 -1.203125 L 7.042969 -1.203125 C 6.679688 -1.203125 6.441406 -1.445312 6.441406 -1.804688 L 6.441406 -6.941406 L 7.886719 -6.941406 C 10.492188 -6.941406 9.609375 -5.335938 10.511719 -5.257812 C 11.554688 -5.15625 11.675781 -9.929688 10.613281 -9.890625 C 9.652344 -9.851562 10.492188 -8.125 7.886719 -8.125 L 6.441406 -8.125 L 6.441406 -12.699219 C 6.441406 -13.0625 6.679688 -13.300781 7.042969 -13.300781 L 9.230469 -13.300781 C 11.316406 -13.300781 11.617188 -12.296875 12.160156 -11.476562 C 12.378906 -11.15625 12.679688 -10.996094 12.941406 -10.996094 C 13.320312 -10.996094 13.621094 -11.277344 13.542969 -11.835938 C 13.421875 -12.558594 13.242188 -13.363281 13.101562 -13.902344 C 13.019531 -14.265625 12.699219 -14.503906 12.339844 -14.503906 L 0.824219 -14.503906 C 0.421875 -14.503906 0.242188 -13.882812 0.582031 -13.644531 Z M 0.582031 -13.644531 "/></g></g></g><g fill="#182739" fill-opacity="1"><g transform="translate(203.704362, 32.957279)"><g><path d="M 0.582031 -13.621094 C 0.683594 -13.5625 0.824219 -13.484375 0.984375 -13.402344 C 1.304688 -13.222656 1.523438 -12.878906 1.523438 -12.519531 L 1.523438 -1.886719 C 1.484375 -1.566406 1.285156 -1.242188 0.984375 -1.101562 C 0.84375 -1.023438 0.683594 -0.941406 0.582031 -0.863281 C 0.242188 -0.621094 0.421875 0 0.84375 0 L 7.042969 0 C 7.464844 0 7.644531 -0.621094 7.304688 -0.863281 C 7.183594 -0.941406 7.082031 -1.023438 6.960938 -1.082031 C 6.640625 -1.285156 6.441406 -1.625 6.441406 -1.964844 L 6.441406 -5.957031 L 6.863281 -5.957031 C 7.863281 -5.9375 8.648438 -5.65625 9.589844 -3.53125 L 10.230469 -2.027344 L 10.210938 -2.027344 L 10.273438 -1.90625 C 10.414062 -1.566406 10.3125 -1.242188 9.972656 -1.082031 C 9.851562 -1.003906 9.710938 -0.941406 9.609375 -0.863281 C 9.269531 -0.621094 9.449219 0 9.871094 0 L 16.753906 0 C 17.175781 0 17.355469 -0.621094 17.011719 -0.863281 C 16.914062 -0.921875 16.832031 -0.964844 16.734375 -1.003906 C 16.390625 -1.125 16.070312 -1.40625 15.910156 -1.746094 L 14.765625 -4.152344 C 14.164062 -5.636719 13.320312 -6.378906 12.539062 -6.519531 C 14.925781 -7.183594 16.3125 -8.386719 16.3125 -10.191406 C 16.3125 -13.082031 12.800781 -14.527344 7.261719 -14.503906 L 0.824219 -14.484375 C 0.421875 -14.484375 0.242188 -13.863281 0.582031 -13.621094 Z M 6.441406 -12.679688 C 6.441406 -13.042969 6.679688 -13.300781 7.042969 -13.300781 C 10.050781 -13.28125 11.394531 -12.296875 11.394531 -10.171875 C 11.394531 -8.066406 10.011719 -7.164062 7.042969 -7.164062 C 6.679688 -7.164062 6.441406 -7.402344 6.441406 -7.765625 Z M 6.441406 -12.679688 "/></g></g></g><g fill="#182739" fill-opacity="1"><g transform="translate(221.570478, 32.957279)"><g><path d="M 1.625 0 L 7.84375 0 C 8.265625 0 8.445312 -0.621094 8.105469 -0.863281 C 7.984375 -0.941406 7.863281 -1.023438 7.765625 -1.082031 C 7.445312 -1.285156 7.242188 -1.625 7.242188 -1.964844 L 7.242188 -12.578125 C 7.242188 -12.921875 7.445312 -13.261719 7.765625 -13.460938 C 7.863281 -13.523438 7.984375 -13.601562 8.105469 -13.683594 C 8.445312 -13.925781 8.265625 -14.546875 7.84375 -14.546875 L 1.625 -14.546875 C 1.222656 -14.546875 1.042969 -13.925781 1.382812 -13.683594 C 1.484375 -13.601562 1.625 -13.523438 1.785156 -13.441406 C 2.105469 -13.28125 2.328125 -12.941406 2.328125 -12.578125 L 2.328125 -1.964844 C 2.328125 -1.605469 2.105469 -1.265625 1.785156 -1.101562 C 1.625 -1.023438 1.484375 -0.941406 1.382812 -0.863281 C 1.042969 -0.621094 1.222656 0 1.625 0 Z M 1.625 0 "/></g></g></g><g fill="#182739" fill-opacity="1"><g transform="translate(231.135205, 32.957279)"><g><path d="M 0.582031 -13.644531 C 0.683594 -13.5625 0.824219 -13.484375 0.984375 -13.402344 C 1.304688 -13.242188 1.523438 -12.902344 1.523438 -12.539062 L 1.523438 -1.964844 C 1.523438 -1.605469 1.304688 -1.265625 0.984375 -1.101562 C 0.824219 -1.023438 0.683594 -0.941406 0.582031 -0.863281 C 0.242188 -0.621094 0.421875 0 0.824219 0 L 12.761719 0 C 13.121094 0 13.421875 -0.242188 13.503906 -0.582031 C 13.644531 -1.125 13.84375 -1.945312 13.945312 -2.667969 C 14.042969 -3.210938 13.742188 -3.511719 13.363281 -3.511719 C 13.082031 -3.511719 12.78125 -3.351562 12.558594 -3.007812 C 12.019531 -2.1875 11.71875 -1.203125 9.628906 -1.203125 L 7.042969 -1.203125 C 6.679688 -1.203125 6.441406 -1.445312 6.441406 -1.804688 L 6.441406 -6.941406 L 7.886719 -6.941406 C 10.492188 -6.941406 9.609375 -5.335938 10.511719 -5.257812 C 11.554688 -5.15625 11.675781 -9.929688 10.613281 -9.890625 C 9.652344 -9.851562 10.492188 -8.125 7.886719 -8.125 L 6.441406 -8.125 L 6.441406 -12.699219 C 6.441406 -13.0625 6.679688 -13.300781 7.042969 -13.300781 L 9.230469 -13.300781 C 11.316406 -13.300781 11.617188 -12.296875 12.160156 -11.476562 C 12.378906 -11.15625 12.679688 -10.996094 12.941406 -10.996094 C 13.320312 -10.996094 13.621094 -11.277344 13.542969 -11.835938 C 13.421875 -12.558594 13.242188 -13.363281 13.101562 -13.902344 C 13.019531 -14.265625 12.699219 -14.503906 12.339844 -14.503906 L 0.824219 -14.503906 C 0.421875 -14.503906 0.242188 -13.882812 0.582031 -13.644531 Z M 0.582031 -13.644531 "/></g></g></g><g fill="#182739" fill-opacity="1"><g transform="translate(246.013633, 32.957279)"><g><path d="M 0.824219 0 L 3.53125 0 C 3.953125 0 4.132812 -0.621094 3.792969 -0.863281 C 3.671875 -0.941406 3.550781 -1.023438 3.449219 -1.082031 C 3.128906 -1.285156 2.929688 -1.625 2.929688 -1.964844 L 2.929688 -11.414062 L 10.511719 -0.5 C 10.714844 -0.199219 11.09375 0 11.457031 0 L 15.789062 0 C 16.390625 0 16.390625 -0.621094 16.050781 -0.863281 C 15.929688 -0.941406 15.828125 -1.023438 15.710938 -1.082031 C 15.386719 -1.285156 15.1875 -1.625 15.1875 -1.964844 L 15.1875 -12.578125 C 15.1875 -12.921875 15.386719 -13.261719 15.710938 -13.460938 C 15.828125 -13.523438 15.929688 -13.601562 16.050781 -13.683594 C 16.390625 -13.925781 16.210938 -14.546875 15.789062 -14.546875 L 13.082031 -14.546875 C 12.679688 -14.546875 12.5 -13.925781 12.839844 -13.683594 C 12.941406 -13.601562 13.082031 -13.523438 13.242188 -13.441406 C 13.5625 -13.28125 13.785156 -12.941406 13.785156 -12.578125 L 13.785156 -4.355469 L 6.980469 -14.0625 C 6.78125 -14.34375 6.398438 -14.546875 6.039062 -14.546875 L 0.761719 -14.546875 C 0.402344 -14.464844 0.261719 -13.902344 0.582031 -13.683594 C 0.683594 -13.601562 0.824219 -13.523438 0.984375 -13.441406 C 1.304688 -13.28125 1.523438 -12.941406 1.523438 -12.578125 L 1.523438 -1.964844 C 1.523438 -1.605469 1.304688 -1.265625 0.984375 -1.101562 C 0.824219 -1.023438 0.683594 -0.941406 0.582031 -0.863281 C 0.242188 -0.621094 0.421875 0 0.824219 0 Z M 0.824219 0 "/></g></g></g><g fill="#182739" fill-opacity="1"><g transform="translate(262.7769, 32.957279)"><g><path d="M 0.703125 -7.261719 C 0.863281 -2.890625 3.589844 0.261719 8.707031 0.261719 C 12.941406 0.261719 15.527344 -1.585938 15.949219 -5.136719 C 16.03125 -5.796875 15.910156 -6.421875 15.308594 -6.460938 C 14.625 -6.5 14.464844 -5.839844 14.386719 -5.277344 C 14.023438 -2.949219 12.4375 -1.542969 10.414062 -1.542969 C 7.261719 -1.542969 6.078125 -4.113281 5.738281 -6.921875 C 5.296875 -10.632812 5.699219 -13.300781 7.824219 -13.5625 C 9.289062 -13.742188 10.652344 -13.203125 10.472656 -10.734375 C 10.332031 -8.828125 11.71875 -7.945312 13.441406 -8.085938 C 15.527344 -8.246094 15.851562 -10.253906 15.386719 -11.457031 C 14.625 -13.523438 12.238281 -14.808594 8.585938 -14.808594 C 3.472656 -14.808594 0.5625 -11.835938 0.703125 -7.261719 Z M 0.703125 -7.261719 "/></g></g></g><g fill="#182739" fill-opacity="1"><g transform="translate(279.279494, 32.957279)"><g><path d="M 0.582031 -13.644531 C 0.683594 -13.5625 0.824219 -13.484375 0.984375 -13.402344 C 1.304688 -13.242188 1.523438 -12.902344 1.523438 -12.539062 L 1.523438 -1.964844 C 1.523438 -1.605469 1.304688 -1.265625 0.984375 -1.101562 C 0.824219 -1.023438 0.683594 -0.941406 0.582031 -0.863281 C 0.242188 -0.621094 0.421875 0 0.824219 0 L 12.761719 0 C 13.121094 0 13.421875 -0.242188 13.503906 -0.582031 C 13.644531 -1.125 13.84375 -1.945312 13.945312 -2.667969 C 14.042969 -3.210938 13.742188 -3.511719 13.363281 -3.511719 C 13.082031 -3.511719 12.78125 -3.351562 12.558594 -3.007812 C 12.019531 -2.1875 11.71875 -1.203125 9.628906 -1.203125 L 7.042969 -1.203125 C 6.679688 -1.203125 6.441406 -1.445312 6.441406 -1.804688 L 6.441406 -6.941406 L 7.886719 -6.941406 C 10.492188 -6.941406 9.609375 -5.335938 10.511719 -5.257812 C 11.554688 -5.15625 11.675781 -9.929688 10.613281 -9.890625 C 9.652344 -9.851562 10.492188 -8.125 7.886719 -8.125 L 6.441406 -8.125 L 6.441406 -12.699219 C 6.441406 -13.0625 6.679688 -13.300781 7.042969 -13.300781 L 9.230469 -13.300781 C 11.316406 -13.300781 11.617188 -12.296875 12.160156 -11.476562 C 12.378906 -11.15625 12.679688 -10.996094 12.941406 -10.996094 C 13.320312 -10.996094 13.621094 -11.277344 13.542969 -11.835938 C 13.421875 -12.558594 13.242188 -13.363281 13.101562 -13.902344 C 13.019531 -14.265625 12.699219 -14.503906 12.339844 -14.503906 L 0.824219 -14.503906 C 0.421875 -14.503906 0.242188 -13.882812 0.582031 -13.644531 Z M 0.582031 -13.644531 "/></g></g></g></svg>